<?xml version="1.0" standalone="no"?>
<!DOCTYPE svg PUBLIC "-//W3C//DTD SVG 1.1//EN" "http://www.w3.org/Graphics/SVG/1.1/DTD/svg11.dtd" >
<svg xmlns="http://www.w3.org/2000/svg">
<metadata></metadata>
<defs>
<font id="borgia_probold" horiz-adv-x="1097" >
<font-face units-per-em="2048" ascent="1479" descent="-569" />
<missing-glyph horiz-adv-x="512" />
<glyph unicode="&#xfb01;" horiz-adv-x="1236" d="M18 0v70h17q68 0 95.5 34t27.5 119v559h-140v41l140 74q5 170 82 297q75 127 210.5 206t276.5 79q61 0 127.5 -19.5t111 -49.5t44.5 -58q0 -22 -21 -49l-67 -84q-24 -27 -45 -27q-26 0 -66 37q-73 70 -121 98.5t-94 28.5q-50 0 -91.5 -31t-58.5 -82q-13 -42 -16.5 -83 t-3.5 -156v-107h217v-74l375 127h45v-706q0 -104 27 -135q14 -15 41 -27t51 -12h8v-70h-516v70h8q53 0 86 36q27 31 27 117v461q0 42 -0.5 57.5t-10.5 27.5t-22 12.5t-45 0.5h-291v-538q0 -103 25 -135q14 -15 43 -27t53 -12h28v-70h-557z" />
<glyph unicode="&#xfb02;" horiz-adv-x="1228" d="M18 0v70h25q68 0 95.5 34t27.5 119v559h-148v37l152 72q20 148 92 256q86 128 222 203t282 75q33 0 121 -8q14 -2 37 -2q74 0 92 53h49v-1224q0 -105 25 -133q15 -17 41 -29t49 -12h8v-70h-500v70h8q23 0 49.5 13t34.5 28q17 25 17 165v506h-363v-506q0 -51 1 -81 t7 -55.5t13.5 -37t24.5 -20t36 -10.5t53 -2h9v-70h-560zM434 897h363v315q-64 49 -98 64.5t-74 15.5q-55 0 -102 -31t-66 -81q-23 -68 -23 -215v-68z" />
<glyph unicode="&#xfb03;" horiz-adv-x="2021" d="M18 782v43l138 72q17 142 88 246q83 124 227 200t295 76q95 0 160.5 -21t124.5 -71q176 150 370 150q157 0 291 -97q51 -39 51 -61q0 -16 -18 -43l-74 -88q-22 -29 -43 -29q-19 0 -40.5 16.5t-80.5 75.5q-107 107 -202 107q-91 0 -136 -88q-21 -40 -27.5 -95t-6.5 -176 v-102h270v-76l397 129h41v-674q0 -150 23 -176q27 -30 100 -30h8v-70h-532v70h8q35 0 64 9t40 23q21 30 21 174v431q0 52 -9 63.5t-50 11.5h-381v-538q0 -104 24 -135q15 -15 43.5 -27t52.5 -12h43v-70h-600v70h21q38 0 59 1.5t40 9.5t26.5 19t13.5 37.5t7 55.5t1 83v506 h-442v-538q0 -103 25 -135q14 -15 43 -27t53 -12h26v-70h-542v70h8q36 0 64.5 11.5t37.5 29.5q17 28 17 165v506h-138zM424 897h442q0 64 13.5 136.5t35.5 123.5l-10 -2q-31 0 -66 17.5t-102 66.5q-62 45 -139 45q-47 0 -87.5 -25t-59.5 -65q-19 -36 -23 -69t-4 -134v-94z " />
<glyph unicode="&#xfb04;" horiz-adv-x="2015" d="M18 782v49l140 66q19 100 38 150.5t58 105.5q92 127 229.5 197.5t294.5 70.5q110 0 189 -35t116 -100q86 72 194.5 112t215.5 40q1 0 20.5 -2t65 -6.5t96.5 -8.5h17q83 0 100 56h51v-1201q0 -137 17 -165q20 -41 106 -41h8v-70h-532v70h8q35 0 64 9t40 23q21 30 21 174 v506h-440v-538q0 -104 24 -135q15 -15 43.5 -27t52.5 -12h41v-70h-598v70h21q38 0 59 1.5t40 9.5t26.5 19t13.5 37.5t7 55.5t1 83v506h-440v-538q0 -103 25 -135q15 -15 43.5 -27t52.5 -12h24v-70h-540v70h8q36 0 64.5 11.5t37.5 29.5q17 28 17 165v506h-140zM426 897h440 q19 179 99 268q-41 -6 -47 -6q-35 0 -66 13t-88 53q-89 63 -164 63q-50 0 -95.5 -30t-60.5 -74q-18 -48 -18 -176v-111zM1135 897h440v289q-134 125 -236 125q-60 0 -109.5 -35t-68.5 -92q-26 -83 -26 -203v-84z" />
<glyph horiz-adv-x="2048" />
<glyph horiz-adv-x="2048" />
<glyph unicode="&#xd;" horiz-adv-x="2048" />
<glyph unicode=" "  horiz-adv-x="512" />
<glyph unicode="&#x09;" horiz-adv-x="512" />
<glyph unicode="&#xa0;" horiz-adv-x="512" />
<glyph unicode="!" horiz-adv-x="686" d="M168 125q0 63 51 105t125 42q76 0 126 -41t50 -104q0 -64 -52 -107t-130 -43q-72 0 -121 42.5t-49 105.5zM176 1354q0 26 13 35.5t49 9.5h204q40 0 53 -8.5t13 -34.5q0 -21 -4 -45l-123 -817h-76l-125 823q-4 31 -4 37z" />
<glyph unicode="&#x22;" horiz-adv-x="710" d="M88 1270q0 57 29.5 88t83.5 31q50 0 81 -31t31 -80q0 -43 -20 -141l-60 -297h-65l-64 297q-16 78 -16 133zM395 1270q0 57 29.5 88t83.5 31q50 0 81.5 -31t31.5 -80q0 -38 -21 -141l-59 -297h-66l-63 297q-17 83 -17 133z" />
<glyph unicode="#" d="M72 449l16 112h193l38 270h-194l16 113h193l59 422h119l-59 -422h272l59 422h121l-59 -422h182l-16 -113h-183l-36 -270h182l-17 -112h-182l-63 -449h-119l61 449h-272l-61 -449h-119l61 449h-192zM399 561h273l39 270h-273z" />
<glyph unicode="$" d="M84 274q0 55 34 91t87 36q54 0 84.5 -35.5t52.5 -125.5q22 -94 56 -134.5t100 -52.5v531q-147 80 -185 108q-98 71 -145 150.5t-47 177.5q0 147 102.5 245t274.5 117v88h69v-86q98 -4 186 -41.5t141.5 -96.5t53.5 -122q0 -46 -33 -79t-79 -33q-70 0 -109 61 q-16 27 -35 92q-35 112 -125 142v-441q145 -76 174 -94q136 -83 196 -171.5t60 -207.5q0 -166 -121.5 -283.5t-308.5 -132.5v-182h-69v180q-169 7 -291.5 96t-122.5 203zM326 1133q0 -68 40 -121.5t132 -108.5v408q-72 -8 -122 -59.5t-50 -118.5zM567 51q89 12 147 79 t58 157q0 79 -48 139.5t-157 120.5v-496z" />
<glyph unicode="%" horiz-adv-x="1738" d="M61 985q0 167 102 284t245 117q145 0 243.5 -115.5t98.5 -285.5t-98 -284.5t-244 -114.5t-246.5 116t-100.5 283zM236 985q0 -185 77 -262q44 -41 93 -41q78 0 126 86t48 227q0 131 -47 212t-123 81q-79 0 -126.5 -82.5t-47.5 -220.5zM268 -61l979 1464h156l-979 -1464 h-156zM989 379q0 167 101.5 284t244.5 117q145 0 243.5 -115.5t98.5 -285.5t-98 -284.5t-244 -114.5t-246 115.5t-100 283.5zM1163 379q0 -184 78 -262q44 -41 92 -41q78 0 126 86t48 227q0 131 -47 212t-123 81q-79 0 -126.5 -82.5t-47.5 -220.5z" />
<glyph unicode="&#x26;" horiz-adv-x="1648" d="M125 344q0 125 86 217.5t270 167.5q-88 79 -126 146.5t-38 142.5q0 119 101 192.5t264 73.5q145 0 232 -63.5t87 -167.5q0 -157 -198 -254q77 -53 141.5 -121.5t161.5 -196.5q60 84 116 196t56 150q0 20 -22.5 28.5t-77.5 8.5h-29v82h434v-82h-35q-77 0 -112 -23 t-76 -102q-133 -250 -203 -342l62 -106q58 -101 98 -139.5t86 -38.5q65 0 125 57l41 -78q-57 -56 -143.5 -90.5t-168.5 -34.5q-47 0 -87 11.5t-66.5 26.5t-56 46t-46 53.5t-45.5 65.5q-90 -94 -210.5 -149.5t-237.5 -55.5q-163 0 -273 109t-110 270zM393 428 q0 -119 78.5 -210t181.5 -91q63 0 123 30t133 97q-101 183 -336 399l-22 21q-158 -98 -158 -246zM557 1081q0 -59 39 -110q18 -24 31.5 -37t74.5 -64l21 -16q44 35 69 87t25 106q0 69 -39.5 111t-103.5 42q-53 0 -85 -32.5t-32 -86.5z" />
<glyph unicode="'" horiz-adv-x="403" d="M88 1270q0 57 29.5 88t83.5 31q50 0 81 -31t31 -80q0 -43 -20 -141l-60 -297h-65l-64 297q-16 78 -16 133z" />
<glyph unicode="(" horiz-adv-x="778" d="M147 487q0 360 252 676q113 144 226 236h92q-159 -191 -230 -409t-71 -517q0 -290 70.5 -508t224.5 -399h-93q-177 160 -258 274q-101 138 -157 307.5t-56 339.5z" />
<glyph unicode=")" horiz-adv-x="778" d="M31 1399h92q124 -99 256 -273q223 -299 223 -639q0 -185 -64 -364.5t-182 -325.5q-80 -99 -227 -231h-92q154 180 225.5 399t71.5 512q0 295 -72.5 515.5t-230.5 406.5z" />
<glyph unicode="*" d="M55 1008l27 84l348 -31l76 338h82l76 -338l352 31l26 -82l-303 -176l138 -322l-70 -47l-264 233l-258 -233l-74 47l143 322z" />
<glyph unicode="+" d="M113 596v123h376v348h123v-348h375v-123h-375v-348h-123v348h-376z" />
<glyph unicode="," horiz-adv-x="686" d="M139 125q0 66 47.5 106.5t124.5 40.5q107 0 171.5 -69t64.5 -183q0 -146 -99 -244t-247 -98h-15l-18 95q106 8 174 58t68 122q0 15 -9 25t-24 10q-1 0 -33 -4t-41 -4q-74 0 -119 39.5t-45 105.5z" />
<glyph unicode="-" horiz-adv-x="915" d="M80 336v219h760v-219h-760z" />
<glyph unicode="." horiz-adv-x="686" d="M166 125q0 63 51 105t125 42q76 0 126 -41t50 -104q0 -64 -52 -107t-130 -43q-72 0 -121 42.5t-49 105.5z" />
<glyph unicode="/" horiz-adv-x="755" d="M12 -528l492 2017h192l-491 -2017h-193z" />
<glyph unicode="0" d="M94 688q0 156 39.5 301.5t108.5 245.5q54 77 137 121.5t172 44.5q206 0 330.5 -198.5t124.5 -528.5q0 -206 -57.5 -367t-161.5 -250.5t-236 -89.5q-131 0 -235.5 91.5t-163 256.5t-58.5 373zM375 807q0 -394 10 -537q9 -106 52.5 -163.5t115.5 -57.5q62 0 102.5 43 t55.5 127q16 85 16 367q0 418 -16 549q-11 82 -56.5 132t-111.5 50q-108 0 -146 -131q-22 -84 -22 -379z" />
<glyph unicode="1" d="M156 1075q124 58 239 144t197 182h125v-1227q0 -51 17.5 -73.5t56.5 -24.5l145 -4v-72h-700v72l139 4q69 3 69 88v960q-33 -26 -118.5 -64t-139.5 -52z" />
<glyph unicode="2" d="M70 0v78q95 98 237.5 258t200.5 233q143 186 143 367q0 131 -59 207t-162 76q-91 0 -161.5 -68.5t-92.5 -175.5h-84q26 191 147 308.5t291 117.5q166 0 275.5 -111t109.5 -278q0 -133 -62.5 -233.5t-250.5 -270.5q-193 -179 -274 -279h381q101 0 136 31t54 137h72 l-43 -397h-858z" />
<glyph unicode="3" d="M61 152q0 49 33.5 81.5t83.5 32.5q43 0 72.5 -20t66.5 -74q38 -58 73 -81t81 -23q86 0 139.5 83.5t53.5 217.5q0 140 -62 227.5t-162 87.5q-28 0 -69 -14l-37 63q106 76 166.5 165t60.5 167q0 72 -45 119t-113 47q-122 0 -208 -162l-64 29q46 141 151 222t240 81 q124 0 209.5 -70.5t85.5 -173.5q0 -89 -54 -161.5t-177 -147.5q63 -2 102 -11.5t76 -35.5q76 -49 117 -132.5t41 -189.5q0 -146 -70 -264t-194.5 -184t-278.5 -66q-133 0 -225.5 54.5t-92.5 132.5z" />
<glyph unicode="4" d="M72 342v98l628 961h117v-914h184v-145h-184v-375h-272v375h-473zM205 487h340v523z" />
<glyph unicode="5" d="M98 145q0 50 32.5 80.5t84.5 30.5q44 0 74.5 -23.5t70.5 -89.5q51 -86 121 -86q88 0 145.5 83.5t57.5 209.5q0 147 -72.5 236.5t-191.5 89.5q-88 0 -170 -43l-64 35l29 698h485q21 0 33 1t20 5t10.5 6.5t8.5 12t10 14.5h72l-39 -254h-522l-10 -262q112 26 180 26 q209 0 344 -130t135 -332q0 -212 -151.5 -350t-384.5 -138q-133 0 -220.5 51t-87.5 129z" />
<glyph unicode="6" d="M104 543q0 324 204.5 558t545.5 300l43 -68q-194 -65 -322 -215t-157 -348q108 80 225 80q167 0 270 -115.5t103 -304.5q0 -204 -122 -333.5t-314 -129.5q-214 0 -345 159t-131 417zM385 463q0 -416 184 -416q51 0 89 29t55 82q26 82 26 243q0 205 -45 277 q-19 31 -52.5 49t-70.5 18q-42 0 -80.5 -16.5t-91.5 -56.5q0 -9 -2 -19q-12 -74 -12 -190z" />
<glyph unicode="7" d="M80 987l31 379h888v-86l-503 -1313h-217l493 1155h-440q-98 0 -126.5 -22t-47.5 -113h-78z" />
<glyph unicode="8" d="M102 334q0 109 66 188t201 135q-80 60 -123 101q-57 54 -89 125.5t-32 144.5q0 158 121 265.5t299 107.5q172 0 296 -97.5t124 -232.5q0 -98 -62 -171.5t-196 -133.5q290 -152 290 -389q0 -169 -133.5 -289.5t-320.5 -120.5q-81 0 -159.5 26.5t-141 73t-101.5 116.5 t-39 151zM332 342q0 -138 58.5 -215.5t164.5 -77.5q98 0 160.5 62t62.5 159q0 68 -26 116.5t-86 92.5q-34 25 -58.5 39.5t-138.5 79.5q-5 0 -20 12q-64 -52 -90.5 -113t-26.5 -155zM340 1128q0 -89 68.5 -161t230.5 -154q113 90 113 254q0 118 -56.5 185t-156.5 67 q-89 0 -144 -52.5t-55 -138.5z" />
<glyph unicode="9" d="M88 938q0 198 126.5 330.5t315.5 132.5q214 0 345 -158t131 -416q0 -428 -359 -694q-79 -59 -168.5 -97t-222.5 -69l-51 72q188 57 316.5 205.5t168.5 353.5q-67 -43 -116.5 -59.5t-108.5 -16.5q-164 0 -270.5 117.5t-106.5 298.5zM369 983q0 -120 8.5 -184t30.5 -105 q17 -31 50 -50t70 -19q77 0 181 69q14 150 14 232q0 395 -188 395q-88 0 -127 -80.5t-39 -257.5z" />
<glyph unicode=":" horiz-adv-x="686" d="M168 125q0 63 51 105t125 42q76 0 126 -41t50 -104q0 -64 -52 -107t-130 -43q-72 0 -121 42.5t-49 105.5zM168 772q0 63 51 105.5t125 42.5q76 0 126 -41.5t50 -104.5q0 -64 -52 -106.5t-130 -42.5q-72 0 -121 42t-49 105z" />
<glyph unicode=";" horiz-adv-x="686" d="M139 125q0 66 47.5 106.5t124.5 40.5q107 0 171.5 -69t64.5 -183q0 -146 -99 -244t-247 -98h-15l-18 95q106 8 174 58t68 122q0 15 -9 25t-24 10q-1 0 -33 -4t-41 -4q-74 0 -119 39.5t-45 105.5zM172 772q0 63 51.5 105.5t126.5 42.5q76 0 126 -41.5t50 -104.5 q0 -64 -52.5 -106.5t-129.5 -42.5q-74 0 -123 42t-49 105z" />
<glyph unicode="&#x3c;" d="M117 739v19l864 540v-129l-516 -325l516 -350v-344z" />
<glyph unicode="=" d="M113 459v123h874v-123h-874zM113 733v123h874v-123h-874z" />
<glyph unicode="&#x3e;" d="M117 150v129l516 325l-516 350v344l864 -589v-19z" />
<glyph unicode="?" horiz-adv-x="800" d="M98 1253q0 66 59 107t156 41q182 0 298 -125.5t116 -321.5q0 -99 -36 -174t-105 -118q-45 -30 -92 -48.5t-144 -44.5q-32 -9 -45.5 -22.5t-13.5 -36.5q0 -20 7 -38t32 -66h-78q-94 155 -94 251q0 75 49 119t168 76q111 29 162 55q84 49 84 127q0 62 -40.5 102t-101.5 40 q-34 0 -129 -23q-80 -18 -119 -18q-62 0 -97.5 31.5t-35.5 86.5zM139 125q0 63 51.5 105t126.5 42q77 0 127 -41t50 -104q0 -64 -53 -107t-130 -43q-73 0 -122.5 42.5t-49.5 105.5z" />
<glyph unicode="@" horiz-adv-x="1529" d="M96 467q0 146 56 279.5t151 229.5t226 153t274 57q174 0 319 -79.5t228.5 -216.5t83.5 -302q0 -144 -70.5 -256t-202.5 -180q-125 -64 -252 -64q-65 0 -91.5 24.5t-26.5 82.5q0 52 14 112q-129 -130 -182 -173.5t-84 -43.5q-23 0 -51.5 21t-45.5 51q-24 40 -24 100 q0 90 39.5 184.5t111.5 176.5q94 106 208.5 162.5t238.5 56.5h16q23 -2 41 -2h27l-115 -561q-10 -45 -10 -62q0 -39 43 -39q49 0 114 39t111 96q100 117 100 269q0 143 -71.5 262.5t-196 188.5t-272.5 69q-125 0 -239.5 -50t-197 -135t-131.5 -202t-49 -246q0 -174 83 -320 t227.5 -230.5t316.5 -84.5q217 0 406 141h110q-49 -52 -81.5 -78t-80.5 -53q-171 -94 -360 -94q-145 0 -276.5 56.5t-226.5 152.5t-151.5 229t-56.5 279zM582 369q0 -53 19 -86t50 -33q26 0 50 18t108 101l10 8l72 356q-8 2 -21 2q-118 0 -203 -108t-85 -258z" />
<glyph unicode="A" horiz-adv-x="1585" d="M0 0v86h33q82 0 128 43t87 160l375 1048l-23 62h322l440 -1116q43 -108 89.5 -149.5t133.5 -47.5v-86h-717v86h76q70 0 101.5 20t31.5 64q0 32 -26 94l-101 246h-477l-92 -260q-21 -65 -21 -82q0 -41 35 -59q52 -23 160 -23h29v-86h-584zM518 631h383l-203 512z" />
<glyph unicode="B" horiz-adv-x="1505" d="M0 0v86h10q141 0 198.5 41.5t57.5 142.5v817q0 67 -5.5 101.5t-27.5 57t-56.5 28.5t-100.5 6h-56v86q276 23 387 29t240 6q151 0 249 -12t187 -41q117 -37 186.5 -120t69.5 -184q0 -200 -270 -258q158 -37 253 -139t95 -235t-93 -236.5t-251 -146.5q-107 -29 -289 -29 h-784zM569 317q0 -71 7 -106.5t26 -58.5q45 -54 166 -54q166 0 240 92q69 84 69 211q0 86 -34 159.5t-93 113.5q-46 31 -107.5 43t-174.5 12q-62 0 -99 -2v-410zM569 821q74 -6 125 -6q101 0 158 13.5t94 45.5q72 66 72 179q0 83 -44 147.5t-118 89.5q-79 27 -186 27 q-34 0 -101 -6v-490z" />
<glyph unicode="C" horiz-adv-x="1607" d="M96 680q0 149 66 282.5t178.5 229.5t269 152.5t330.5 56.5q92 0 170 -16t178 -56q54 -20 72 -20q26 0 43 22h55l21 -385h-88q-51 164 -165 253t-272 89q-235 0 -382.5 -162t-147.5 -421q0 -174 73 -318t201 -226.5t283 -82.5q151 0 271 82.5t186 232.5h88 q-11 -74 -50 -199.5t-75 -199.5q-59 16 -129 16q-52 0 -189 -24q-104 -17 -190 -17q-220 0 -403 94t-288.5 257.5t-105.5 359.5z" />
<glyph unicode="D" horiz-adv-x="1792" d="M47 0v86h14q64 0 97.5 9t58.5 34q22 22 28.5 51t6.5 99v808q0 76 -8.5 107t-36.5 53q-25 19 -56.5 26t-89.5 7h-12v86l172 12q258 19 486 19q186 0 304.5 -13.5t229.5 -46.5q209 -63 332 -230t123 -388q0 -207 -116 -383.5t-302 -251.5q-116 -46 -242 -65t-319 -19h-670z M555 256q0 -40 2 -65t10 -45.5t19.5 -31t34 -17.5t49.5 -9t71 -2q165 0 292.5 51t205.5 148q129 164 129 401q0 162 -60.5 295.5t-168.5 208.5q-146 104 -412 104q-67 0 -172 -10v-1028z" />
<glyph unicode="E" horiz-adv-x="1413" d="M-10 0v86h71q64 0 97.5 9t58.5 34q21 20 28 50t7 100v808q0 76 -8.5 107t-36.5 53q-25 19 -56.5 26t-89.5 7h-22v86h1208l25 -317h-86q-14 109 -43 151q-20 28 -47.5 36.5t-98.5 8.5h-442v-500h322q81 0 118.5 13t57.5 47q15 29 20 96h90v-436h-88v20q0 78 -43 109 t-153 31h-324v-310v-53t1.5 -41.5t1.5 -34t5 -23.5t6.5 -18.5t11.5 -11t14.5 -8t20.5 -3t25.5 -2t32.5 0.5h295q110 0 157.5 18.5t79.5 73.5q31 51 49 131h82l-26 -344h-1321z" />
<glyph unicode="F" horiz-adv-x="1308" d="M86 0v86h14q60 0 88 9t45 32q12 17 15.5 42.5t3.5 94.5v838q0 104 -31.5 141t-120.5 37h-12v86h1110v-309h-80q-4 50 -7.5 76.5t-14.5 51t-22.5 34t-41 17t-60.5 8.5t-89 1h-328v-502h266q147 0 189 28.5t43 131.5h88v-438h-88q0 85 -31 119q-25 25 -59.5 32t-124.5 7 h-283v-344q0 -125 31.5 -159t146.5 -34h12v-86h-659z" />
<glyph unicode="G" horiz-adv-x="1699" d="M96 682q0 207 102.5 371.5t285 256t413.5 91.5q85 0 161 -13t228 -53q55 -14 88 -14q44 0 64 29h55v-400h-90q-43 170 -163 265.5t-290 95.5q-233 0 -378.5 -168t-145.5 -438q0 -179 68.5 -323.5t189.5 -226t270 -81.5q63 0 127.5 15.5t108.5 41.5v289q0 64 -17 92.5 t-61 40.5q-57 15 -192 18v84h729v-84q-88 -1 -122 -31.5t-34 -107.5v-328q-194 -74 -335 -104.5t-288 -30.5q-227 0 -403.5 90t-273.5 252t-97 371z" />
<glyph unicode="H" horiz-adv-x="1837" d="M51 0v86h10q64 0 97.5 9t58.5 34q22 22 28.5 51t6.5 99v808q0 76 -8.5 107t-36.5 53q-25 19 -56.5 26t-89.5 7h-10v86h705v-86h-11q-63 0 -96.5 -9t-58.5 -34q-22 -22 -28.5 -51t-6.5 -99v-321h725v321q0 74 -9 106.5t-36 53.5q-48 33 -141 33h-11v86h703v-86h-12 q-64 0 -97.5 -9t-58.5 -34q-21 -20 -28 -50t-7 -100v-808q0 -76 8.5 -107t36.5 -51q25 -20 56 -27.5t90 -7.5h12v-86h-703v86h11q60 0 94 10t57 33q21 20 28 50t7 100v358h-725v-358q0 -76 8.5 -107t36.5 -51q25 -20 55.5 -27.5t89.5 -7.5h11v-86h-705z" />
<glyph unicode="I" horiz-adv-x="808" d="M61 0v86h7q106 0 149 43q22 22 28.5 51t6.5 99v808q0 76 -8.5 107t-36.5 53q-44 33 -139 33h-7v86h699v-86h-15q-63 0 -96.5 -9t-58.5 -34q-22 -22 -28.5 -51t-6.5 -99v-808q0 -76 8.5 -107t36.5 -51q25 -20 55.5 -27.5t89.5 -7.5h15v-86h-699z" />
<glyph unicode="J" horiz-adv-x="800" d="M-221 -373q0 56 46 98t107 42q39 0 68 -17.5t80 -71.5q40 -43 74 -43q31 0 55.5 23t34.5 63q16 55 16 242v1124q0 76 -8.5 107t-36.5 53q-25 19 -56 26t-89 7h-13v86h699v-86h-8q-107 0 -150 -43q-22 -22 -28.5 -51t-6.5 -99v-806q0 -134 -2.5 -179t-11.5 -102 q-41 -238 -180.5 -369t-352.5 -131q-237 0 -237 127z" />
<glyph unicode="K" horiz-adv-x="1624" d="M43 0v86h18q64 0 97.5 9t58.5 34q21 20 28 50t7 100v808q0 76 -8.5 107t-36.5 53q-25 19 -56.5 26t-89.5 7h-18v86h717v-86h-37q-118 0 -152 -66q-16 -36 -16 -165v-340q75 11 163 65.5t161 136.5q79 90 128.5 172.5t49.5 124.5q0 39 -34 55t-122 17v86h586v-86 q-97 -7 -146 -24t-88 -54.5t-104 -128.5q-162 -233 -262 -303q54 -32 132.5 -118.5t215.5 -264.5q103 -134 163 -194t114 -83.5t133 -23.5v-86h-748v86q86 2 113 14q17 6 28 18.5t11 26.5q0 56 -265 340q-83 89 -131 123t-86 31q-6 0 -12 -2v-358q0 -76 8.5 -107t36.5 -51 q25 -20 55.5 -27.5t89.5 -7.5h15v-86h-717z" />
<glyph unicode="L" horiz-adv-x="1333" d="M33 0v86h28q64 0 97.5 9t58.5 34q21 20 28 50t7 100v808q0 76 -8.5 107t-36.5 53q-25 19 -56.5 26t-89.5 7h-24v86h745v-86h-37q-63 0 -96.5 -9t-58.5 -34q-21 -20 -28 -50t-7 -100v-821q0 -54 2.5 -79.5t16 -42t33 -20t61.5 -3.5h235q85 0 131.5 12.5t81.5 46.5 q91 91 168 201h88l-160 -381h-1179z" />
<glyph unicode="M" horiz-adv-x="2037" d="M43 0v86q63 1 94 7.5t52.5 33.5t28 67.5t11.5 122.5l50 795q2 20 2 53q0 60 -32.5 85.5t-115.5 29.5v86h463l428 -924l410 924h473v-86l-27 -2q-89 -6 -112.5 -23t-22.5 -79q8 -171 29 -482.5t26 -390.5q3 -54 6 -82.5t12.5 -56t18.5 -38t34 -20.5t50 -13t74 -7v-86h-692 v86h36q103 0 136.5 29t33.5 118q0 19 -6 99l-51 780l-494 -1112h-53l-504 1085l-51 -782l-2 -70q-3 -84 37 -115.5t145 -31.5v-86h-487z" />
<glyph unicode="N" horiz-adv-x="1792" d="M72 0v86h22q101 0 137 51q14 19 17.5 41.5t3.5 87.5v967q-66 47 -176 47v86h452l897 -934v662q0 118 -37.5 152t-168.5 34h-25v86h567v-86h-24q-100 0 -144 -27q-23 -17 -28.5 -40.5t-5.5 -106.5v-1114h-119l-1055 1102v-811q0 -87 16 -123t64 -56q50 -18 137 -18v-86 h-530z" />
<glyph unicode="O" horiz-adv-x="1814" d="M96 680q0 149 65 287t183 241q107 94 265.5 147.5t326.5 53.5q229 0 408 -88t278.5 -247t99.5 -363q0 -213 -106 -382.5t-295.5 -264.5t-427.5 -95q-233 0 -414.5 89.5t-282 251.5t-100.5 370zM426 766q0 -313 144 -508t374 -195q235 0 354 193q44 74 70.5 177.5 t26.5 205.5q0 290 -158 502q-132 174 -354 174q-209 0 -333 -149t-124 -400z" />
<glyph unicode="P" horiz-adv-x="1421" d="M51 1280v86q556 35 707 35q215 0 368 -68q110 -51 173 -147.5t63 -214.5q0 -191 -149.5 -304.5t-401.5 -113.5q-113 0 -254 22v-296q0 -76 8.5 -107t36.5 -51q25 -20 56 -27.5t90 -7.5h67v-86h-747v86h34q60 0 88.5 9t45.5 32q11 18 14.5 44.5t3.5 92.5v838 q0 66 -3.5 92.5t-14.5 44.5q-17 23 -45.5 32t-88.5 9h-51zM557 666q73 -15 156 -15q154 0 236.5 86t82.5 244q0 157 -82.5 243.5t-234.5 86.5q-79 0 -158 -21v-624z" />
<glyph unicode="Q" horiz-adv-x="1814" d="M96 670q0 210 108.5 379t301.5 264.5t432 95.5q228 0 406.5 -88.5t278 -247.5t99.5 -362q0 -211 -109 -383.5t-304 -270.5q-95 -47 -181 -61q55 -36 79 -53t62 -49.5t87 -81.5q108 -108 201 -158.5t194 -54.5l-39 -84q-62 -15 -123 -15q-121 0 -254 47 q-100 35 -179.5 86.5t-240.5 184.5q-89 75 -151.5 116t-134.5 72q-252 71 -392.5 245.5t-140.5 418.5zM426 766q0 -313 144 -509t374 -196q236 0 354 195q44 74 70.5 177.5t26.5 205.5q0 290 -158 502q-132 174 -354 174q-209 0 -333 -149t-124 -400z" />
<glyph unicode="R" horiz-adv-x="1697" d="M27 0v86h34q64 0 97.5 9t58.5 34q22 22 28.5 51t6.5 99v808q0 76 -8.5 107t-36.5 53q-25 19 -56.5 26t-89.5 7h-30v86q405 35 647 35q278 0 446 -55q120 -40 192.5 -134.5t72.5 -212.5q0 -126 -86.5 -220.5t-239.5 -135.5q12 -10 23 -19.5t23 -22.5t20 -21t23 -26.5 t22.5 -28t27.5 -35.5t29.5 -38.5t36.5 -48.5t41 -55q124 -166 207.5 -221t216.5 -64v-86q-82 -2 -144 -2q-243 0 -354 54q-77 35 -129.5 90.5t-194.5 249.5q-100 139 -182 213h-174v-303q0 -76 8.5 -107t36.5 -51q25 -20 55.5 -27.5t89.5 -7.5h50v-86h-768zM555 666h53 q234 0 342.5 77t108.5 244q0 164 -101.5 244t-310.5 80q-31 0 -92 -6v-639z" />
<glyph unicode="S" horiz-adv-x="1234" d="M129 403h84q115 -329 379 -329q107 0 180.5 62t73.5 153q0 109 -111 194q-38 30 -75 51.5t-177 94.5q-90 46 -142 81t-93 78q-52 52 -80.5 119t-28.5 135q0 157 125.5 258t321.5 101q138 0 303 -51q25 -7 35 -7q20 0 43 23h47l41 -354h-88q-34 132 -132.5 211.5 t-226.5 79.5q-92 0 -153.5 -43.5t-61.5 -108.5q0 -60 46.5 -110.5t152.5 -106.5q180 -95 287 -166q130 -88 190.5 -181.5t60.5 -209.5q0 -112 -63 -205.5t-172 -148t-240 -54.5q-71 0 -127.5 11.5t-208.5 54.5q-18 6 -32 6q-30 0 -45 -35h-58z" />
<glyph unicode="T" horiz-adv-x="1601" d="M80 993l37 410h71q29 -28 49 -32.5t111 -4.5h985q55 0 75.5 7t37.5 30h67l39 -410h-86q-13 63 -22.5 100.5t-23.5 70t-28 47.5t-39 26t-53 13.5t-73 2.5h-260v-974q0 -76 8.5 -107t36.5 -51q25 -20 55.5 -27.5t89.5 -7.5h53v-86h-790v86h53q64 0 97.5 9t58.5 34 q21 20 28 50t7 100v974h-230q-54 0 -85.5 -2.5t-60.5 -13t-44 -25.5t-30 -47.5t-23.5 -70t-20.5 -101.5h-90z" />
<glyph unicode="U" horiz-adv-x="1701" d="M27 1280v86h688v-86h-10q-107 0 -150 -43q-22 -22 -28.5 -51t-6.5 -99v-542q0 -113 9 -163t38 -99q46 -80 139 -124t216 -44q163 0 270 72t141 204q11 40 14 85.5t3 154.5v383q0 96 -10 144.5t-35 74.5q-47 47 -156 47h-19v86h570v-86h-17q-112 0 -163 -51 q-22 -23 -29.5 -61.5t-7.5 -129.5v-407q0 -131 -8 -196t-33 -134q-58 -163 -209 -247.5t-381 -84.5q-245 0 -408 95t-206 262q-21 83 -21 227v534q0 77 -6 108t-23 48q-37 37 -147 37h-14z" />
<glyph unicode="V" horiz-adv-x="1619" d="M-4 1278v88h762v-88h-39q-180 0 -180 -88q0 -37 36 -113l336 -721l322 762q22 53 22 76q0 84 -182 84h-12v88h557v-88h-16q-92 0 -143 -50t-118 -208l-446 -1051h-137l-518 1127q-54 116 -95.5 149t-134.5 33h-14z" />
<glyph unicode="W" horiz-adv-x="2168" d="M-6 1280v86h584v-86q-82 -6 -82 -59q0 -27 28 -82l402 -840l141 289l-260 545q-43 91 -71 117.5t-79 29.5v86h963v-86q-62 -14 -94.5 -44.5t-73.5 -113.5l-160 -325l232 -469l309 780q18 47 18 80q0 47 -31 69.5t-98 22.5v86h443v-86q-81 -7 -124.5 -48t-86.5 -149 l-445 -1114h-145l-234 486l-229 -486h-145l-537 1129q-37 78 -51.5 102t-36.5 43q-43 37 -119 37h-18zM1083 1237q0 -14 19 -53l125 -252l125 248q18 41 18 59q0 41 -86 41h-119q-43 0 -62.5 -10t-19.5 -33z" />
<glyph unicode="X" horiz-adv-x="1763" d="M33 0v86q113 14 182 53t184 156l346 354l-329 412q-109 135 -176 176q-37 25 -71 33t-99 8h-25v88h834v-88h-54q-77 0 -106 -11t-29 -40q0 -19 9.5 -35t56.5 -74l198 -248l226 232q75 78 75 123q0 31 -28 42t-103 11h-28v88h592v-88q-112 -3 -183 -46t-211 -192 l-256 -270l396 -491q91 -112 151.5 -148.5t169.5 -44.5v-86h-770v86h27q66 0 96.5 14.5t30.5 46.5q0 35 -45 86l-269 318l-338 -348q-32 -35 -32 -60q0 -31 35.5 -44t117.5 -13h27v-86h-602z" />
<glyph unicode="Y" horiz-adv-x="1619" d="M-6 1278v88h717v-88h-19q-71 0 -101 -13.5t-30 -45.5q0 -4 0.5 -7t1 -5.5t2.5 -6.5t4 -7t6.5 -9.5t8.5 -11.5t12.5 -16t15.5 -21l324 -430l242 376q23 35 38 71.5t15 57.5q0 68 -119 68h-27v88h521v-88q-107 -7 -152.5 -41t-136.5 -174l-332 -514v-270q0 -76 8.5 -107 t36.5 -51q25 -20 56 -27.5t90 -7.5h34v-86h-751v86h33q63 0 96.5 9t58.5 34q22 22 28.5 51t6.5 99v270l-428 567q-63 83 -77 99.5t-34 31.5q-24 18 -52 24.5t-83 6.5h-14z" />
<glyph unicode="Z" horiz-adv-x="1593" d="M100 0v117l975 1132h-497q-97 0 -118 -1t-50 -9q-59 -17 -90 -72t-44 -170h-81l12 369h1268v-121l-975 -1128h643q97 0 140.5 21t78.5 85q39 69 70 217h84l-27 -440h-1389z" />
<glyph unicode="[" horiz-adv-x="778" d="M242 -412v1778h524v-70q-20 -1 -45 -2.5t-42 -2.5t-22 -1q-69 -3 -104.5 -14.5t-50.5 -34.5q-10 -17 -10 -70v-1359q0 -68 3.5 -87.5t20.5 -29.5q27 -19 79.5 -26t174.5 -7v-74h-528z" />
<glyph unicode="\" horiz-adv-x="755" d="M12 1489h191l493 -2017h-192z" />
<glyph unicode="]" horiz-adv-x="778" d="M8 -338q122 0 174.5 7t79.5 26q17 12 21 31t4 86v1359q0 36 -3 49t-12 25q-15 22 -49.5 32t-101.5 13l-109 6v70h525v-1778h-529v74z" />
<glyph unicode="^" horiz-adv-x="1024" d="M-61 569l589 865h19l538 -865h-129l-325 516l-350 -516h-342z" />
<glyph unicode="_" horiz-adv-x="1024" d="M0 -188h1024v-152h-1024v152z" />
<glyph unicode="`" horiz-adv-x="1024" d="M162 1436h354l162 -414h-129z" />
<glyph unicode="a" horiz-adv-x="1013" d="M80 207q0 128 100 203q28 20 53 30.5t97 32.5q188 58 270 131v82q0 63 -38.5 105.5t-96.5 42.5q-57 0 -88 -34.5t-31 -97.5q0 -20 4 -38l-246 -86q-10 44 -10 73q0 66 34 113.5t108 85.5q62 31 141 51.5t137 20.5q86 0 175.5 -36.5t133.5 -90.5q49 -61 49 -181v-276 q0 -146 9 -168q9 -35 41 -35q17 0 59 27l33 -51q-54 -57 -125 -94t-125 -37q-127 0 -154 131l-22 -15l-31 -28q-97 -91 -221 -91q-118 0 -187 62t-69 168zM344 252q0 -68 31 -110t80 -42q28 0 57.5 17.5t91.5 72.5v316q-30 -24 -52.5 -37t-88.5 -43q-66 -32 -92.5 -71 t-26.5 -103z" />
<glyph unicode="b" horiz-adv-x="1216" d="M16 1309v53l334 106h70v-731q95 88 190.5 135.5t175.5 47.5q149 0 252 -122.5t103 -299.5q0 -225 -158.5 -374t-398.5 -149q-75 0 -205 21t-227 49v1104q0 71 -13 94t-65 43zM420 369q0 -157 46.5 -228t149.5 -71q117 0 182.5 87t65.5 242q0 153 -70 249.5t-180 96.5 q-51 0 -103.5 -30.5t-90.5 -81.5v-264z" />
<glyph unicode="c" horiz-adv-x="1052" d="M76 412q0 106 44 200.5t119.5 162.5t180.5 107.5t223 39.5q142 0 238 -53.5t96 -133.5q0 -50 -31 -80t-82 -30q-50 0 -82.5 20.5t-101.5 95.5q-38 43 -67 60.5t-60 17.5q-82 0 -132 -92.5t-50 -241.5q0 -175 75.5 -285t196.5 -110q142 0 279 158l63 -37 q-157 -234 -448 -234q-201 0 -331 123t-130 312z" />
<glyph unicode="d" horiz-adv-x="1212" d="M76 391q0 110 38.5 212t108.5 175q133 142 365 142q100 0 196 -29v256q0 61 -7.5 82.5t-35.5 40.5q-33 22 -104 37v53l342 108h74v-1179q0 -97 17.5 -129.5t70.5 -32.5q33 0 67 12v-65l-364 -97h-60v175q-104 -92 -187 -133.5t-165 -41.5q-157 0 -256.5 116t-99.5 298z M344 510q0 -164 67 -267.5t173 -103.5q49 0 103.5 30.5t96.5 80.5v489q-62 55 -106 75t-103 20q-109 0 -170 -86t-61 -238z" />
<glyph unicode="e" horiz-adv-x="1036" d="M76 428q0 215 132.5 353.5t338.5 138.5q107 0 193 -44t132 -122q34 -55 54 -160q8 -50 43 -70v-49h-613q9 -140 90.5 -238t188.5 -98q116 0 264 158l49 -43q-94 -130 -218.5 -203.5t-252.5 -73.5q-178 0 -289.5 125.5t-111.5 325.5zM352 545h314q-2 126 -43 198t-113 72 q-69 0 -113.5 -68t-44.5 -174v-28z" />
<glyph unicode="f" horiz-adv-x="706" d="M18 0v70h39q68 0 95.5 34t27.5 119v559h-162v47l162 68q6 171 80 295q73 123 214 205t278 82q63 0 130.5 -21t111.5 -53t44 -62q0 -13 -18 -38l-68 -86q-25 -31 -47 -31q-17 0 -29 8t-67 57q-61 57 -102 79t-84 22q-49 0 -92 -29.5t-60 -75.5q-22 -62 -22 -190v-162h219 l-15 -115h-204v-538q0 -99 40.5 -136.5t147.5 -37.5h47v-70h-666z" />
<glyph unicode="g" horiz-adv-x="1183" d="M76 -289q0 47 31.5 81.5t105.5 66.5q32 14 47.5 26t28.5 35q-89 29 -138 83.5t-49 123.5q0 42 25 70t84 55q41 16 188 61q-113 6 -199.5 88.5t-86.5 182.5q0 143 129 239.5t319 96.5q177 0 295 -86l311 79v-227l-221 51q45 -62 45 -141q0 -69 -38 -131.5t-103 -99.5 q-61 -35 -141 -55.5t-154 -20.5h-27q-112 -38 -147 -58.5t-35 -46.5q0 -34 72 -52.5t205 -18.5q16 0 75 2t66 2q182 0 281.5 -67.5t99.5 -190.5q0 -103 -81.5 -187t-224 -132t-317.5 -48q-189 0 -317.5 62.5t-128.5 156.5zM309 -221q0 -78 96 -135.5t228 -57.5 q133 0 224 53.5t91 131.5q0 61 -51.5 88.5t-165.5 23.5l-119 -4q-114 -5 -219 19l-8 -7q-33 -25 -54.5 -56.5t-21.5 -55.5zM383 623q0 -120 45 -183t131 -63q77 0 118.5 50.5t41.5 145.5q0 118 -46 187t-126 69q-77 0 -120.5 -54.5t-43.5 -151.5z" />
<glyph unicode="h" horiz-adv-x="1255" d="M29 0v70h10q36 0 56 1.5t38 10t25.5 19.5t13.5 37.5t7 55.5t1 82v895v39t-4.5 27t-11 22.5t-23 16.5t-36.5 18t-56 19l-18 6v39l362 110h56v-714q109 75 217 120.5t178 45.5q239 0 239 -392v-252q0 -95 8.5 -136t31 -55.5t75.5 -14.5h6v-70h-518v70h8q38 0 67 11t38 30 q16 24 16 165v287q0 89 -38.5 141t-104.5 52q-43 0 -104.5 -23t-118.5 -59v-398q0 -76 3 -112t18 -60t38 -29t70 -5h8v-70h-557z" />
<glyph unicode="i" horiz-adv-x="628" d="M33 774v53l375 123h41v-706q0 -104 24 -135q14 -15 43 -27t53 -12h15v-70h-549v70h22q68 0 95.5 34t27.5 119v414q0 56 -10.5 71t-65.5 37zM131 1292q0 62 53.5 107t126.5 45q70 0 120 -44.5t50 -107.5t-52.5 -106t-127.5 -43q-72 0 -121 43t-49 106z" />
<glyph unicode="j" horiz-adv-x="620" d="M-260 -373q0 51 42.5 91t96.5 40q40 0 70 -21t74 -81q32 -47 67 -47q25 0 46 25.5t32 66.5q10 46 10 238v706q0 49 -11.5 64t-62.5 34l-73 27v53l370 125h45v-864q0 -97 -3 -135t-13 -84q-40 -172 -163 -270.5t-300 -98.5q-107 0 -167 34.5t-60 96.5zM131 1292 q0 62 53.5 107t126.5 45q70 0 120 -44.5t50 -107.5t-52.5 -106t-127.5 -43q-72 0 -121 43t-49 106z" />
<glyph unicode="k" horiz-adv-x="1202" d="M45 0v70h12q68 0 95.5 34t27.5 119v967q0 50 -11.5 66.5t-57.5 31.5l-66 23v51l350 106h54v-954l296 248q27 22 27 37q0 20 -14.5 25t-77.5 5h-14v68h454v-70h-16q-60 0 -129.5 -30t-130.5 -82l-150 -125l318 -400q53 -67 91 -93.5t79 -26.5h18v-70h-506v70h8q46 0 46 28 q0 13 -23 43l-276 355v-252q0 -104 24 -135q15 -15 43.5 -27t52.5 -12h9v-70h-533z" />
<glyph unicode="l" horiz-adv-x="620" d="M29 1294v66l381 108h39v-1224q0 -104 24 -135q15 -15 43.5 -27t52.5 -12h11v-70h-545v70h22q68 0 95.5 34t27.5 119v905q0 74 -10 98t-47 36z" />
<glyph unicode="m" horiz-adv-x="2037" d="M37 764v55l371 125h41v-252q180 128 284.5 178t190.5 50q94 0 153.5 -60.5t73.5 -167.5q75 57 176 117q195 111 309 111q120 0 175 -90t55 -287v-267q0 -138 16 -165q9 -18 37.5 -29.5t62.5 -11.5h7v-70h-516v70q50 6 76 33.5t37 86t11 168.5v131q0 140 -31.5 202.5 t-103.5 62.5q-52 0 -120 -31t-183 -107v-372q0 -105 25 -133q15 -18 40.5 -29.5t49.5 -11.5h8v-70h-516v70h8q63 0 90 35t27 118v316q0 215 -133 215q-60 0 -130.5 -32.5t-178.5 -109.5v-368q0 -104 24 -135q14 -15 43 -27t53 -12h27v-70h-555v70h14q69 0 97 34t28 119v441 q0 54 -92 84z" />
<glyph unicode="n" horiz-adv-x="1257" d="M31 764v55l377 125h41v-196q49 33 100 61q104 60 174.5 85.5t132.5 25.5q70 0 123 -36.5t76 -101.5q18 -50 24 -99t6 -140v-267q0 -137 17 -165q9 -18 37.5 -29.5t62.5 -11.5h10v-70h-520v70q74 9 99.5 68t25.5 220v131q0 140 -31.5 202.5t-103.5 62.5q-48 0 -97 -20.5 t-136 -76.5v-413q0 -104 24 -135q14 -15 43 -27t53 -12h31v-70h-559v70h14q69 0 97 34t28 119v441q0 29 -31.5 53t-87.5 39z" />
<glyph unicode="o" horiz-adv-x="1220" d="M76 442q0 132 73 242.5t199.5 174t278.5 63.5q227 0 373.5 -128.5t146.5 -328.5q0 -211 -158 -349.5t-399 -138.5q-226 0 -370 130.5t-144 334.5zM367 567q0 -176 71 -334q37 -80 94 -122.5t127 -42.5q93 0 145 71.5t52 200.5q0 214 -80 351.5t-205 137.5 q-97 0 -150.5 -69.5t-53.5 -192.5z" />
<glyph unicode="p" horiz-adv-x="1245" d="M35 -430h24q42 0 65 10.5t36 36.5q12 20 16 52.5t4 107.5v862q0 45 -14 69.5t-47 34.5l-80 27v55l352 119h58v-209q135 110 208.5 147.5t155.5 37.5q154 0 256 -118.5t102 -295.5q0 -108 -41 -211.5t-114 -179.5q-135 -138 -350 -138q-94 0 -217 27v-221 q0 -65 8.5 -102.5t34 -62t65 -34.5t109.5 -14v-70h-631v70zM449 164q45 -49 106 -78t117 -29q101 0 165 90.5t64 233.5q0 167 -65 271t-168 104q-50 0 -102 -27t-117 -86v-479z" />
<glyph unicode="q" horiz-adv-x="1216" d="M76 395q0 224 153.5 374.5t382.5 150.5q173 0 322 -89l94 89h53q-18 -140 -18 -267v-899q0 -81 7 -108.5t32 -46.5q33 -26 94 -29v-70h-623v70h72q58 0 85 9.5t44 35.5q21 33 21 137v410q-185 -185 -359 -185q-154 0 -257 119.5t-103 298.5zM352 489q0 -149 69.5 -244 t176.5 -95q54 0 94 22t103 86v309q0 124 -50.5 192t-142.5 68q-116 0 -183 -90.5t-67 -247.5z" />
<glyph unicode="r" horiz-adv-x="862" d="M41 0v70h16q68 0 95.5 34t27.5 119v361q0 73 -14.5 100t-65.5 47l-59 23v55l360 135h48v-246q77 141 112 181.5t82 40.5q37 0 92 -21l127 -49q-46 -154 -104 -234l-105 39q-49 17 -75 17q-61 0 -129 -99v-329q0 -105 29 -139.5t118 -34.5h57v-70h-612z" />
<glyph unicode="s" horiz-adv-x="823" d="M92 258h70q74 -186 229 -186q46 0 79.5 29.5t33.5 70.5q0 39 -33 72q-19 19 -37.5 32t-126.5 82q-120 77 -166.5 138.5t-46.5 144.5q0 126 94.5 202.5t251.5 76.5q114 0 242 -46l4 -235h-68q-31 92 -84.5 141t-123.5 49q-43 0 -72 -24.5t-29 -61.5q0 -41 35.5 -77.5 t124.5 -87.5q103 -59 134 -80.5t65 -55.5q73 -73 73 -188q0 -121 -82 -200t-208 -79q-85 0 -205 29q-16 4 -23 4q-17 0 -45 -28h-61z" />
<glyph unicode="t" horiz-adv-x="757" d="M55 788v43q93 35 193 140.5t131 199.5h61v-266h291l-31 -117h-260v-495q0 -90 15 -119q10 -21 35 -34t53 -13q77 0 166 111l32 -62q-51 -88 -140 -143.5t-181 -55.5q-74 0 -130.5 30.5t-82.5 84.5q-22 43 -28.5 84t-6.5 135v477h-117z" />
<glyph unicode="u" horiz-adv-x="1251" d="M88 791v49l315 80h46v-482q0 -112 6.5 -158.5t27.5 -76.5q38 -60 109 -60q78 0 221 90v398q0 64 -15 88t-65 39l-100 30v52l448 80v-672q0 -83 12.5 -108t53.5 -25q31 0 63 14v-68l-354 -84h-43v175q-149 -95 -239.5 -135t-155.5 -40q-117 0 -177.5 85.5t-60.5 248.5v334 q0 64 -8.5 86t-38.5 37z" />
<glyph unicode="v" horiz-adv-x="1116" d="M-10 827v70h557v-70h-47q-45 0 -61.5 -10t-16.5 -37q0 -28 31 -94l186 -420l170 389q25 55 25 86q0 38 -35.5 58.5t-118.5 27.5v70h438v-70q-87 -6 -122 -40.5t-95 -168.5l-280 -630h-136l-309 665q-47 101 -82 134.5t-104 39.5z" />
<glyph unicode="w" horiz-adv-x="1689" d="M-8 827v70h526v-70q-86 -9 -86 -75q0 -19 19 -64l165 -397l177 397q-29 75 -62 108t-76 31v70h498v-70q-51 0 -74.5 -16.5t-23.5 -54.5q0 -25 26 -90l156 -375l156 375q18 43 18 71q0 40 -33.5 63.5t-93.5 26.5v70h406v-70q-74 -6 -115.5 -47t-87.5 -151l-273 -641h-124 l-244 571l-260 -571h-121l-272 637q-50 117 -90 157.5t-111 44.5z" />
<glyph unicode="x" horiz-adv-x="1167" d="M29 827v70h538v-70q-73 0 -73 -36q0 -16 14 -33l137 -170l123 131q27 35 27 57q0 48 -95 51v70h410v-70q-68 -8 -124 -41t-136 -116l-150 -156l244 -295q69 -83 114.5 -116t98.5 -33v-70h-565v70h20q35 0 50.5 9.5t15.5 31.5t-33 65l-125 156l-139 -150q-33 -36 -33 -61 q0 -28 20.5 -39.5t67.5 -11.5v-70h-391v70q95 0 236 147l180 186l-252 306q-53 65 -89.5 88.5t-90.5 29.5z" />
<glyph unicode="y" horiz-adv-x="1112" d="M-12 827v70h561v-70h-17q-46 0 -71 -17.5t-25 -49.5q0 -27 29 -84l174 -359l168 338q22 45 22 78q0 41 -37 67t-100 27v70h410v-70q-73 -15 -110.5 -48.5t-82.5 -127.5l-442 -905q-52 -105 -63 -124.5t-33 -49.5q-62 -84 -152 -84q-60 0 -98.5 35.5t-38.5 89.5 q0 66 40 100.5t126 40.5q126 6 190 148l56 121l-299 604q-44 89 -71 127.5t-55.5 54t-80.5 18.5z" />
<glyph unicode="z" horiz-adv-x="1081" d="M45 0v70l580 706h-306q-64 0 -97.5 -33t-90.5 -153h-74l72 368h74v-16q0 -29 14 -37t68 -8h725v-61l-586 -715h274q87 0 127.5 14.5t79.5 57.5q45 53 80 112h68l-103 -305h-905z" />
<glyph unicode="{" horiz-adv-x="778" d="M104 481v56q53 3 77.5 11.5t39.5 29.5q20 27 24.5 59t4.5 164v286q0 202 129 256q17 6 34.5 8.5t38.5 2.5t78 2.5t127 7.5l29 2v-68q-54 -1 -87 -7.5t-57 -19.5t-35.5 -40t-16.5 -63t-5 -95v-360q0 -88 -36.5 -135.5t-118.5 -67.5v-6q83 -15 119 -70.5t36 -165.5v-383 q0 -97 15.5 -139t58.5 -65q45 -23 123 -23h4v-68q-233 0 -291 19q-78 25 -111.5 86.5t-33.5 179.5v377q0 128 -22.5 170.5t-98.5 52.5q-1 1 -25 6z" />
<glyph unicode="|" horiz-adv-x="1024" d="M412 -342v1708h202v-1708h-202z" />
<glyph unicode="}" horiz-adv-x="778" d="M92 -342h12q84 0 132 33q34 25 45.5 65t11.5 129v383q0 109 36.5 165t119.5 71v6q-82 20 -119 68t-37 135v360q0 59 -5 95t-16.5 63t-35.5 40t-57 19.5t-87 7.5v68l29 -2h117q85 0 130 -11.5t78 -39.5q82 -70 82 -226v-286q0 -132 4.5 -164t24.5 -59q15 -21 39.5 -29.5 t77.5 -11.5v-56q-24 -5 -25 -6l-31 -4q-58 -20 -74 -59.5t-16 -159.5v-377q0 -123 -37.5 -185.5t-123.5 -84.5q-62 -15 -275 -15v68z" />
<glyph unicode="~" horiz-adv-x="1366" d="M281 1264q64 118 129.5 172.5t140.5 54.5q54 0 166 -41q110 -39 162 -39q87 0 161 92l47 -28q-56 -109 -127 -168.5t-147 -59.5q-33 0 -68 10t-145 50q-58 22 -119 22q-40 0 -69.5 -16t-67.5 -58l-18 -20z" />
<glyph unicode="&#xa1;" horiz-adv-x="686" d="M162 840q0 64 52 106.5t130 42.5q72 0 121 -42t49 -105t-51 -105.5t-125 -42.5q-76 0 -126 41.5t-50 104.5zM174 -391q0 17 4 45l125 819h74l125 -825q4 -27 4 -35q0 -27 -13 -37t-49 -10h-202q-40 0 -54 8.5t-14 34.5z" />
<glyph unicode="&#xa2;" d="M109 412q0 140 74.5 257t204 184t284.5 67q35 0 76 -5l102 261h90l-111 -277q85 -22 133 -65.5t48 -98.5q0 -50 -31 -80t-82 -30q-78 0 -147 75l-222 -555q61 -55 150 -55q139 0 276 158l64 -37q-155 -234 -451 -234q-51 0 -102 11l-141 -357h-91l150 379 q-130 51 -202 156.5t-72 245.5zM403 489q0 -169 64 -272l221 551q-52 49 -102 49q-80 0 -131.5 -92t-51.5 -236z" />
<glyph unicode="&#xa3;" d="M-82 -6q0 51 46 99t151 108q14 30 35 83.5t45.5 117.5t40.5 104h-273l29 84h276q123 304 226.5 480.5t208 256.5t229.5 80q95 0 171.5 -43.5t76.5 -97.5q0 -43 -36.5 -82t-76.5 -39q-26 0 -46 16.5t-60 71.5q-38 52 -56 68t-37 16q-35 0 -67.5 -57t-98.5 -236 q-112 -295 -184 -434h344l-26 -84h-365q-70 -121 -178 -242q85 23 117 23q80 0 159 -58q19 -12 101 -84q130 -116 188 -116q29 0 50.5 24t21.5 58q0 32 -29 86q-31 53 -31 90q0 38 31 65t74 27q52 0 83.5 -44t31.5 -118q0 -124 -100 -212.5t-240 -88.5q-119 0 -232 76 q-39 26 -60.5 43.5t-103.5 97.5q-48 45 -82 45q-25 0 -75 -33q-32 -101 -89.5 -165t-115.5 -64q-31 0 -52.5 23t-21.5 55z" />
<glyph unicode="&#xa4;" d="M86 279l137 135q-96 120 -96 268t96 264l-137 137l59 60l138 -135q118 94 266 94q70 0 142.5 -25.5t123.5 -68.5l137 135l60 -60l-138 -135q97 -117 97 -266q0 -150 -97 -268l138 -135l-60 -62l-137 137q-115 -94 -266 -94q-70 0 -141.5 25.5t-124.5 68.5l-138 -137z M295 680q0 -103 74.5 -177.5t175.5 -74.5q107 0 182.5 73t75.5 177q0 107 -74 181.5t-180 74.5q-105 0 -179.5 -74.5t-74.5 -179.5z" />
<glyph unicode="&#xa5;" d="M-39 1292v74h567v-74h-18q-44 0 -64 -11.5t-20 -37.5q0 -25 27 -84l59 -125h260l25 76q32 97 32 119q0 63 -81 63h-23v74h377v-74q-88 -4 -131.5 -44.5t-81.5 -153.5l-21 -60h183v-84h-211l-47 -135h258v-84h-287l-57 -170v-317q0 -67 6 -94.5t26 -47.5q19 -17 43 -23.5 t68 -6.5h31v-72h-619v72h29q47 0 72.5 8.5t44.5 30.5q15 19 20.5 45.5t5.5 87.5v317l-82 170h-311v84h270l-65 135h-205v84h166l-53 109q-36 73 -55.5 100t-46 38t-79.5 11h-12zM551 950l113 -233l79 233h-192z" />
<glyph unicode="&#xa6;" horiz-adv-x="1024" d="M412 313h202v-655h-202v655zM412 641v725h202v-725h-202z" />
<glyph unicode="&#xa7;" d="M135 870q0 142 70 266.5t188 198.5t252 74q109 0 196 -47t87 -105q0 -44 -31.5 -79t-71.5 -35q-28 0 -52.5 15t-84.5 69q-85 73 -143 73q-43 0 -75 -30t-32 -68q0 -56 51 -141q25 -43 166 -258q112 -173 158.5 -252t75.5 -148q80 -189 80 -329q0 -134 -74 -251t-200 -187 t-271 -70q-89 0 -169.5 52t-80.5 110q0 42 32 74t73 32q26 0 48.5 -13t57.5 -48q57 -58 89 -77.5t71 -19.5q46 0 77 30.5t31 74.5q0 43 -36.5 110.5t-178.5 286.5q-183 283 -243 420t-60 272zM254 936q0 -108 60.5 -242.5t246.5 -431.5q110 -179 144 -266.5t40 -210.5 q105 108 105 254q0 91 -44.5 200t-156.5 291q-184 300 -237 409.5t-68 227.5q-90 -87 -90 -231z" />
<glyph unicode="&#xa8;" horiz-adv-x="1024" d="M168 1229q0 53 38.5 91t92.5 38t92.5 -38.5t38.5 -92.5t-38.5 -92.5t-92.5 -38.5t-92.5 39t-38.5 94zM594 1229q0 53 38.5 91t92.5 38t92.5 -38.5t38.5 -92.5t-38.5 -92.5t-92.5 -38.5t-92.5 39t-38.5 94z" />
<glyph unicode="&#xa9;" horiz-adv-x="1634" d="M96 682q0 146 57.5 279.5t154 229.5t230.5 153t281 57q197 0 363 -96.5t262 -263t96 -363.5q0 -146 -57.5 -278t-155.5 -227t-234 -151.5t-286 -56.5q-190 0 -354 97.5t-260.5 263t-96.5 356.5zM201 682q0 -124 48.5 -239.5t130.5 -199.5t194.5 -134t234.5 -50 q171 0 315.5 82.5t228 225t83.5 311.5q0 171 -82.5 316t-224.5 229t-310 84t-310.5 -83.5t-225 -227.5t-82.5 -314zM416 680q0 151 128 255.5t312 104.5q87 0 182 -34q28 -11 35 -11q9 0 19 13h38l11 -203h-58q-26 82 -82.5 125t-136.5 43q-118 0 -192 -78t-74 -203 q0 -128 80.5 -214.5t198.5 -86.5q77 0 137 41t94 115h57q-5 -40 -25.5 -105t-41.5 -106q-38 10 -70 10q-8 0 -89.5 -10t-107.5 -10q-175 0 -295 102.5t-120 251.5z" />
<glyph unicode="&#xaa;" horiz-adv-x="888" d="M96 623v88h699v-88h-699zM158 963q0 76 63 124q39 23 94 39q107 28 162 74v45q0 35 -21.5 57.5t-54.5 22.5q-65 0 -65 -70q0 -14 2 -28l-164 -56q-8 36 -8 54q0 79 90 123q38 19 88.5 31t87.5 12q52 0 109 -23t86 -55q30 -37 30 -111v-164q0 -44 0.5 -65.5t3.5 -32.5 t6.5 -12.5t12.5 -1.5q13 0 39 18l29 -41q-37 -36 -83 -59t-81 -23q-37 0 -64.5 20t-34.5 52l-12 -8q-60 -66 -151 -66q-75 0 -119.5 39t-44.5 105zM334 989q0 -38 16.5 -61t44.5 -23q33 0 84 51v168q-32 -18 -78 -39q-37 -19 -52 -40t-15 -56z" />
<glyph unicode="&#xab;" horiz-adv-x="937" d="M53 485l365 412h74l-179 -412l172 -409h-67zM506 485l299 377h69l-139 -377l139 -379h-71z" />
<glyph unicode="&#xac;" horiz-adv-x="1024" d="M61 406v139h902v-545h-328v406h-574z" />
<glyph unicode="&#xad;" horiz-adv-x="915" d="M80 336v219h760v-219h-760z" />
<glyph unicode="&#xae;" horiz-adv-x="1634" d="M96 682q0 146 57.5 279.5t154 229.5t230.5 153t281 57q197 0 363 -96.5t262 -263t96 -363.5q0 -146 -57.5 -278t-155.5 -227t-234 -151.5t-286 -56.5q-190 0 -354 97.5t-260.5 263t-96.5 356.5zM201 682q0 -124 48.5 -239.5t130.5 -199.5t194.5 -134t234.5 -50 q171 0 315.5 82.5t228 225t83.5 311.5q0 171 -82.5 316t-224.5 229t-310 84t-310.5 -83.5t-225 -227.5t-82.5 -314zM399 342v55h25q58 0 75 16t17 70v400q0 54 -17 70t-75 16h-23v55q215 18 340 18q215 0 297 -59q76 -57 76 -143q0 -61 -43 -110t-117 -71q8 -7 14 -13 t14 -14.5t12 -13t15 -18t16 -19.5t21.5 -27t24.5 -32q59 -76 102.5 -104t104.5 -33v-53q-49 -2 -72 -2q-121 0 -180 26q-40 17 -68 44.5t-102 123.5q-52 70 -90 103h-80v-144q0 -54 17 -70t75 -16h31v-55h-410zM686 682q116 2 156 18q90 34 90 134q0 151 -205 151 q-25 0 -41 -4v-299z" />
<glyph unicode="&#xaf;" horiz-adv-x="1024" d="M160 1145v168h704v-168h-704z" />
<glyph unicode="&#xb0;" horiz-adv-x="634" d="M88 1169q0 94 67 160t162 66q94 0 161 -67t67 -161q0 -93 -67.5 -160t-160.5 -67q-95 0 -162 67t-67 162zM180 1169q0 -56 40 -95.5t97 -39.5q55 0 95.5 39.5t40.5 93.5q0 57 -40.5 97.5t-97.5 40.5q-55 0 -95 -40t-40 -96z" />
<glyph unicode="&#xb1;" d="M113 23v122h874v-122h-874zM113 596v123h376v348h123v-348h375v-123h-375v-348h-123v348h-376z" />
<glyph unicode="&#xb2;" horiz-adv-x="710" d="M53 803v55q56 56 147 154t124 139q88 107 88 211q0 74 -34.5 117t-94.5 43q-55 0 -97.5 -40.5t-54.5 -103.5h-65q15 120 91.5 193.5t186.5 73.5q104 0 174 -68.5t70 -169.5q0 -79 -39 -139.5t-156 -161.5q-94 -80 -160 -154h220q61 0 80.5 17.5t31.5 83.5h56l-27 -250 h-541z" />
<glyph unicode="&#xb3;" horiz-adv-x="708" d="M47 899q0 32 23 54t57 22q28 0 47.5 -13t42.5 -47q24 -33 43.5 -46t46.5 -13q49 0 80 47.5t31 122.5q0 80 -36.5 130t-94.5 50q-20 0 -45 -10l-29 47q66 46 103.5 97.5t37.5 97.5q0 38 -26 64t-64 26q-73 0 -125 -96l-51 22q29 89 95.5 138.5t154.5 49.5q80 0 134 -43.5 t54 -109.5q0 -49 -29.5 -89t-97.5 -85q85 -5 138 -66.5t53 -156.5q0 -133 -97 -221.5t-243 -88.5q-86 0 -144.5 33.5t-58.5 83.5z" />
<glyph unicode="&#xb4;" horiz-adv-x="1024" d="M338 1022l162 414h346l-373 -414h-135z" />
<glyph unicode="&#xb5;" horiz-adv-x="983" d="M-14 -283q0 41 18 133q28 133 46 315t18 333v399h268v-549q0 -146 31 -203q12 -22 39 -36.5t53 -14.5q41 0 79 25.5t85 85.5v692h268v-627q0 -103 16.5 -136.5t67.5 -33.5q23 0 57 11v-41l-262 -93q-4 -2 -12 -2q-18 0 -39 11t-33 26q-11 14 -18 30.5t-27 76.5 q-85 -91 -136 -120.5t-124 -29.5q-85 0 -133 37.5t-88 132.5v-33q0 -62 9 -102t54 -184q23 -77 23 -105q0 -51 -35.5 -83.5t-91.5 -32.5q-60 0 -96.5 32t-36.5 86z" />
<glyph unicode="&#xb6;" d="M51 952q0 121 48 227t128 160q104 68 265 68h595v-86q-108 -7 -135.5 -48.5t-27.5 -189.5v-1183q0 -63 3.5 -99.5t12 -65t28 -41.5t46.5 -20t73 -10v-88h-747v88q46 3 73 10t47 20t28.5 41.5t12 65t3.5 99.5v602h-51q-178 0 -290 125t-112 325zM649 -315h131v1613h-131 v-1613z" />
<glyph unicode="&#xb7;" horiz-adv-x="686" d="M174 731q0 67 50.5 116.5t119.5 49.5t118.5 -49.5t49.5 -118.5q0 -70 -49.5 -120t-118.5 -50q-71 0 -120.5 50t-49.5 122z" />
<glyph unicode="&#xb8;" horiz-adv-x="1024" d="M272 -397l21 65q54 -26 123 -26q40 0 68 26.5t28 63.5q0 40 -29.5 60t-95.5 24l139 196h74l-49 -84q65 -17 100 -62.5t35 -111.5q0 -88 -63.5 -146.5t-159.5 -58.5q-103 0 -191 54z" />
<glyph unicode="&#xb9;" horiz-adv-x="708" d="M102 1448q171 76 275 194h86v-731q0 -26 8.5 -36.5t28.5 -12.5l96 -4v-55h-442v55l92 4q21 2 29 11t8 32v555q-94 -49 -156 -63z" />
<glyph unicode="&#xba;" horiz-adv-x="888" d="M96 623v88h699v-88h-699zM109 1100q0 123 100 207t246 84q141 0 233 -78.5t92 -198.5q0 -126 -99 -210.5t-247 -84.5q-144 0 -234.5 78.5t-90.5 202.5zM301 1176q0 -121 50 -205t122 -84q56 0 85.5 40t29.5 115q0 122 -47.5 201.5t-120.5 79.5q-56 0 -87.5 -39 t-31.5 -108z" />
<glyph unicode="&#xbb;" horiz-adv-x="937" d="M55 111l142 378l-142 379h72l293 -379l-293 -378h-72zM438 76l178 411l-176 410h68l373 -410l-373 -411h-70z" />
<glyph unicode="&#xbc;" horiz-adv-x="1665" d="M102 1192q171 76 275 194h86v-731q0 -26 8.5 -36.5t28.5 -12.5l96 -4v-55h-442v55l92 4q21 2 29 11t8 32v555q-94 -49 -156 -63zM367 0l874 1366h137l-874 -1366h-137zM1010 203v67l389 570h82v-539h114v-98h-114v-223h-181v223h-290zM1110 301h190v279z" />
<glyph unicode="&#xbd;" horiz-adv-x="1665" d="M102 1192q171 76 275 194h86v-731q0 -26 8.5 -36.5t28.5 -12.5l96 -4v-55h-442v55l92 4q21 2 29 11t8 32v555q-94 -49 -156 -63zM326 0l874 1366h137l-874 -1366h-137zM1008 0v55q56 56 147 155t123 138q88 113 88 213q0 74 -34.5 117t-94.5 43q-55 0 -97.5 -40.5 t-54.5 -105.5h-65q15 120 92 193.5t186 73.5q104 0 174 -68.5t70 -169.5q0 -80 -38.5 -140t-155.5 -163q-114 -99 -160 -151h219q62 0 81.5 17t31.5 81h55l-27 -248h-540z" />
<glyph unicode="&#xbe;" horiz-adv-x="1665" d="M47 643q0 32 23 54t57 22q28 0 47.5 -13t42.5 -47q24 -33 43.5 -46t46.5 -13q49 0 80 47.5t31 122.5q0 80 -36.5 130t-94.5 50q-20 0 -45 -10l-29 47q66 46 103.5 97.5t37.5 97.5q0 38 -26 64t-64 26q-73 0 -125 -96l-51 22q29 89 95.5 138.5t154.5 49.5q80 0 134 -43.5 t54 -109.5q0 -49 -29.5 -89t-97.5 -85q85 -5 138 -66.5t53 -156.5q0 -133 -97 -221.5t-243 -88.5q-86 0 -144.5 33.5t-58.5 83.5zM352 0l875 1366h137l-875 -1366h-137zM1010 203v67l389 570h82v-539h114v-98h-114v-223h-181v223h-290zM1110 301h190v279z" />
<glyph unicode="&#xbf;" horiz-adv-x="800" d="M59 10q0 98 36.5 174.5t105.5 120.5q46 29 87 45t148 45q32 9 46 23t14 37q0 21 -7.5 41t-31.5 63h78q92 -154 92 -252q0 -74 -48.5 -117t-168.5 -75q-112 -30 -160 -58q-40 -22 -62 -55t-22 -70q0 -62 40 -101.5t101 -39.5q45 0 129 21q80 18 119 18q62 0 97.5 -32 t35.5 -87q0 -66 -59 -105.5t-156 -39.5q-182 0 -298 124.5t-116 319.5zM293 840q0 64 52 106.5t130 42.5q72 0 121 -42t49 -105t-51 -105.5t-125 -42.5q-76 0 -126 41.5t-50 104.5z" />
<glyph unicode="&#xc0;" horiz-adv-x="1585" d="M0 0v86h33q82 0 128 43t87 160l375 1048l-23 62h322l440 -1116q43 -108 89.5 -149.5t133.5 -47.5v-86h-717v86h76q70 0 101.5 20t31.5 64q0 32 -26 94l-101 246h-477l-92 -260q-21 -65 -21 -82q0 -41 35 -59q52 -23 160 -23h29v-86h-584zM285 1851h395l235 -366h-163z M518 631h383l-203 512z" />
<glyph unicode="&#xc1;" horiz-adv-x="1585" d="M0 0v86h33q82 0 128 43t87 160l375 1048l-23 62h322l440 -1116q43 -108 89.5 -149.5t133.5 -47.5v-86h-717v86h76q70 0 101.5 20t31.5 64q0 32 -26 94l-101 246h-477l-92 -260q-21 -65 -21 -82q0 -41 35 -59q52 -23 160 -23h29v-86h-584zM518 631h383l-203 512zM616 1483 l240 368h383l-451 -368h-172z" />
<glyph unicode="&#xc2;" horiz-adv-x="1585" d="M0 0v86h33q82 0 128 43t87 160l375 1048l-23 62h322l440 -1116q43 -108 89.5 -149.5t133.5 -47.5v-86h-717v86h76q70 0 101.5 20t31.5 64q0 32 -26 94l-101 246h-477l-92 -260q-21 -65 -21 -82q0 -41 35 -59q52 -23 160 -23h29v-86h-584zM336 1485l244 366h395l244 -366 h-218l-221 215l-231 -215h-213zM518 631h383l-203 512z" />
<glyph unicode="&#xc3;" horiz-adv-x="1585" d="M0 0v86h33q82 0 128 43t87 160l375 1048l-23 62h322l440 -1116q43 -108 89.5 -149.5t133.5 -47.5v-86h-717v86h76q70 0 101.5 20t31.5 64q0 32 -26 94l-101 246h-477l-92 -260q-21 -65 -21 -82q0 -41 35 -59q52 -23 160 -23h29v-86h-584zM360 1479q10 87 31 143 q31 83 94.5 133.5t137.5 50.5q47 0 88 -14.5t139 -65.5q74 -36 123 -36q79 0 108 112h140q-4 -146 -77 -235.5t-186 -89.5q-54 0 -147 45q-94 45 -129.5 58t-65.5 13q-45 0 -71 -26.5t-41 -87.5h-144zM518 631h383l-203 512z" />
<glyph unicode="&#xc4;" horiz-adv-x="1585" d="M0 0v86h33q82 0 128 43t87 160l375 1048l-23 62h322l440 -1116q43 -108 89.5 -149.5t133.5 -47.5v-86h-717v86h76q70 0 101.5 20t31.5 64q0 32 -26 94l-101 246h-477l-92 -260q-21 -65 -21 -82q0 -41 35 -59q52 -23 160 -23h29v-86h-584zM362 1638q0 63 45.5 108.5 t108.5 45.5q64 0 110 -46t46 -110q0 -63 -45.5 -108t-108.5 -45q-65 0 -110.5 45.5t-45.5 109.5zM518 631h383l-203 512zM913 1638q0 63 45.5 108.5t108.5 45.5q65 0 110.5 -46t45.5 -110q0 -63 -45.5 -108t-108.5 -45q-65 0 -110.5 45.5t-45.5 109.5z" />
<glyph unicode="&#xc5;" horiz-adv-x="1585" d="M0 0v86h33q82 0 128 43t87 160l377 1050q-54 32 -85.5 90.5t-31.5 124.5q0 106 76 182t182 76t182 -76t76 -182q0 -111 -86 -194l424 -1077q43 -108 89.5 -149.5t133.5 -47.5v-86h-717v86h76q70 0 101.5 20t31.5 64q0 32 -26 94l-101 246h-477l-92 -260q-21 -65 -21 -82 q0 -41 35 -59q52 -23 160 -23h29v-86h-584zM518 631h383l-203 512zM621 1554q0 -61 42.5 -104t102.5 -43t102.5 42.5t42.5 102.5q0 61 -42.5 104.5t-102.5 43.5t-102.5 -43t-42.5 -103z" />
<glyph unicode="&#xc6;" horiz-adv-x="1972" d="M-35 0v86h19q76 0 143.5 62t136.5 196l422 821q21 42 21 68q0 31 -33 41q-14 4 -74 4h-43v88h1247l21 -319h-88l-4 24q-11 66 -22 95.5t-32 47.5q-22 19 -48.5 25t-90.5 6h-342v-500h223q106 0 145.5 32.5t45.5 125.5h88v-436h-88q-2 91 -42 124.5t-147 33.5h-225v-303 q0 -143 19 -170q12 -17 28.5 -24t46.5 -7h250q131 0 191 51.5t82 181.5h83l-30 -354h-1194v86h31q61 0 94.5 9.5t58.5 33.5q23 21 30 50.5t7 99.5v192h-426l-96 -190q-43 -84 -43 -123q0 -32 25.5 -52t68.5 -20h45v-86h-504zM532 592h363v708z" />
<glyph unicode="&#xc7;" horiz-adv-x="1607" d="M96 680q0 149 66 282.5t178.5 229.5t269 152.5t330.5 56.5q92 0 170 -16t178 -56q54 -20 72 -20q26 0 43 22h55l21 -385h-88q-51 164 -165 253t-272 89q-235 0 -382.5 -162t-147.5 -421q0 -174 73 -318t201 -226.5t283 -82.5q151 0 271 82.5t186 232.5h88 q-11 -74 -50 -199.5t-75 -199.5q-59 16 -129 16q-64 0 -189 -22q-103 -16 -182 -19l-35 -49q85 -19 131.5 -69.5t46.5 -122.5q0 -98 -84 -163t-212 -65q-135 0 -254 58l26 73q75 -28 164 -28q54 0 91.5 29.5t37.5 70.5q0 44 -37 65.5t-129 28.5l152 178q-153 14 -273 70 q-197 89 -313.5 261.5t-116.5 373.5z" />
<glyph unicode="&#xc8;" horiz-adv-x="1413" d="M-10 0v86h71q64 0 97.5 9t58.5 34q21 20 28 50t7 100v808q0 76 -8.5 107t-36.5 53q-25 19 -56.5 26t-89.5 7h-22v86h1208l25 -317h-86q-14 109 -43 151q-20 28 -47.5 36.5t-98.5 8.5h-442v-500h322q81 0 118.5 13t57.5 47q15 29 20 96h90v-436h-88v20q0 78 -43 109 t-153 31h-324v-310v-53t1.5 -41.5t1.5 -34t5 -23.5t6.5 -18.5t11.5 -11t14.5 -8t20.5 -3t25.5 -2t32.5 0.5h295q110 0 157.5 18.5t79.5 73.5q31 51 49 131h82l-26 -344h-1321zM266 1851h396l235 -366h-164z" />
<glyph unicode="&#xc9;" horiz-adv-x="1413" d="M-10 0v86h71q64 0 97.5 9t58.5 34q21 20 28 50t7 100v808q0 76 -8.5 107t-36.5 53q-25 19 -56.5 26t-89.5 7h-22v86h1208l25 -317h-86q-14 109 -43 151q-20 28 -47.5 36.5t-98.5 8.5h-442v-500h322q81 0 118.5 13t57.5 47q15 29 20 96h90v-436h-88v20q0 78 -43 109 t-153 31h-324v-310v-53t1.5 -41.5t1.5 -34t5 -23.5t6.5 -18.5t11.5 -11t14.5 -8t20.5 -3t25.5 -2t32.5 0.5h295q110 0 157.5 18.5t79.5 73.5q31 51 49 131h82l-26 -344h-1321zM543 1483l239 368h383l-450 -368h-172z" />
<glyph unicode="&#xca;" horiz-adv-x="1413" d="M-10 0v86h71q64 0 97.5 9t58.5 34q21 20 28 50t7 100v808q0 76 -8.5 107t-36.5 53q-25 19 -56.5 26t-89.5 7h-22v86h1208l25 -317h-86q-14 109 -43 151q-20 28 -47.5 36.5t-98.5 8.5h-442v-500h322q81 0 118.5 13t57.5 47q15 29 20 96h90v-436h-88v20q0 78 -43 109 t-153 31h-324v-310v-53t1.5 -41.5t1.5 -34t5 -23.5t6.5 -18.5t11.5 -11t14.5 -8t20.5 -3t25.5 -2t32.5 0.5h295q110 0 157.5 18.5t79.5 73.5q31 51 49 131h82l-26 -344h-1321zM250 1485l244 366h395l244 -366h-218l-221 215l-231 -215h-213z" />
<glyph unicode="&#xcb;" horiz-adv-x="1413" d="M-10 0v86h71q64 0 97.5 9t58.5 34q21 20 28 50t7 100v808q0 76 -8.5 107t-36.5 53q-25 19 -56.5 26t-89.5 7h-22v86h1208l25 -317h-86q-14 109 -43 151q-20 28 -47.5 36.5t-98.5 8.5h-442v-500h322q81 0 118.5 13t57.5 47q15 29 20 96h90v-436h-88v20q0 78 -43 109 t-153 31h-324v-310v-53t1.5 -41.5t1.5 -34t5 -23.5t6.5 -18.5t11.5 -11t14.5 -8t20.5 -3t25.5 -2t32.5 0.5h295q110 0 157.5 18.5t79.5 73.5q31 51 49 131h82l-26 -344h-1321zM248 1638q0 63 45 108.5t108 45.5q65 0 110.5 -46t45.5 -110q0 -63 -45.5 -108t-108.5 -45 q-65 0 -110 45.5t-45 109.5zM799 1638q0 63 45 108.5t108 45.5q64 0 110 -46t46 -110q0 -63 -45.5 -108t-108.5 -45q-64 0 -109.5 45.5t-45.5 109.5z" />
<glyph unicode="&#xcc;" horiz-adv-x="808" d="M-35 1851h395l236 -366h-164zM61 0v86h7q106 0 149 43q22 22 28.5 51t6.5 99v808q0 76 -8.5 107t-36.5 53q-44 33 -139 33h-7v86h699v-86h-15q-63 0 -96.5 -9t-58.5 -34q-22 -22 -28.5 -51t-6.5 -99v-808q0 -76 8.5 -107t36.5 -51q25 -20 55.5 -27.5t89.5 -7.5h15v-86 h-699z" />
<glyph unicode="&#xcd;" horiz-adv-x="808" d="M61 0v86h7q106 0 149 43q22 22 28.5 51t6.5 99v808q0 76 -8.5 107t-36.5 53q-44 33 -139 33h-7v86h699v-86h-15q-63 0 -96.5 -9t-58.5 -34q-22 -22 -28.5 -51t-6.5 -99v-808q0 -76 8.5 -107t36.5 -51q25 -20 55.5 -27.5t89.5 -7.5h15v-86h-699zM201 1483l239 368h383 l-450 -368h-172z" />
<glyph unicode="&#xce;" horiz-adv-x="808" d="M-39 1485l244 366h395l244 -366h-217l-221 215l-232 -215h-213zM61 0v86h7q106 0 149 43q22 22 28.5 51t6.5 99v808q0 76 -8.5 107t-36.5 53q-44 33 -139 33h-7v86h699v-86h-15q-63 0 -96.5 -9t-58.5 -34q-22 -22 -28.5 -51t-6.5 -99v-808q0 -76 8.5 -107t36.5 -51 q25 -20 55.5 -27.5t89.5 -7.5h15v-86h-699z" />
<glyph unicode="&#xcf;" horiz-adv-x="808" d="M37 1638q0 63 45 108.5t108 45.5q64 0 110 -46t46 -110q0 -63 -45 -108t-108 -45q-65 0 -110.5 45.5t-45.5 109.5zM61 0v86h7q106 0 149 43q22 22 28.5 51t6.5 99v808q0 76 -8.5 107t-36.5 53q-44 33 -139 33h-7v86h699v-86h-15q-63 0 -96.5 -9t-58.5 -34 q-22 -22 -28.5 -51t-6.5 -99v-808q0 -76 8.5 -107t36.5 -51q25 -20 55.5 -27.5t89.5 -7.5h15v-86h-699zM465 1638q0 63 45 108.5t108 45.5q64 0 110 -46t46 -110q0 -63 -45 -108t-108 -45q-65 0 -110.5 45.5t-45.5 109.5z" />
<glyph unicode="&#xd0;" horiz-adv-x="1792" d="M47 0v86h14q64 0 97.5 9t58.5 34q22 22 28.5 51t6.5 99v364h-191v78h191v366q0 76 -8.5 107t-36.5 53q-25 19 -56.5 26t-89.5 7h-12v86l174 12q292 19 484 19q186 0 304.5 -13.5t229.5 -46.5q209 -63 332 -230t123 -390q0 -207 -116 -382.5t-302 -250.5 q-116 -46 -242 -65t-319 -19h-670zM555 256q0 -40 2 -65t10 -45.5t19.5 -31t34 -17.5t49.5 -9t71 -2q165 0 292.5 51t205.5 148q129 164 129 399q0 163 -61 297t-168 209q-143 104 -412 104q-70 0 -172 -10v-563h344v-78h-344v-387z" />
<glyph unicode="&#xd1;" horiz-adv-x="1792" d="M72 0v86h22q101 0 137 51q14 19 17.5 41.5t3.5 87.5v967q-66 47 -176 47v86h452l897 -934v662q0 118 -37.5 152t-168.5 34h-25v86h567v-86h-24q-100 0 -144 -27q-23 -17 -28.5 -40.5t-5.5 -106.5v-1114h-119l-1055 1102v-811q0 -87 16 -123t64 -56q50 -18 137 -18v-86 h-530zM463 1479q10 87 31 143q31 83 94 133.5t137 50.5q47 0 88 -14.5t139 -65.5q74 -36 123 -36q80 0 109 112h139q-4 -146 -76.5 -235.5t-185.5 -89.5q-55 0 -148 45q-94 45 -129 58t-65 13q-45 0 -71.5 -26.5t-41.5 -87.5h-143z" />
<glyph unicode="&#xd2;" horiz-adv-x="1814" d="M96 680q0 149 65 287t183 241q107 94 265.5 147.5t326.5 53.5q229 0 408 -88t278.5 -247t99.5 -363q0 -213 -106 -382.5t-295.5 -264.5t-427.5 -95q-233 0 -414.5 89.5t-282 251.5t-100.5 370zM426 766q0 -313 144 -508t374 -195q235 0 354 193q44 74 70.5 177.5 t26.5 205.5q0 290 -158 502q-132 174 -354 174q-209 0 -333 -149t-124 -400zM510 1851h395l236 -366h-164z" />
<glyph unicode="&#xd3;" horiz-adv-x="1814" d="M96 680q0 149 65 287t183 241q107 94 265.5 147.5t326.5 53.5q229 0 408 -88t278.5 -247t99.5 -363q0 -213 -106 -382.5t-295.5 -264.5t-427.5 -95q-233 0 -414.5 89.5t-282 251.5t-100.5 370zM426 766q0 -313 144 -508t374 -195q235 0 354 193q44 74 70.5 177.5 t26.5 205.5q0 290 -158 502q-132 174 -354 174q-209 0 -333 -149t-124 -400zM664 1483l239 368h383l-450 -368h-172z" />
<glyph unicode="&#xd4;" horiz-adv-x="1814" d="M96 680q0 149 65 287t183 241q107 94 265.5 147.5t326.5 53.5q229 0 408 -88t278.5 -247t99.5 -363q0 -213 -106 -382.5t-295.5 -264.5t-427.5 -95q-233 0 -414.5 89.5t-282 251.5t-100.5 370zM426 766q0 -313 144 -508t374 -195q235 0 354 193q44 74 70.5 177.5 t26.5 205.5q0 290 -158 502q-132 174 -354 174q-209 0 -333 -149t-124 -400zM465 1485l244 366h395l244 -366h-218l-221 215l-231 -215h-213z" />
<glyph unicode="&#xd5;" horiz-adv-x="1814" d="M96 680q0 149 65 287t183 241q107 94 265.5 147.5t326.5 53.5q229 0 408 -88t278.5 -247t99.5 -363q0 -213 -106 -382.5t-295.5 -264.5t-427.5 -95q-233 0 -414.5 89.5t-282 251.5t-100.5 370zM426 766q0 -313 144 -508t374 -195q235 0 354 193q44 74 70.5 177.5 t26.5 205.5q0 290 -158 502q-132 174 -354 174q-209 0 -333 -149t-124 -400zM496 1479q11 91 30 143q31 83 94.5 133.5t137.5 50.5q47 0 88 -14.5t139 -65.5q74 -36 123 -36q80 0 109 112h139q-4 -146 -76.5 -235.5t-185.5 -89.5q-55 0 -148 45q-94 45 -129 58t-65 13 q-45 0 -71.5 -26.5t-41.5 -87.5h-143z" />
<glyph unicode="&#xd6;" horiz-adv-x="1814" d="M96 680q0 149 65 287t183 241q107 94 265.5 147.5t326.5 53.5q229 0 408 -88t278.5 -247t99.5 -363q0 -213 -106 -382.5t-295.5 -264.5t-427.5 -95q-233 0 -414.5 89.5t-282 251.5t-100.5 370zM426 766q0 -313 144 -508t374 -195q235 0 354 193q44 74 70.5 177.5 t26.5 205.5q0 290 -158 502q-132 174 -354 174q-209 0 -333 -149t-124 -400zM477 1638q0 63 45.5 108.5t108.5 45.5q64 0 109.5 -45.5t45.5 -110.5q0 -63 -45 -108t-108 -45q-65 0 -110.5 45.5t-45.5 109.5zM1028 1638q0 63 45.5 108.5t108.5 45.5q64 0 109.5 -45.5 t45.5 -110.5q0 -63 -45 -108t-108 -45q-65 0 -110.5 45.5t-45.5 109.5z" />
<glyph unicode="&#xd7;" d="M168 362l295 295l-295 295l86 86l295 -295l295 295l86 -86l-295 -295l295 -295l-86 -86l-295 295l-295 -295z" />
<glyph unicode="&#xd8;" horiz-adv-x="1818" d="M96 670q0 157 63.5 294.5t174.5 235t266 153.5t332 56q255 0 454 -111l177 207l63 -51l-172 -201q132 -98 202 -237t70 -305q0 -208 -106.5 -378t-294.5 -267t-418 -97q-248 0 -461 109l-192 -225l-59 49l184 217q-134 92 -208.5 237.5t-74.5 313.5zM426 758 q0 -125 29.5 -245t83.5 -210l706 830q-72 94 -159 138t-201 44q-212 0 -335.5 -150t-123.5 -407zM584 238q138 -179 360 -179q236 0 354 195q45 76 71 178.5t26 208.5q0 118 -24.5 216t-80.5 206z" />
<glyph unicode="&#xd9;" horiz-adv-x="1701" d="M27 1280v86h688v-86h-10q-107 0 -150 -43q-22 -22 -28.5 -51t-6.5 -99v-542q0 -113 9 -163t38 -99q46 -80 139 -124t216 -44q163 0 270 72t141 204q11 40 14 85.5t3 154.5v383q0 96 -10 144.5t-35 74.5q-47 47 -156 47h-19v86h570v-86h-17q-112 0 -163 -51 q-22 -23 -29.5 -61.5t-7.5 -129.5v-407q0 -131 -8 -196t-33 -134q-58 -163 -209 -247.5t-381 -84.5q-245 0 -408 95t-206 262q-21 83 -21 227v534q0 77 -6 108t-23 48q-37 37 -147 37h-14zM424 1851h395l236 -366h-164z" />
<glyph unicode="&#xda;" horiz-adv-x="1701" d="M27 1280v86h688v-86h-10q-107 0 -150 -43q-22 -22 -28.5 -51t-6.5 -99v-542q0 -113 9 -163t38 -99q46 -80 139 -124t216 -44q163 0 270 72t141 204q11 40 14 85.5t3 154.5v383q0 96 -10 144.5t-35 74.5q-47 47 -156 47h-19v86h570v-86h-17q-112 0 -163 -51 q-22 -23 -29.5 -61.5t-7.5 -129.5v-407q0 -131 -8 -196t-33 -134q-58 -163 -209 -247.5t-381 -84.5q-245 0 -408 95t-206 262q-21 83 -21 227v534q0 77 -6 108t-23 48q-37 37 -147 37h-14zM741 1483l240 368h383l-451 -368h-172z" />
<glyph unicode="&#xdb;" horiz-adv-x="1701" d="M27 1280v86h688v-86h-10q-107 0 -150 -43q-22 -22 -28.5 -51t-6.5 -99v-542q0 -113 9 -163t38 -99q46 -80 139 -124t216 -44q163 0 270 72t141 204q11 40 14 85.5t3 154.5v383q0 96 -10 144.5t-35 74.5q-47 47 -156 47h-19v86h570v-86h-17q-112 0 -163 -51 q-22 -23 -29.5 -61.5t-7.5 -129.5v-407q0 -131 -8 -196t-33 -134q-58 -163 -209 -247.5t-381 -84.5q-245 0 -408 95t-206 262q-21 83 -21 227v534q0 77 -6 108t-23 48q-37 37 -147 37h-14zM449 1485l243 366h395l244 -366h-217l-221 215l-231 -215h-213z" />
<glyph unicode="&#xdc;" horiz-adv-x="1701" d="M27 1280v86h688v-86h-10q-107 0 -150 -43q-22 -22 -28.5 -51t-6.5 -99v-542q0 -113 9 -163t38 -99q46 -80 139 -124t216 -44q163 0 270 72t141 204q11 40 14 85.5t3 154.5v383q0 96 -10 144.5t-35 74.5q-47 47 -156 47h-19v86h570v-86h-17q-112 0 -163 -51 q-22 -23 -29.5 -61.5t-7.5 -129.5v-407q0 -131 -8 -196t-33 -134q-58 -163 -209 -247.5t-381 -84.5q-245 0 -408 95t-206 262q-21 83 -21 227v534q0 77 -6 108t-23 48q-37 37 -147 37h-14zM475 1638q0 63 45.5 108.5t108.5 45.5q64 0 109.5 -45.5t45.5 -110.5 q0 -63 -45 -108t-108 -45q-65 0 -110.5 45.5t-45.5 109.5zM1026 1638q0 63 45.5 108.5t108.5 45.5q64 0 109.5 -45.5t45.5 -110.5q0 -63 -45 -108t-108 -45q-65 0 -110.5 45.5t-45.5 109.5z" />
<glyph unicode="&#xdd;" horiz-adv-x="1619" d="M-6 1278v88h717v-88h-19q-71 0 -101 -13.5t-30 -45.5q0 -4 0.5 -7t1 -5.5t2.5 -6.5t4 -7t6.5 -9.5t8.5 -11.5t12.5 -16t15.5 -21l324 -430l242 376q23 35 38 71.5t15 57.5q0 68 -119 68h-27v88h521v-88q-107 -7 -152.5 -41t-136.5 -174l-332 -514v-270q0 -76 8.5 -107 t36.5 -51q25 -20 56 -27.5t90 -7.5h34v-86h-751v86h33q63 0 96.5 9t58.5 34q22 22 28.5 51t6.5 99v270l-428 567q-63 83 -77 99.5t-34 31.5q-24 18 -52 24.5t-83 6.5h-14zM700 1483l240 368h383l-451 -368h-172z" />
<glyph unicode="&#xde;" horiz-adv-x="1421" d="M51 1280v86h731v-86h-34q-104 0 -147.5 -33t-43.5 -112v-27q136 18 234 18q263 0 417 -116t154 -314q0 -189 -149.5 -302t-401.5 -113q-127 0 -254 22v-24q0 -76 8.5 -107t36.5 -51q25 -20 56 -27.5t90 -7.5h67v-86h-747v86h34q60 0 88.5 9t45.5 32q11 18 14.5 44.5 t3.5 92.5v838q0 66 -3.5 92.5t-14.5 44.5q-17 23 -45.5 32t-88.5 9h-51zM557 393q69 -14 156 -14q153 0 236 85.5t83 242.5q0 158 -82.5 243.5t-234.5 85.5q-79 0 -158 -18v-625z" />
<glyph unicode="&#xdf;" horiz-adv-x="1241" d="M43 0v70h8q32 0 61 9t40 23q20 29 20 174v588q0 301 64 414q54 97 162 148t259 51q193 0 315 -93t122 -241q0 -128 -94.5 -224t-256.5 -133q120 -13 203 -57q221 -114 221 -336q0 -115 -63 -211.5t-172 -152.5t-238 -56q-21 0 -37 2v74q122 12 180 87.5t58 223.5 q0 180 -78 283.5t-219 114.5v69q118 4 174.5 72t56.5 203q0 153 -63 225q-64 70 -145 70q-99 0 -146 -101q-22 -46 -28.5 -103.5t-6.5 -203.5v-713q0 -150 23 -176q9 -10 35 -20t45 -10h8v-70h-508z" />
<glyph unicode="&#xe0;" horiz-adv-x="1013" d="M80 207q0 128 100 203q28 20 53 30.5t97 32.5q188 58 270 131v82q0 63 -38.5 105.5t-96.5 42.5q-57 0 -88 -34.5t-31 -97.5q0 -20 4 -38l-246 -86q-10 44 -10 73q0 66 34 113.5t108 85.5q62 31 141 51.5t137 20.5q86 0 175.5 -36.5t133.5 -90.5q49 -61 49 -181v-276 q0 -146 9 -168q9 -35 41 -35q17 0 59 27l33 -51q-54 -57 -125 -94t-125 -37q-127 0 -154 131l-22 -15l-31 -28q-97 -91 -221 -91q-118 0 -187 62t-69 168zM129 1436h354l162 -414h-129zM344 252q0 -68 31 -110t80 -42q28 0 57.5 17.5t91.5 72.5v316q-30 -24 -52.5 -37 t-88.5 -43q-66 -32 -92.5 -71t-26.5 -103z" />
<glyph unicode="&#xe1;" horiz-adv-x="1013" d="M80 207q0 128 100 203q28 20 53 30.5t97 32.5q188 58 270 131v82q0 63 -38.5 105.5t-96.5 42.5q-57 0 -88 -34.5t-31 -97.5q0 -20 4 -38l-246 -86q-10 44 -10 73q0 66 34 113.5t108 85.5q62 31 141 51.5t137 20.5q86 0 175.5 -36.5t133.5 -90.5q49 -61 49 -181v-276 q0 -146 9 -168q9 -35 41 -35q17 0 59 27l33 -51q-54 -57 -125 -94t-125 -37q-127 0 -154 131l-22 -15l-31 -28q-97 -91 -221 -91q-118 0 -187 62t-69 168zM344 252q0 -68 31 -110t80 -42q28 0 57.5 17.5t91.5 72.5v316q-30 -24 -52.5 -37t-88.5 -43q-66 -32 -92.5 -71 t-26.5 -103zM373 1022l162 414h346l-373 -414h-135z" />
<glyph unicode="&#xe2;" horiz-adv-x="1013" d="M80 207q0 128 100 203q28 20 53 30.5t97 32.5q188 58 270 131v82q0 63 -38.5 105.5t-96.5 42.5q-57 0 -88 -34.5t-31 -97.5q0 -20 4 -38l-246 -86q-10 44 -10 73q0 66 34 113.5t108 85.5q62 31 141 51.5t137 20.5q86 0 175.5 -36.5t133.5 -90.5q49 -61 49 -181v-276 q0 -146 9 -168q9 -35 41 -35q17 0 59 27l33 -51q-54 -57 -125 -94t-125 -37q-127 0 -154 131l-22 -15l-31 -28q-97 -91 -221 -91q-118 0 -187 62t-69 168zM154 1022l176 414h323l185 -414h-170l-174 231l-166 -231h-174zM344 252q0 -68 31 -110t80 -42q28 0 57.5 17.5 t91.5 72.5v316q-30 -24 -52.5 -37t-88.5 -43q-66 -32 -92.5 -71t-26.5 -103z" />
<glyph unicode="&#xe3;" horiz-adv-x="1013" d="M80 207q0 128 100 203q28 20 53 30.5t97 32.5q188 58 270 131v82q0 63 -38.5 105.5t-96.5 42.5q-57 0 -88 -34.5t-31 -97.5q0 -20 4 -38l-246 -86q-10 44 -10 73q0 66 34 113.5t108 85.5q62 31 141 51.5t137 20.5q86 0 175.5 -36.5t133.5 -90.5q49 -61 49 -181v-276 q0 -146 9 -168q9 -35 41 -35q17 0 59 27l33 -51q-54 -57 -125 -94t-125 -37q-127 0 -154 131l-22 -15l-31 -28q-97 -91 -221 -91q-118 0 -187 62t-69 168zM90 1067q0 146 67.5 236t176.5 90q73 0 180 -62q59 -32 86 -42.5t53 -10.5q36 0 63.5 29.5t39.5 81.5h141 q-6 -138 -74.5 -230t-165.5 -92q-41 0 -79 13.5t-132 60.5q-78 41 -114 41q-38 0 -63 -27.5t-40 -87.5h-139zM344 252q0 -68 31 -110t80 -42q28 0 57.5 17.5t91.5 72.5v316q-30 -24 -52.5 -37t-88.5 -43q-66 -32 -92.5 -71t-26.5 -103z" />
<glyph unicode="&#xe4;" horiz-adv-x="1013" d="M80 207q0 128 100 203q28 20 53 30.5t97 32.5q188 58 270 131v82q0 63 -38.5 105.5t-96.5 42.5q-57 0 -88 -34.5t-31 -97.5q0 -20 4 -38l-246 -86q-10 44 -10 73q0 66 34 113.5t108 85.5q62 31 141 51.5t137 20.5q86 0 175.5 -36.5t133.5 -90.5q49 -61 49 -181v-276 q0 -146 9 -168q9 -35 41 -35q17 0 59 27l33 -51q-54 -57 -125 -94t-125 -37q-127 0 -154 131l-22 -15l-31 -28q-97 -91 -221 -91q-118 0 -187 62t-69 168zM147 1229q0 53 39 91t93 38t92.5 -38.5t38.5 -92.5t-38.5 -92.5t-92.5 -38.5t-93 39t-39 94zM344 252q0 -68 31 -110 t80 -42q28 0 57.5 17.5t91.5 72.5v316q-30 -24 -52.5 -37t-88.5 -43q-66 -32 -92.5 -71t-26.5 -103zM573 1229q0 53 39 91t93 38t92.5 -38.5t38.5 -92.5t-38.5 -92.5t-92.5 -38.5t-93 39t-39 94z" />
<glyph unicode="&#xe5;" horiz-adv-x="1013" d="M80 207q0 128 100 203q28 20 53 30.5t97 32.5q188 58 270 131v82q0 63 -38.5 105.5t-96.5 42.5q-57 0 -88 -34.5t-31 -97.5q0 -20 4 -38l-246 -86q-10 44 -10 73q0 66 34 113.5t108 85.5q62 31 141 51.5t137 20.5q86 0 175.5 -36.5t133.5 -90.5q49 -61 49 -181v-276 q0 -146 9 -168q9 -35 41 -35q17 0 59 27l33 -51q-54 -57 -125 -94t-125 -37q-127 0 -154 131l-22 -15l-31 -28q-97 -91 -221 -91q-118 0 -187 62t-69 168zM303 1245q0 86 63.5 148.5t149.5 62.5q88 0 149.5 -61.5t61.5 -149.5t-62.5 -150.5t-148.5 -62.5q-89 0 -151 62 t-62 151zM344 252q0 -68 31 -110t80 -42q28 0 57.5 17.5t91.5 72.5v316q-30 -24 -52.5 -37t-88.5 -43q-66 -32 -92.5 -71t-26.5 -103zM383 1245q0 -57 39 -97t94 -40q56 0 95.5 40t39.5 97q0 56 -39 95.5t-94 39.5q-56 0 -95.5 -40t-39.5 -95z" />
<glyph unicode="&#xe6;" horiz-adv-x="1525" d="M82 207q0 68 30 124.5t85 88.5q55 35 161 65q150 40 234 107q4 29 4 55q0 85 -38 136t-101 51q-50 0 -80.5 -32.5t-30.5 -84.5q0 -3 1.5 -11.5t4.5 -21t4 -20.5l-252 -89q-8 31 -8 58q0 120 88 184q66 46 156.5 74.5t171.5 28.5q160 0 264 -84q103 86 260 86 q81 0 155.5 -26.5t127.5 -74.5q66 -63 88 -174q14 -62 23.5 -87t27.5 -48v-35h-600q17 -158 90 -247t185 -89q133 0 262 154l43 -53q-86 -117 -215.5 -191t-249.5 -74q-93 0 -185 41.5t-155 110.5q-155 -149 -309 -149q-110 0 -176 62t-66 165zM342 250q0 -64 30 -107 t74 -43q35 0 75 23t71 61v308q-81 -50 -121 -68q-51 -22 -66 -31.5t-28 -27.5q-35 -41 -35 -115zM858 547h309q-10 107 -22 147q-19 60 -54 92.5t-81 32.5q-72 0 -112 -72t-40 -200z" />
<glyph unicode="&#xe7;" horiz-adv-x="1052" d="M76 412q0 106 44 200.5t119.5 162.5t180.5 107.5t223 39.5q142 0 238 -53.5t96 -133.5q0 -50 -31 -80t-82 -30q-50 0 -82.5 20.5t-101.5 95.5q-38 43 -67 60.5t-60 17.5q-82 0 -132 -92.5t-50 -241.5q0 -175 75.5 -285t196.5 -110q142 0 279 158l63 -37 q-122 -194 -373 -229l-30 -54q63 -17 98 -62.5t35 -111.5q0 -88 -63 -145.5t-160 -57.5q-103 0 -191 52l21 65q57 -24 122 -24q40 0 68.5 26.5t28.5 63.5q0 40 -29.5 60t-95.5 24l114 159q-202 4 -328 125t-126 310z" />
<glyph unicode="&#xe8;" horiz-adv-x="1036" d="M76 428q0 215 132.5 353.5t338.5 138.5q107 0 193 -44t132 -122q34 -55 54 -160q8 -50 43 -70v-49h-613q9 -140 90.5 -238t188.5 -98q116 0 264 158l49 -43q-94 -130 -218.5 -203.5t-252.5 -73.5q-178 0 -289.5 125.5t-111.5 325.5zM168 1436h354l162 -414h-129zM352 545 h314q-2 126 -43 198t-113 72q-69 0 -113.5 -68t-44.5 -174v-28z" />
<glyph unicode="&#xe9;" horiz-adv-x="1036" d="M76 428q0 215 132.5 353.5t338.5 138.5q107 0 193 -44t132 -122q34 -55 54 -160q8 -50 43 -70v-49h-613q9 -140 90.5 -238t188.5 -98q116 0 264 158l49 -43q-94 -130 -218.5 -203.5t-252.5 -73.5q-178 0 -289.5 125.5t-111.5 325.5zM344 1022l162 414h346l-373 -414h-135 zM352 545h314q-2 126 -43 198t-113 72q-69 0 -113.5 -68t-44.5 -174v-28z" />
<glyph unicode="&#xea;" horiz-adv-x="1036" d="M76 428q0 215 132.5 353.5t338.5 138.5q107 0 193 -44t132 -122q34 -55 54 -160q8 -50 43 -70v-49h-613q9 -140 90.5 -238t188.5 -98q116 0 264 158l49 -43q-94 -130 -218.5 -203.5t-252.5 -73.5q-178 0 -289.5 125.5t-111.5 325.5zM166 1022l176 414h324l184 -414h-170 l-174 231l-166 -231h-174zM352 545h314q-2 126 -43 198t-113 72q-69 0 -113.5 -68t-44.5 -174v-28z" />
<glyph unicode="&#xeb;" horiz-adv-x="1036" d="M76 428q0 215 132.5 353.5t338.5 138.5q107 0 193 -44t132 -122q34 -55 54 -160q8 -50 43 -70v-49h-613q9 -140 90.5 -238t188.5 -98q116 0 264 158l49 -43q-94 -130 -218.5 -203.5t-252.5 -73.5q-178 0 -289.5 125.5t-111.5 325.5zM174 1229q0 53 38.5 91t92.5 38 t92.5 -38.5t38.5 -92.5t-38.5 -92.5t-92.5 -38.5t-92.5 39t-38.5 94zM352 545h314q-2 126 -43 198t-113 72q-69 0 -113.5 -68t-44.5 -174v-28zM600 1229q0 53 38.5 91t92.5 38t92.5 -38.5t38.5 -92.5t-38.5 -92.5t-92.5 -38.5t-92.5 39t-38.5 94z" />
<glyph unicode="&#xec;" horiz-adv-x="628" d="M-90 1436h354l162 -414h-129zM33 774v53l375 123h41v-706q0 -104 24 -135q14 -15 43 -27t53 -12h15v-70h-549v70h22q68 0 95.5 34t27.5 119v414q0 56 -10.5 71t-65.5 37z" />
<glyph unicode="&#xed;" horiz-adv-x="628" d="M33 774v53l375 123h41v-706q0 -104 24 -135q14 -15 43 -27t53 -12h15v-70h-549v70h22q68 0 95.5 34t27.5 119v414q0 56 -10.5 71t-65.5 37zM141 1022l162 414h346l-373 -414h-135z" />
<glyph unicode="&#xee;" horiz-adv-x="628" d="M-66 1022l177 414h323l184 -414h-169l-175 231l-165 -231h-175zM33 774v53l375 123h41v-706q0 -104 24 -135q14 -15 43 -27t53 -12h15v-70h-549v70h22q68 0 95.5 34t27.5 119v414q0 56 -10.5 71t-65.5 37z" />
<glyph unicode="&#xef;" horiz-adv-x="628" d="M-12 1229q0 53 38.5 91t92.5 38t92.5 -38.5t38.5 -92.5t-38.5 -92.5t-92.5 -38.5t-92.5 39t-38.5 94zM33 774v53l375 123h41v-706q0 -104 24 -135q14 -15 43 -27t53 -12h15v-70h-549v70h22q68 0 95.5 34t27.5 119v414q0 56 -10.5 71t-65.5 37zM332 1229q0 53 38.5 91 t92.5 38t92.5 -38.5t38.5 -92.5t-38.5 -92.5t-92.5 -38.5t-92.5 39t-38.5 94z" />
<glyph unicode="&#xf0;" horiz-adv-x="1216" d="M76 432q0 95 42.5 185t112 157t164 107.5t193.5 40.5q70 0 149 -29q-31 175 -133 313l-223 -145l-41 63l215 140q-57 64 -154 143l45 61q71 -32 222 -122l223 145l41 -64l-199 -129q95 -76 149 -133t105 -135q156 -245 156 -510q0 -253 -152 -399q-78 -75 -173.5 -109.5 t-225.5 -34.5q-183 0 -313 86q-94 63 -148.5 162.5t-54.5 206.5zM365 559q0 -134 41 -254t108 -184q26 -26 64.5 -42t74.5 -16q97 0 152 73t55 202q0 215 -81.5 354t-207.5 139q-100 0 -153 -70.5t-53 -201.5z" />
<glyph unicode="&#xf1;" horiz-adv-x="1257" d="M31 764v55l377 125h41v-196q49 33 100 61q104 60 174.5 85.5t132.5 25.5q70 0 123 -36.5t76 -101.5q18 -50 24 -99t6 -140v-267q0 -137 17 -165q9 -18 37.5 -29.5t62.5 -11.5h10v-70h-520v70q74 9 99.5 68t25.5 220v131q0 140 -31.5 202.5t-103.5 62.5q-48 0 -97 -20.5 t-136 -76.5v-413q0 -104 24 -135q14 -15 43 -27t53 -12h31v-70h-559v70h14q69 0 97 34t28 119v441q0 29 -31.5 53t-87.5 39zM213 1067q0 146 67.5 236t176.5 90q73 0 180 -62q59 -32 86 -42.5t53 -10.5q36 0 63.5 29.5t39.5 81.5h141q-6 -138 -74.5 -230t-165.5 -92 q-41 0 -79 13.5t-132 60.5q-78 41 -114 41q-38 0 -63 -27.5t-40 -87.5h-139z" />
<glyph unicode="&#xf2;" horiz-adv-x="1220" d="M76 442q0 132 73 242.5t199.5 174t278.5 63.5q227 0 373.5 -128.5t146.5 -328.5q0 -211 -158 -349.5t-399 -138.5q-226 0 -370 130.5t-144 334.5zM262 1436h354l162 -414h-129zM367 567q0 -176 71 -334q37 -80 94 -122.5t127 -42.5q93 0 145 71.5t52 200.5 q0 214 -80 351.5t-205 137.5q-97 0 -150.5 -69.5t-53.5 -192.5z" />
<glyph unicode="&#xf3;" horiz-adv-x="1220" d="M76 442q0 132 73 242.5t199.5 174t278.5 63.5q227 0 373.5 -128.5t146.5 -328.5q0 -211 -158 -349.5t-399 -138.5q-226 0 -370 130.5t-144 334.5zM367 567q0 -176 71 -334q37 -80 94 -122.5t127 -42.5q93 0 145 71.5t52 200.5q0 214 -80 351.5t-205 137.5 q-97 0 -150.5 -69.5t-53.5 -192.5zM436 1022l162 414h346l-373 -414h-135z" />
<glyph unicode="&#xf4;" horiz-adv-x="1220" d="M76 442q0 132 73 242.5t199.5 174t278.5 63.5q227 0 373.5 -128.5t146.5 -328.5q0 -211 -158 -349.5t-399 -138.5q-226 0 -370 130.5t-144 334.5zM281 1022l176 414h323l185 -414h-170l-174 231l-166 -231h-174zM367 567q0 -176 71 -334q37 -80 94 -122.5t127 -42.5 q93 0 145 71.5t52 200.5q0 214 -80 351.5t-205 137.5q-97 0 -150.5 -69.5t-53.5 -192.5z" />
<glyph unicode="&#xf5;" horiz-adv-x="1220" d="M76 442q0 132 73 242.5t199.5 174t278.5 63.5q227 0 373.5 -128.5t146.5 -328.5q0 -211 -158 -349.5t-399 -138.5q-226 0 -370 130.5t-144 334.5zM215 1067q0 146 67.5 236t176.5 90q73 0 180 -62q59 -32 86 -42.5t53 -10.5q36 0 63.5 29.5t39.5 81.5h141 q-6 -138 -74.5 -230t-165.5 -92q-41 0 -79 13.5t-132 60.5q-78 41 -114 41q-38 0 -63 -27.5t-40 -87.5h-139zM367 567q0 -176 71 -334q37 -80 94 -122.5t127 -42.5q93 0 145 71.5t52 200.5q0 214 -80 351.5t-205 137.5q-97 0 -150.5 -69.5t-53.5 -192.5z" />
<glyph unicode="&#xf6;" horiz-adv-x="1220" d="M76 442q0 132 73 242.5t199.5 174t278.5 63.5q227 0 373.5 -128.5t146.5 -328.5q0 -211 -158 -349.5t-399 -138.5q-226 0 -370 130.5t-144 334.5zM266 1229q0 53 38.5 91t92.5 38t92.5 -38.5t38.5 -92.5t-38.5 -92.5t-92.5 -38.5t-92.5 39t-38.5 94zM367 567 q0 -176 71 -334q37 -80 94 -122.5t127 -42.5q93 0 145 71.5t52 200.5q0 214 -80 351.5t-205 137.5q-97 0 -150.5 -69.5t-53.5 -192.5zM692 1229q0 53 38.5 91t92.5 38t92.5 -38.5t38.5 -92.5t-38.5 -92.5t-92.5 -38.5t-92.5 39t-38.5 94z" />
<glyph unicode="&#xf7;" d="M113 596v123h874v-123h-874zM438 315q0 47 33.5 80t79.5 33t78.5 -33.5t32.5 -79.5q0 -44 -33.5 -77t-77.5 -33q-46 0 -79.5 33t-33.5 77zM438 997q0 47 33.5 80t79.5 33t78.5 -33.5t32.5 -79.5q0 -44 -33.5 -77t-77.5 -33q-46 0 -79.5 33t-33.5 77z" />
<glyph unicode="&#xf8;" horiz-adv-x="1220" d="M76 436q0 135 72 246.5t198 175.5t279 64q156 0 282 -66l142 166l61 -55l-133 -156q170 -135 170 -346q0 -136 -72 -248t-197.5 -176t-277.5 -64q-160 0 -285 64l-122 -141l-62 49l115 135q-82 63 -126 154.5t-44 197.5zM367 569q0 -154 51 -286l354 415 q-72 131 -201 131q-95 0 -149.5 -69.5t-54.5 -190.5zM455 203q75 -135 202 -135q95 0 147 71t52 201q0 149 -45 276z" />
<glyph unicode="&#xf9;" horiz-adv-x="1251" d="M88 791v49l315 80h46v-482q0 -112 6.5 -158.5t27.5 -76.5q38 -60 109 -60q78 0 221 90v398q0 64 -15 88t-65 39l-100 30v52l448 80v-672q0 -83 12.5 -108t53.5 -25q31 0 63 14v-68l-354 -84h-43v175q-149 -95 -239.5 -135t-155.5 -40q-117 0 -177.5 85.5t-60.5 248.5v334 q0 64 -8.5 86t-38.5 37zM236 1436h354l162 -414h-129z" />
<glyph unicode="&#xfa;" horiz-adv-x="1251" d="M88 791v49l315 80h46v-482q0 -112 6.5 -158.5t27.5 -76.5q38 -60 109 -60q78 0 221 90v398q0 64 -15 88t-65 39l-100 30v52l448 80v-672q0 -83 12.5 -108t53.5 -25q31 0 63 14v-68l-354 -84h-43v175q-149 -95 -239.5 -135t-155.5 -40q-117 0 -177.5 85.5t-60.5 248.5v334 q0 64 -8.5 86t-38.5 37zM494 1022l161 414h346l-372 -414h-135z" />
<glyph unicode="&#xfb;" horiz-adv-x="1251" d="M88 791v49l315 80h46v-482q0 -112 6.5 -158.5t27.5 -76.5q38 -60 109 -60q78 0 221 90v398q0 64 -15 88t-65 39l-100 30v52l448 80v-672q0 -83 12.5 -108t53.5 -25q31 0 63 14v-68l-354 -84h-43v175q-149 -95 -239.5 -135t-155.5 -40q-117 0 -177.5 85.5t-60.5 248.5v334 q0 64 -8.5 86t-38.5 37zM274 1022l177 414h323l184 -414h-170l-174 231l-165 -231h-175z" />
<glyph unicode="&#xfc;" horiz-adv-x="1251" d="M88 791v49l315 80h46v-482q0 -112 6.5 -158.5t27.5 -76.5q38 -60 109 -60q78 0 221 90v398q0 64 -15 88t-65 39l-100 30v52l448 80v-672q0 -83 12.5 -108t53.5 -25q31 0 63 14v-68l-354 -84h-43v175q-149 -95 -239.5 -135t-155.5 -40q-117 0 -177.5 85.5t-60.5 248.5v334 q0 64 -8.5 86t-38.5 37zM283 1229q0 53 38.5 91t92.5 38t92.5 -38.5t38.5 -92.5t-38.5 -92.5t-92.5 -38.5t-92.5 39t-38.5 94zM709 1229q0 53 38.5 91t92.5 38t92.5 -38.5t38.5 -92.5t-38.5 -92.5t-92.5 -38.5t-92.5 39t-38.5 94z" />
<glyph unicode="&#xfd;" horiz-adv-x="1112" d="M-12 827v70h561v-70h-17q-46 0 -71 -17.5t-25 -49.5q0 -27 29 -84l174 -359l168 338q22 45 22 78q0 41 -37 67t-100 27v70h410v-70q-73 -15 -110.5 -48.5t-82.5 -127.5l-442 -905q-52 -105 -63 -124.5t-33 -49.5q-62 -84 -152 -84q-60 0 -98.5 35.5t-38.5 89.5 q0 66 40 100.5t126 40.5q126 6 190 148l56 121l-299 604q-44 89 -71 127.5t-55.5 54t-80.5 18.5zM463 1022l162 414h346l-373 -414h-135z" />
<glyph unicode="&#xfe;" horiz-adv-x="1245" d="M35 -430h24q42 0 65 10.5t36 36.5q12 20 16 52.5t4 107.5v1384q0 46 -13.5 69.5t-47.5 35.5l-80 28v56l352 118h58v-733q133 108 208 146.5t156 38.5q152 0 255 -118.5t103 -295.5q0 -109 -41 -212t-114 -179q-135 -138 -350 -138q-94 0 -217 27v-221q0 -65 8.5 -102.5 t34 -62t65 -34.5t109.5 -14v-70h-631v70zM449 164q45 -49 106 -78t117 -29q101 0 165 90.5t64 233.5q0 167 -65 271t-168 104q-50 0 -102 -27t-117 -86v-479z" />
<glyph unicode="&#xff;" horiz-adv-x="1112" d="M-12 827v70h561v-70h-17q-46 0 -71 -17.5t-25 -49.5q0 -27 29 -84l174 -359l168 338q22 45 22 78q0 41 -37 67t-100 27v70h410v-70q-73 -15 -110.5 -48.5t-82.5 -127.5l-442 -905q-52 -105 -63 -124.5t-33 -49.5q-62 -84 -152 -84q-60 0 -98.5 35.5t-38.5 89.5 q0 66 40 100.5t126 40.5q126 6 190 148l56 121l-299 604q-44 89 -71 127.5t-55.5 54t-80.5 18.5zM225 1229q0 53 38.5 91t92.5 38t92.5 -38.5t38.5 -92.5t-38.5 -92.5t-92.5 -38.5t-92.5 39t-38.5 94zM651 1229q0 53 38.5 91t92.5 38t92.5 -38.5t38.5 -92.5t-38.5 -92.5 t-92.5 -38.5t-92.5 39t-38.5 94z" />
<glyph unicode="&#x152;" horiz-adv-x="2322" d="M94 682q0 163 72 310t199 245q191 147 487 147q45 0 186 -10q107 -8 248 -8h875l16 -322h-86q-9 55 -14 82.5t-19 54.5t-25.5 36.5t-42.5 17.5t-61.5 9t-91.5 1h-324v-497h250q119 0 157.5 29t45.5 126h86v-436h-88q0 96 -41.5 128t-165.5 32h-244v-506h367 q104 0 152 17.5t77 64.5q36 59 52 149h88l-31 -352h-1143q-78 0 -136.5 -5t-80.5 -5q-380 0 -579 217q-89 98 -137 220.5t-48 254.5zM422 733q0 -174 70.5 -322t191.5 -234.5t264 -86.5q83 0 147 38.5t87 102.5q28 72 28 250v490q0 161 -43 221q-32 46 -99.5 72t-152.5 26 q-223 0 -358 -152.5t-135 -404.5z" />
<glyph unicode="&#x153;" horiz-adv-x="1699" d="M74 446q0 201 149.5 336.5t370.5 135.5q195 0 336 -101q73 55 141 79t150 24q76 0 146 -25t116 -68q64 -58 102 -186q17 -56 27 -80l20 -35v-49h-567q17 -149 89 -238t175 -89q59 0 122 35.5t118 99.5l53 -52q-79 -115 -202 -183t-251 -68q-76 0 -134.5 20t-131.5 72 q-174 -99 -338 -99q-209 0 -350 135.5t-141 335.5zM354 575q0 -87 28 -194t71 -191q29 -58 74.5 -89t99.5 -31q86 0 137 65.5t51 175.5q0 88 -23.5 195t-58.5 176q-31 63 -82.5 100t-109.5 37q-85 0 -136 -67t-51 -177zM1063 547h278q-3 128 -39.5 201t-99.5 73 q-47 0 -82 -36t-47 -99q-10 -44 -10 -139z" />
<glyph unicode="&#x178;" horiz-adv-x="1619" d="M-6 1278v88h717v-88h-19q-71 0 -101 -13.5t-30 -45.5q0 -4 0.5 -7t1 -5.5t2.5 -6.5t4 -7t6.5 -9.5t8.5 -11.5t12.5 -16t15.5 -21l324 -430l242 376q23 35 38 71.5t15 57.5q0 68 -119 68h-27v88h521v-88q-107 -7 -152.5 -41t-136.5 -174l-332 -514v-270q0 -76 8.5 -107 t36.5 -51q25 -20 56 -27.5t90 -7.5h34v-86h-751v86h33q63 0 96.5 9t58.5 34q22 22 28.5 51t6.5 99v270l-428 567q-63 83 -77 99.5t-34 31.5q-24 18 -52 24.5t-83 6.5h-14zM420 1638q0 63 45 108.5t108 45.5q65 0 110.5 -46t45.5 -110q0 -63 -45.5 -108t-108.5 -45 q-65 0 -110 45.5t-45 109.5zM971 1638q0 63 45 108.5t108 45.5q64 0 110 -46t46 -110q0 -63 -45.5 -108t-108.5 -45q-64 0 -109.5 45.5t-45.5 109.5z" />
<glyph unicode="&#x2c6;" horiz-adv-x="1024" d="M160 1022l176 414h323l185 -414h-170l-174 231l-166 -231h-174z" />
<glyph unicode="&#x2dc;" horiz-adv-x="1024" d="M96 1067q0 146 67.5 236t176.5 90q73 0 180 -62q59 -32 86 -42.5t53 -10.5q36 0 63.5 29.5t39.5 81.5h141q-6 -138 -74 -230t-165 -92q-41 0 -79 13.5t-132 60.5q-78 41 -115 41q-38 0 -62.5 -27.5t-39.5 -87.5h-140z" />
<glyph unicode="&#x2000;" horiz-adv-x="925" />
<glyph unicode="&#x2001;" horiz-adv-x="1851" />
<glyph unicode="&#x2002;" horiz-adv-x="925" />
<glyph unicode="&#x2003;" horiz-adv-x="1851" />
<glyph unicode="&#x2004;" horiz-adv-x="617" />
<glyph unicode="&#x2005;" horiz-adv-x="462" />
<glyph unicode="&#x2006;" horiz-adv-x="308" />
<glyph unicode="&#x2007;" horiz-adv-x="308" />
<glyph unicode="&#x2008;" horiz-adv-x="231" />
<glyph unicode="&#x2009;" horiz-adv-x="370" />
<glyph unicode="&#x200a;" horiz-adv-x="102" />
<glyph unicode="&#x2010;" horiz-adv-x="915" d="M80 336v219h760v-219h-760z" />
<glyph unicode="&#x2011;" horiz-adv-x="915" d="M80 336v219h760v-219h-760z" />
<glyph unicode="&#x2012;" horiz-adv-x="915" d="M80 336v219h760v-219h-760z" />
<glyph unicode="&#x2013;" d="M-12 451v198h1124v-198h-1124z" />
<glyph unicode="&#x2014;" horiz-adv-x="2197" d="M-12 451v198h2222v-198h-2222z" />
<glyph unicode="&#x2018;" horiz-adv-x="686" d="M147 1059q0 146 99.5 244t247.5 98q8 0 14 -2l16 -92q-104 -7 -171.5 -58.5t-67.5 -122.5q0 -15 8.5 -24.5t23.5 -9.5q1 0 33 4t41 4q74 0 119 -40t45 -106t-47.5 -106.5t-124.5 -40.5q-107 0 -171.5 69t-64.5 183z" />
<glyph unicode="&#x2019;" horiz-adv-x="618" d="M100 1253q0 66 47.5 107t124.5 41q107 0 171.5 -69t64.5 -183q0 -148 -97 -245t-249 -97h-15l-18 92q106 7 174 58.5t68 123.5q0 15 -9 25t-24 10q-1 0 -33 -4t-41 -4q-74 0 -119 39.5t-45 105.5z" />
<glyph unicode="&#x201a;" horiz-adv-x="686" d="M135 125q0 66 47.5 106.5t124.5 40.5q107 0 171.5 -69t64.5 -183q0 -146 -99 -244t-247 -98h-15l-18 95q106 8 174 58t68 122q0 15 -9 25t-24 10q-1 0 -33 -4t-41 -4q-74 0 -119 39.5t-45 105.5z" />
<glyph unicode="&#x201c;" horiz-adv-x="1282" d="M141 1059q0 146 99 244t247 98q9 0 15 -2l16 -92q-104 -7 -171.5 -58.5t-67.5 -122.5q0 -15 8.5 -24.5t23.5 -9.5q1 0 33 4t41 4q74 0 119 -40t45 -106t-47.5 -106.5t-124.5 -40.5q-107 0 -171.5 69t-64.5 183zM748 1059q0 146 99 244t247 98q6 0 12 -2l18 -92 q-105 -7 -172 -58.5t-67 -122.5q0 -15 9 -24.5t24 -9.5l31 4q31 4 40 4q75 0 119.5 -40t44.5 -106t-47 -106.5t-125 -40.5q-106 0 -169.5 69t-63.5 183z" />
<glyph unicode="&#x201d;" horiz-adv-x="1282" d="M129 1253q0 66 47.5 107t124.5 41q107 0 171.5 -69t64.5 -183q0 -148 -97.5 -245t-249.5 -97h-14l-18 92q106 7 173.5 58.5t67.5 123.5q0 15 -8.5 25t-23.5 10q-1 0 -33 -4t-41 -4q-74 0 -119 39.5t-45 105.5zM737 1253q0 66 47 107t125 41q106 0 170 -69t64 -183 q0 -148 -97 -245t-249 -97h-13l-18 92q104 8 172 59t68 123q0 15 -9 25t-24 10q-1 0 -32 -4t-40 -4q-75 0 -119.5 39.5t-44.5 105.5z" />
<glyph unicode="&#x201e;" horiz-adv-x="1282" d="M127 125q0 66 47.5 106.5t124.5 40.5q107 0 171.5 -69t64.5 -183q0 -146 -99.5 -244t-247.5 -98h-14l-18 95q106 8 173.5 58t67.5 122q0 15 -8.5 25t-23.5 10q-1 0 -33 -4t-41 -4q-74 0 -119 39.5t-45 105.5zM735 125q0 66 47 106.5t125 40.5q106 0 170 -69t64 -183 q0 -146 -99 -244t-247 -98h-13l-18 95q104 6 172 57t68 123q0 35 -33 35q-1 0 -32 -4t-40 -4q-75 0 -119.5 39.5t-44.5 105.5z" />
<glyph unicode="&#x2022;" horiz-adv-x="1366" d="M401 692q0 120 83.5 202.5t205.5 82.5q114 0 196.5 -83.5t82.5 -199.5q0 -118 -83 -201t-200 -83t-201 82.5t-84 199.5z" />
<glyph unicode="&#x2026;" horiz-adv-x="2060" d="M166 125q0 63 51 105t125 42q76 0 126 -41t50 -104q0 -64 -52 -107t-130 -43q-72 0 -121 42.5t-49 105.5zM852 125q0 63 51.5 105t126.5 42q76 0 126 -41t50 -104q0 -64 -52 -107t-130 -43q-73 0 -122.5 42.5t-49.5 105.5zM1538 125q0 63 51.5 105t126.5 42q76 0 126 -41 t50 -104q0 -64 -52 -107t-130 -43q-73 0 -122.5 42.5t-49.5 105.5z" />
<glyph unicode="&#x202f;" horiz-adv-x="370" />
<glyph unicode="&#x2039;" horiz-adv-x="548" d="M47 483l369 414h73l-180 -414l180 -407h-73z" />
<glyph unicode="&#x203a;" horiz-adv-x="548" d="M55 76l176 409l-176 412h70l369 -412l-367 -409h-72z" />
<glyph unicode="&#x205f;" horiz-adv-x="462" />
<glyph unicode="&#x20ac;" horiz-adv-x="1746" d="M94 569l35 84h98q-2 16 -2 27t2 27h-133l35 84h107q50 267 283.5 438.5t549.5 171.5q93 0 172 -16t178 -56q51 -20 72 -20q27 0 43 22h53l21 -385h-86q-53 164 -166 253t-271 89q-215 0 -356.5 -134t-169.5 -363h719l-35 -84h-688q0 -44 2 -54h666l-37 -84h-619 q40 -219 191 -356t352 -137q152 0 271.5 83t185.5 234h88q-9 -73 -48.5 -198t-76.5 -201q-59 16 -127 16q-52 0 -189 -24q-112 -17 -190 -17q-300 0 -519 167t-269 433h-142z" />
<glyph unicode="&#x2122;" horiz-adv-x="2238" d="M68 1143l22 243h51q15 -15 29 -18q10 -2 61 -2h576q32 0 42 3t21 17h50l24 -243h-63q-22 101 -43 124t-93 23h-145v-540q0 -63 20 -82t85 -19h38v-61h-477v61h39q65 0 85 19t20 82v540h-127q-85 0 -108 -23t-42 -124h-65zM1038 588v61h9q62 0 78 19.5t22 105.5l31 473 q1 30 -17.5 42.5t-70.5 15.5v61h282l248 -508l235 508h287v-61l-22 -2q-49 -5 -60.5 -12.5t-11.5 -37.5q0 -22 2 -34l31 -455q4 -78 19.5 -93.5t92.5 -21.5v-61h-417v61h28q57 0 74.5 15t17.5 61q0 12 -2 55l-28 410l-281 -602h-39l-286 588l-29 -412v-41q0 -41 21.5 -57.5 t78.5 -16.5h6v-61h-299z" />
<glyph unicode="&#xe000;" horiz-adv-x="901" d="M0 0v901h901v-901h-901z" />
</font>
</defs>
</svg>
