<?xml version="1.0" standalone="no"?>
<!DOCTYPE svg PUBLIC "-//W3C//DTD SVG 1.1//EN" "http://www.w3.org/Graphics/SVG/1.1/DTD/svg11.dtd" >
<svg xmlns="http://www.w3.org/2000/svg">
<metadata></metadata>
<defs>
<font id="borgia_proitalic" horiz-adv-x="1079" >
<font-face units-per-em="2048" ascent="1479" descent="-569" />
<missing-glyph horiz-adv-x="512" />
<glyph unicode="&#xfb01;" horiz-adv-x="1064" d="M-446 -414q0 29 18.5 48.5t46.5 19.5q25 0 47.5 -11t67.5 -46q61 -46 102 -46q32 0 68.5 18t58.5 44q37 45 69.5 126.5t47.5 170.5l156 883h-158l8 38q132 22 164 39q26 132 61 222t92 172q75 106 168.5 161.5t194.5 55.5q86 0 149.5 -43.5t63.5 -102.5q0 -27 -19 -45 t-47 -18q-32 0 -52 14.5t-58 65.5q-51 67 -119 67q-61 0 -112.5 -35.5t-79.5 -97.5q-51 -108 -89 -313l-18 -103h324q142 0 215 23l-138 -770q-4 -32 -4 -39q0 -11 7 -19t16 -8q47 0 164 142l26 -21q-161 -205 -274 -205q-74 0 -74 90q0 33 15 119l108 611h-397l-107 -594 q-27 -148 -38 -196.5t-33 -104.5q-75 -198 -196.5 -304t-272.5 -106q-81 0 -126.5 26t-45.5 72z" />
<glyph unicode="&#xfb02;" horiz-adv-x="1044" d="M-446 -414q0 30 18.5 48t50.5 18q23 0 43.5 -10t67.5 -45q57 -46 102 -46q31 0 68 18t59 44q37 45 69.5 126.5t47.5 170.5l156 883h-158l6 38q126 21 164 37q29 144 63.5 233t89.5 163q75 104 169 160.5t192 56.5q85 0 149 -43l82 41h31l-238 -1356q-4 -32 -4 -39 q0 -11 7 -19t16 -8q24 0 61 32t101 108l28 -19q-87 -108 -151.5 -156.5t-122.5 -48.5q-35 0 -55.5 23.5t-20.5 64.5q0 32 14 121l109 611h-397l-105 -596q-23 -136 -35.5 -187.5t-35.5 -111.5q-75 -197 -196.5 -303.5t-272.5 -106.5q-81 0 -126.5 26t-45.5 72zM385 870h395 l74 420q-14 11 -20.5 18.5t-32.5 43.5q-53 67 -119 67q-61 0 -113 -35.5t-80 -97.5q-59 -124 -88 -313z" />
<glyph unicode="&#xfb03;" horiz-adv-x="1536" d="M-444 -410q0 27 19 45.5t48 18.5q20 0 36.5 -8.5t70.5 -48.5q60 -46 102 -46q74 0 134 96.5t89 262.5l156 883h-139l6 36q43 6 86.5 18.5t58.5 22.5q28 141 62 230t90 164q75 103 169.5 160t188.5 57q67 0 119.5 -33t52.5 -74q0 -26 -22.5 -45.5t-51.5 -19.5 q-24 0 -44 11.5t-50 43.5q-48 51 -98 51q-52 0 -101 -36t-75 -93q-57 -124 -86 -313l-17 -103h400q27 134 61 224t92 170q75 103 167.5 160t187.5 57q86 0 150.5 -43t64.5 -99q0 -29 -20 -48t-48 -19q-26 0 -48 15.5t-64 62.5q-35 39 -60.5 54t-54.5 15q-55 0 -108 -37 t-81 -96q-49 -108 -86 -313l-18 -103h297q87 0 135.5 6t106.5 25l-138 -778q-6 -27 -6 -41q-1 -10 5 -17.5t14 -7.5q22 2 59 44t74 108l28 -19q-126 -217 -237 -217q-78 0 -78 95q0 24 16 114l107 611h-395l-105 -594q-37 -205 -82.5 -326t-122.5 -215q-139 -170 -303 -170 q-70 0 -120 33.5t-50 79.5q0 30 19 49.5t47 19.5q41 0 108 -55q38 -30 58.5 -39.5t50.5 -9.5q58 0 102 53q43 54 64 112t43 179l153 883h-399l-104 -594q-23 -133 -35.5 -186.5t-34.5 -114.5q-73 -198 -189 -304t-259 -106q-73 0 -120.5 29t-47.5 73z" />
<glyph unicode="&#xfb04;" horiz-adv-x="1517" d="M-444 -410q0 27 19 45.5t48 18.5q20 0 36.5 -8.5t70.5 -48.5q60 -46 102 -46q74 0 134 96.5t89 262.5l156 883h-139l6 36q106 14 145 41q30 143 63.5 231.5t88.5 162.5q75 103 169.5 160t188.5 57q66 0 119 -33t53 -74q0 -26 -22.5 -45.5t-51.5 -19.5q-24 0 -44 11.5 t-50 43.5q-48 51 -98 51q-52 0 -101 -36t-75 -93q-57 -124 -86 -313l-17 -103h400q27 134 61 223t92 171q74 103 166.5 160t186.5 57q86 0 153 -45q67 32 86 43h29l-238 -1356q-4 -32 -4 -41q0 -10 5.5 -17.5t13.5 -7.5q20 0 58 44t73 108l28 -21q-65 -110 -122.5 -162.5 t-114.5 -52.5q-76 0 -76 90q0 30 14 119l107 611h-395l-105 -596q-35 -204 -80.5 -323.5t-124.5 -215.5q-136 -170 -303 -170q-70 0 -120 33.5t-50 79.5q0 30 19 49.5t47 19.5q41 0 108 -55q38 -30 58.5 -39.5t50.5 -9.5q58 0 102 53q43 54 64 112t43 179l153 883h-399 l-104 -596q-23 -132 -35.5 -185t-34.5 -114q-73 -198 -189 -304t-259 -106q-73 0 -120.5 29t-47.5 73zM895 870h397l74 418q-32 21 -66 62q-37 42 -58.5 55.5t-51.5 13.5q-58 0 -110.5 -36.5t-80.5 -96.5q-49 -111 -86 -313z" />
<glyph horiz-adv-x="2048" />
<glyph horiz-adv-x="2048" />
<glyph unicode="&#xd;" horiz-adv-x="2048" />
<glyph unicode=" "  horiz-adv-x="512" />
<glyph unicode="&#x09;" horiz-adv-x="512" />
<glyph unicode="&#xa0;" horiz-adv-x="512" />
<glyph unicode="!" horiz-adv-x="641" d="M154 72q0 54 30 91.5t74 37.5q37 0 60.5 -28.5t23.5 -72.5q0 -54 -30 -90.5t-74 -36.5q-38 0 -61 27.5t-23 71.5zM283 362l131 961q7 55 18 66.5t55 11.5h48q38 0 51.5 -8t13.5 -31q0 -19 -6 -37l-270 -963h-41z" />
<glyph unicode="&#x22;" horiz-adv-x="626" d="M266 1264q0 54 21 88t53 34q35 0 56.5 -34t21.5 -90q0 -8 -8 -82l-45 -334h-46l-47 334q-6 38 -6 84zM514 1264q0 54 21 88t53 34q35 0 56.5 -34t21.5 -90q0 -25 -9 -82l-47 -334h-43l-47 334q-6 60 -6 84z" />
<glyph unicode="#" d="M82 469l20 72h215l89 311h-213l20 72h215l127 442h78l-127 -442h313l127 442h80l-129 -442h203l-21 -72h-202l-91 -311h203l-20 -72h-203l-135 -469h-80l135 469h-313l-135 -469h-78l135 469h-213zM395 541h314l90 311h-314z" />
<glyph unicode="$" d="M150 223q0 41 20.5 67.5t52.5 26.5q29 0 48.5 -20t19.5 -51q0 -16 -6 -51l-2 -37q-3 -77 69 -121l121 598q-76 77 -110.5 151.5t-34.5 161.5q0 133 73.5 221t202.5 111l27 131h35l-25 -127h43q20 0 74 -4l26 131h35l-28 -137q89 -22 139.5 -85.5t50.5 -154.5 q0 -100 -66 -100q-26 0 -42.5 21.5t-16.5 56.5q0 13 6 52.5t6 49.5q0 77 -86 115l-118 -588q97 -94 142.5 -176.5t45.5 -165.5q0 -135 -87.5 -223t-238.5 -103l-32 -163h-35l33 161q-52 0 -115 13l-37 -174h-35l37 182q-86 28 -139 91.5t-53 139.5zM385 23q50 -13 84 -13 q15 0 31 2l100 492l-41 43q-6 6 -18 17.5t-21.5 21t-17.5 18.5zM428 1006q0 -90 80 -201l86 428q-76 -25 -121 -86t-45 -141zM537 16q85 19 137.5 84t52.5 150q0 58 -22 107t-76 112zM537 768q32 -36 43 -47l53 -51l117 569q-38 6 -66 6q-11 0 -51 -4z" />
<glyph unicode="%" horiz-adv-x="1792" d="M133 842q0 144 61.5 272.5t164 205.5t216.5 77q129 0 199 -87.5t70 -248.5q0 -147 -59.5 -275t-160 -204t-216.5 -76q-128 0 -201.5 89.5t-73.5 246.5zM174 -59l1364 1495h96l-1364 -1495h-96zM252 752q0 -101 41 -156t115 -55q68 0 127 49t100 141q40 89 65 205.5 t25 210.5q0 215 -158 215q-130 0 -211 -160q-37 -75 -70.5 -219.5t-33.5 -230.5zM1030 305q0 145 61.5 274t164.5 206t217 77q129 0 198.5 -87.5t69.5 -250.5q0 -147 -59.5 -275t-160 -204t-216.5 -76q-129 0 -202 89.5t-73 246.5zM1149 213q0 -99 41 -154t115 -55 q69 0 127.5 49.5t99.5 141.5q40 90 66 207t26 210q0 106 -41 160.5t-119 54.5q-66 0 -117 -39t-94 -122q-37 -74 -70.5 -220t-33.5 -233z" />
<glyph unicode="&#x26;" horiz-adv-x="1556" d="M113 393q0 94 56 181.5t153 144.5q93 57 223 74q-121 34 -185.5 99.5t-64.5 154.5q0 66 37.5 131t103.5 116q140 107 363 107q191 0 293 -80q37 -29 60.5 -65t23.5 -64q0 -26 -21.5 -46t-50.5 -20q-36 0 -55.5 24.5t-36.5 92.5q-27 105 -209 105q-156 0 -248 -105 q-84 -100 -84 -229q0 -86 43 -142.5t109 -56.5q50 6 69 6q51 0 51 -35q0 -36 -67 -36q-12 0 -90 4q-43 2 -99 -19.5t-90 -52.5q-43 -41 -68.5 -107.5t-25.5 -136.5q0 -84 35 -165t94 -132q117 -100 322 -100q243 0 403 166q105 111 105 221q0 88 -63.5 141.5t-166.5 53.5 q-66 0 -115 -18.5t-49 -43.5q0 -14 25 -39q27 -27 27 -49t-17.5 -36.5t-42.5 -14.5q-32 0 -52 19.5t-20 50.5q0 71 70 141q49 49 114.5 68.5t180.5 19.5q31 0 112.5 -3t100.5 -3q56 0 94.5 17t38.5 42q0 13 -18 33q-19 25 -19 45q0 17 16 31t38 14q23 0 40 -20t17 -46 q0 -57 -45 -106t-123 -78q-77 -28 -195 -31q107 -82 107 -188q0 -142 -135 -274q-192 -189 -502 -189q-245 0 -389 107q-79 57 -128.5 146t-49.5 175z" />
<glyph unicode="'" horiz-adv-x="378" d="M266 1264q0 54 21 88t53 34q35 0 56.5 -34t21.5 -90q0 -8 -8 -82l-45 -334h-46l-47 334q-6 38 -6 84z" />
<glyph unicode="(" horiz-adv-x="663" d="M154 256q0 247 96 481t301 488q123 152 233 254l19 -33q-171 -196 -265 -366t-186 -445q-82 -250 -82 -531q0 -160 26.5 -299t86.5 -301l-35 -16q-108 254 -151 424.5t-43 343.5z" />
<glyph unicode=")" horiz-adv-x="663" d="M-123 -479q186 213 285 401q94 180 168 408q82 245 82 538q0 158 -22 272.5t-93 321.5l35 17q110 -258 153 -426.5t43 -341.5q0 -246 -96.5 -480.5t-302.5 -488.5q-111 -138 -233 -254z" />
<glyph unicode="*" d="M174 1167l31 58l362 -123l148 350l63 -12l-6 -379l379 -29l8 -65l-364 -113l92 -373l-66 -26l-217 303l-317 -195l-49 49l231 310z" />
<glyph unicode="+" d="M141 666v67h418v397h68v-397h415v-67h-415v-398h-68v398h-418z" />
<glyph unicode="," horiz-adv-x="641" d="M39 -342q110 78 152 131t42 113q0 40 -30 96q-33 62 -33 102q0 41 27 71t65 30q46 0 77.5 -46t31.5 -112q0 -124 -77 -228t-237 -196z" />
<glyph unicode="-" horiz-adv-x="733" d="M102 367l29 137h496l-29 -137h-496z" />
<glyph unicode="." horiz-adv-x="641" d="M154 72q0 54 30 91.5t74 37.5q37 0 60.5 -28.5t23.5 -72.5q0 -54 -30 -90.5t-74 -36.5q-38 0 -61 27.5t-23 71.5z" />
<glyph unicode="/" horiz-adv-x="641" d="M-174 -489l833 1939h82l-833 -1939h-82z" />
<glyph unicode="0" d="M115 459q0 193 75 406.5t191 348.5q161 187 344 187q160 0 246 -125.5t86 -357.5q0 -145 -32.5 -287t-90.5 -260t-133 -209t-165.5 -142t-182.5 -51q-158 0 -248 130t-90 360zM266 326q0 -91 13 -144.5t45 -97.5q22 -32 57.5 -51t73.5 -19q84 0 176 86q121 118 205 455 q71 292 71 502q0 143 -50 221t-142 78q-86 0 -155 -64t-128 -198q-58 -130 -112 -380.5t-54 -387.5z" />
<glyph unicode="1" d="M246 0l8 35h65q75 0 100 22.5t42 108.5l209 1032q-98 -78 -201 -139t-178 -86l12 59q145 61 273 158.5t210 208.5h82l-247 -1215q-7 -28 -7 -61q0 -54 50 -72q28 -10 112 -16l-6 -35h-524z" />
<glyph unicode="2" d="M16 0v33l193 188q140 137 272 279.5t199 230.5q156 209 156 371q0 92 -62 148.5t-162 56.5q-114 0 -201.5 -70.5t-134.5 -202.5h-43q31 166 146.5 266.5t273.5 100.5t257.5 -86.5t99.5 -224.5q0 -82 -40.5 -160.5t-140.5 -186.5q-33 -36 -63.5 -64t-95.5 -86t-148 -136 l-114 -109q-7 -7 -70 -63l-145 -138h520q56 0 74.5 17.5t31.5 83.5l6 31h41l-49 -279h-801z" />
<glyph unicode="3" d="M29 55q0 30 21 52t50 22q24 0 64 -23q97 -53 170 -53q91 0 179.5 73t144 190.5t55.5 238.5q0 97 -53 158t-136 61q-35 0 -73.5 -14t-108.5 -51l12 53q230 136 327 228.5t97 176.5q0 63 -48.5 107.5t-117.5 44.5q-66 0 -121.5 -34.5t-121.5 -117.5l-29 27 q60 98 148.5 152.5t189.5 54.5q115 0 190.5 -60.5t75.5 -152.5q0 -186 -336 -314q21 3 33 3q110 0 179 -74.5t69 -194.5q0 -133 -87.5 -273.5t-228.5 -234.5q-86 -59 -190.5 -95t-187.5 -36q-74 0 -120 24t-46 62z" />
<glyph unicode="4" d="M119 416v78l819 905h57l-174 -864h201l-25 -119h-200l-92 -447h-158l92 447h-520zM227 535h435l126 620z" />
<glyph unicode="5" d="M68 61q0 28 21.5 50t47.5 22q36 0 111 -47q42 -26 65 -34.5t49 -8.5q58 0 125 39.5t121 105.5q123 148 123 338q0 114 -58 183t-155 69q-77 0 -172 -49l170 637q33 2 76 2q67 0 299 -8q14 -2 39 -2q46 0 69.5 10t32.5 35h37l-37 -182q-62 -9 -98 -9q-2 0 -11.5 2 t-43.5 3.5t-95 1.5h-63q-127 0 -191 -9l-84 -313q82 31 144 31q126 0 211.5 -96.5t85.5 -239.5q0 -116 -54.5 -230t-142.5 -199.5t-206.5 -138.5t-239.5 -53q-83 0 -129.5 23.5t-46.5 66.5z" />
<glyph unicode="6" d="M133 358q0 238 145 476.5t381 390.5q239 150 445 174l-12 -56q-237 -46 -425.5 -233t-308.5 -496q91 88 169 127t163 39q114 0 189 -87t75 -218q0 -128 -70 -246t-185 -189t-240 -71q-149 0 -237.5 105.5t-88.5 283.5zM270 240q0 -103 50 -164.5t133 -61.5q76 0 142 50.5 t107.5 129t65 168.5t23.5 173q0 82 -40.5 129t-111.5 47q-63 0 -134 -38.5t-167 -125.5q-68 -194 -68 -307z" />
<glyph unicode="7" d="M197 1026l84 342h788v-57l-627 -1342h-104l623 1250h-560q-72 0 -99.5 -16t-39.5 -66l-29 -111h-36z" />
<glyph unicode="8" d="M123 281q0 150 162 284q59 51 219 140q-100 98 -144.5 181t-44.5 169q0 151 111.5 248.5t284.5 97.5q143 0 235 -72t92 -186q0 -132 -151 -250q-58 -45 -223 -133q135 -135 187 -224t52 -184q0 -160 -121 -271.5t-293 -111.5q-154 0 -260 90.5t-106 221.5zM264 238 q0 -97 60.5 -158.5t154.5 -61.5q114 0 195.5 82t81.5 197q0 190 -219 373q-132 -91 -202.5 -202.5t-70.5 -229.5zM449 1112q0 -77 43.5 -150.5t144.5 -168.5l20 14q110 75 176 173t66 187q0 85 -53 137t-139 52q-106 0 -182 -72t-76 -172z" />
<glyph unicode="9" d="M61 -31l11 51q236 46 429.5 234t313.5 489q-97 -78 -127 -96q-42 -27 -98.5 -44t-102.5 -17q-110 0 -184 89t-74 222q0 94 42 186.5t109 162t157 112.5t182 43q152 0 241 -106t89 -287q0 -127 -50 -271t-133 -258q-103 -138 -256.5 -260.5t-302.5 -185.5 q-106 -45 -246 -64zM389 840q0 -85 41 -136t109 -51q63 0 136 39.5t169 126.5l14 47q36 118 45.5 166t9.5 109q0 97 -49 156t-131 59q-70 0 -135 -42.5t-109 -117.5q-46 -80 -73 -175t-27 -181z" />
<glyph unicode=":" horiz-adv-x="641" d="M156 72q0 54 30 91.5t74 37.5q37 0 60.5 -28.5t23.5 -72.5q0 -54 -30 -90.5t-74 -36.5q-38 0 -61 27.5t-23 71.5zM293 768q0 55 30 92t74 37q38 0 62 -28t24 -72q0 -54 -30 -90.5t-74 -36.5q-40 0 -63 26.5t-23 71.5z" />
<glyph unicode=";" horiz-adv-x="641" d="M37 -342q110 78 152 131t42 113q0 40 -30 96q-33 62 -33 102q0 41 27 71t65 30q46 0 77.5 -46t31.5 -112q0 -124 -77 -228t-237 -196zM303 768q0 54 31 91.5t74 37.5q38 0 62 -28t24 -72q0 -54 -30.5 -90.5t-74.5 -36.5q-40 0 -63 26.5t-23 71.5z" />
<glyph unicode="&#x3c;" horiz-adv-x="1024" d="M137 694v13l846 544v-71l-649 -424l649 -432v-195z" />
<glyph unicode="=" d="M141 514v68h901v-68h-901zM141 815v68h901v-68h-901z" />
<glyph unicode="&#x3e;" horiz-adv-x="1024" d="M137 129v74l649 422l-649 434v192l846 -565v-12z" />
<glyph unicode="?" horiz-adv-x="870" d="M137 72q0 54 30.5 91.5t74.5 37.5q37 0 60.5 -28.5t23.5 -72.5q0 -54 -30.5 -90.5t-74.5 -36.5q-38 0 -61 27.5t-23 71.5zM266 360q18 157 44.5 242t73 136.5t134.5 97.5q104 55 148.5 109t44.5 122q0 75 -56 124.5t-139 49.5q-35 0 -137 -27q-24 -8 -45 -8 q-24 0 -39.5 23t-15.5 59q0 25 8.5 40t31.5 30q67 43 156 43q137 0 223 -94.5t86 -245.5q0 -144 -63 -252q-27 -45 -68 -79t-110 -66q-106 -50 -154 -112t-80 -192h-43z" />
<glyph unicode="@" horiz-adv-x="1568" d="M174 467q0 117 36 226.5t101.5 198t152.5 155t194.5 103t222.5 36.5q131 0 248 -46.5t200 -127t131.5 -192.5t48.5 -238q0 -140 -69.5 -257.5t-189.5 -185t-263 -67.5q-46 0 -66 21.5t-20 70.5q0 39 27 174q-134 -139 -207 -199.5t-107 -60.5q-41 0 -73.5 57.5 t-32.5 132.5q0 102 54.5 209.5t139 190.5t194 136.5t212.5 53.5q18 0 41 -2l-123 -602q-8 -40 -8 -57q0 -25 17.5 -39.5t49.5 -14.5q82 0 172 72q185 147 185 365q0 231 -164 385q-170 159 -397 159q-174 0 -321 -87.5t-232.5 -238.5t-85.5 -329q0 -135 51 -257 t137.5 -209.5t207 -139t253.5 -51.5q225 0 416 143h82q-97 -98 -227.5 -151.5t-276.5 -53.5q-194 0 -358 96t-258.5 261t-94.5 360zM621 305q0 -56 17 -95.5t42 -39.5q23 0 81.5 50t178.5 173l76 371q-136 -11 -213 -66q-80 -54 -131 -164t-51 -229z" />
<glyph unicode="A" horiz-adv-x="1533" d="M-106 0l8 39q79 10 132 50t140 153l889 1159h115l10 -1233q0 -71 36.5 -97.5t135.5 -29.5l12 -2l-8 -39h-586l6 39q127 -1 179.5 40t52.5 142l-2 375h-494l-287 -371q-38 -47 -38 -92q0 -25 14.5 -47t36.5 -29q43 -16 131 -18l-8 -39h-475zM582 674h430l-4 565z" />
<glyph unicode="B" horiz-adv-x="1343" d="M4 0l8 39h4q107 0 152 67q19 29 30.5 60.5t24.5 97.5l170 838q17 90 17 115q0 54 -32.5 82t-94.5 28h-50l9 39h616q196 0 305 -76.5t109 -214.5q0 -123 -94.5 -207t-255.5 -106q141 -34 227 -131.5t86 -224.5q0 -108 -60 -202t-161 -141q-129 -63 -334 -63h-676zM393 213 q0 -85 57 -122.5t185 -37.5q117 0 187.5 26t127.5 89q44 50 69 119.5t25 144.5q0 146 -100.5 231t-273.5 85h-174l-93 -453q-10 -55 -10 -82zM506 801h174q107 0 166 11t108 40q136 79 136 242q0 125 -78.5 173t-233.5 48h-168z" />
<glyph unicode="C" horiz-adv-x="1613" d="M160 586q0 169 74.5 320t202.5 259.5t305.5 172t375.5 63.5q280 0 481 -101l-79 -327h-41q6 38 6 63q0 149 -99 230.5t-282 81.5q-133 0 -264 -53.5t-244 -153.5q-116 -104 -180 -256t-64 -322q0 -251 131.5 -399t354.5 -148q169 0 315.5 85.5t255.5 246.5h41l-109 -344 h-18q-37 12 -78 12q-24 0 -127 -18q-174 -33 -291 -33q-221 0 -374 88q-135 76 -214 220t-79 313z" />
<glyph unicode="D" horiz-adv-x="1675" d="M-12 0l8 39h22q43 0 83 14t63 37q21 21 29.5 47t29.5 127l176 864q15 76 15 95q0 49 -37 75.5t-103 26.5h-59l8 41h656q327 0 525 -166.5t198 -441.5q0 -211 -124 -396.5t-327 -279.5q-182 -82 -395 -82h-768zM387 180q0 -74 51.5 -101.5t190.5 -27.5q249 0 401 82 q172 94 272.5 265t100.5 372q0 161 -73.5 284.5t-209.5 190.5q-75 38 -160.5 53t-232.5 15h-115l-219 -1077q-6 -27 -6 -56z" />
<glyph unicode="E" horiz-adv-x="1382" d="M-18 0l10 39h10q110 0 162 55q19 20 29 48.5t24 95.5l182 890q13 67 13 93q0 49 -37 75.5t-103 26.5h-55l10 43h1127l-62 -303h-35q3 35 3 43q0 109 -56 157t-182 48h-412l-121 -592h433q93 0 140 30t85 115h39l-80 -385h-37q2 14 2 33q0 88 -47 120t-176 32h-369 l-94 -461q-4 -28 -4 -43q0 -60 44.5 -83.5t160.5 -23.5h141q104 0 181.5 21.5t152.5 70.5q48 31 75.5 59.5t69.5 90.5h37l-98 -295h-1163z" />
<glyph unicode="F" horiz-adv-x="1239" d="M-4 0l8 41h8q102 0 152 53q19 20 30 50.5t23 93.5l182 890q15 74 15 95q0 47 -37.5 74.5t-102.5 27.5h-41l11 41h1040l-61 -299h-35v37q0 117 -44.5 162t-160.5 45h-373l-118 -592h387q79 0 127 35.5t86 122.5h38l-79 -398h-39q-2 108 -35 146.5t-125 38.5h-373l-86 -426 q-12 -64 -12 -82q0 -115 154 -115h43l-11 -41h-571z" />
<glyph unicode="G" horiz-adv-x="1724" d="M172 602q0 162 74 310t199 255t297.5 170.5t361.5 63.5q119 0 255 -28t257 -79l10 -299h-39q-40 165 -171 259t-322 94q-175 0 -325.5 -79.5t-250.5 -224.5q-149 -216 -149 -471q0 -164 69 -291.5t189 -189.5q148 -74 331 -74q78 0 151.5 17.5t123.5 46.5q52 34 70 111 l12 51q16 67 16 98q0 47 -37 72.5t-106 25.5h-6l8 41h485l-10 -41q-37 -6 -57 -10t-40 -14t-29 -19.5t-19.5 -33.5t-16.5 -48.5t-16 -70.5l-21 -97q-2 -10 -2 -22q0 -43 74 -43l-8 -39q-130 -36 -285.5 -57t-290.5 -21q-196 0 -338 47t-245 146q-199 190 -199 444z" />
<glyph unicode="H" horiz-adv-x="1660" d="M-37 0l8 39h45q46 0 89 19t63 48q18 27 28.5 58.5t24.5 99.5l176 864q15 77 15 95q0 47 -37 74.5t-103 27.5h-53l8 41h588l-8 -41h-29q-104 0 -153 -55q-30 -35 -52 -142l-81 -399h792l82 399q12 55 12 95q0 47 -36.5 74.5t-100.5 27.5h-35l8 41h543l-6 -41h-10 q-112 0 -156 -68q-17 -24 -27 -55.5t-24 -99.5l-176 -864q-10 -54 -10 -82q0 -115 153 -115h27l-8 -41h-586l8 41h27q112 0 161 55q19 21 30.5 50.5t23.5 91.5l86 417h-793l-86 -417q-12 -57 -12 -82q0 -115 153 -115h52l-9 -41h-612z" />
<glyph unicode="I" horiz-adv-x="694" d="M-8 0l8 41h8q107 0 156 55q20 20 30.5 48t24.5 94l180 890q15 74 15 95q0 47 -37.5 74.5t-102.5 27.5h-28l8 41h549l-8 -41h-15q-104 0 -153 -55q-18 -20 -28 -47.5t-24 -94.5l-182 -890q-12 -64 -12 -78q0 -119 156 -119h30l-8 -41h-567z" />
<glyph unicode="J" horiz-adv-x="663" d="M-477 -457q0 21 26 62q28 49 72 49q19 0 35 -4t80 -27q71 -24 137 -24q138 0 209 106q36 54 57 178l219 1245q11 60 11 89q0 52 -37 80t-105 28h-41l9 41h553l-7 -41h-8q-105 0 -151 -55q-32 -34 -50 -142l-188 -1067q-28 -154 -72.5 -241.5t-134.5 -163.5 q-91 -78 -210.5 -123t-239.5 -45q-77 0 -120.5 14.5t-43.5 40.5z" />
<glyph unicode="K" horiz-adv-x="1554" d="M-14 0l8 41h8q110 0 162 55q18 20 28.5 48t24.5 94l180 890q15 77 15 95q0 47 -37 74.5t-103 27.5h-6l8 41h531l-8 -41h-19q-104 0 -153 -55q-30 -35 -52 -142l-88 -432l672 471q56 39 71 56.5t15 42.5q0 32 -22.5 44t-85.5 15l8 41h497l-8 -41l-100 -22 q-129 -28 -373 -201l-463 -326l504 -592q66 -78 125 -111.5t131 -33.5h12l-8 -39h-327l-574 680l-90 -64l-78 -378q-12 -57 -12 -82q0 -115 156 -115h28l-8 -41h-569z" />
<glyph unicode="L" horiz-adv-x="1282" d="M-14 0l8 41h24q47 0 88 19t64 51q30 44 53 155l176 862q15 76 15 95q0 47 -37.5 74.5t-102.5 27.5h-41l9 41h573l-8 -41h-27q-107 0 -153 -55q-19 -21 -30.5 -50.5t-23.5 -91.5l-178 -876q-8 -46 -8 -84q0 -96 109 -96h256q163 0 266.5 50t202.5 179h41l-101 -301h-1175z " />
<glyph unicode="M" horiz-adv-x="1875" d="M-51 0l8 41q80 16 121.5 46.5t71.5 94t69 201.5l203 727q18 61 18 111q0 60 -44.5 82t-131.5 22h-20l8 41h405l201 -1167l760 1167h358l-8 -41h-18q-105 0 -154 -55q-31 -36 -51 -142l-182 -890q-13 -60 -13 -82q0 -115 156 -115h33l-10 -41h-572l8 41h6q112 0 164 55 q19 21 30.5 50.5t23.5 91.5l200 985l-796 -1223h-74l-207 1231l-266 -948q-13 -47 -13 -93q0 -69 42 -106.5t122 -42.5l-8 -41h-440z" />
<glyph unicode="N" horiz-adv-x="1693" d="M0 0l8 41q96 12 142 66t73 180l197 960q-23 36 -67 54t-124 26l9 39h294l818 -1151l178 875q10 55 10 90q0 70 -44.5 105.5t-141.5 41.5l10 39h446l-8 -39q-95 -12 -145.5 -65.5t-73.5 -167.5l-227 -1119h-54l-839 1205l-178 -879q-11 -64 -11 -90q0 -52 25 -92t70 -60 q26 -10 98 -18l-8 -41h-457z" />
<glyph unicode="O" horiz-adv-x="1738" d="M162 608q0 164 81 327t218 273q240 193 540 193q139 0 263.5 -50t214 -135.5t142 -204.5t52.5 -251q0 -161 -67.5 -308.5t-181 -254t-270.5 -169.5t-329 -63q-202 0 -362 101q-142 91 -221.5 234t-79.5 308zM356 539q0 -232 130.5 -376.5t340.5 -144.5q119 0 233.5 50.5 t192.5 138.5q106 118 167 281.5t61 334.5q0 230 -131.5 377.5t-337.5 147.5q-120 0 -226.5 -43t-185.5 -125q-114 -116 -179 -286.5t-65 -354.5z" />
<glyph unicode="P" horiz-adv-x="1239" d="M12 0l8 41q92 4 135 52t68 171l176 864q13 60 13 95q0 49 -37 75.5t-103 26.5h-26l8 41h485q125 0 194 -11.5t130 -43.5q95 -47 146 -130t51 -192q0 -152 -103 -274q-82 -94 -194 -137t-273 -43q-75 0 -119 10l9 39q44 -6 69 -6q232 0 346 172q80 122 80 270 q0 85 -31.5 151t-89.5 101q-64 39 -204 39h-140l-219 -1073q-10 -51 -10 -82q0 -115 154 -115h30l-8 -41h-545z" />
<glyph unicode="Q" horiz-adv-x="1736" d="M162 608q0 156 68 302.5t180.5 253.5t266.5 172t318 65q141 0 267 -49.5t216 -135t142.5 -204t52.5 -252.5q0 -191 -94 -361.5t-258.5 -284t-364.5 -141.5l86 -59q155 -107 261 -154t194 -47q75 0 145 27l21 -29q-49 -44 -125 -69t-160 -25q-99 0 -204 46t-263 149 l-188 122q-23 14 -61 48q-215 46 -357.5 224.5t-142.5 401.5zM356 539q0 -232 130.5 -376.5t340.5 -144.5q120 0 234 50.5t192 138.5q106 118 167 281.5t61 334.5q0 230 -131.5 377.5t-337.5 147.5q-249 0 -412 -168q-114 -115 -179 -286.5t-65 -354.5z" />
<glyph unicode="R" horiz-adv-x="1540" d="M-33 0l8 41h27q110 0 162 55q33 35 53 142l182 890q13 63 13 95q0 47 -37 74.5t-103 27.5h-34l8 41h618q177 0 286.5 -92.5t109.5 -243.5q0 -152 -116.5 -261t-318.5 -146q48 -64 191 -291q57 -91 131 -164.5t137 -104.5q71 -36 166 -36q13 0 23 2v-35q-50 -17 -115 -17 q-126 0 -216 39t-175 131q-38 41 -74.5 92.5t-116.5 176.5q-89 138 -131 186q-41 -4 -96 -4q-41 0 -84 2l-74 -362q-10 -51 -10 -82q0 -115 154 -115h40l-8 -41h-600zM475 649q165 0 260.5 18t167.5 64q80 50 126 139t46 195q0 69 -33.5 123.5t-95.5 85.5q-71 33 -231 33 h-105z" />
<glyph unicode="S" horiz-adv-x="1167" d="M55 104l72 314h39q-2 -20 -2 -51q0 -163 100 -256t275 -93q151 0 246.5 72t95.5 186q0 98 -86 187q-44 47 -203 162q-163 120 -231 211.5t-68 191.5q0 148 123.5 250t302.5 102q85 0 194 -28q62 -15 82 -15q33 0 72 31h43l-49 -360h-39q0 152 -80 236.5t-223 84.5 q-126 0 -206.5 -62t-80.5 -159q0 -65 42.5 -122.5t152.5 -141.5q172 -130 230.5 -180t92.5 -97q80 -105 80 -213q0 -170 -140 -279.5t-358 -109.5q-112 0 -241.5 38t-235.5 101z" />
<glyph unicode="T" horiz-adv-x="1441" d="M180 1073l72 352h39q28 -37 55.5 -48t89.5 -11h858q111 0 152.5 10.5t79.5 48.5h41l-72 -352h-41v35q0 135 -57 180q-29 23 -105 23h-315l-219 -1073q-13 -62 -13 -82q0 -115 156 -115h45l-8 -41h-602l10 41h23q109 0 161 55q19 21 30.5 50.5t23.5 91.5l217 1073h-254 q-135 0 -203.5 -50t-124.5 -188h-39z" />
<glyph unicode="U" horiz-adv-x="1601" d="M182 1325l8 41h558l-9 -41h-16q-106 0 -152 -55q-33 -35 -53 -142l-115 -563q-26 -136 -26 -211q0 -151 113.5 -243.5t297.5 -92.5q133 0 242.5 47t179.5 134q45 56 73 129t50 190l105 574q8 44 8 79q0 75 -51 114.5t-148 39.5l10 41h451l-8 -41q-164 -20 -205 -246 l-106 -577q-25 -136 -65.5 -224t-111.5 -157q-84 -80 -193.5 -118t-262.5 -38q-307 0 -451 160q-100 112 -100 258q0 63 26 188l113 557q14 77 14 95q0 47 -37.5 74.5t-101.5 27.5h-37z" />
<glyph unicode="V" horiz-adv-x="1533" d="M279 1325l8 41h532l-8 -41h-29q-168 0 -174 -197l-33 -962l777 917q48 58 67 91.5t19 60.5q0 30 -18.5 52.5t-51.5 31.5q-21 6 -72 6l9 41h417l-6 -41q-68 -24 -124 -67.5t-134 -135.5l-981 -1157h-71l32 1163q3 103 -18 136q-37 61 -133 61h-8z" />
<glyph unicode="W" horiz-adv-x="2105" d="M233 1323l9 43h497l-8 -43q-97 -9 -134.5 -53t-43.5 -154l-47 -919l684 919v76q0 65 -41.5 97.5t-128.5 33.5l10 43h518l-8 -43q-99 -7 -136.5 -46.5t-39.5 -133.5l-23 -946l633 897q58 80 58 131q0 98 -140 98h-6l8 43h400l-10 -43q-50 -11 -94 -49.5t-113 -136.5 l-832 -1172h-80l25 1053l-784 -1053h-74l55 1184v43q0 72 -30 98t-124 33z" />
<glyph unicode="X" horiz-adv-x="1509" d="M-59 0l8 35q85 7 144 40.5t145 119.5l505 507l-284 504q-39 70 -89 94t-157 27l6 39h584l-8 -39q-86 -1 -121 -17t-35 -53q0 -29 29 -79l194 -353l330 332q53 56 53 96q0 35 -37 53t-118 21l8 39h497l-8 -39q-100 -11 -162 -43t-165 -135l-369 -371l311 -559 q59 -105 99.5 -137t136.5 -47l-8 -35h-525l6 35q88 7 119 22.5t31 51.5q0 23 -21 61l-270 483l-391 -389q-86 -86 -86 -139q0 -46 31.5 -65.5t111.5 -24.5l-6 -35h-489z" />
<glyph unicode="Y" horiz-adv-x="1372" d="M160 1327l8 39h457l-9 -39q-120 -9 -120 -76q0 -36 26 -90l248 -536l426 489q48 56 63 81.5t15 51.5q0 35 -34 56t-97 24l8 39h375l-8 -37q-56 -21 -92.5 -50.5t-98.5 -98.5l-539 -621l-65 -321q-12 -64 -12 -82q0 -115 153 -115h56l-9 -41h-624l8 41h37q113 0 162 55 q18 20 28.5 48t24.5 94l65 321l-276 606q-42 92 -77.5 125.5t-98.5 36.5z" />
<glyph unicode="Z" horiz-adv-x="1509" d="M49 0v43l1251 1268h-505q-155 0 -250.5 -73t-155.5 -237h-41l84 365h1116v-45l-1253 -1266h643q159 0 254.5 67.5t200.5 256.5h41l-105 -379h-1280z" />
<glyph unicode="[" horiz-adv-x="663" d="M37 -477l389 1915h412l-7 -37h-198q-46 0 -65.5 -17.5t-28.5 -66.5l-340 -1671q-6 -42 -6 -43q0 -25 25 -35t89 -10h150l-8 -35h-412z" />
<glyph unicode="\" horiz-adv-x="641" d="M248 1450h76l213 -1939h-74z" />
<glyph unicode="]" horiz-adv-x="663" d="M-160 -477l8 37h199q44 0 64 17.5t30 66.5l340 1671q6 24 6 43q1 25 -25 35t-89 10h-150l6 35h412l-389 -1915h-412z" />
<glyph unicode="^" horiz-adv-x="1024" d="M0 588l565 846h13l544 -846h-71l-424 649l-432 -649h-195z" />
<glyph unicode="_" horiz-adv-x="1024" d="M0 -180h1024v-82h-1024v82z" />
<glyph unicode="`" horiz-adv-x="1024" d="M391 1460h156l229 -475h-41z" />
<glyph unicode="a" horiz-adv-x="878" d="M29 199q0 145 88.5 295t240.5 264q84 62 188.5 100.5t190.5 38.5q14 0 49 -4l-131 -643q-16 -80 -16 -117q0 -33 20 -33q30 0 125 115v-53q-92 -104 -143 -146.5t-86 -42.5q-26 0 -42.5 28.5t-16.5 72.5q0 69 30 207q-157 -163 -244 -235.5t-128 -72.5q-49 0 -87 69 t-38 157zM164 246q0 -67 20 -114.5t49 -47.5q28 0 98.5 60t209.5 202l88 438q-160 -11 -252 -75q-94 -65 -153.5 -194.5t-59.5 -268.5z" />
<glyph unicode="b" horiz-adv-x="860" d="M104 172q0 50 15 123l205 1001q6 34 6 43q0 6 -5 11.5t-10 5.5q-6 0 -34 -12.5t-48 -24.5l-18 31l186 106q44 23 62 23q12 0 19 -8t7 -19q0 -3 -2.5 -13.5t-3.5 -17.5l-168 -833q115 119 233.5 214t153.5 95q40 0 78.5 -98.5t38.5 -202.5q0 -162 -71.5 -302t-204.5 -235 q-118 -86 -230 -86q-94 0 -151.5 55t-57.5 144zM238 147q0 -57 30 -93t76 -36q38 0 85 22t79 54q74 78 122 207t48 250q0 98 -21 162.5t-53 64.5q-31 0 -113 -70t-190 -188l-45 -225q-18 -85 -18 -148z" />
<glyph unicode="c" horiz-adv-x="608" d="M31 201q0 106 42.5 235.5t114.5 237.5q71 106 156.5 164.5t171.5 58.5q52 0 82.5 -21.5t30.5 -58.5q0 -29 -16.5 -48t-41.5 -19q-21 0 -41 7t-61 31q-40 19 -61 19q-77 0 -144 -158q-44 -109 -70 -223t-26 -201q0 -77 34.5 -121.5t94.5 -44.5q50 0 108.5 37t110.5 101 l29 -23q-80 -92 -168 -146.5t-158 -54.5q-85 0 -136.5 62.5t-51.5 165.5z" />
<glyph unicode="d" horiz-adv-x="862" d="M37 236q0 148 69.5 294t192.5 256q120 111 205 111q84 0 135 -76l100 492q1 4 2 10l1.5 9t0.5 5q0 19 -14 19q-15 0 -127 -62l-18 -8l-17 33l248 137q44 23 59 23q12 0 19.5 -8t7.5 -19q0 -5 -4 -29l-258 -1267q-4 -28 -4 -35q0 -23 16 -23q12 0 46.5 37.5t76.5 97.5 l29 -20q-61 -95 -143 -167.5t-128 -72.5q-45 0 -45 66q0 38 17 119l33 159q-267 -344 -377 -344q-54 0 -88.5 74.5t-34.5 188.5zM174 252q0 -78 21 -125t55 -47q37 0 124.5 94.5t180.5 233.5l61 297q-52 129 -141 129q-85 0 -172 -150q-129 -219 -129 -432z" />
<glyph unicode="e" horiz-adv-x="720" d="M39 272q0 116 42 231.5t120 213.5q143 180 325 180q83 0 128.5 -37.5t45.5 -105.5q0 -128 -200 -238q-91 -51 -303 -117q-15 -81 -15 -133q0 -98 44 -154.5t122 -56.5q99 0 252 115l18 -29q-94 -75 -193.5 -121.5t-168.5 -46.5q-92 0 -154.5 86.5t-62.5 212.5zM207 440 q124 39 181.5 64.5t96.5 56.5q40 34 64 87t24 108q0 96 -79 96q-86 0 -156 -86q-36 -45 -64 -115t-67 -211z" />
<glyph unicode="f" horiz-adv-x="503" d="M-446 -412q0 28 21 48t50 20q24 0 45 -10.5t70 -46.5q55 -39 92 -39q50 0 99 34.5t75 88.5q61 122 117 440l121 676h-156l8 41q3 0 27 3t45 7q22 3 88 20q17 105 61.5 222t94.5 188q65 93 151 146t172 53q64 0 111 -31t47 -74q0 -26 -19 -44.5t-45 -18.5q-24 0 -46.5 11 t-67.5 44q-48 35 -80 35q-46 0 -88 -38.5t-70 -105.5q-30 -73 -65 -272l-21 -115h187l-21 -71h-178l-100 -568q-24 -134 -37 -189t-37 -120q-75 -207 -202 -320.5t-282 -113.5q-67 0 -117 30t-50 70z" />
<glyph unicode="g" horiz-adv-x="798" d="M-215 -338q0 56 88.5 122t306.5 173q-26 35 -26 63q0 62 102 119q-84 41 -132 119t-48 172q0 84 53 179t143 173q130 115 285 115q5 0 164 -10l92 -6v-103l-123 13q47 -113 47 -195q0 -83 -38.5 -164t-104.5 -135q-46 -38 -120.5 -81.5t-135.5 -70.5q-48 -21 -67 -36 t-19 -35q0 -23 32 -52t119 -85q153 -96 209 -149t56 -101q0 -56 -62 -101.5t-170.5 -71.5t-240.5 -26q-180 0 -295 49t-115 125zM-88 -315q0 -71 81 -115.5t208 -44.5q148 0 246 33t98 84q0 33 -74 86q-120 81 -161.5 111.5t-84.5 68.5l-20 18q-293 -129 -293 -241zM217 412 q0 -85 40.5 -146t96.5 -61q58 0 113.5 60t90 156t34.5 195q0 102 -35.5 163t-95.5 61q-103 0 -178 -166q-66 -149 -66 -262z" />
<glyph unicode="h" horiz-adv-x="991" d="M66 -4q0 4 4 24l264 1291q4 25 4 26q0 6 -4 11.5t-10 5.5q-24 0 -109 -49l-18 32l213 119q41 23 59 23q27 0 27 -29q0 -15 -2 -23l-201 -991q159 214 293.5 337.5t206.5 123.5q37 0 59 -34.5t22 -90.5q0 -57 -20 -139l-127 -486q-8 -32 -8 -38q0 -8 5.5 -14.5t12.5 -6.5 q42 0 172 148l23 -23q-75 -98 -161 -169t-130 -71q-26 0 -41.5 23t-15.5 61q0 57 18 131l113 441q20 78 20 121q0 49 -33 49q-47 0 -169.5 -127.5t-258.5 -319.5l-63 -303q-12 -55 -23.5 -64.5t-70.5 -9.5q-31 0 -41 4.5t-10 16.5z" />
<glyph unicode="i" horiz-adv-x="532" d="M100 686q190 211 265 211q43 0 43 -55q0 -14 -9 -70l-123 -612q-6 -24 -6 -47q0 -10 5.5 -17.5t13.5 -7.5q14 0 53.5 38t85.5 97l27 -24q-61 -84 -146.5 -155t-124.5 -71q-28 0 -43.5 20.5t-15.5 57.5q0 36 10 84l111 549q12 64 12 68q0 14 -12 14q-11 0 -23.5 -10 t-54.5 -53l-33 -33l-12 -13zM352 1198q0 65 31.5 116.5t71.5 51.5q26 0 41.5 -21t13.5 -53q-3 -70 -32 -116t-70 -46q-26 0 -41 18t-15 50z" />
<glyph unicode="j" horiz-adv-x="512" d="M-342 -410q0 29 17.5 47.5t45.5 18.5q23 0 40 -9t69 -50q43 -35 80 -35q66 0 113.5 87.5t87.5 284.5l157 779q2 8 2 24q0 8 -5 14.5t-11 6.5q-17 0 -42 -21t-95 -92l-25 23q79 95 164 163t123 68q45 0 45 -61q0 -24 -14 -101l-136 -669q-59 -297 -235 -476 q-97 -100 -238 -100q-65 0 -104 27t-39 71zM371 1198q0 66 31 117t71 51q25 0 40.5 -21t14.5 -53q-3 -70 -32 -116t-70 -46q-26 0 -40.5 18t-14.5 50z" />
<glyph unicode="k" horiz-adv-x="999" d="M74 -8q0 10 2 18l268 1315v8q0 21 -14 21q-24 0 -99 -45l-18 32l215 119q38 19 53 19q9 0 16.5 -9.5t6.5 -21.5l-185 -905q121 108 174 151.5t130 96.5q90 62 129 83t65 21q49 0 88 -53t39 -121q0 -78 -51 -143t-137 -99q-120 -46 -303 -57q52 -54 77 -84.5t91 -118.5 q87 -119 200 -133l99 96l24 -22l-186 -187q-73 0 -145 58.5t-150 181.5q-95 150 -168 209l-80 -399q-7 -37 -18 -43.5t-64 -6.5q-35 0 -47 4t-12 15zM303 459q25 -2 53 -2q214 0 322 51q59 29 98 88t39 119q0 35 -21.5 60.5t-52.5 25.5q-45 0 -174.5 -96t-259.5 -226z" />
<glyph unicode="l" horiz-adv-x="483" d="M96 72q0 28 8 78l238 1159q4 16 4 28q0 6 -4 11.5t-10 5.5q-21 0 -133 -62l-19 33l211 119q65 35 86 35q27 0 27 -29q0 -8 -6 -35l-262 -1292q-5 -35 -5 -37q0 -11 6 -19t15 -8q35 0 154 134l26 -23q-76 -92 -147 -145.5t-115 -53.5q-34 0 -54 27.5t-20 73.5z" />
<glyph unicode="m" horiz-adv-x="1482" d="M92 662q83 103 160.5 169t114.5 66q15 0 24.5 -12.5t9.5 -32.5q0 -11 -4 -35l-86 -420q126 201 277 350.5t229 149.5q26 0 43 -26.5t17 -69.5q0 -41 -25 -166l-43 -219q141 216 287 348q63 58 119 93.5t85 35.5t46.5 -25.5t17.5 -66.5q0 -37 -10 -86l-119 -580 q-4 -18 -4 -31q0 -10 10 -10q17 0 48.5 30.5t99.5 113.5l28 -21q-84 -108 -161.5 -175t-120.5 -67q-23 0 -36.5 16t-13.5 44q0 29 7 61l129 633q6 29 6 45q0 17 -15 17q-20 0 -77.5 -46.5t-114.5 -109.5q-99 -108 -166 -215t-82 -182l-35 -175q-14 -64 -20 -77 q-6 -8 -15.5 -9.5t-48.5 -1.5q-46 0 -54.5 3t-8.5 18q0 17 6 41l141 694l4 41q0 9 -5 15t-13 6q-37 0 -131 -95.5t-197 -236.5q-57 -79 -83.5 -139t-45.5 -148l-28 -139q-9 -44 -21 -52t-70 -8q-31 0 -41 4.5t-10 18.5q0 15 8 51l132 645q6 27 6 35q0 16 -15 16 q-18 0 -112 -110z" />
<glyph unicode="n" horiz-adv-x="1024" d="M80 627q62 96 152 183t128 87q15 0 26 -12t11 -29q0 -30 -6 -61l-76 -369q191 242 314 356.5t192 114.5q40 0 63 -34t23 -91q0 -58 -18 -129l-129 -489q-15 -57 -15 -72q0 -8 4.5 -13.5t10.5 -5.5q19 0 58.5 39t131.5 146l25 -21q-197 -254 -305 -254q-26 0 -44 25 t-18 63q0 30 10 72l140 547q10 39 10 59q0 24 -11 41t-26 17q-34 0 -84 -47q-76 -74 -178 -193t-168 -209l-70 -334q-6 -29 -13.5 -34t-45.5 -5q-52 0 -65 4t-13 19q0 10 2 14l140 688q4 12 4 21q0 14 -11 14q-29 -3 -123 -131z" />
<glyph unicode="o" horiz-adv-x="817" d="M51 317q0 125 63 242.5t179 208.5q73 58 147.5 93.5t124.5 35.5q31 0 67 -22.5t64 -59.5q70 -98 70 -240q0 -300 -262 -489q-69 -49 -141 -81t-115 -32q-76 0 -136.5 105t-60.5 239zM195 328q0 -119 42.5 -197t106.5 -78q43 0 91 30t81 79q47 68 78 176.5t31 208.5 q0 113 -49 189.5t-121 76.5q-65 0 -125.5 -68.5t-97.5 -181.5t-37 -235z" />
<glyph unicode="p" horiz-adv-x="925" d="M-190 -512l8 41q116 4 157.5 44.5t67.5 172.5l186 911q13 63 13 78q0 17 -15 17q-35 0 -157 -154l-29 27q89 115 179 193.5t132 78.5q37 0 37 -61q0 -66 -14 -131l-33 -160q271 350 385 350q55 0 101 -99t46 -218q0 -151 -75 -292t-197.5 -227t-253.5 -86q-60 0 -119 21 l-49 -248q-20 -106 -20 -133q0 -52 51 -72q28 -10 121 -12l-8 -41h-514zM248 82q63 -55 139 -55q88 0 169.5 76t131 202.5t49.5 263.5q0 92 -28.5 155.5t-69.5 63.5q-37 0 -125.5 -92.5t-187.5 -232.5z" />
<glyph unicode="q" horiz-adv-x="884" d="M33 221q0 121 73.5 256t198.5 242q205 178 459 178q43 0 43 -27l-4 -20l-223 -1102q-25 -119 -25 -141q0 -41 38.5 -59.5t127.5 -18.5h14l-8 -41h-508l8 41q48 5 72.5 8.5t49.5 15t35 21t22.5 38t18.5 54.5t17 82l109 531q-37 -37 -45 -43q-149 -141 -227.5 -202 t-118.5 -61q-50 0 -88.5 75.5t-38.5 172.5zM172 254q0 -168 78 -168q66 0 315 264l88 432q-191 -6 -288 -84q-85 -69 -139 -193t-54 -251z" />
<glyph unicode="r" horiz-adv-x="595" d="M74 659q192 238 256 238q18 0 32.5 -19.5t14.5 -43.5q0 -63 -45.5 -256.5t-79.5 -307.5q0 -3 3 -7.5t5 -4.5q6 -2 10 6.5t23 59.5q109 307 186 440t146 133q22 0 38.5 -20t16.5 -46q0 -40 -20.5 -74t-45.5 -34q-1 0 -45 12q-48 -9 -77 -46.5t-78 -156.5 q-87 -214 -114.5 -297t-61.5 -229q-6 -23 -15.5 -28t-50.5 -5q-39 0 -53.5 4t-12.5 15l123 696q4 24 4 31q0 31 -20 31q-22 0 -115 -115z" />
<glyph unicode="s" horiz-adv-x="636" d="M-16 74q0 28 18.5 45.5t48.5 17.5q25 0 44 -8.5t77 -44.5q67 -43 117 -43q51 0 87 34t36 81q0 39 -21 79.5t-72 100.5l-81 98q-80 95 -80 172q0 98 101.5 194.5t205.5 96.5q51 0 91 -36.5t40 -82.5q0 -31 -16.5 -51t-42.5 -20q-22 0 -35 13t-45 68q-24 43 -68 43 q-46 0 -89.5 -48t-43.5 -99q0 -56 74 -143l76 -88q49 -59 71.5 -106.5t22.5 -98.5q0 -126 -94 -200.5t-254 -74.5q-79 0 -123.5 27t-44.5 74z" />
<glyph unicode="t" horiz-adv-x="565" d="M117 61q0 53 41 252l98 484h-113l9 37q167 69 321 321h37q-31 -57 -62 -142.5t-40 -138.5h172l-17 -77h-172l-135 -664q-6 -42 -6 -47q0 -12 6.5 -20.5t15.5 -8.5q39 0 209 164l23 -26q-88 -96 -178.5 -159t-139.5 -63q-32 0 -50.5 24t-18.5 64z" />
<glyph unicode="u" horiz-adv-x="1019" d="M86 647q69 104 146 175t120 71q19 0 30 -16t11 -41q0 -40 -10 -88l-107 -519q-10 -50 -10 -84q0 -15 8.5 -27t20.5 -12q38 0 184.5 160.5t212.5 274.5q33 58 51 118t37 177q6 41 18.5 51t57.5 10q41 0 53.5 -5t12.5 -20q0 -14 -2 -22l-138 -678q-6 -27 -6 -33 q0 -7 4.5 -12.5t10.5 -5.5q25 0 139 133l26 -25q-86 -107 -169 -181.5t-117 -74.5q-17 0 -28 17t-11 45q0 45 24.5 182.5t59.5 286.5q-90 -121 -147.5 -189t-139.5 -153q-189 -189 -246 -189q-28 0 -43.5 32t-15.5 89q0 43 18 135l97 476q4 20 4 22q0 5 -4.5 9.5t-8.5 4.5 q-25 0 -116 -110z" />
<glyph unicode="v" horiz-adv-x="874" d="M51 651q91 115 164.5 179.5t112.5 64.5q20 0 32.5 -19.5t12.5 -50.5q0 -25 -15 -133l-84 -508q-8 -47 -8 -67q0 -39 23 -39q34 0 118 72.5t150 158.5q79 104 126.5 216t47.5 194q0 19 -4.5 27.5t-21.5 17.5q-29 17 -29 37q0 29 37 62.5t69 33.5q42 0 69.5 -37.5 t27.5 -95.5q0 -101 -99.5 -255.5t-271.5 -322.5q-100 -97 -185 -155t-128 -58q-54 0 -54 105q0 82 17 194l63 392q6 34 6 51q0 14 -5.5 23.5t-12.5 9.5q-24 0 -131 -121z" />
<glyph unicode="w" horiz-adv-x="1343" d="M43 635q94 126 167.5 194t113.5 68q17 0 27.5 -18.5t10.5 -47.5q0 -33 -12 -118l-76 -518q-8 -58 -8 -93q0 -32 27 -32q41 0 168 137.5t239 304.5l43 299q7 55 20.5 69.5t55.5 14.5q35 0 46.5 -8t11.5 -31q0 -19 -7 -68l-94 -604q-8 -46 -8 -78q0 -38 25 -38q29 0 116 84 q158 153 236 317q72 144 72 240q0 22 -5.5 32t-27.5 29q-17 14 -17 33q0 34 32 63t67 29q38 0 64 -35.5t26 -87.5q0 -237 -404 -629q-178 -170 -258 -170q-28 0 -43.5 23t-15.5 63q0 47 14 140l35 225q-104 -155 -258 -309q-65 -65 -124.5 -102.5t-98.5 -37.5 q-31 0 -49.5 25.5t-18.5 65.5q0 71 15 167l57 392q10 71 10 92q0 24 -16 24q-15 0 -41.5 -26t-87.5 -103z" />
<glyph unicode="x" horiz-adv-x="1075" d="M16 51q0 57 52 193h41q6 -72 20.5 -96.5t52.5 -24.5q43 0 91 36t112 117l102 127l-110 283q-23 57 -41 78.5t-43 21.5q-30 0 -62.5 -35.5t-87.5 -129.5l-37 20q88 146 141 201t107 55q45 0 75 -35t67 -131l82 -213l92 123q189 254 278 254q41 0 67.5 -31t26.5 -80 q0 -35 -16 -98h-41q-2 41 -24 64.5t-60 23.5q-44 0 -87.5 -31.5t-96.5 -101.5l-121 -162l94 -241q31 -79 52 -110.5t44 -31.5q28 0 55 33t72 125l33 -16q-125 -265 -227 -265q-48 0 -72 41q-18 26 -53 115l-90 229l-101 -120q-116 -139 -192 -201t-131 -62q-29 0 -46.5 20.5 t-17.5 55.5z" />
<glyph unicode="y" horiz-adv-x="960" d="M8 -500l15 35q92 1 121 15.5t57 70.5q99 196 137.5 310t38.5 210q0 104 -24 258t-62 301q-15 55 -25 74t-24 19q-20 0 -49.5 -30t-98.5 -120l-28 19q170 233 249 233q30 0 56 -50t53 -161q36 -145 52.5 -282.5t19.5 -327.5q106 193 155 301q59 126 94 223.5t35 134.5 q0 17 -10 31q-16 22 -16 49q0 34 25.5 59t60.5 25q38 0 62 -30t24 -79q0 -64 -52.5 -170t-177.5 -292q-100 -147 -133.5 -210.5t-90.5 -202.5q-12 -30 -19 -46l-86 -209q-29 -71 -29 -80q0 -22 23.5 -30.5t82.5 -10.5q19 0 33 -2l-16 -35h-453z" />
<glyph unicode="z" horiz-adv-x="1056" d="M14 8q0 32 39 93.5t90 111.5q66 66 161.5 127t352.5 203q133 73 184.5 111t92.5 94q-130 -68 -238 -68q-88 0 -217 63q-66 32 -94.5 42t-56.5 10q-44 0 -80.5 -24.5t-79.5 -82.5l-27 19q138 186 291 186q51 0 88.5 -13t124.5 -61q120 -67 180 -67q54 0 91.5 24.5 t46.5 67.5q11 53 36 53q31 0 31 -35t-34 -88.5t-87 -105.5q-35 -34 -54 -49.5t-46.5 -37t-91 -58.5t-132 -77t-225.5 -129q-101 -58 -143.5 -87.5t-77.5 -67.5q101 49 199 49q65 0 107.5 -14.5t183.5 -87.5q60 -29 104 -29q90 0 168 117l29 -21q-61 -92 -135.5 -146.5 t-139.5 -54.5q-44 0 -81 14t-140 70q-145 80 -225 80q-47 0 -76.5 -20.5t-32.5 -55.5q-5 -50 -17 -70t-38 -20q-13 0 -22 10t-9 25z" />
<glyph unicode="{" horiz-adv-x="663" d="M66 496l6 26q43 4 70 9.5t50 19.5t36 29t26.5 48t21.5 66.5t21 93.5l76 369q14 72 34.5 119t50 80t77 50.5t107 24.5t149.5 7h36l-6 -37q-145 0 -217.5 -52.5t-97.5 -172.5l-94 -461q-19 -90 -64 -136.5t-133 -66.5l-2 -6q121 -24 121 -137q0 -29 -12 -99l-99 -483 q-10 -52 -10 -84q0 -43 20 -75.5t56 -47.5q44 -20 157 -20l-8 -37q-142 0 -202 8q-73 7 -113.5 51t-40.5 115q0 31 16 113l80 393q33 162 33 188q0 56 -36.5 79t-108.5 26z" />
<glyph unicode="|" horiz-adv-x="1024" d="M510 -342v1708h102v-1708h-102z" />
<glyph unicode="}" horiz-adv-x="663" d="M-147 -477l8 37q147 -3 218 48t97 179l98 483q22 109 67.5 162.5t135.5 73.5l2 6q-65 17 -94 48t-29 85q0 18 9 70l92 461q10 48 10 75q0 92 -88 131q-42 16 -143 19l6 37l108 -2q108 -3 156 -21q90 -36 90 -143q0 -45 -12 -115l-76 -369q-29 -139 -29 -163 q0 -94 148 -103l-6 -26q-56 -2 -86.5 -10t-53.5 -29q-37 -33 -48.5 -65.5t-43.5 -188.5l-80 -393q-22 -106 -58.5 -163.5t-105.5 -90.5q-40 -19 -96.5 -25.5t-195.5 -7.5z" />
<glyph unicode="~" horiz-adv-x="1366" d="M299 1276q57 94 132 145.5t153 51.5q57 0 186 -46q104 -36 162 -36q115 0 205 112l26 -18q-47 -84 -125.5 -138.5t-152.5 -54.5q-29 0 -53 6t-140 43q-120 37 -178 37q-54 0 -88 -22.5t-98 -98.5z" />
<glyph unicode="&#xa1;" horiz-adv-x="641" d="M39 -473q0 16 6 37l270 960h43l-131 -958q-7 -55 -18 -66.5t-57 -11.5h-46q-40 0 -53.5 8t-13.5 31zM295 768q0 55 30 92t74 37q38 0 62 -28t24 -72q0 -54 -30 -90.5t-74 -36.5q-40 0 -63 26.5t-23 71.5z" />
<glyph unicode="&#xa2;" d="M252 201q0 126 52 266t138 250t179 153l104 551h37l-105 -538q49 14 80 14q54 0 83.5 -21t29.5 -59q0 -31 -15 -49t-40 -18q-35 0 -105 38q-29 15 -47 17l-143 -744q10 -2 20 -2q103 0 219 138l29 -23q-66 -77 -145.5 -131t-139.5 -63l-90 -472h-35l91 467 q-92 0 -144.5 60.5t-52.5 165.5zM389 225q0 -117 78 -155l139 733q-44 -9 -84 -72q-51 -86 -92 -241.5t-41 -264.5z" />
<glyph unicode="&#xa3;" horiz-adv-x="1193" d="M0 -14q0 53 88 118q26 16 117 54q23 26 65 109.5t78 178.5h-239l10 56h250q117 296 172 414t137 245q164 258 360 258q66 0 111 -30t45 -74q0 -28 -25 -49t-59 -21q-28 0 -45.5 14.5t-40.5 55.5q-12 22 -24 30.5t-31 8.5q-59 0 -110 -76.5t-150 -314.5 q-115 -271 -209 -461h301l-10 -56h-320q-85 -154 -186 -282q103 0 186 -20.5t174 -67.5q73 -38 107.5 -50t68.5 -12q44 0 75.5 32.5t31.5 78.5q0 19 -4.5 30t-32.5 58q-12 21 -12 43q0 28 22 49t51 21q37 0 58.5 -31t21.5 -84q0 -113 -79 -191.5t-191 -78.5q-70 0 -129.5 22 t-159.5 86q-110 70 -190 70q-23 0 -39 -2q-59 -97 -103.5 -141t-85.5 -44q-23 0 -39 16t-16 38z" />
<glyph unicode="&#xa4;" d="M139 266l135 135q-98 121 -98 269t98 266l-135 135l43 45l137 -137q115 100 267 100q151 0 266 -100l137 137l43 -45l-135 -135q98 -116 98 -266q0 -147 -98 -269l135 -135l-43 -43l-135 135q-119 -98 -268 -98q-147 0 -269 98l-135 -135zM291 670q0 -120 86.5 -207.5 t204.5 -87.5q124 0 211.5 85.5t87.5 207.5q0 123 -86 210t-209 87t-209 -86.5t-86 -208.5z" />
<glyph unicode="&#xa5;" d="M158 754l10 55h268l-47 184h-182l10 56h160l-35 137q-19 74 -53.5 108t-95.5 37l6 35h397l-6 -35q-111 -6 -111 -69q0 -16 17 -80l34 -133h373l62 92q31 46 43.5 68.5t14 29t1.5 21.5q0 65 -117 71l6 35h326l-10 -35q-52 -15 -86.5 -43.5t-73.5 -89.5l-98 -149h147 l-10 -56h-174l-123 -184h258l-10 -55h-285l-121 -183l-73 -358q-11 -49 -11 -74q0 -104 138 -104h49l-6 -35h-562l7 35h34q100 0 146 49q17 18 26 43t21 86l74 358l-45 183h-293zM543 993l90 -354l233 354h-323z" />
<glyph unicode="&#xa6;" horiz-adv-x="1024" d="M510 313h102v-655h-102v655zM510 684v682h102v-682h-102z" />
<glyph unicode="&#xa7;" d="M-78 -408q2 38 24 69t50 32q20 1 43 -10.5t102 -63.5q64 -41 125 -41q100 0 169 97t69 237q0 84 -25 160t-100 231q-69 139 -97 235t-28 189q0 136 63 274t162.5 242.5t231.5 170t262 65.5q80 0 140.5 -29.5t60.5 -69.5q0 -41 -22.5 -72.5t-53.5 -31.5q-37 0 -94 43 t-95 58.5t-84 15.5q-82 0 -134 -76t-52 -195q0 -175 119 -444q80 -184 104.5 -269.5t24.5 -181.5q0 -152 -78.5 -294.5t-224.5 -258.5q-108 -87 -230.5 -136.5t-226.5 -49.5q-88 0 -147 30t-58 74zM350 745q0 -135 66 -292q12 -31 94 -199q78 -159 78 -303q0 -117 -47 -213 q252 194 252 477q0 86 -24.5 173.5t-86.5 223.5q-71 161 -100 264t-29 199q0 70 25 162q-228 -249 -228 -492z" />
<glyph unicode="&#xa8;" horiz-adv-x="1024" d="M408 1192q0 32 24 56t57 24q32 0 56 -24t24 -58q0 -32 -24 -56t-56 -24q-34 0 -57.5 24t-23.5 58zM758 1192q0 32 24 56t58 24q32 0 56 -24t24 -58q0 -32 -24 -56t-56 -24q-34 0 -58 24t-24 58z" />
<glyph unicode="&#xa9;" horiz-adv-x="1675" d="M164 682q0 146 57.5 279.5t154 229.5t230.5 153t281 57q197 0 363 -96.5t262 -263t96 -363.5q0 -146 -58 -278t-156 -227t-234 -151.5t-286 -56.5q-142 0 -273.5 58t-227 154.5t-152.5 229t-57 275.5zM236 682q0 -175 86.5 -326t234 -240t317.5 -89q182 0 334 86.5 t240 236.5t88 328q0 135 -51 257.5t-138 211t-207 140.5t-253 52q-177 0 -327 -87.5t-237 -239t-87 -330.5zM496 676q0 159 114.5 261.5t292.5 102.5q104 0 199 -34q24 -9 37 -9q4 0 18 7h21l12 -164h-29q-28 76 -97 122t-157 46q-133 0 -216 -86t-83 -224q0 -141 91 -237 t223 -96q176 0 270 155h29q-7 -31 -31 -82.5t-45 -85.5q-10 4 -25 4q-14 0 -96 -16q-72 -14 -135 -14q-170 0 -281.5 99t-111.5 251z" />
<glyph unicode="&#xaa;" horiz-adv-x="614" d="M98 657l11 56h507l-12 -56h-506zM176 971q0 96 65 194t167 161t202 63q5 0 35 -3l-86 -428q-4 -20 -4 -26q0 -17 10 -17q16 0 80 74v-43q-57 -65 -88.5 -90t-54.5 -25q-19 0 -30 17.5t-11 46.5q0 26 16 111q-172 -175 -219 -175q-32 0 -57 42.5t-25 97.5zM266 999 q0 -39 12 -66.5t29 -27.5q32 0 180 154l54 254q-90 -6 -148 -43q-57 -38 -92 -113.5t-35 -157.5z" />
<glyph unicode="&#xab;" horiz-adv-x="960" d="M164 479l422 408h45l-316 -408l134 -403h-52zM535 479l344 359h47l-236 -359l62 -350h-47z" />
<glyph unicode="&#xac;" horiz-adv-x="1024" d="M123 467v80h876v-547h-182v467h-694z" />
<glyph unicode="&#xad;" horiz-adv-x="733" d="M102 367l29 137h496l-29 -137h-496z" />
<glyph unicode="&#xae;" horiz-adv-x="1675" d="M164 682q0 146 57.5 279.5t154 229.5t230.5 153t281 57q197 0 363 -96.5t262 -263t96 -363.5q0 -146 -58 -278t-156 -227t-234 -151.5t-286 -56.5q-142 0 -273.5 58t-227 154.5t-152.5 229t-57 275.5zM236 682q0 -175 86.5 -326t234 -240t317.5 -89q182 0 334 86.5 t240 236.5t88 328q0 135 -51 257.5t-138 211t-207 140.5t-253 52q-177 0 -327 -87.5t-237 -239t-87 -330.5zM494 342v29h24q52 0 72 20q10 11 12 24t2 68v402q0 76 -15 93t-83 17h-10v29q133 10 266 10q159 0 233 -45q88 -56 88 -151q0 -40 -18.5 -78.5t-50.5 -61.5 q-6 -4 -74 -39q51 -40 73 -60t105 -101q77 -75 132.5 -106.5t121.5 -35.5v-26h-41q-120 0 -175.5 25.5t-164.5 131.5q-133 126 -160 142q-29 -4 -69 -4q-32 0 -57 2v-144q0 -53 2.5 -67t11.5 -25q20 -20 69 -20h31v-29h-325zM705 655q50 -4 53 -4q213 0 213 178 q0 91 -53.5 135t-167.5 44q-31 0 -45 -4v-349z" />
<glyph unicode="&#xaf;" horiz-adv-x="1024" d="M356 1184l17 104h620l-16 -104h-621z" />
<glyph unicode="&#xb0;" horiz-adv-x="602" d="M246 1184q0 85 60.5 143.5t146.5 58.5q85 0 143.5 -59.5t58.5 -144.5t-59.5 -145t-142.5 -60q-86 0 -146.5 60.5t-60.5 146.5zM295 1184q0 -64 46.5 -110t109.5 -46t109 45t46 107q0 66 -45.5 111.5t-111.5 45.5q-63 0 -108.5 -45t-45.5 -108z" />
<glyph unicode="&#xb1;" horiz-adv-x="1120" d="M104 104v68h902v-68h-902zM104 666v67h418v397h68v-397h416v-67h-418v-398h-66v398h-418z" />
<glyph unicode="&#xb2;" horiz-adv-x="692" d="M100 801v24l119 115q214 207 295.5 318.5t81.5 197.5q0 54 -36.5 87.5t-96.5 33.5q-141 0 -201 -162h-33q19 103 89.5 165t170.5 62q98 0 160 -52.5t62 -137.5q0 -31 -10.5 -59t-25 -52.5t-58.5 -70t-80.5 -80.5t-122.5 -115l-193 -178h309q31 0 42 9.5t18 47.5l4 23h33 l-31 -176h-496z" />
<glyph unicode="&#xb3;" horiz-adv-x="692" d="M106 838q0 20 15 34.5t35 14.5q11 0 41 -15q53 -30 102 -30q83 0 154 92t71 199q0 57 -31.5 93t-80.5 36q-39 0 -117 -41l8 41q138 78 198 133t60 102q0 37 -29 62.5t-69 25.5t-73.5 -20.5t-74.5 -69.5l-24 18q38 62 93.5 95.5t119.5 33.5q72 0 119 -37t47 -94 q0 -108 -185 -180q75 -6 114.5 -48t39.5 -114q0 -90 -63 -180t-163 -147.5t-200 -57.5q-47 0 -77 15.5t-30 38.5z" />
<glyph unicode="&#xb4;" horiz-adv-x="1024" d="M449 985l233 475h149l-337 -475h-45z" />
<glyph unicode="&#xb5;" horiz-adv-x="1019" d="M-96 -317q0 31 41 145q139 405 209 747l65 322h137l-112 -547q-19 -90 -19 -145q0 -66 40 -105t106 -39q76 0 144.5 39.5t148.5 128.5l135 668h135l-133 -659q-15 -84 -15 -93q0 -63 62 -63q29 0 67 22l-6 -30l-178 -94l-8 -3q-24 0 -49 25q-23 26 -23 88q0 4 4 62 q-139 -111 -209 -147t-149 -36q-54 0 -96 21t-64 59q-21 35 -26 103q-27 -119 -33 -177l-12 -163q-15 -199 -105 -199q-26 0 -41.5 19t-15.5 51z" />
<glyph unicode="&#xb6;" d="M133 -492l8 41q110 7 147 49t66 189l168 823h-39q-151 0 -232 82t-81 234q0 141 68.5 272t175.5 197q104 65 268 65h555l-8 -41q-110 -7 -147 -48.5t-66 -188.5l-283 -1395q-24 -114 -24 -141q0 -47 32 -70t107 -27l-8 -41h-707zM401 -426h197l371 1821h-195z" />
<glyph unicode="&#xb7;" horiz-adv-x="641" d="M248 625q0 44 33 76t77 32q46 0 78.5 -32.5t32.5 -77.5q0 -44 -33.5 -77.5t-77.5 -33.5q-46 0 -78 33t-32 80z" />
<glyph unicode="&#xb8;" horiz-adv-x="1024" d="M152 -414l6 35q20 -2 43 -2q91 0 142.5 35t51.5 98q0 80 -110 86l84 162h34l-28 -59q54 -1 89.5 -42.5t35.5 -103.5q0 -98 -79 -154.5t-216 -56.5q-30 0 -53 2z" />
<glyph unicode="&#xb9;" horiz-adv-x="692" d="M240 803l6 28h45q43 0 56.5 12.5t23.5 61.5l123 604q-124 -95 -230 -131l8 45q181 73 297 217h56l-148 -725q-4 -16 -4 -34q0 -26 19.5 -35.5t80.5 -14.5l-6 -28h-327z" />
<glyph unicode="&#xba;" horiz-adv-x="614" d="M98 657l11 56h507l-12 -56h-506zM223 1040q0 74 39 145.5t109 125.5q101 78 168 78q51 0 89 -59.5t38 -137.5q0 -178 -160 -293q-43 -30 -88 -49t-72 -19q-47 0 -85 64t-38 145zM319 1049q0 -69 26 -115.5t63 -46.5q64 0 113.5 86.5t49.5 197.5q0 66 -29.5 112t-70.5 46 q-58 0 -105 -86.5t-47 -193.5z" />
<glyph unicode="&#xbb;" horiz-adv-x="960" d="M51 125l236 358l-62 351h47l168 -351l-342 -358h-47zM344 76l315 407l-131 404h52l233 -404l-422 -407h-47z" />
<glyph unicode="&#xbc;" horiz-adv-x="1615" d="M229 0l1248 1366h90l-1245 -1366h-93zM240 547l6 28h43q44 0 58 12.5t24 61.5l123 604q-122 -94 -232 -131l10 45q182 74 295 217h58l-148 -725q-6 -27 -6 -34q0 -26 19.5 -36t82.5 -14l-6 -28h-327zM975 248v51l498 541h43l-105 -514h123l-16 -78h-123l-54 -266h-104 l53 266h-315zM1053 326h254l71 352z" />
<glyph unicode="&#xbd;" horiz-adv-x="1615" d="M188 0l1248 1366h90l-1245 -1366h-93zM240 547l6 28h43q44 0 58 12.5t24 61.5l123 604q-122 -94 -232 -131l10 45q182 74 295 217h58l-148 -725q-6 -27 -6 -34q0 -26 19.5 -36t82.5 -14l-6 -28h-327zM913 0v25l119 114q210 202 293.5 316t83.5 200q0 54 -36.5 86.5 t-96.5 32.5q-141 0 -201 -160h-33q19 103 90 164.5t171 61.5q98 0 159.5 -53t61.5 -136q0 -72 -55 -140.5t-242 -238.5l-193 -176h309q32 0 43 10t17 46l4 22h33l-31 -174h-496z" />
<glyph unicode="&#xbe;" horiz-adv-x="1615" d="M106 582q0 20 15 34.5t35 14.5q11 0 41 -15q53 -30 102 -30q83 0 154 92t71 199q0 57 -31.5 93t-80.5 36q-39 0 -117 -41l8 41q138 78 198 133t60 102q0 37 -29 62.5t-69 25.5t-73.5 -20.5t-74.5 -69.5l-24 18q38 62 93.5 95.5t119.5 33.5q72 0 119 -37t47 -94 q0 -108 -185 -180q75 -6 114.5 -48t39.5 -114q0 -90 -63 -180t-163 -147.5t-200 -57.5q-47 0 -77 15.5t-30 38.5zM215 0l1247 1366h90l-1245 -1366h-92zM973 299l500 541h43l-105 -514h121l-14 -78h-123l-56 -266h-104l55 266h-315zM1053 326h254l71 352z" />
<glyph unicode="&#xbf;" horiz-adv-x="870" d="M27 -172q0 144 63 252q53 86 178 143q106 50 153.5 112t78.5 193h43q-16 -155 -42.5 -240.5t-72.5 -137t-135 -97.5q-104 -55 -148.5 -109t-44.5 -122q0 -75 56 -124.5t139 -49.5q51 0 135 24q33 11 45 11q24 0 39.5 -23t15.5 -59q0 -47 -56.5 -80t-139.5 -33 q-135 0 -221 95t-86 245zM483 768q0 54 30.5 91.5t74.5 37.5q37 0 60.5 -28t23.5 -72q0 -54 -30.5 -90.5t-74.5 -36.5q-38 0 -61 27t-23 71z" />
<glyph unicode="&#xc0;" horiz-adv-x="1533" d="M-106 0l8 39q79 10 132 50t140 153l889 1159h115l10 -1233q0 -71 36.5 -97.5t135.5 -29.5l12 -2l-8 -39h-586l6 39q127 -1 179.5 40t52.5 142l-2 375h-494l-287 -371q-38 -47 -38 -92q0 -25 14.5 -47t36.5 -29q43 -16 131 -18l-8 -39h-475zM582 674h430l-4 565zM819 1810 h178l181 -325h-45z" />
<glyph unicode="&#xc1;" horiz-adv-x="1533" d="M-106 0l8 39q79 10 132 50t140 153l889 1159h115l10 -1233q0 -71 36.5 -97.5t135.5 -29.5l12 -2l-8 -39h-586l6 39q127 -1 179.5 40t52.5 142l-2 375h-494l-287 -371q-38 -47 -38 -92q0 -25 14.5 -47t36.5 -29q43 -16 131 -18l-8 -39h-475zM582 674h430l-4 565z M1073 1485l189 321h174l-320 -321h-43z" />
<glyph unicode="&#xc2;" horiz-adv-x="1533" d="M-106 0l8 39q79 10 132 50t140 153l889 1159h115l10 -1233q0 -71 36.5 -97.5t135.5 -29.5l12 -2l-8 -39h-586l6 39q127 -1 179.5 40t52.5 142l-2 375h-494l-287 -371q-38 -47 -38 -92q0 -25 14.5 -47t36.5 -29q43 -16 131 -18l-8 -39h-475zM582 674h430l-4 565zM797 1497 l317 305h139l185 -305h-41l-228 205l-325 -205h-47z" />
<glyph unicode="&#xc3;" horiz-adv-x="1533" d="M-106 0l8 39q79 10 132 50t140 153l889 1159h115l10 -1233q0 -71 36.5 -97.5t135.5 -29.5l12 -2l-8 -39h-586l6 39q127 -1 179.5 40t52.5 142l-2 375h-494l-287 -371q-38 -47 -38 -92q0 -25 14.5 -47t36.5 -29q43 -16 131 -18l-8 -39h-475zM582 674h430l-4 565zM795 1481 q10 101 69 159t150 58q75 0 192 -60q64 -34 92.5 -44.5t55.5 -10.5q41 0 75.5 33t43.5 80h45q-12 -100 -70.5 -157.5t-147.5 -57.5q-82 0 -200 59q-66 33 -92.5 42t-55.5 9q-43 0 -73 -29.5t-41 -80.5h-43z" />
<glyph unicode="&#xc4;" horiz-adv-x="1533" d="M-106 0l8 39l8 2q74 10 126 50.5t138 150.5l889 1159h115l10 -1233q0 -71 36.5 -97.5t135.5 -29.5l12 -2l-8 -39h-586l6 39q127 -1 179.5 40t52.5 142l-2 375h-494l-287 -371q-38 -47 -38 -92q0 -26 14 -47.5t37 -28.5q46 -16 131 -18l-8 -39h-475zM582 674h430l-4 565z M788 1585q0 37 27.5 63.5t65.5 26.5q37 0 63.5 -26.5t26.5 -63.5q0 -38 -26.5 -65t-63.5 -27q-38 0 -65.5 27t-27.5 65zM1268 1585q0 37 27 63.5t65 26.5q37 0 63.5 -27t26.5 -65q0 -37 -26.5 -63.5t-63.5 -26.5q-38 0 -65 27t-27 65z" />
<glyph unicode="&#xc5;" horiz-adv-x="1533" d="M-106 0l8 39l8 2q74 10 126 50.5t138 150.5l879 1144q-74 17 -121 75.5t-47 133.5q0 88 63 150.5t152 62.5q88 0 150.5 -62.5t62.5 -150.5q0 -66 -36 -120t-99 -80l10 -1227q0 -71 36.5 -97.5t135.5 -29.5l12 -2l-8 -39h-586l6 39q127 -1 179.5 40t52.5 142l-2 375h-494 l-287 -371q-38 -47 -38 -92q0 -26 14 -47.5t37 -28.5q46 -16 131 -18l-8 -39h-475zM582 674h430l-4 565zM940 1595q0 -66 46.5 -112.5t113.5 -46.5q64 0 110.5 46t46.5 111q0 66 -46 113t-111 47q-66 0 -113 -46.5t-47 -111.5z" />
<glyph unicode="&#xc6;" horiz-adv-x="2043" d="M-135 0l8 39q93 9 165.5 71.5t237.5 268.5l687 856q22 28 22 45q0 20 -33.5 29.5t-128.5 15.5l15 41h1175l-61 -303h-39v33q0 115 -53.5 165t-178.5 50h-409l-119 -590h440q162 0 215 149h37l-80 -389h-36q2 12 2 25q0 94 -46 127t-178 33h-366l-94 -461q-5 -20 -5 -43 q0 -61 44 -84t161 -23h142q103 0 178 21.5t153 73.5q52 34 83 65t67 86h37l-109 -301h-1149l8 41h7q112 0 161 55q19 21 30.5 50.5t23.5 91.5l63 307h-463l-235 -295q-41 -51 -55.5 -78t-14.5 -53q0 -22 13.5 -41.5t35.5 -26.5q28 -10 101 -12l-9 -39h-450zM524 600h428 l148 725z" />
<glyph unicode="&#xc7;" horiz-adv-x="1617" d="M160 582q0 226 127.5 414t349 296.5t487.5 108.5q279 0 480 -101l-82 -327h-41q6 41 6 65q0 148 -99 229t-280 81q-134 0 -266 -53.5t-242 -153.5q-118 -104 -183 -256.5t-65 -323.5q0 -249 130.5 -396t353.5 -147q166 0 316.5 87t254.5 243h43l-111 -344h-20 q-37 12 -78 12q-35 0 -127 -18q-180 -33 -299 -33l-33 -53q72 -1 120 -46.5t48 -111.5q0 -110 -105.5 -173.5t-289.5 -63.5q-39 0 -70 2l7 37h26q128 0 199 26q42 17 68 50t26 69q0 89 -145 98l102 168q-108 5 -193 31q-191 62 -303 219.5t-112 364.5z" />
<glyph unicode="&#xc8;" horiz-adv-x="1382" d="M-18 0l10 39h10q110 0 162 55q19 20 29 48.5t24 95.5l182 890q13 67 13 93q0 49 -37 75.5t-103 26.5h-55l10 43h1127l-62 -303h-35q3 35 3 43q0 109 -56 157t-182 48h-412l-121 -592h433q93 0 140 30t85 115h39l-80 -385h-37q2 14 2 33q0 88 -47 120t-176 32h-369 l-94 -461q-4 -28 -4 -43q0 -60 44.5 -83.5t160.5 -23.5h141q104 0 181.5 21.5t152.5 70.5q48 31 75.5 59.5t69.5 90.5h37l-98 -295h-1163zM592 1810h178l180 -325h-45z" />
<glyph unicode="&#xc9;" horiz-adv-x="1382" d="M-18 0l10 39h10q110 0 162 55q19 20 29 48.5t24 95.5l182 890q13 67 13 93q0 49 -37 75.5t-103 26.5h-55l10 43h1127l-62 -303h-35q3 35 3 43q0 109 -56 157t-182 48h-412l-121 -592h433q93 0 140 30t85 115h39l-80 -385h-37q2 14 2 33q0 88 -47 120t-176 32h-369 l-94 -461q-4 -28 -4 -43q0 -60 44.5 -83.5t160.5 -23.5h141q104 0 181.5 21.5t152.5 70.5q48 31 75.5 59.5t69.5 90.5h37l-98 -295h-1163zM791 1485l188 321h174l-319 -321h-43z" />
<glyph unicode="&#xca;" horiz-adv-x="1382" d="M-18 0l10 39h10q110 0 162 55q19 20 29 48.5t24 95.5l182 890q13 67 13 93q0 49 -37 75.5t-103 26.5h-55l10 43h1127l-62 -303h-35q3 35 3 43q0 109 -56 157t-182 48h-412l-121 -592h433q93 0 140 30t85 115h39l-80 -385h-37q2 14 2 33q0 88 -47 120t-176 32h-369 l-94 -461q-4 -28 -4 -43q0 -60 44.5 -83.5t160.5 -23.5h141q104 0 181.5 21.5t152.5 70.5q48 31 75.5 59.5t69.5 90.5h37l-98 -295h-1163zM530 1497l318 305h139l184 -305h-41l-227 205l-325 -205h-48z" />
<glyph unicode="&#xcb;" horiz-adv-x="1382" d="M-18 0l10 39h10q110 0 162 55q19 20 29 48.5t24 95.5l182 890q13 67 13 93q0 49 -37 75.5t-103 26.5h-55l10 43h1127l-62 -303h-35q3 35 3 43q0 109 -56 157t-182 48h-412l-121 -592h433q93 0 140 30t85 115h39l-80 -385h-37q2 14 2 33q0 88 -47 120t-176 32h-369 l-94 -461q-4 -28 -4 -43q0 -60 44.5 -83.5t160.5 -23.5h141q104 0 181.5 21.5t152.5 70.5q48 31 75.5 59.5t69.5 90.5h37l-98 -295h-1163zM537 1585q0 37 27 63.5t65 26.5q37 0 63.5 -26.5t26.5 -63.5q0 -38 -26.5 -65t-63.5 -27q-38 0 -65 27t-27 65zM1049 1585 q0 37 27 63.5t65 26.5q37 0 63.5 -27t26.5 -65q0 -37 -26.5 -63.5t-63.5 -26.5q-38 0 -65 27t-27 65z" />
<glyph unicode="&#xcc;" horiz-adv-x="694" d="M-8 0l8 41h8q107 0 156 55q20 20 30.5 48t24.5 94l180 890q15 74 15 95q0 47 -37.5 74.5t-102.5 27.5h-28l8 41h549l-8 -41h-15q-104 0 -153 -55q-18 -20 -28 -47.5t-24 -94.5l-182 -890q-12 -64 -12 -78q0 -119 156 -119h30l-8 -41h-567zM248 1810h178l180 -325h-45z " />
<glyph unicode="&#xcd;" horiz-adv-x="694" d="M-8 0l8 41h8q107 0 156 55q20 20 30.5 48t24.5 94l180 890q15 74 15 95q0 47 -37.5 74.5t-102.5 27.5h-28l8 41h549l-8 -41h-15q-104 0 -153 -55q-18 -20 -28 -47.5t-24 -94.5l-182 -890q-12 -64 -12 -78q0 -119 156 -119h30l-8 -41h-567zM449 1485l188 321h174 l-319 -321h-43z" />
<glyph unicode="&#xce;" horiz-adv-x="694" d="M-8 0l8 41h8q107 0 156 55q20 20 30.5 48t24.5 94l180 890q15 74 15 95q0 47 -37.5 74.5t-102.5 27.5h-28l8 41h549l-8 -41h-15q-104 0 -153 -55q-18 -20 -28 -47.5t-24 -94.5l-182 -890q-12 -64 -12 -78q0 -119 156 -119h30l-8 -41h-567zM227 1497l318 305h139l184 -305 h-41l-227 205l-326 -205h-47z" />
<glyph unicode="&#xcf;" horiz-adv-x="694" d="M-8 0l8 41h8q107 0 156 55q20 20 30.5 48t24.5 94l180 890q15 74 15 95q0 47 -37.5 74.5t-102.5 27.5h-28l8 41h549l-8 -41h-15q-104 0 -153 -55q-18 -20 -28 -47.5t-24 -94.5l-182 -890q-12 -64 -12 -78q0 -119 156 -119h30l-8 -41h-567zM274 1585q0 37 27.5 63.5 t65.5 26.5q37 0 63.5 -26.5t26.5 -63.5q0 -38 -26.5 -65t-63.5 -27q-38 0 -65.5 27t-27.5 65zM705 1585q0 37 27 63.5t65 26.5q37 0 63.5 -27t26.5 -65q0 -37 -26.5 -63.5t-63.5 -26.5q-38 0 -65 27t-27 65z" />
<glyph unicode="&#xd0;" horiz-adv-x="1675" d="M-12 0l8 39h22q43 0 83 14t63 37q21 21 29.5 46.5t29.5 127.5l84 406h-170l13 53h167l82 405q15 80 15 95q0 49 -37 75.5t-103 26.5h-59l8 41h656q327 0 525 -166.5t198 -441.5q0 -211 -124 -396.5t-327 -279.5q-182 -82 -395 -82h-768zM387 180q0 -74 51.5 -101.5 t190.5 -27.5q249 0 401 82q172 94 272.5 265t100.5 370q0 163 -73 286t-210 191q-75 38 -160.5 53t-232.5 15h-115l-120 -590h399l-10 -53h-400l-88 -434q-6 -27 -6 -56z" />
<glyph unicode="&#xd1;" horiz-adv-x="1693" d="M0 0l8 41q96 12 142 66t73 180l197 960q-23 36 -67 54t-124 26l9 39h294l818 -1151l178 875q10 55 10 90q0 70 -44.5 105.5t-141.5 41.5l10 39h446l-8 -39q-95 -12 -145.5 -65.5t-73.5 -167.5l-227 -1119h-54l-839 1205l-178 -879q-11 -64 -11 -90q0 -52 25 -92t70 -60 q26 -10 98 -18l-8 -41h-457zM721 1501q10 101 69 159t150 58q78 0 193 -59q65 -35 92.5 -45t54.5 -10q41 0 75.5 32.5t43.5 79.5h45q-12 -100 -70 -157.5t-147 -57.5q-81 0 -201 60q-66 33 -92.5 42t-54.5 9q-43 0 -73.5 -30t-41.5 -81h-43z" />
<glyph unicode="&#xd2;" horiz-adv-x="1738" d="M162 608q0 164 81 327t218 273q240 193 540 193q139 0 263.5 -50t214 -135.5t142 -204.5t52.5 -251q0 -161 -67.5 -308.5t-181 -254t-270.5 -169.5t-329 -63q-202 0 -362 101q-142 91 -221.5 234t-79.5 308zM356 539q0 -232 130.5 -376.5t340.5 -144.5q119 0 233.5 50.5 t192.5 138.5q106 118 167 281.5t61 334.5q0 230 -131.5 377.5t-337.5 147.5q-120 0 -226.5 -43t-185.5 -125q-114 -116 -179 -286.5t-65 -354.5zM770 1810h178l180 -325h-45z" />
<glyph unicode="&#xd3;" horiz-adv-x="1738" d="M162 608q0 164 81 327t218 273q240 193 540 193q139 0 263.5 -50t214 -135.5t142 -204.5t52.5 -251q0 -161 -67.5 -308.5t-181 -254t-270.5 -169.5t-329 -63q-202 0 -362 101q-142 91 -221.5 234t-79.5 308zM356 539q0 -232 130.5 -376.5t340.5 -144.5q119 0 233.5 50.5 t192.5 138.5q106 118 167 281.5t61 334.5q0 230 -131.5 377.5t-337.5 147.5q-120 0 -226.5 -43t-185.5 -125q-114 -116 -179 -286.5t-65 -354.5zM969 1485l188 321h174l-319 -321h-43z" />
<glyph unicode="&#xd4;" horiz-adv-x="1738" d="M162 608q0 164 81 327t218 273q240 193 540 193q139 0 263.5 -50t214 -135.5t142 -204.5t52.5 -251q0 -161 -67.5 -308.5t-181 -254t-270.5 -169.5t-329 -63q-202 0 -362 101q-142 91 -221.5 234t-79.5 308zM356 539q0 -232 130.5 -376.5t340.5 -144.5q119 0 233.5 50.5 t192.5 138.5q106 118 167 281.5t61 334.5q0 230 -131.5 377.5t-337.5 147.5q-120 0 -226.5 -43t-185.5 -125q-114 -116 -179 -286.5t-65 -354.5zM750 1497l317 305h139l185 -305h-41l-228 205l-325 -205h-47z" />
<glyph unicode="&#xd5;" horiz-adv-x="1738" d="M162 608q0 164 81 327t218 273q240 193 540 193q139 0 263.5 -50t214 -135.5t142 -204.5t52.5 -251q0 -161 -67.5 -308.5t-181 -254t-270.5 -169.5t-329 -63q-202 0 -362 101q-142 91 -221.5 234t-79.5 308zM356 539q0 -232 130.5 -376.5t340.5 -144.5q119 0 233.5 50.5 t192.5 138.5q106 118 167 281.5t61 334.5q0 230 -131.5 377.5t-337.5 147.5q-120 0 -226.5 -43t-185.5 -125q-114 -116 -179 -286.5t-65 -354.5zM745 1481q10 101 69.5 159t150.5 58q75 0 192 -60q64 -34 92.5 -44.5t55.5 -10.5q41 0 75 33t43 80h45q-12 -100 -70 -157.5 t-147 -57.5q-82 0 -200 59q-66 33 -92.5 42t-55.5 9q-43 0 -74 -29.5t-41 -80.5h-43z" />
<glyph unicode="&#xd6;" horiz-adv-x="1738" d="M162 608q0 164 81 327t218 273q240 193 540 193q139 0 263.5 -50t214 -135.5t142 -204.5t52.5 -251q0 -161 -67.5 -308.5t-181 -254t-270.5 -169.5t-329 -63q-202 0 -362 101q-142 91 -221.5 234t-79.5 308zM356 539q0 -232 130.5 -376.5t340.5 -144.5q119 0 233.5 50.5 t192.5 138.5q106 118 167 281.5t61 334.5q0 230 -131.5 377.5t-337.5 147.5q-120 0 -226.5 -43t-185.5 -125q-114 -116 -179 -286.5t-65 -354.5zM731 1585q0 37 27 63.5t65 26.5q37 0 63.5 -26.5t26.5 -63.5q0 -38 -26.5 -65t-63.5 -27q-38 0 -65 27t-27 65zM1210 1585 q0 37 27.5 63.5t65.5 26.5q37 0 63.5 -27t26.5 -65q0 -37 -26.5 -63.5t-63.5 -26.5q-38 0 -65.5 27t-27.5 65z" />
<glyph unicode="&#xd7;" d="M225 379l320 319l-320 320l47 47l320 -320l319 320l47 -47l-319 -320l319 -319l-47 -47l-319 319l-320 -319z" />
<glyph unicode="&#xd8;" horiz-adv-x="1736" d="M162 610q0 207 114.5 390t307 292t411.5 109q211 0 391 -115l140 158l41 -31l-137 -158q243 -187 243 -495q0 -179 -83.5 -341.5t-235.5 -279.5q-232 -174 -531 -174q-232 0 -407 133l-185 -211l-41 31l187 213q-215 200 -215 479zM356 553q0 -200 90 -342l883 1010 q-72 66 -149 96.5t-174 30.5q-116 0 -223 -44.5t-183 -123.5q-112 -115 -178 -285t-66 -342zM477 170q137 -152 350 -152q119 0 233.5 50.5t192.5 138.5q106 118 167 281.5t61 334.5q0 219 -115 359z" />
<glyph unicode="&#xd9;" horiz-adv-x="1601" d="M182 1325l8 41h558l-9 -41h-16q-106 0 -152 -55q-33 -35 -53 -142l-115 -563q-26 -136 -26 -211q0 -151 113.5 -243.5t297.5 -92.5q133 0 242.5 47t179.5 134q45 56 73 129t50 190l105 574q8 44 8 79q0 75 -51 114.5t-148 39.5l10 41h451l-8 -41q-164 -20 -205 -246 l-106 -577q-25 -136 -65.5 -224t-111.5 -157q-84 -80 -193.5 -118t-262.5 -38q-307 0 -451 160q-100 112 -100 258q0 63 26 188l113 557q14 77 14 95q0 47 -37.5 74.5t-101.5 27.5h-37zM702 1810h179l180 -325h-45z" />
<glyph unicode="&#xda;" horiz-adv-x="1601" d="M182 1325l8 41h558l-9 -41h-16q-106 0 -152 -55q-33 -35 -53 -142l-115 -563q-26 -136 -26 -211q0 -151 113.5 -243.5t297.5 -92.5q133 0 242.5 47t179.5 134q45 56 73 129t50 190l105 574q8 44 8 79q0 75 -51 114.5t-148 39.5l10 41h451l-8 -41q-164 -20 -205 -246 l-106 -577q-25 -136 -65.5 -224t-111.5 -157q-84 -80 -193.5 -118t-262.5 -38q-307 0 -451 160q-100 112 -100 258q0 63 26 188l113 557q14 77 14 95q0 47 -37.5 74.5t-101.5 27.5h-37zM930 1485l188 321h174l-319 -321h-43z" />
<glyph unicode="&#xdb;" horiz-adv-x="1601" d="M182 1325l8 41h558l-9 -41h-16q-106 0 -152 -55q-33 -35 -53 -142l-115 -563q-26 -136 -26 -211q0 -151 113.5 -243.5t297.5 -92.5q133 0 242.5 47t179.5 134q45 56 73 129t50 190l105 574q8 44 8 79q0 75 -51 114.5t-148 39.5l10 41h451l-8 -41q-164 -20 -205 -246 l-106 -577q-25 -136 -65.5 -224t-111.5 -157q-84 -80 -193.5 -118t-262.5 -38q-307 0 -451 160q-100 112 -100 258q0 63 26 188l113 557q14 77 14 95q0 47 -37.5 74.5t-101.5 27.5h-37zM694 1497l318 305h139l184 -305h-41l-227 205l-326 -205h-47z" />
<glyph unicode="&#xdc;" horiz-adv-x="1601" d="M182 1325l8 41h558l-9 -41h-16q-106 0 -152 -55q-33 -35 -53 -142l-115 -563q-26 -136 -26 -211q0 -151 113.5 -243.5t297.5 -92.5q133 0 242.5 47t179.5 134q45 56 73 129t50 190l105 574q8 44 8 79q0 75 -51 114.5t-148 39.5l10 41h451l-8 -41q-164 -20 -205 -246 l-106 -577q-25 -136 -65.5 -224t-111.5 -157q-84 -80 -193.5 -118t-262.5 -38q-307 0 -451 160q-100 112 -100 258q0 63 26 188l113 557q14 77 14 95q0 47 -37.5 74.5t-101.5 27.5h-37zM694 1585q0 37 27 63.5t65 26.5q37 0 64 -26.5t27 -63.5q0 -38 -27 -65t-64 -27 q-38 0 -65 27t-27 65zM1180 1585q0 37 27 63.5t65 26.5q37 0 63.5 -27t26.5 -65q0 -37 -26.5 -63.5t-63.5 -26.5q-38 0 -65 27t-27 65z" />
<glyph unicode="&#xdd;" horiz-adv-x="1372" d="M160 1327l8 39h457l-9 -39q-120 -9 -120 -76q0 -36 26 -90l248 -536l426 489q48 56 63 81.5t15 51.5q0 35 -34 56t-97 24l8 39h375l-8 -37q-56 -21 -92.5 -50.5t-98.5 -98.5l-539 -621l-65 -321q-12 -64 -12 -82q0 -115 153 -115h56l-9 -41h-624l8 41h37q113 0 162 55 q18 20 28.5 48t24.5 94l65 321l-276 606q-42 92 -77.5 125.5t-98.5 36.5zM815 1485l189 321h174l-320 -321h-43z" />
<glyph unicode="&#xde;" horiz-adv-x="1239" d="M12 0l8 41q92 4 135 52t68 171l176 864q13 60 13 95q0 47 -37 74.5t-103 27.5h-26l8 41h522l-8 -41q-83 -3 -128 -42t-62 -130l-11 -55h117q125 0 195.5 -12t130.5 -44q95 -50 145.5 -132t50.5 -189q0 -156 -104 -275q-79 -94 -191.5 -137t-275.5 -43q-76 0 -117 10l6 39 q47 -6 72 -6q229 0 346 172q80 122 80 271q0 86 -31.5 151.5t-89.5 100.5q-65 38 -205 38h-139l-166 -804q-10 -54 -10 -82q0 -115 154 -115h30l-8 -41h-545z" />
<glyph unicode="&#xdf;" horiz-adv-x="933" d="M-434 -395q0 25 17.5 41t45.5 16q43 0 103 -47q68 -55 116 -55q42 0 84.5 35t67.5 90q49 104 86 311l113 645q44 252 76 364t87 209q70 121 173.5 192t209.5 71q104 0 176 -76.5t72 -186.5q0 -75 -39.5 -146.5t-109.5 -123.5q-70 -50 -201 -84q236 -90 236 -340 q0 -131 -62 -259t-161 -208t-201 -80q-52 0 -84.5 23.5t-32.5 60.5q0 25 17 42.5t42 17.5q20 0 37.5 -11.5t52.5 -48.5q24 -24 50 -24q41 0 83 43t64 108q47 139 47 291q0 91 -26.5 168.5t-73.5 124.5q-32 32 -99 70l7 28q113 22 178 74q63 50 101 131t38 168q0 85 -43 139 t-111 54q-63 0 -127 -48.5t-98 -121.5q-62 -139 -121 -467l-84 -478q-43 -247 -96 -398.5t-135 -258.5q-67 -88 -136 -129t-149 -41q-78 0 -134 34t-56 81z" />
<glyph unicode="&#xe0;" horiz-adv-x="878" d="M29 199q0 145 88.5 295t240.5 264q84 62 188.5 100.5t190.5 38.5q14 0 49 -4l-131 -643q-16 -80 -16 -117q0 -33 20 -33q30 0 125 115v-53q-92 -104 -143 -146.5t-86 -42.5q-26 0 -42.5 28.5t-16.5 72.5q0 69 30 207q-157 -163 -244 -235.5t-128 -72.5q-49 0 -87 69 t-38 157zM164 246q0 -67 20 -114.5t49 -47.5q28 0 98.5 60t209.5 202l88 438q-160 -11 -252 -75q-94 -65 -153.5 -194.5t-59.5 -268.5zM264 1460h156l229 -475h-41z" />
<glyph unicode="&#xe1;" horiz-adv-x="878" d="M29 199q0 145 88.5 295t240.5 264q84 62 188.5 100.5t190.5 38.5q14 0 49 -4l-131 -643q-16 -80 -16 -117q0 -33 20 -33q30 0 125 115v-53q-92 -104 -143 -146.5t-86 -42.5q-26 0 -42.5 28.5t-16.5 72.5q0 69 30 207q-157 -163 -244 -235.5t-128 -72.5q-49 0 -87 69 t-38 157zM164 246q0 -67 20 -114.5t49 -47.5q28 0 98.5 60t209.5 202l88 438q-160 -11 -252 -75q-94 -65 -153.5 -194.5t-59.5 -268.5zM444 985l234 475h149l-338 -475h-45z" />
<glyph unicode="&#xe2;" horiz-adv-x="878" d="M29 199q0 145 88.5 295t240.5 264q84 62 188.5 100.5t190.5 38.5q14 0 49 -4l-131 -643q-16 -80 -16 -117q0 -33 20 -33q30 0 125 115v-53q-92 -104 -143 -146.5t-86 -42.5q-26 0 -42.5 28.5t-16.5 72.5q0 69 30 207q-157 -163 -244 -235.5t-128 -72.5q-49 0 -87 69 t-38 157zM164 246q0 -67 20 -114.5t49 -47.5q28 0 98.5 60t209.5 202l88 438q-160 -11 -252 -75q-94 -65 -153.5 -194.5t-59.5 -268.5zM297 973l362 479h119l2 -479h-51l-70 309l-313 -309h-49z" />
<glyph unicode="&#xe3;" horiz-adv-x="878" d="M29 199q0 145 88.5 295t240.5 264q84 62 188.5 100.5t190.5 38.5q14 0 49 -4l-131 -643q-16 -80 -16 -117q0 -33 20 -33q30 0 125 115v-53q-92 -104 -143 -146.5t-86 -42.5q-26 0 -42.5 28.5t-16.5 72.5q0 69 30 207q-157 -163 -244 -235.5t-128 -72.5q-49 0 -87 69 t-38 157zM164 246q0 -67 20 -114.5t49 -47.5q28 0 98.5 60t209.5 202l88 438q-160 -11 -252 -75q-94 -65 -153.5 -194.5t-59.5 -268.5zM274 1110q6 98 55 154.5t128 56.5q39 0 78 -16.5t114 -63.5q80 -51 131 -51q50 0 78.5 34.5t28.5 94.5h28q-1 -98 -47.5 -154.5 t-126.5 -56.5q-74 0 -200 76q-86 53 -138 53q-91 0 -100 -127h-29z" />
<glyph unicode="&#xe4;" horiz-adv-x="878" d="M29 199q0 145 88.5 295t240.5 264q84 62 188.5 100.5t190.5 38.5q14 0 49 -4l-131 -643q-16 -80 -16 -117q0 -33 20 -33q30 0 125 115v-53q-92 -104 -143 -146.5t-86 -42.5q-26 0 -42.5 28.5t-16.5 72.5q0 69 30 207q-157 -163 -244 -235.5t-128 -72.5q-49 0 -87 69 t-38 157zM164 246q0 -67 20 -114.5t49 -47.5q28 0 98.5 60t209.5 202l88 438q-160 -11 -252 -75q-94 -65 -153.5 -194.5t-59.5 -268.5zM326 1192q0 32 24 56t58 24q32 0 55.5 -24t23.5 -58q0 -32 -23.5 -56t-55.5 -24q-34 0 -58 24t-24 58zM676 1192q0 32 24 56t58 24 q32 0 56 -24t24 -58q0 -32 -24 -56t-56 -24q-34 0 -58 24t-24 58z" />
<glyph unicode="&#xe5;" horiz-adv-x="878" d="M29 199q0 145 88.5 295t240.5 264q84 62 188.5 100.5t190.5 38.5q14 0 49 -4l-131 -643q-16 -80 -16 -117q0 -33 20 -33q30 0 125 115v-53q-92 -104 -143 -146.5t-86 -42.5q-26 0 -42.5 28.5t-16.5 72.5q0 69 30 207q-157 -163 -244 -235.5t-128 -72.5q-49 0 -87 69 t-38 157zM164 246q0 -67 20 -114.5t49 -47.5q28 0 98.5 60t209.5 202l88 438q-160 -11 -252 -75q-94 -65 -153.5 -194.5t-59.5 -268.5zM410 1221q0 78 58.5 136t139.5 58q82 0 139.5 -57t57.5 -139t-57.5 -140.5t-139.5 -58.5q-83 0 -140.5 58t-57.5 143zM459 1221 q0 -63 43 -107.5t106 -44.5q61 0 104.5 44t43.5 104q0 63 -43.5 106t-106.5 43q-60 0 -103.5 -43t-43.5 -102z" />
<glyph unicode="&#xe6;" horiz-adv-x="1220" d="M23 217q0 127 64.5 251.5t168.5 217.5t243 151t281 58h19l-27 -133q75 73 137.5 104t134.5 31q80 0 130.5 -42.5t50.5 -109.5q0 -69 -57 -132.5t-158 -106.5q-167 -74 -301 -105q-19 -86 -19 -143q0 -90 45.5 -147.5t116.5 -57.5q45 0 100.5 23.5t147.5 81.5l18 -27 q-232 -158 -368 -158q-83 0 -143 76t-60 182q0 21 2 37q-310 -293 -383 -293q-55 0 -99 74.5t-44 167.5zM160 272q0 -83 22.5 -135.5t57.5 -52.5q40 0 113 56.5t204 187.5l96 471q-124 -13 -205.5 -49.5t-146.5 -106.5q-66 -69 -103.5 -168t-37.5 -203zM715 442q6 2 10 2 q39 9 105.5 34t109.5 48q80 40 123 96.5t43 122.5q0 46 -29 76.5t-73 30.5q-97 0 -172.5 -106.5t-116.5 -303.5z" />
<glyph unicode="&#xe7;" horiz-adv-x="608" d="M25 -483l10 34q117 23 167 61t50 103q0 41 -21.5 69.5t-70.5 51.5l63 139q-87 -1 -139.5 61t-52.5 165q0 107 42.5 235.5t114.5 237.5q70 107 156 165t172 58q52 0 82.5 -21.5t30.5 -58.5q0 -30 -16 -48.5t-42 -18.5q-21 0 -40 7t-62 31q-40 19 -61 19q-77 0 -144 -158 q-96 -239 -96 -424q0 -77 34.5 -121.5t94.5 -44.5q49 0 108.5 37.5t110.5 100.5l29 -23q-63 -75 -143.5 -130t-139.5 -64l-18 -52q118 -44 118 -161q0 -101 -94 -171t-243 -79z" />
<glyph unicode="&#xe8;" horiz-adv-x="720" d="M39 272q0 116 42 231.5t120 213.5q143 180 325 180q83 0 128.5 -37.5t45.5 -105.5q0 -128 -200 -238q-91 -51 -303 -117q-15 -81 -15 -133q0 -98 44 -154.5t122 -56.5q99 0 252 115l18 -29q-94 -75 -193.5 -121.5t-168.5 -46.5q-92 0 -154.5 86.5t-62.5 212.5zM207 440 q124 39 181.5 64.5t96.5 56.5q40 34 64 87t24 108q0 96 -79 96q-86 0 -156 -86q-36 -45 -64 -115t-67 -211zM213 1460h156l229 -475h-41z" />
<glyph unicode="&#xe9;" horiz-adv-x="720" d="M39 272q0 116 42 231.5t120 213.5q143 180 325 180q83 0 128.5 -37.5t45.5 -105.5q0 -128 -200 -238q-91 -51 -303 -117q-15 -81 -15 -133q0 -98 44 -154.5t122 -56.5q99 0 252 115l18 -29q-94 -75 -193.5 -121.5t-168.5 -46.5q-92 0 -154.5 86.5t-62.5 212.5zM207 440 q124 39 181.5 64.5t96.5 56.5q40 34 64 87t24 108q0 96 -79 96q-86 0 -156 -86q-36 -45 -64 -115t-67 -211zM367 985l233 475h150l-338 -475h-45z" />
<glyph unicode="&#xea;" horiz-adv-x="720" d="M39 272q0 116 42 231.5t120 213.5q143 180 325 180q83 0 128.5 -37.5t45.5 -105.5q0 -128 -200 -238q-91 -51 -303 -117q-15 -81 -15 -133q0 -98 44 -154.5t122 -56.5q99 0 252 115l18 -29q-94 -75 -193.5 -121.5t-168.5 -46.5q-92 0 -154.5 86.5t-62.5 212.5zM207 440 q124 39 181.5 64.5t96.5 56.5q40 34 64 87t24 108q0 96 -79 96q-86 0 -156 -86q-36 -45 -64 -115t-67 -211zM231 973l363 479h119l2 -479h-51l-70 309l-313 -309h-50z" />
<glyph unicode="&#xeb;" horiz-adv-x="720" d="M39 272q0 116 42 231.5t120 213.5q143 180 325 180q83 0 128.5 -37.5t45.5 -105.5q0 -128 -200 -238q-91 -51 -303 -117q-15 -81 -15 -133q0 -98 44 -154.5t122 -56.5q99 0 252 115l18 -29q-94 -75 -193.5 -121.5t-168.5 -46.5q-92 0 -154.5 86.5t-62.5 212.5zM207 440 q124 39 181.5 64.5t96.5 56.5q40 34 64 87t24 108q0 96 -79 96q-86 0 -156 -86q-36 -45 -64 -115t-67 -211zM256 1192q0 32 24 56t58 24q32 0 56 -24t24 -58q0 -32 -24 -56t-56 -24q-34 0 -58 24t-24 58zM606 1192q0 32 24 56t58 24q32 0 56 -24t24 -58q0 -32 -24 -56 t-56 -24q-34 0 -58 24t-24 58z" />
<glyph unicode="&#xec;" horiz-adv-x="532" d="M8 1460h156l229 -475h-41zM100 686q190 211 265 211q43 0 43 -55q0 -14 -9 -70l-123 -612q-6 -24 -6 -47q0 -10 5.5 -17.5t13.5 -7.5q14 0 53.5 38t85.5 97l27 -24q-61 -84 -146.5 -155t-124.5 -71q-28 0 -43.5 20.5t-15.5 57.5q0 36 10 84l111 549q12 64 12 68 q0 14 -12 14q-11 0 -23.5 -10t-54.5 -53l-33 -33l-12 -13z" />
<glyph unicode="&#xed;" horiz-adv-x="532" d="M100 686q190 211 265 211q43 0 43 -55q0 -14 -9 -70l-123 -612q-6 -24 -6 -47q0 -10 5.5 -17.5t13.5 -7.5q14 0 53.5 38t85.5 97l27 -24q-61 -84 -146.5 -155t-124.5 -71q-28 0 -43.5 20.5t-15.5 57.5q0 36 10 84l111 549q12 64 12 68q0 14 -12 14q-11 0 -23.5 -10 t-54.5 -53l-33 -33l-12 -13zM270 985l234 475h149l-338 -475h-45z" />
<glyph unicode="&#xee;" horiz-adv-x="532" d="M78 973l362 479h119l2 -479h-51l-70 309l-313 -309h-49zM102 686q193 211 265 211q43 0 43 -55q0 -14 -9 -70l-125 -612q-6 -42 -6 -47q0 -10 5.5 -17.5t13.5 -7.5q14 0 54.5 38.5t86.5 96.5l27 -24q-62 -84 -147.5 -155t-125.5 -71q-28 0 -43.5 20.5t-15.5 57.5 q0 32 10 84l113 549q12 64 12 68q0 14 -12 14q-14 0 -31.5 -14.5t-79.5 -81.5l-14 -13z" />
<glyph unicode="&#xef;" horiz-adv-x="532" d="M100 686q190 211 265 211q43 0 43 -55q0 -14 -9 -70l-123 -612q-6 -24 -6 -47q0 -10 5.5 -17.5t13.5 -7.5q14 0 53.5 38t85.5 97l27 -24q-61 -84 -146.5 -155t-124.5 -71q-28 0 -43.5 20.5t-15.5 57.5q0 36 10 84l111 549q12 64 12 68q0 14 -12 14q-11 0 -23.5 -10 t-54.5 -53l-33 -33l-12 -13zM168 1192q0 32 24 56t58 24q32 0 56 -24t24 -58q0 -32 -24 -56t-56 -24q-34 0 -58 24t-24 58zM449 1192q0 32 23.5 56t57.5 24q32 0 56 -24t24 -58q0 -32 -24 -56t-56 -24q-34 0 -57.5 24t-23.5 58z" />
<glyph unicode="&#xf0;" horiz-adv-x="817" d="M51 313q0 132 63.5 251t182.5 210q76 58 149.5 91.5t126.5 33.5q28 0 76 -29v33q0 123 -41 244l-217 -68l-10 35l213 66q-45 105 -145 192l22 29q126 -85 199 -199l204 64l9 -33l-195 -62q47 -88 75 -201t28 -218q0 -88 -19 -206t-43 -179q-14 -37 -39 -80.5t-41 -61.5 q-110 -115 -200 -172q-124 -78 -197 -78q-82 0 -141.5 100.5t-59.5 237.5zM195 328q0 -119 42.5 -197t106.5 -78q43 0 91 30t81 79q47 68 78 176.5t31 208.5q0 113 -49 189.5t-121 76.5q-65 0 -125.5 -68.5t-97.5 -181.5t-37 -235z" />
<glyph unicode="&#xf1;" horiz-adv-x="1024" d="M80 627q62 96 152 183t128 87q15 0 26 -12t11 -29q0 -30 -6 -61l-76 -369q191 242 314 356.5t192 114.5q40 0 63 -34t23 -91q0 -58 -18 -129l-129 -489q-15 -57 -15 -72q0 -8 4.5 -13.5t10.5 -5.5q19 0 58.5 39t131.5 146l25 -21q-197 -254 -305 -254q-26 0 -44 25 t-18 63q0 30 10 72l140 547q10 39 10 59q0 24 -11 41t-26 17q-34 0 -84 -47q-76 -74 -178 -193t-168 -209l-70 -334q-6 -29 -13.5 -34t-45.5 -5q-52 0 -65 4t-13 19q0 10 2 14l140 688q4 12 4 21q0 14 -11 14q-29 -3 -123 -131zM346 1110q6 98 54.5 154.5t127.5 56.5 q39 0 78.5 -16.5t114.5 -63.5q80 -51 131 -51q49 0 77.5 34.5t28.5 94.5h29q-1 -98 -47.5 -154.5t-126.5 -56.5q-75 0 -201 76q-51 31 -79.5 42t-57.5 11q-91 0 -100 -127h-29z" />
<glyph unicode="&#xf2;" horiz-adv-x="817" d="M51 317q0 125 63 242.5t179 208.5q73 58 147.5 93.5t124.5 35.5q31 0 67 -22.5t64 -59.5q70 -98 70 -240q0 -300 -262 -489q-69 -49 -141 -81t-115 -32q-76 0 -136.5 105t-60.5 239zM195 328q0 -119 42.5 -197t106.5 -78q43 0 91 30t81 79q47 68 78 176.5t31 208.5 q0 113 -49 189.5t-121 76.5q-65 0 -125.5 -68.5t-97.5 -181.5t-37 -235zM287 1460h155l230 -475h-41z" />
<glyph unicode="&#xf3;" horiz-adv-x="817" d="M51 317q0 125 63 242.5t179 208.5q73 58 147.5 93.5t124.5 35.5q31 0 67 -22.5t64 -59.5q70 -98 70 -240q0 -300 -262 -489q-69 -49 -141 -81t-115 -32q-76 0 -136.5 105t-60.5 239zM195 328q0 -119 42.5 -197t106.5 -78q43 0 91 30t81 79q47 68 78 176.5t31 208.5 q0 113 -49 189.5t-121 76.5q-65 0 -125.5 -68.5t-97.5 -181.5t-37 -235zM414 985l233 475h150l-338 -475h-45z" />
<glyph unicode="&#xf4;" horiz-adv-x="817" d="M51 317q0 125 63 242.5t179 208.5q73 58 147.5 93.5t124.5 35.5q31 0 67 -22.5t64 -59.5q70 -98 70 -240q0 -300 -262 -489q-69 -49 -141 -81t-115 -32q-76 0 -136.5 105t-60.5 239zM195 328q0 -119 42.5 -197t106.5 -78q43 0 91 30t81 79q47 68 78 176.5t31 208.5 q0 113 -49 189.5t-121 76.5q-65 0 -125.5 -68.5t-97.5 -181.5t-37 -235zM291 973l362 479h119l2 -479h-51l-70 309l-313 -309h-49z" />
<glyph unicode="&#xf5;" horiz-adv-x="817" d="M51 317q0 125 63 242.5t179 208.5q73 58 147.5 93.5t124.5 35.5q31 0 67 -22.5t64 -59.5q70 -98 70 -240q0 -300 -262 -489q-69 -49 -141 -81t-115 -32q-76 0 -136.5 105t-60.5 239zM195 328q0 -119 42.5 -197t106.5 -78q43 0 91 30t81 79q47 68 78 176.5t31 208.5 q0 113 -49 189.5t-121 76.5q-65 0 -125.5 -68.5t-97.5 -181.5t-37 -235zM258 1110q6 98 54.5 154.5t127.5 56.5q39 0 78.5 -16.5t114.5 -63.5q80 -51 131 -51q49 0 77.5 34.5t28.5 94.5h29q-1 -98 -47.5 -154.5t-126.5 -56.5q-75 0 -201 76q-51 31 -79.5 42t-57.5 11 q-91 0 -100 -127h-29z" />
<glyph unicode="&#xf6;" horiz-adv-x="817" d="M51 317q0 125 63 242.5t179 208.5q73 58 147.5 93.5t124.5 35.5q31 0 67 -22.5t64 -59.5q70 -98 70 -240q0 -300 -262 -489q-69 -49 -141 -81t-115 -32q-76 0 -136.5 105t-60.5 239zM195 328q0 -119 42.5 -197t106.5 -78q43 0 91 30t81 79q47 68 78 176.5t31 208.5 q0 113 -49 189.5t-121 76.5q-65 0 -125.5 -68.5t-97.5 -181.5t-37 -235zM332 1192q0 32 24 56t58 24q32 0 56 -24t24 -58q0 -32 -24 -56t-56 -24q-34 0 -58 24t-24 58zM682 1192q0 32 24 56t58 24q32 0 56 -24t24 -58q0 -32 -24 -56t-56 -24q-34 0 -58 24t-24 58z" />
<glyph unicode="&#xf7;" d="M141 666v67h901v-67h-901zM512 348q0 34 23 57t57 23q32 0 55 -23.5t23 -54.5q0 -34 -23 -57t-57 -23q-31 0 -54.5 23.5t-23.5 54.5zM514 1049q0 32 23.5 54.5t56.5 22.5q32 0 55 -23t23 -54q0 -34 -23 -57t-55 -23t-56 24t-24 56z" />
<glyph unicode="&#xf8;" horiz-adv-x="817" d="M6 0l92 104q-45 95 -45 213q0 125 63.5 242.5t178.5 208.5q72 57 147.5 93t124.5 36q34 0 70.5 -25t67.5 -69l86 98l22 -29l-90 -102q45 -80 45 -197q0 -296 -262 -487q-69 -50 -141.5 -81.5t-116.5 -31.5q-70 0 -131 99l-88 -101zM197 322q0 -46 8 -95l397 457 q-22 61 -60 95t-85 34q-66 0 -126.5 -69t-97 -183.5t-36.5 -238.5zM215 184q23 -63 57 -97t74 -34q43 0 91 30t81 79q47 68 78 176.5t31 208.5q0 33 -13 96z" />
<glyph unicode="&#xf9;" horiz-adv-x="1019" d="M86 647q69 104 146 175t120 71q19 0 30 -16t11 -41q0 -40 -10 -88l-107 -519q-10 -50 -10 -84q0 -15 8.5 -27t20.5 -12q38 0 184.5 160.5t212.5 274.5q33 58 51 118t37 177q6 41 18.5 51t57.5 10q41 0 53.5 -5t12.5 -20q0 -14 -2 -22l-138 -678q-6 -27 -6 -33 q0 -7 4.5 -12.5t10.5 -5.5q25 0 139 133l26 -25q-86 -107 -169 -181.5t-117 -74.5q-17 0 -28 17t-11 45q0 45 24.5 182.5t59.5 286.5q-90 -121 -147.5 -189t-139.5 -153q-189 -189 -246 -189q-28 0 -43.5 32t-15.5 89q0 43 18 135l97 476q4 20 4 22q0 5 -4.5 9.5t-8.5 4.5 q-25 0 -116 -110zM336 1460h156l229 -475h-41z" />
<glyph unicode="&#xfa;" horiz-adv-x="1019" d="M86 647q69 104 146 175t120 71q19 0 30 -16t11 -41q0 -40 -10 -88l-107 -519q-10 -50 -10 -84q0 -15 8.5 -27t20.5 -12q38 0 184.5 160.5t212.5 274.5q33 58 51 118t37 177q6 41 18.5 51t57.5 10q41 0 53.5 -5t12.5 -20q0 -14 -2 -22l-138 -678q-6 -27 -6 -33 q0 -7 4.5 -12.5t10.5 -5.5q25 0 139 133l26 -25q-86 -107 -169 -181.5t-117 -74.5q-17 0 -28 17t-11 45q0 45 24.5 182.5t59.5 286.5q-90 -121 -147.5 -189t-139.5 -153q-189 -189 -246 -189q-28 0 -43.5 32t-15.5 89q0 43 18 135l97 476q4 20 4 22q0 5 -4.5 9.5t-8.5 4.5 q-25 0 -116 -110zM530 985l234 475h149l-338 -475h-45z" />
<glyph unicode="&#xfb;" horiz-adv-x="1019" d="M86 647q69 104 146 175t120 71q19 0 30 -16t11 -41q0 -40 -10 -88l-107 -519q-10 -50 -10 -84q0 -15 8.5 -27t20.5 -12q38 0 184.5 160.5t212.5 274.5q33 58 51 118t37 177q6 41 18.5 51t57.5 10q41 0 53.5 -5t12.5 -20q0 -14 -2 -22l-138 -678q-6 -27 -6 -33 q0 -7 4.5 -12.5t10.5 -5.5q25 0 139 133l26 -25q-86 -107 -169 -181.5t-117 -74.5q-17 0 -28 17t-11 45q0 45 24.5 182.5t59.5 286.5q-90 -121 -147.5 -189t-139.5 -153q-189 -189 -246 -189q-28 0 -43.5 32t-15.5 89q0 43 18 135l97 476q4 20 4 22q0 5 -4.5 9.5t-8.5 4.5 q-25 0 -116 -110zM342 973l363 479h118l2 -479h-51l-69 309l-314 -309h-49z" />
<glyph unicode="&#xfc;" horiz-adv-x="1019" d="M86 647q69 104 146 175t120 71q19 0 30 -16t11 -41q0 -40 -10 -88l-107 -519q-10 -50 -10 -84q0 -15 8.5 -27t20.5 -12q38 0 184.5 160.5t212.5 274.5q33 58 51 118t37 177q6 41 18.5 51t57.5 10q41 0 53.5 -5t12.5 -20q0 -14 -2 -22l-138 -678q-6 -27 -6 -33 q0 -7 4.5 -12.5t10.5 -5.5q25 0 139 133l26 -25q-86 -107 -169 -181.5t-117 -74.5q-17 0 -28 17t-11 45q0 45 24.5 182.5t59.5 286.5q-90 -121 -147.5 -189t-139.5 -153q-189 -189 -246 -189q-28 0 -43.5 32t-15.5 89q0 43 18 135l97 476q4 20 4 22q0 5 -4.5 9.5t-8.5 4.5 q-25 0 -116 -110zM393 1192q0 32 24 56t58 24q32 0 56 -24t24 -58q0 -32 -24 -56t-56 -24q-34 0 -58 24t-24 58zM743 1192q0 32 24 56t58 24q32 0 56 -24t24 -58q0 -32 -24 -56t-56 -24q-34 0 -58 24t-24 58z" />
<glyph unicode="&#xfd;" horiz-adv-x="960" d="M8 -500l15 35q92 1 121 15.5t57 70.5q99 196 137.5 310t38.5 210q0 104 -24 258t-62 301q-15 55 -25 74t-24 19q-20 0 -49.5 -30t-98.5 -120l-28 19q170 233 249 233q30 0 56 -50t53 -161q36 -145 52.5 -282.5t19.5 -327.5q106 193 155 301q59 126 94 223.5t35 134.5 q0 17 -10 31q-16 22 -16 49q0 34 25.5 59t60.5 25q38 0 62 -30t24 -79q0 -64 -52.5 -170t-177.5 -292q-100 -147 -133.5 -210.5t-90.5 -202.5q-12 -30 -19 -46l-86 -209q-29 -71 -29 -80q0 -22 23.5 -30.5t82.5 -10.5q19 0 33 -2l-16 -35h-453zM541 985l233 475h150 l-338 -475h-45z" />
<glyph unicode="&#xfe;" horiz-adv-x="925" d="M-190 -512l8 41q116 4 157.5 44.5t67.5 172.5l319 1563q1 6 2 12.5t2 10t1 5.5q0 6 -4.5 11.5t-10.5 5.5q-22 0 -133 -62l-18 33l211 119q65 35 86 35q26 0 26 -29q0 -11 -6 -35l-176 -870q271 350 385 350q55 0 101 -99t46 -218q0 -151 -75 -292t-197.5 -227t-253.5 -86 q-60 0 -119 21l-49 -248q-20 -106 -20 -133q0 -52 51 -72q28 -10 123 -12l-10 -41h-514zM248 82q63 -55 139 -55q88 0 169.5 76t131 202.5t49.5 263.5q0 92 -28.5 155.5t-69.5 63.5q-37 0 -126.5 -93t-186.5 -232z" />
<glyph unicode="&#xff;" horiz-adv-x="960" d="M8 -500l15 35q92 1 121 15.5t57 70.5q99 196 137.5 310t38.5 210q0 104 -24 258t-62 301q-15 55 -25 74t-24 19q-20 0 -49.5 -30t-98.5 -120l-28 19q170 233 249 233q30 0 56 -50t53 -161q36 -145 52.5 -282.5t19.5 -327.5q106 193 155 301q59 126 94 223.5t35 134.5 q0 17 -10 31q-16 22 -16 49q0 34 25.5 59t60.5 25q38 0 62 -30t24 -79q0 -64 -52.5 -170t-177.5 -292q-100 -147 -133.5 -210.5t-90.5 -202.5q-12 -30 -19 -46l-86 -209q-29 -71 -29 -80q0 -22 23.5 -30.5t82.5 -10.5q19 0 33 -2l-16 -35h-453zM377 1192q0 32 24 56t58 24 q32 0 56 -24t24 -58q0 -32 -24 -56t-56 -24q-34 0 -58 24t-24 58zM727 1192q0 32 24 56t58 24q32 0 56 -24t24 -58q0 -32 -24 -56t-56 -24q-34 0 -58 24t-24 58z" />
<glyph unicode="&#x152;" horiz-adv-x="2265" d="M162 602q0 223 119.5 406.5t328.5 281.5q186 86 482 86l280 -10h860l-61 -303h-33v33q0 117 -54 166t-183 49h-383l-119 -592h413q82 0 137.5 39t78.5 112h36l-79 -391h-37q2 12 2 27q0 92 -47.5 125t-176.5 33h-340l-94 -463q-4 -28 -4 -41q0 -61 44 -84t161 -23h113 q319 0 483 246h37l-119 -299h-913q-31 0 -143 -4t-146 -4q-287 0 -455 155q-188 170 -188 455zM352 565q0 -198 94 -340q121 -180 379 -180q158 0 236 72q32 31 54 84.5t42 152.5l148 725q8 36 8 84q0 160 -266 160q-297 0 -496 -231q-95 -110 -147 -247.5t-52 -279.5z" />
<glyph unicode="&#x153;" horiz-adv-x="1259" d="M45 289q0 280 223 475q72 63 144.5 98t130.5 35q133 0 180 -215q129 215 340 215q83 0 133.5 -42.5t50.5 -113.5q0 -62 -50 -120t-140 -101q-190 -91 -340 -121q-12 -88 -12 -131q0 -106 44.5 -162.5t127.5 -56.5q109 0 260 115l20 -27q-102 -77 -199 -119.5t-172 -42.5 q-147 0 -206 203q-76 -85 -150 -133q-49 -32 -102.5 -52t-89.5 -20q-78 0 -135.5 94t-57.5 222zM182 340q0 -129 44.5 -206t119.5 -77q40 0 79 27t67 74q51 86 79.5 194.5t28.5 214.5q0 108 -39 180t-102 76q-37 3 -88 -30t-86 -82q-46 -68 -74.5 -170t-28.5 -201zM723 436 q195 46 301 124t106 175q0 52 -31 84.5t-81 32.5q-58 0 -110.5 -33.5t-90.5 -95.5q-55 -90 -94 -287z" />
<glyph unicode="&#x178;" horiz-adv-x="1372" d="M160 1327l8 39h457l-9 -39q-120 -9 -120 -76q0 -36 26 -90l248 -536l426 489q48 56 63 81.5t15 51.5q0 35 -34 56t-97 24l8 39h375l-8 -37q-56 -21 -92.5 -50.5t-98.5 -98.5l-539 -621l-65 -321q-12 -64 -12 -82q0 -115 153 -115h56l-9 -41h-624l8 41h37q113 0 162 55 q18 20 28.5 48t24.5 94l65 321l-276 606q-42 92 -77.5 125.5t-98.5 36.5zM573 1585q0 37 27.5 63.5t65.5 26.5q37 0 63.5 -26.5t26.5 -63.5q0 -38 -26.5 -65t-63.5 -27q-38 0 -65.5 27t-27.5 65zM1085 1585q0 37 27.5 63.5t65.5 26.5q37 0 63.5 -27t26.5 -65 q0 -37 -26.5 -63.5t-63.5 -26.5q-38 0 -65.5 27t-27.5 65z" />
<glyph unicode="&#x2c6;" horiz-adv-x="1024" d="M330 973l362 479h119l2 -479h-51l-70 309l-313 -309h-49z" />
<glyph unicode="&#x2dc;" horiz-adv-x="1024" d="M348 1110q6 98 54.5 154.5t127.5 56.5q39 0 78.5 -16.5t114.5 -63.5q80 -51 131 -51q50 0 78.5 34.5t28.5 94.5h28q-1 -98 -47.5 -154.5t-126.5 -56.5q-75 0 -201 76q-51 31 -79.5 42t-57.5 11q-91 0 -100 -127h-29z" />
<glyph unicode="&#x2000;" horiz-adv-x="905" />
<glyph unicode="&#x2001;" horiz-adv-x="1810" />
<glyph unicode="&#x2002;" horiz-adv-x="905" />
<glyph unicode="&#x2003;" horiz-adv-x="1810" />
<glyph unicode="&#x2004;" horiz-adv-x="603" />
<glyph unicode="&#x2005;" horiz-adv-x="452" />
<glyph unicode="&#x2006;" horiz-adv-x="301" />
<glyph unicode="&#x2007;" horiz-adv-x="301" />
<glyph unicode="&#x2008;" horiz-adv-x="226" />
<glyph unicode="&#x2009;" horiz-adv-x="362" />
<glyph unicode="&#x200a;" horiz-adv-x="100" />
<glyph unicode="&#x2010;" horiz-adv-x="733" d="M102 367l29 137h496l-29 -137h-496z" />
<glyph unicode="&#x2011;" horiz-adv-x="733" d="M102 367l29 137h496l-29 -137h-496z" />
<glyph unicode="&#x2012;" horiz-adv-x="733" d="M102 367l29 137h496l-29 -137h-496z" />
<glyph unicode="&#x2013;" horiz-adv-x="1097" d="M8 500v98h1125v-98h-1125z" />
<glyph unicode="&#x2014;" horiz-adv-x="2197" d="M8 500v98h2222v-98h-2222z" />
<glyph unicode="&#x2018;" horiz-adv-x="641" d="M340 983q0 120 85.5 231.5t236.5 186.5l18 -37q-110 -72 -155.5 -128t-45.5 -120q0 -42 31 -92q35 -52 35 -98q0 -43 -26 -72t-64 -29q-50 0 -82.5 44.5t-32.5 113.5z" />
<glyph unicode="&#x2019;" horiz-adv-x="571" d="M217 862q109 71 155 127.5t46 120.5q0 46 -31 92q-33 53 -33 98q0 41 25.5 71t62.5 30q51 0 83 -44.5t32 -113.5q0 -121 -85 -233t-234 -185z" />
<glyph unicode="&#x201a;" horiz-adv-x="641" d="M35 -338q108 69 154.5 126t46.5 122q0 42 -31 92q-33 51 -33 98q0 41 25.5 71t62.5 30q51 0 83 -44.5t32 -113.5q0 -120 -85.5 -232.5t-234.5 -185.5z" />
<glyph unicode="&#x201c;" horiz-adv-x="1097" d="M319 983q0 120 85.5 231.5t236.5 186.5l18 -37q-110 -72 -155 -127.5t-45 -120.5q0 -44 30 -92q35 -52 35 -98q0 -43 -26 -72t-64 -29q-50 0 -82.5 44.5t-32.5 113.5zM772 983q0 120 85.5 231.5t236.5 186.5l18 -37q-109 -71 -155 -127.5t-46 -120.5q0 -44 31 -92 q35 -52 35 -98q0 -42 -26 -71.5t-64 -29.5q-50 0 -82.5 44.5t-32.5 113.5z" />
<glyph unicode="&#x201d;" horiz-adv-x="1097" d="M279 862q109 71 154.5 127.5t45.5 120.5q0 48 -30 92q-33 53 -33 98q0 41 25.5 71t62.5 30q51 0 82.5 -44.5t31.5 -113.5q0 -121 -85 -233t-234 -185zM731 862q110 72 155.5 128t45.5 120q0 44 -31 92q-33 53 -33 98q0 41 25.5 71t62.5 30q51 0 83 -44.5t32 -113.5 q0 -121 -84.5 -232t-234.5 -186z" />
<glyph unicode="&#x201e;" horiz-adv-x="1097" d="M12 -338q108 69 154.5 126t46.5 122q0 42 -31 92q-32 50 -32 98q0 41 25.5 71t62.5 30q51 0 82.5 -44.5t31.5 -113.5q0 -121 -85 -233t-234 -185zM465 -338q109 71 155 127.5t46 120.5q0 46 -31 92q-33 53 -33 98q0 41 25.5 71t62.5 30q51 0 83 -44.5t32 -113.5 q0 -122 -85.5 -233.5t-236.5 -184.5z" />
<glyph unicode="&#x2022;" horiz-adv-x="1366" d="M451 692q0 120 83.5 202.5t204.5 82.5q114 0 196.5 -83.5t82.5 -199.5q0 -118 -83 -201t-200 -83t-200.5 82.5t-83.5 199.5z" />
<glyph unicode="&#x2026;" horiz-adv-x="2197" d="M199 72q0 54 30 91.5t74 37.5q37 0 60.5 -28.5t23.5 -72.5q0 -54 -30 -90.5t-74 -36.5q-38 0 -61 27.5t-23 71.5zM930 72q0 54 30.5 91.5t73.5 37.5q38 0 62 -28.5t24 -72.5q0 -54 -30 -90.5t-74 -36.5q-39 0 -62.5 27t-23.5 72zM1663 72q0 54 30.5 91.5t73.5 37.5 q38 0 62 -28.5t24 -72.5q0 -54 -30 -90.5t-74 -36.5q-39 0 -62.5 27t-23.5 72z" />
<glyph unicode="&#x202f;" horiz-adv-x="362" />
<glyph unicode="&#x2039;" horiz-adv-x="733" d="M203 479l422 408h45l-316 -408l133 -403h-51z" />
<glyph unicode="&#x203a;" horiz-adv-x="733" d="M78 76l315 407l-131 404h49l234 -404l-422 -407h-45z" />
<glyph unicode="&#x205f;" horiz-adv-x="452" />
<glyph unicode="&#x20ac;" horiz-adv-x="1705" d="M115 600l32 53h101q0 3 2 22t4 32h-119l33 53h98q78 290 334 465.5t602 175.5q278 0 481 -101l-79 -327h-41q6 38 6 63q0 149 -99 230.5t-282 81.5q-152 0 -302.5 -70.5t-258.5 -190.5q-120 -135 -166 -327h844l-33 -53h-823l-7 -54h797l-33 -53h-768q-2 -14 -2 -43 q0 -114 32.5 -212t93 -171.5t153.5 -115.5t207 -42q167 0 315.5 86t255.5 246h43l-111 -344h-18q-37 12 -76 12q-35 0 -129 -18q-174 -33 -289 -33q-219 0 -374 88q-137 78 -216 221t-79 312v14h-129z" />
<glyph unicode="&#x2122;" horiz-adv-x="1978" d="M207 1192l43 207h26q17 -20 33 -26.5t51 -6.5h498q65 0 87 5.5t44 27.5h31l-43 -207h-31q1 82 -16.5 108.5t-73.5 26.5h-180l-123 -602q-6 -31 -6 -43q0 -64 86 -64h31l-7 -30h-356l6 30h19q58 0 81 21t37 86l123 602h-145q-76 0 -115 -28.5t-71 -106.5h-29zM913 588 l7 30q65 10 90.5 43.5t58.5 147.5l117 410q8 48 8 61q0 31 -21.5 43t-76.5 12h-17l6 31h242l119 -651l434 651h215l-6 -31h-16q-55 0 -77 -20.5t-36 -85.5l-102 -504q-2 -10 -4 -18t-3 -11t-1.5 -7t-0.5 -9q0 -62 88 -62h23l-6 -30h-340l6 30h8q59 0 83 21.5t36 85.5 l108 537l-446 -674h-49l-121 680l-145 -518q-9 -36 -9 -50q0 -79 97 -82l-6 -30h-263z" />
<glyph unicode="&#xe000;" horiz-adv-x="901" d="M0 0v901h901v-901h-901z" />
</font>
</defs>
</svg>
