<?xml version="1.0" standalone="no"?>
<!DOCTYPE svg PUBLIC "-//W3C//DTD SVG 1.1//EN" "http://www.w3.org/Graphics/SVG/1.1/DTD/svg11.dtd" >
<svg xmlns="http://www.w3.org/2000/svg">
<metadata></metadata>
<defs>
<font id="borgia_probold_italic" horiz-adv-x="1024" >
<font-face units-per-em="2048" ascent="1479" descent="-569" />
<missing-glyph horiz-adv-x="512" />
<glyph unicode="&#xfb01;" horiz-adv-x="1103" d="M-453 -371q0 43 39 77t86 34q41 0 71.5 -20.5t59.5 -67.5q28 -44 51 -62t52 -18q70 0 114 100q19 40 30 93t52 298l123 734h-164l9 51q33 -2 89.5 14t82.5 35q25 131 50.5 204.5t69.5 139.5q155 236 410 236q133 0 214 -64t81 -170q0 -57 -32.5 -90t-88.5 -33 q-46 0 -75.5 25.5t-28.5 66.5l2 37q6 34 6 62q0 54 -30.5 84t-84.5 30q-83 0 -138 -67t-77 -195l-45 -266h223q140 0 314 23l-172 -721q-11 -45 -11 -56q0 -13 8 -22.5t19 -9.5q24 0 68.5 33.5t85.5 82.5l41 -37q-72 -89 -170 -151t-166 -62q-52 0 -85.5 37.5t-33.5 94.5 q0 35 8.5 81t42.5 187l82 342q10 39 10 51q0 17 -9.5 22t-43.5 5h-227l-115 -691q-22 -128 -55.5 -214t-93.5 -168q-169 -230 -416 -230q-102 0 -167 37.5t-65 97.5z" />
<glyph unicode="&#xfb02;" horiz-adv-x="1042" d="M-453 -371q0 43 39 77t86 34q41 0 71.5 -20.5t59.5 -67.5q28 -44 51 -62t52 -18q70 0 114 100q19 40 30 93t52 298l123 734h-164l9 51q34 0 89.5 15.5t82.5 33.5q56 238 125 352q66 109 157.5 168.5t194.5 59.5q101 0 203 -64l114 47q21 8 31 8q11 0 18 -9.5t7 -22.5 q0 -12 -9 -60l-239 -1175q-8 -39 -8 -47q0 -15 9 -28t21 -13q19 0 59.5 30.5t84.5 77.5l32 -37q-77 -89 -172.5 -148t-164.5 -59q-53 0 -81 31.5t-28 91.5q0 36 16 121l193 944l14 58q10 39 10 84q0 47 -32 73.5t-90 26.5q-78 0 -119.5 -57.5t-67.5 -200.5l-45 -252h162 l-23 -100h-155l-115 -691q-22 -128 -55.5 -214t-93.5 -168q-169 -230 -416 -230q-102 0 -167 37.5t-65 97.5z" />
<glyph unicode="&#xfb03;" horiz-adv-x="1611" d="M-453 -371q0 43 39 77t86 34q41 0 71.5 -20.5t59.5 -67.5q28 -44 51 -62t52 -18q70 0 114 100q19 40 30 93t52 298l123 734h-164l9 51q34 0 89.5 15.5t82.5 33.5q58 274 170 406q148 174 370 174q122 0 254 -66q111 66 244 66t214 -64t81 -170q0 -57 -32.5 -90t-88.5 -33 q-46 0 -75.5 25.5t-28.5 66.5l2 37q6 34 6 62q0 54 -30.5 84t-84.5 30q-83 0 -138 -67t-77 -195l-45 -266h223q140 0 314 23l-172 -721q-11 -45 -11 -56q0 -13 8 -22.5t19 -9.5q23 0 67 33t87 83l41 -37q-74 -89 -171.5 -151t-164.5 -62q-52 0 -85.5 37.5t-33.5 94.5 q0 52 51 268l82 342q8 40 8 51q0 17 -9.5 22t-41.5 5h-227l-117 -691q-41 -244 -129 -385q-69 -110 -157 -168.5t-183 -58.5q-83 0 -138 39t-55 98q0 46 33 77.5t82 31.5q85 0 121 -88q31 -80 59 -80q20 0 31.5 22t24.5 89q18 82 69 380l125 734h-274l-115 -691 q-22 -128 -55.5 -214t-93.5 -168q-169 -230 -416 -230q-102 0 -167 37.5t-65 97.5zM475 897h275q28 153 64.5 242.5t103.5 165.5q-58 66 -92.5 87t-82.5 21q-49 0 -93.5 -23.5t-69.5 -62.5q-40 -59 -62 -188z" />
<glyph unicode="&#xfb04;" horiz-adv-x="1550" d="M-453 -371q0 43 39 77t86 34q41 0 71.5 -20.5t59.5 -67.5q28 -44 51 -62t52 -18q70 0 114 100q19 40 30 93t52 298l123 734h-164l9 51q34 0 89.5 15.5t82.5 33.5q58 274 170 406q148 174 370 174q122 0 246 -62q98 62 199 62q96 0 203 -64l114 47q23 8 29 8q10 0 17 -9 t7 -23q0 -10 -8 -60l-237 -1175q-2 -10 -4 -20.5t-3.5 -17t-1.5 -9.5q0 -15 9.5 -28t21.5 -13q39 0 144 108l32 -37q-76 -89 -172.5 -148t-165.5 -59q-53 0 -80.5 31.5t-27.5 91.5q0 46 16 121l193 944q22 108 22 142q0 46 -32.5 73t-90.5 27q-78 0 -118 -56.5t-66 -201.5 l-45 -252h162l-23 -100h-155l-117 -691q-41 -244 -129 -385q-69 -110 -157 -168.5t-183 -58.5q-83 0 -138 39t-55 98q0 46 33 77.5t82 31.5q85 0 121 -88q31 -80 59 -80q20 0 31.5 22t24.5 89q18 82 69 380l125 734h-274l-115 -691q-22 -128 -55.5 -214t-93.5 -168 q-169 -230 -416 -230q-102 0 -167 37.5t-65 97.5zM475 897h275q36 155 73 249t92 163q-56 62 -90.5 83t-81.5 21q-49 0 -93.5 -23.5t-69.5 -62.5q-40 -59 -62 -188z" />
<glyph horiz-adv-x="2048" />
<glyph horiz-adv-x="2048" />
<glyph unicode="&#xd;" horiz-adv-x="2048" />
<glyph unicode=" "  horiz-adv-x="512" />
<glyph unicode="&#x09;" horiz-adv-x="512" />
<glyph unicode="&#xa0;" horiz-adv-x="512" />
<glyph unicode="!" horiz-adv-x="710" d="M135 121q0 69 47.5 119.5t112.5 50.5q60 0 96.5 -38t36.5 -101q0 -74 -45 -124.5t-111 -50.5q-60 0 -98.5 40.5t-38.5 103.5zM297 383l82 901q8 77 25 96t81 19h109q52 0 74 -15.5t22 -50.5q0 -25 -14 -69l-303 -881h-76z" />
<glyph unicode="&#x22;" horiz-adv-x="702" d="M248 1270q0 57 29 88t83 31q50 0 81.5 -31t31.5 -80q0 -43 -20 -141l-60 -297h-65l-64 297q-16 78 -16 133zM555 1270q0 57 29.5 88t83.5 31q50 0 81 -31t31 -80q0 -43 -20 -141l-60 -297h-65l-64 297q-16 78 -16 133z" />
<glyph unicode="#" d="M51 449l33 112h192l76 270h-192l30 113h193l119 422h119l-119 -422h272l119 422h121l-119 -422h182l-30 -113h-185l-74 -270h183l-33 -112h-182l-127 -449h-119l125 449h-273l-124 -449h-119l125 449h-193zM395 561h273l75 270h-272z" />
<glyph unicode="$" d="M70 215q0 57 29.5 90t80.5 33q50 0 81.5 -34.5t31.5 -88.5q0 -21 -2 -35v-33q0 -81 92 -102l102 516l-47 49q-103 103 -145.5 189t-42.5 192q0 100 45.5 187t126.5 139q79 53 225 59l31 158h76l-31 -160q123 -12 198.5 -82.5t75.5 -171.5q0 -60 -31.5 -98.5t-78.5 -38.5 q-44 0 -73.5 32t-29.5 81q0 21 9 65q2 6 2 17q0 38 -24 69t-64 49l-99 -493q156 -147 217.5 -248.5t61.5 -210.5q0 -163 -126.5 -271t-318.5 -108l-36 -188h-74l37 192q-141 20 -220 85.5t-79 160.5zM442 1085q0 -108 105 -219l86 441q-78 -9 -134.5 -74.5t-56.5 -147.5z M459 43q92 13 146 72t54 145q0 58 -24 109t-86 127z" />
<glyph unicode="%" horiz-adv-x="1275" d="M152 915q0 68 21.5 149.5t55.5 141.5q49 85 110 130.5t124 45.5q81 0 129.5 -70t48.5 -186q0 -112 -44.5 -219t-117 -173t-147.5 -66q-79 0 -129.5 69t-50.5 178zM240 0l786 1366h109l-787 -1366h-108zM295 811q0 -90 45 -90q48 0 92 156q27 97 46.5 205.5t19.5 164.5 q0 37 -12 59.5t-31 22.5q-50 0 -86 -121q-25 -88 -49.5 -219.5t-24.5 -177.5zM729 231q0 115 45 224t117.5 176t148.5 67q82 0 130.5 -70t48.5 -186q0 -111 -45 -217.5t-117.5 -172.5t-147.5 -66q-79 0 -129.5 69t-50.5 176zM872 129q0 -90 46 -90q50 0 94 156 q27 97 46 204.5t19 163.5q0 37 -12.5 59.5t-32.5 22.5q-50 0 -86 -121q-25 -84 -49.5 -216.5t-24.5 -178.5z" />
<glyph unicode="&#x26;" horiz-adv-x="1601" d="M80 397q0 151 110.5 256.5t301.5 137.5q-31 7 -53.5 13.5t-41 14t-32.5 16.5t-27 21q-37 32 -57.5 79.5t-20.5 98.5q0 49 20.5 97t57 88.5t88.5 74.5t113.5 58t134.5 37.5t149 13.5q214 0 320 -90q35 -31 55.5 -67t20.5 -68q0 -31 -17 -59t-44.5 -45t-57.5 -17 q-107 0 -131 149q-9 54 -45.5 78.5t-104.5 24.5q-118 0 -193 -90.5t-75 -233.5q0 -145 119 -145q9 0 37 4l22 2q16 0 29.5 -8t21.5 -22.5t8 -31.5q0 -28 -19 -45.5t-48 -17.5q-9 0 -50.5 4t-49.5 4q-107 0 -168.5 -75.5t-61.5 -207.5q0 -166 105.5 -261t289.5 -95 q123 0 235 45t180.5 119.5t68.5 155.5q0 91 -62.5 146.5t-163.5 55.5q-52 0 -87 -17.5t-35 -43.5q0 -19 24 -31q40 -15 56 -32.5t16 -45.5q0 -31 -25 -53t-59 -22q-51 0 -89 40.5t-38 94.5q0 109 106 184.5t261 75.5q61 0 169 -19q17 -2 34.5 -6t30.5 -6t32 -2q20 0 34.5 11 t14.5 26q0 16 -14 27q-25 22 -35 39t-10 38q0 41 26 68t66 27q46 0 77 -33t31 -82q0 -100 -89.5 -174.5t-231.5 -93.5q55 -78 55 -154q0 -86 -51.5 -173t-141.5 -153q-186 -137 -481 -137q-166 0 -297 45.5t-207 130.5q-106 112 -106 256z" />
<glyph unicode="'" horiz-adv-x="395" d="M248 1270q0 57 29 88t83 31q50 0 81.5 -31t31.5 -80q0 -43 -20 -141l-60 -297h-65l-64 297q-16 78 -16 133z" />
<glyph unicode="(" horiz-adv-x="786" d="M190 342q0 343 169.5 629t502.5 506l58 -56q-229 -189 -342 -460q-78 -191 -125 -430.5t-47 -448.5q0 -304 120 -553l-67 -35q-120 173 -194.5 408t-74.5 440z" />
<glyph unicode=")" horiz-adv-x="786" d="M-115 -449q231 194 342 461q78 191 125 430t47 449q0 155 -29 285.5t-94 267.5l68 33q122 -175 196 -408t74 -440q0 -685 -671 -1135z" />
<glyph unicode="*" d="M147 1130l41 78l338 -100l142 317l80 -16l6 -348l352 -39l8 -86l-330 -111l70 -344l-78 -30l-213 280l-299 -176l-63 57l205 289z" />
<glyph unicode="+" d="M119 596v123h377v348h122v-348h375v-123h-375v-348h-122v348h-377z" />
<glyph unicode="," horiz-adv-x="710" d="M-6 -301q99 23 160 82.5t61 132.5q0 67 -45 129q-28 40 -37.5 63.5t-9.5 53.5q0 57 40.5 95t100.5 38q72 0 119 -59t47 -150q0 -148 -119.5 -281t-283.5 -168z" />
<glyph unicode="-" horiz-adv-x="966" d="M76 354l47 232h801l-47 -232h-801z" />
<glyph unicode="." horiz-adv-x="710" d="M145 121q0 69 47.5 119.5t112.5 50.5q60 0 96.5 -38t36.5 -101q0 -74 -44.5 -124.5t-110.5 -50.5q-60 0 -99 40.5t-39 103.5z" />
<glyph unicode="/" horiz-adv-x="759" d="M-201 -528l903 2017h191l-901 -2017h-193z" />
<glyph unicode="0" d="M94 453q0 137 44 304.5t112 291.5q94 169 208 258.5t234 89.5q149 0 238.5 -136.5t89.5 -363.5q0 -168 -51.5 -338t-134 -299t-191 -210t-215.5 -81q-147 0 -240.5 135.5t-93.5 348.5zM342 238q0 -91 25 -140t71 -49q57 0 104 78t97 252q55 195 95 423t40 343 q0 78 -25.5 125t-68.5 47q-111 0 -186 -260q-52 -182 -102 -452t-50 -367z" />
<glyph unicode="1" d="M154 0l14 74q104 0 148 49t75 199l156 765q-127 -85 -340 -184l20 98q180 84 317.5 187.5t207.5 208.5h120l-225 -1102q-14 -69 -14 -102q0 -60 32 -89.5t101 -29.5h20l-16 -74h-616z" />
<glyph unicode="2" d="M10 0v76q87 79 207 208.5t207 237.5q281 345 281 570q0 78 -39 119.5t-111 41.5q-80 0 -149.5 -61t-104.5 -162h-74q20 96 60 162q57 95 154.5 150t207.5 55q142 0 240 -89.5t98 -220.5q0 -181 -229 -405q-45 -45 -214.5 -201.5t-256.5 -234.5h342q72 0 103 23t44 87h78 l-74 -356h-770z" />
<glyph unicode="3" d="M41 74q0 39 13 72t35.5 52t49.5 19q29 0 53 -12.5t74 -52.5q74 -62 119 -62q54 0 103.5 64.5t79.5 171.5t30 225q0 85 -32 133.5t-89 48.5q-33 0 -106 -39l-23 -12l21 98q15 14 35 30.5t32.5 26t39 30t34.5 26.5q86 68 134 135.5t48 120.5q0 48 -31.5 80.5t-78.5 32.5 q-42 0 -87 -25t-122 -92l-54 51q54 61 103 104q114 97 270 97q114 0 185 -57t71 -148q0 -56 -22 -100.5t-74 -82.5t-89.5 -58.5t-115.5 -57.5q-22 -11 -33 -16q59 1 95.5 -9t70.5 -37q97 -79 97 -217q0 -204 -170 -395q-107 -120 -237 -185t-263 -65q-166 0 -166 105z" />
<glyph unicode="4" d="M70 350l39 209l731 838h98l-172 -854h225l-41 -193h-225l-76 -381h-250l78 381h-407zM195 543h321l100 489z" />
<glyph unicode="5" d="M31 84q0 55 27 93t65 38q33 0 64 -16t94 -64q55 -45 102 -45q60 0 116.5 76.5t87.5 171.5t31 164q0 82 -40 130t-109 48q-59 0 -133 -57l-47 47l186 667q50 13 152 13h59q26 0 56 -1t34 -1q104 0 138 12t47 55h75l-59 -299q-107 -10 -193 -10q-13 0 -78.5 2t-95.5 2 q-72 0 -121 -8l-57 -213q68 22 129 22q128 0 206.5 -83t78.5 -218q0 -124 -60 -246t-170 -223q-190 -172 -426 -172q-85 0 -122 27t-37 88z" />
<glyph unicode="6" d="M98 365q0 174 76.5 346t206.5 310t309.5 238.5t378.5 137.5l-14 -78q-211 -88 -344 -224t-222 -356q90 47 168 47q119 0 192 -81t73 -213q0 -98 -43 -194.5t-112.5 -168t-163 -116t-189.5 -44.5q-148 0 -232 105.5t-84 290.5zM344 197q0 -148 82 -148q45 0 88 68 q45 73 94 231t49 230q0 44 -24 72t-64 28q-47 0 -129 -55q-96 -236 -96 -426z" />
<glyph unicode="7" d="M174 932l109 434h778l2 -74l-582 -1323h-202l589 1157h-411q-103 0 -141 -35.5t-66 -158.5h-76z" />
<glyph unicode="8" d="M82 264q0 150 125 266q51 48 203 152q-37 48 -56.5 75.5t-45 71.5t-37 88.5t-11.5 92.5q0 140 98 252q123 135 338 135q144 0 232 -72.5t88 -191.5q0 -111 -84.5 -203.5t-249.5 -159.5q113 -117 162 -206t49 -177q0 -118 -74 -225q-131 -193 -389 -193 q-155 0 -251.5 81.5t-96.5 213.5zM301 260q0 -100 40.5 -156.5t111.5 -56.5q85 0 141.5 68.5t56.5 169.5q0 84 -42.5 159t-149.5 179l-6 -7q-66 -66 -109 -162.5t-43 -193.5zM463 1102q0 -77 47 -141q15 -22 100 -117l21 -23l10 10q72 66 113 149t41 165q0 80 -39.5 126 t-106.5 46q-78 0 -132 -62t-54 -153z" />
<glyph unicode="9" d="M41 -31l16 78q174 50 321.5 200.5t244.5 377.5q-90 -47 -166 -47q-114 0 -187 83.5t-73 215.5q0 129 73 250t192 195.5t245 74.5q148 0 230.5 -106t82.5 -296q0 -212 -112.5 -417t-315.5 -365q-267 -208 -551 -244zM457 774q0 -40 23.5 -66t58.5 -26q28 0 71 19t68 42 q37 99 50 144t24 102q24 132 24 195q0 56 -24.5 93.5t-61.5 37.5q-72 0 -141 -174q-36 -89 -64 -200t-28 -167z" />
<glyph unicode=":" horiz-adv-x="710" d="M145 121q0 69 47.5 119.5t112.5 50.5q60 0 96.5 -38t36.5 -101q0 -74 -44.5 -124.5t-110.5 -50.5q-60 0 -99 40.5t-39 103.5zM276 760q0 69 47.5 119.5t112.5 50.5q60 0 96.5 -38t36.5 -101q0 -74 -45 -124.5t-112 -50.5q-59 0 -97.5 40.5t-38.5 103.5z" />
<glyph unicode=";" horiz-adv-x="710" d="M27 -301q99 23 160 82.5t61 132.5q0 67 -45 129q-28 40 -37.5 63.5t-9.5 53.5q0 57 40.5 95t100.5 38q72 0 119 -59t47 -150q0 -148 -120 -281t-284 -168zM274 758q0 69 47.5 119.5t112.5 50.5q60 0 96.5 -38.5t36.5 -101.5q0 -74 -45 -124t-112 -50q-59 0 -97.5 40.5 t-38.5 103.5z" />
<glyph unicode="&#x3c;" d="M131 729v16l860 541v-115l-547 -348l547 -370v-308z" />
<glyph unicode="=" d="M119 459v123h874v-123h-874zM119 733v123h874v-123h-874z" />
<glyph unicode="&#x3e;" d="M131 145v115l547 350l-547 369v307l860 -584v-16z" />
<glyph unicode="?" horiz-adv-x="942" d="M152 113q0 69 47 119.5t112 50.5q60 0 96.5 -38.5t36.5 -101.5q0 -74 -44.5 -124t-110.5 -50q-60 0 -98.5 40.5t-38.5 103.5zM260 1225q0 78 71.5 127t188.5 49q169 0 261.5 -95t92.5 -268q0 -128 -50.5 -230.5t-145.5 -168.5q-45 -32 -133 -66q-75 -28 -112 -68 t-44 -104h-72q3 89 10 151.5t23 116t38.5 89.5t61.5 69.5t86 58t117 52.5q66 27 93.5 56t27.5 67q0 47 -41.5 77.5t-105.5 30.5q-42 0 -101 -20q-104 -35 -157 -35q-46 0 -77.5 32t-31.5 79z" />
<glyph unicode="@" horiz-adv-x="1501" d="M135 467q0 146 56 279.5t151 229.5t226 153t274 57q174 0 319 -79.5t228.5 -216.5t83.5 -302q0 -144 -70.5 -256t-202.5 -180q-125 -64 -252 -64q-65 0 -92 24.5t-27 82.5q0 47 15 112q-129 -130 -182 -173.5t-84 -43.5q-23 0 -51.5 21t-45.5 51q-24 40 -24 100 q0 90 39.5 184.5t111.5 176.5q94 106 208.5 162.5t238.5 56.5h16q23 -2 41 -2h27l-115 -561q-10 -45 -10 -62q0 -39 43 -39q49 0 114 39t111 96q100 117 100 269q0 143 -71.5 262.5t-196 188.5t-272.5 69q-125 0 -239.5 -50t-197 -135t-131.5 -202t-49 -246q0 -174 83 -320 t227.5 -230.5t316.5 -84.5q216 0 405 141h111q-49 -52 -81.5 -78t-80.5 -53q-171 -94 -360 -94q-145 0 -276.5 56.5t-226.5 152.5t-151.5 229t-56.5 279zM621 369q0 -53 19 -86t50 -33q26 0 50 18t108 101l10 8l72 356q-8 2 -21 2q-118 0 -203 -108t-85 -258z" />
<glyph unicode="A" horiz-adv-x="1585" d="M-145 0l18 86h8q52 0 92 17.5t88 60.5q28 24 53 53.5t81 104.5l815 1077h211l14 -1147q2 -101 35 -133.5t137 -32.5h23l-17 -86h-690l18 86h56q86 0 127 38t41 118l-4 295h-488l-205 -273q-32 -44 -32 -82q0 -44 35 -70t96 -26h28l-18 -86h-522zM571 664h387l-6 499z" />
<glyph unicode="B" horiz-adv-x="1441" d="M8 0l19 86h6q111 0 160 76q16 24 25 52.5t22 96.5l157 779q9 52 9 73q0 60 -37 87.5t-115 27.5h-43l18 88h693q93 0 157 -10q137 -22 220 -99.5t83 -183.5q0 -117 -90.5 -199.5t-257.5 -119.5q145 -41 223 -127.5t78 -206.5q0 -97 -57 -188t-154 -150q-75 -46 -150 -64 t-190 -18h-776zM500 207q0 -62 39 -89.5t125 -27.5q113 0 187 32t120 101q73 110 73 240q0 115 -85.5 185.5t-225.5 70.5h-133l-88 -424q-12 -61 -12 -88zM618 813h123q105 0 163.5 12.5t99.5 44.5q46 34 75 92.5t29 118.5q0 51 -29.5 97.5t-74.5 66.5q-68 29 -191 29h-102z " />
<glyph unicode="C" horiz-adv-x="1581" d="M143 582q0 146 62 295t166 253q124 126 316.5 196.5t410.5 70.5q263 0 471 -86l-84 -348h-88v26q0 135 -99 224.5t-249 89.5q-134 0 -257.5 -67t-199.5 -181q-141 -208 -141 -523q0 -217 100.5 -339.5t277.5 -122.5q145 0 273.5 72.5t222.5 207.5h88l-110 -350h-50 q-32 29 -75 29q-26 0 -50.5 -4.5t-119.5 -26.5q-130 -29 -230 -29q-175 0 -321 81t-230 222t-84 310z" />
<glyph unicode="D" horiz-adv-x="1761" d="M-8 0l18 86h23q111 0 160 76q26 40 47 151l157 777q9 52 9 75q0 58 -37 85.5t-115 27.5h-45l18 88h738q266 0 450 -88q135 -65 211 -199t76 -309q0 -220 -111.5 -398t-310.5 -276q-113 -57 -229.5 -76.5t-333.5 -19.5h-725zM502 211q0 -68 41 -94.5t145 -26.5t161 8 t120 31q260 94 362 350q62 156 62 309q0 129 -49.5 233.5t-139.5 166.5q-69 47 -150.5 66.5t-213.5 19.5h-129l-199 -977q-10 -54 -10 -86z" />
<glyph unicode="E" horiz-adv-x="1449" d="M8 0l19 86h8q94 0 145 57q34 40 60 166l157 781q11 64 11 73q0 60 -37 87.5t-117 27.5h-39l16 88h1215l-66 -330h-104q4 46 4 47q0 111 -84 158q-37 20 -77.5 26.5t-131.5 6.5h-274l-111 -541h291q118 0 163 28.5t79 125.5h88l-90 -443h-89q15 53 15 80q0 60 -40 88.5 t-126 28.5h-309l-76 -371q-8 -39 -8 -63q0 -60 49 -92q22 -14 43.5 -18.5t71.5 -4.5h90q77 0 167.5 26t157.5 66q85 54 172 154h99l-121 -338h-1221z" />
<glyph unicode="F" horiz-adv-x="1331" d="M-14 0l18 86h21q104 0 155 57q35 43 60 166l157 781q11 53 11 75q0 58 -38 85.5t-116 27.5h-47l18 88h1188l-67 -332h-84q4 23 4 49q0 191 -244 191h-309l-109 -533h318q100 0 150.5 33t72.5 111h88l-88 -428h-88q12 37 12 71q0 121 -149 121h-334l-76 -375 q-10 -58 -10 -71q0 -57 35.5 -87t103.5 -30h74l-17 -86h-710z" />
<glyph unicode="G" horiz-adv-x="1765" d="M152 596q0 126 49 256t135 233q262 312 758 312q216 0 534 -82l8 -338h-96q-64 143 -137 207q-66 57 -153 89t-179 32q-139 0 -270 -73t-205 -192q-61 -98 -97 -229.5t-36 -257.5q0 -100 30.5 -191t86.5 -157q117 -142 352 -142q135 0 218 62t95 172l6 53q2 8 2 27 q0 44 -31.5 68t-97.5 32l19 82h583l-16 -82q-86 -6 -126 -44.5t-60 -133.5l-17 -76q-6 -29 -6 -45q0 -25 15 -41t38 -16q14 0 39 10l-16 -76q-116 -32 -311.5 -59t-319.5 -27q-346 0 -555 152q-114 83 -176.5 208t-62.5 267z" />
<glyph unicode="H" horiz-adv-x="1757" d="M-16 0l18 86h33q111 0 160 76q24 41 45 151l157 774q11 61 11 74q0 117 -154 117h-37l19 88h710l-16 -88h-27q-61 0 -94.5 -9.5t-65.5 -35.5q-26 -22 -40 -50t-25 -79l-70 -340h672l68 323q8 39 8 76q0 115 -152 115h-30l18 88h684l-16 -88h-9q-61 0 -92.5 -9t-64.5 -36 q-28 -22 -43 -50t-25 -79l-168 -830q-10 -58 -10 -71q0 -56 36 -86.5t103 -30.5h55l-18 -86h-711l19 86h41q104 0 155 57q35 43 60 166l67 328h-671l-68 -320q-16 -82 -16 -114q0 -57 35.5 -87t103.5 -30h47l-18 -86h-684z" />
<glyph unicode="I" horiz-adv-x="808" d="M-20 0l18 86h25q107 0 155 57q38 47 62 166l157 778q9 52 9 76q0 115 -152 115h-41l18 88h693l-17 -88h-10q-100 0 -149.5 -39.5t-69.5 -134.5l-170 -830q-10 -54 -10 -71q0 -56 36.5 -86.5t102.5 -30.5h72l-17 -86h-712z" />
<glyph unicode="J" horiz-adv-x="778" d="M-385 -420q0 44 80 141q44 52 88 52q32 0 61 -18t90 -74q58 -52 103 -52q32 0 54.5 25t39.5 80q21 69 53 274q4 26 17 92l166 987q6 37 6 66q0 125 -156 125h-37l19 88h704l-18 -88h-19q-62 0 -94 -9t-65 -36q-26 -22 -39.5 -50t-22.5 -79l-158 -942q-44 -252 -127 -387 q-170 -281 -524 -281q-94 0 -157.5 24.5t-63.5 61.5z" />
<glyph unicode="K" horiz-adv-x="1619" d="M0 0l18 86h15q110 0 162 76q23 36 45 151l157 774q11 61 11 76q0 115 -154 115h-45l18 88h721l-18 -88h-27q-62 0 -94.5 -9.5t-65.5 -35.5q-26 -22 -40 -50t-25 -79l-76 -377l588 383q46 29 65 51t19 45q0 32 -28 51.5t-77 20.5l19 88h584l-19 -88q-125 -20 -205.5 -55 t-271.5 -162l-375 -248l387 -534q78 -108 141 -148t160 -45l-18 -86h-414l-483 664l-99 -64l-65 -326q-10 -52 -10 -71q0 -57 35.5 -87t103.5 -30h51l-16 -86h-674z" />
<glyph unicode="L" horiz-adv-x="1331" d="M-8 0l18 86h23q113 0 160 78q25 39 47 149l157 774q9 45 9 76q0 115 -152 115h-41l16 88h725l-16 -88h-35q-62 0 -94.5 -9.5t-65.5 -35.5q-27 -21 -40.5 -49t-24.5 -80l-162 -797q-16 -85 -16 -106q0 -107 157 -107h125q99 0 163 18t138 66q95 59 160 139h88l-100 -317 h-1239z" />
<glyph unicode="M" horiz-adv-x="1961" d="M-29 0l19 86q97 17 144 74t87 207l199 739q10 38 10 59q0 56 -46 84t-144 31l18 86h520l166 -1008l658 1008h477l-17 -86q-117 -6 -165 -45.5t-70 -144.5l-160 -789q-16 -78 -16 -102q0 -113 184 -113h18l-18 -86h-684l18 86q102 1 149.5 48t72.5 169l170 834l-738 -1137 h-94l-190 1176l-230 -830q-14 -58 -14 -94q0 -78 47.5 -122t130.5 -44l-16 -86h-486z" />
<glyph unicode="N" horiz-adv-x="1697" d="M23 0l16 86q72 -1 125.5 59t75.5 166l174 863l-27 38q-56 65 -160 68l19 86h362l735 -1016l142 692q8 39 8 80q0 75 -43.5 113.5t-138.5 44.5l18 86h479l-18 -86q-170 -27 -217 -256l-209 -1036h-94l-783 1087l-149 -739q-10 -55 -10 -80q0 -72 52 -119t138 -51l-18 -86 h-477z" />
<glyph unicode="O" horiz-adv-x="1810" d="M162 637q0 138 53 269.5t150 232.5q246 258 651 258q218 0 381 -82.5t258 -241.5q90 -149 90 -342q0 -159 -65 -300t-176.5 -242.5t-266.5 -160.5t-330 -59q-393 0 -602 258q-75 91 -109 189t-34 221zM465 530q0 -215 111.5 -339.5t304.5 -124.5q300 0 454 307 q51 102 82 230.5t31 242.5q0 203 -115 330t-299 127q-136 0 -250 -71t-188 -200q-60 -106 -95.5 -241t-35.5 -261z" />
<glyph unicode="P" horiz-adv-x="1402" d="M-10 0l18 86h17q104 0 155 57q35 43 60 166l159 781q9 44 9 73q0 60 -37 87.5t-117 27.5h-45l18 88h682q237 0 369.5 -102t132.5 -285q0 -210 -157 -353t-386 -143q-101 0 -168 23l17 82q24 -6 49 -6q162 0 248 123q88 124 88 311q0 157 -92 219q-33 23 -72 31t-115 8 h-110l-203 -1000q-10 -55 -10 -71q0 -56 36 -86.5t103 -30.5h66l-19 -86h-696z" />
<glyph unicode="Q" horiz-adv-x="1816" d="M160 631q0 139 53.5 271.5t151.5 238.5q243 258 651 258q215 0 381.5 -85t258 -239t91.5 -352q0 -132 -57 -272q-43 -104 -148 -216.5t-205 -162.5q-53 -26 -85.5 -39t-114.5 -39q50 -50 153 -119q69 -45 138 -72.5t118 -27.5q82 0 150 55l53 -76q-163 -141 -354 -141 q-109 0 -242.5 55t-327.5 180q-137 89 -219 168q-207 75 -326.5 239.5t-119.5 375.5zM463 532q0 -217 111.5 -341.5t304.5 -124.5q302 0 456 307q51 103 82 232t31 241q0 204 -115.5 331.5t-298.5 127.5q-136 0 -251 -71t-189 -200q-60 -106 -95.5 -241t-35.5 -261z" />
<glyph unicode="R" horiz-adv-x="1513" d="M0 0l18 86h15q111 0 160 76q25 43 47 151l157 777q9 56 9 73q0 115 -152 115h-14l16 88h510q164 0 254.5 -16t161.5 -56q174 -102 174 -276q0 -124 -95 -228t-260 -161q94 -314 207 -439q112 -124 260 -124h19l-47 -84q-194 -6 -323.5 50t-219.5 187t-158 361 q-69 -7 -86 -7q-7 0 -16 1t-27 2.5t-39 3.5l-63 -306q-10 -51 -10 -71q0 -56 36.5 -86.5t102.5 -30.5h68l-19 -86h-686zM590 672q20 -2 47 -2q180 0 292.5 99.5t112.5 256.5q0 121 -59 180q-35 37 -86.5 51.5t-146.5 14.5h-39z" />
<glyph unicode="S" horiz-adv-x="1144" d="M43 86l88 348h86q4 -176 89 -272t235 -96q115 0 194.5 60t79.5 146q0 59 -51 119q-28 32 -53.5 56.5t-153.5 138.5q-163 146 -219.5 230t-56.5 179q0 163 123 282.5t290 119.5q44 0 127 -21q113 -30 160 -30q64 0 96 38h68l-60 -395h-88q-15 137 -98 225.5t-197 88.5 q-89 0 -152 -54t-63 -129q0 -54 42.5 -106.5t189.5 -177.5q189 -163 256 -260t67 -205q0 -167 -149 -284.5t-363 -117.5q-127 0 -258 31.5t-229 85.5z" />
<glyph unicode="T" horiz-adv-x="1462" d="M152 1055l79 391h64q6 -31 11 -44.5t22.5 -23t41.5 -11t76 -1.5h959q75 0 107 16.5t51 63.5h75l-79 -391h-89q-9 101 -57 157q-29 37 -66 49.5t-114 12.5h-186l-203 -1000q-10 -52 -10 -71q0 -56 36 -86.5t103 -30.5h57l-18 -86h-717l18 86h45q105 0 156 57q34 43 59 166 l197 965h-166q-94 0 -149.5 -18t-110.5 -64q-58 -51 -104 -137h-88z" />
<glyph unicode="U" horiz-adv-x="1644" d="M193 1278l18 88h672l-17 -88h-8q-100 0 -149.5 -39.5t-69.5 -134.5l-127 -619q-18 -105 -18 -151q0 -110 100 -182t254 -72q216 0 348 135q119 119 164 385l65 395q15 103 15 111q0 70 -50.5 112.5t-154.5 59.5l16 88h508l-18 -88q-96 -12 -146 -75t-73 -199l-66 -381 q-34 -198 -88.5 -316t-150.5 -201q-88 -73 -184.5 -105t-231.5 -32q-152 0 -259.5 33t-189.5 104q-127 112 -127 277q0 35 4 60.5t21 109.5l108 534q9 52 9 74q0 117 -152 117h-22z" />
<glyph unicode="V" horiz-adv-x="1515" d="M258 1280l18 86h613l-17 -86q-106 -1 -149.5 -36t-46.5 -120l-31 -845l698 813q33 37 45.5 60.5t12.5 47.5q0 35 -34 57.5t-89 22.5h-10l18 86h457l-17 -86q-55 -10 -83.5 -23.5t-69.5 -52.5t-123 -133l-948 -1102h-137l38 1159q0 75 -35.5 112t-109.5 40z" />
<glyph unicode="W" horiz-adv-x="2361" d="M285 1280l18 86h635l-18 -86q-106 3 -152 -33t-51 -123l-49 -811l635 789q4 29 4 51q0 54 -38.5 88t-101.5 39l17 86h604l-19 -86l-45 -4q-77 -8 -108 -44t-37 -126l-51 -795l594 742q59 73 59 125q0 90 -139 102l18 86h510l-16 -86q-84 -8 -151.5 -61t-204.5 -222 l-832 -1028h-135l59 965l-776 -965h-139l71 1129q3 24 3 30q0 76 -35.5 108.5t-128.5 43.5z" />
<glyph unicode="X" horiz-adv-x="1671" d="M-14 0l16 86h8q83 0 158.5 44t206.5 167l397 371l-258 426q-67 111 -120.5 147.5t-155.5 36.5l18 88h698l-18 -88h-27q-57 0 -90 -21.5t-33 -58.5q0 -25 31 -76l160 -264l293 277q39 39 39 73q0 32 -33.5 53.5t-79.5 18.5l-25 -2l19 88h555l-19 -88h-26q-67 0 -167 -57.5 t-206 -157.5l-303 -285l274 -456q51 -84 78 -125t34 -49t22 -21q28 -23 53 -32t63 -9h23l-19 -86h-616l18 86q50 2 78.5 24.5t28.5 61.5q0 35 -35 90l-203 324l-323 -297q-27 -25 -45.5 -57.5t-18.5 -55.5q0 -43 36.5 -66.5t102.5 -23.5l-18 -86h-571z" />
<glyph unicode="Y" horiz-adv-x="1464" d="M174 1280l19 86h563l-17 -86q-108 -3 -108 -57q0 -18 22 -66l224 -483l378 428q48 53 48 82q0 38 -35.5 63t-100.5 33l19 86h440l-18 -86l-72 -35q-16 -7 -31.5 -19t-56 -53t-107.5 -116l-438 -494l-57 -289q-10 -55 -10 -71q0 -57 35.5 -87t103.5 -30h86l-19 -86h-731 l17 86h32q100 0 144.5 46t70.5 177l52 254l-271 584q-32 78 -69.5 104.5t-112.5 28.5z" />
<glyph unicode="Z" horiz-adv-x="1464" d="M0 0v94l1135 1180h-324q-100 0 -170 -25.5t-139 -87.5q-72 -63 -123 -166h-86l78 371h1155v-80l-1151 -1192h401q107 0 162 11t115 45q160 91 258 253h92l-113 -403h-1290z" />
<glyph unicode="[" horiz-adv-x="786" d="M76 -492l399 1960h500l-19 -84h-59q-77 0 -105.5 -6t-58.5 -30q-52 -41 -69 -131l-285 -1401q-19 -98 -19 -121q0 -57 37.5 -81t126.5 -24h68l-17 -82h-499z" />
<glyph unicode="\" horiz-adv-x="759" d="M78 1489h190l258 -2017h-190z" />
<glyph unicode="]" horiz-adv-x="786" d="M-170 -492l16 84h60q77 0 105.5 6t60.5 31q52 43 69 131l285 1399q18 90 18 121q0 57 -37 80.5t-126 23.5h-68l16 84h500l-399 -1960h-500z" />
<glyph unicode="^" d="M-10 573l583 861h17l543 -861h-117l-348 547l-371 -547h-307z" />
<glyph unicode="_" d="M0 -186h1024v-136h-1024v136z" />
<glyph unicode="`" d="M332 1411h258l147 -362h-162z" />
<glyph unicode="a" horiz-adv-x="1003" d="M53 193q0 112 50 230.5t141 221.5q174 198 374 250q118 27 187 27q2 0 7 -1t21 -2t44 -1h32l-143 -705q-10 -46 -10 -63q0 -9 5 -15t13 -6q14 0 62.5 41t89.5 88v-72q-75 -86 -166.5 -146t-147.5 -60q-43 0 -66.5 34.5t-23.5 94.5q0 45 17 139q-153 -156 -224.5 -214.5 t-109.5 -58.5q-29 0 -64 26.5t-57 64.5q-31 51 -31 127zM258 328q0 -66 25 -108t63 -42q41 0 115 68q25 20 74 69l22 23l92 446q-12 2 -28 2q-73 0 -143.5 -37.5t-115.5 -101.5q-49 -66 -76.5 -150.5t-27.5 -168.5z" />
<glyph unicode="b" horiz-adv-x="958" d="M92 199q0 21 19 116l188 922q4 20 4 37q0 13 -8.5 22t-20.5 9q-14 0 -57 -19l-24 47l296 117q50 18 58 18q22 0 22 -30q0 -27 -6 -54l-151 -741l80 84q192 195 253 195q55 0 97.5 -95t42.5 -217q0 -164 -77 -310.5t-205.5 -234.5t-272.5 -88q-103 0 -170.5 62.5 t-67.5 159.5zM313 131q0 -45 20.5 -70.5t55.5 -25.5q56 0 113.5 82.5t94 211t36.5 255.5q0 121 -39 121q-22 0 -50.5 -24t-107.5 -103l-33 -33l-14 -15l-59 -294q-17 -90 -17 -105z" />
<glyph unicode="c" horiz-adv-x="753" d="M63 233q0 103 43 225.5t115 225.5q167 236 389 236q65 0 102.5 -31.5t37.5 -85.5q0 -51 -31 -83t-82 -32q-63 0 -117 60q-22 24 -34 31t-31 7q-41 0 -72 -49t-47 -124t-23.5 -146t-7.5 -131q0 -110 37.5 -168.5t106.5 -58.5q48 0 102 32.5t92 85.5l41 -32 q-60 -97 -163 -157.5t-208 -60.5q-117 0 -183.5 68.5t-66.5 187.5z" />
<glyph unicode="d" horiz-adv-x="966" d="M68 244q0 96 35 198.5t102 198.5q54 79 117.5 143t124 100t104.5 36q63 0 119 -56l73 365q5 30 5 31q1 15 -8.5 24.5t-24.5 9.5q-6 0 -16 -2.5t-18.5 -5t-20.5 -6.5t-17 -6l-22 47l337 139q20 8 31 8t19 -9.5t8 -22.5q0 -21 -8 -60l-238 -1163l-6 -45q0 -23 14 -23 q34 0 109 101l39 -33q-39 -63 -119 -133q-112 -103 -189 -103q-46 0 -71 32.5t-25 92.5q0 59 27 177q-210 -299 -322 -299q-34 0 -70 25.5t-55 62.5q-34 64 -34 176zM309 301q0 -123 53 -123q19 0 53.5 29t76.5 80t81 112l50 240q-40 174 -121 174q-87 0 -142 -197 q-51 -175 -51 -315z" />
<glyph unicode="e" horiz-adv-x="835" d="M70 266q0 103 44.5 220t123.5 219q76 101 179 158t206 57q82 0 130 -44t48 -118q0 -146 -195 -244q-128 -65 -278 -96q-15 -73 -15 -123q0 -86 47 -136t127 -50q51 0 106 24t138 82l29 -41q-97 -82 -228 -140.5t-217 -58.5q-110 0 -177.5 80t-67.5 211zM338 471l16 6 q120 30 183 103t63 176q0 42 -18.5 68t-49.5 26q-109 0 -194 -379z" />
<glyph unicode="f" horiz-adv-x="561" d="M-453 -371q0 43 39 77t86 34q41 0 71.5 -20.5t59.5 -67.5q28 -44 51 -62t52 -18q70 0 114 100q19 41 30.5 93.5t51.5 297.5l123 734h-164l9 51q33 -2 89.5 14t82.5 35q33 206 123 342q155 240 405 240q97 0 152 -33.5t55 -93.5q0 -46 -35 -79.5t-84 -33.5q-74 0 -162 98 q-32 33 -47 43.5t-35 10.5q-33 0 -51.5 -52t-48.5 -223l-39 -219h162l-23 -100h-155l-115 -691q-22 -127 -55.5 -214t-93.5 -168q-169 -230 -416 -230q-102 0 -167 37.5t-65 97.5z" />
<glyph unicode="g" horiz-adv-x="960" d="M-176 -352q0 88 139 172q116 73 246 119q-23 29 -23 61q0 47 39.5 85.5t108.5 57.5q-98 29 -160.5 114t-62.5 189q0 116 77 226.5t201.5 179t255.5 68.5q128 0 295 -25v-129l-127 18q32 -57 43.5 -96t11.5 -94q0 -97 -56 -187.5t-157 -156.5q-42 -27 -79 -44.5 t-113 -45.5q-96 -34 -96 -62q0 -19 34 -46.5t129 -86.5q163 -101 207 -141q60 -54 60 -119q0 -97 -146 -157t-379 -60q-198 0 -323 44.5t-125 115.5zM51 -297q0 -75 69 -116.5t195 -41.5q112 0 191.5 23t79.5 55q0 24 -23 40.5t-180 109.5q-89 53 -147 121 q-90 -35 -137.5 -84.5t-47.5 -106.5zM348 420q0 -91 31 -146t82 -55q25 0 49 19t41 51q34 61 57 172.5t23 210.5q0 83 -28 130.5t-75 47.5q-40 0 -75.5 -50.5t-57.5 -122.5t-34.5 -141.5t-12.5 -115.5z" />
<glyph unicode="h" horiz-adv-x="1095" d="M68 29q0 11 8 55l233 1147q6 27 6 35q0 15 -8 23.5t-20 8.5q-10 0 -43 -10l-33 -14l-23 49l344 135q20 8 29 8q10 0 17.5 -6.5t7.5 -15.5q0 -6 -8 -49l-177 -858l25 28q16 18 41 53.5t37 49.5q194 254 354 254q51 0 83 -38.5t32 -99.5q0 -38 -23 -135l-92 -395 q-22 -95 -22 -104t5.5 -17t12.5 -8q15 0 54.5 40t92.5 107l43 -28q-36 -58 -108 -133q-130 -136 -236 -136q-46 0 -78 36t-32 87q0 37 31 164l90 379q8 40 8 57t-12 30t-27 13q-46 0 -137 -108q-4 -4 -22 -27t-60 -77t-82 -105l-76 -379q-6 -34 -19 -45.5t-44 -11.5h-117 q-31 0 -43 9t-12 32z" />
<glyph unicode="i" horiz-adv-x="616" d="M70 655q199 265 331 265q41 0 68 -35t27 -90q0 -51 -23 -148l-106 -448q-11 -45 -11 -56q0 -13 8 -22.5t19 -9.5q24 0 68 33t86 83l38 -37q-71 -88 -168.5 -150.5t-164.5 -62.5q-52 0 -85.5 37.5t-33.5 94.5t51 268l68 287q8 32 8 53q0 22 -23 22q-31 0 -116 -118z M369 1208q0 82 45.5 139.5t109.5 57.5q52 0 83.5 -33.5t31.5 -89.5q0 -81 -46.5 -139t-111.5 -58q-51 0 -81.5 33.5t-30.5 89.5z" />
<glyph unicode="j" horiz-adv-x="616" d="M-360 -371q0 49 34.5 82t85.5 33q46 0 79 -22.5t65 -77.5q27 -45 57 -45q40 0 69.5 84t69.5 307l140 690q2 12 3.5 20.5t2.5 11.5t1.5 5.5t0.5 5.5q0 16 -12 16q-14 0 -47 -33.5t-76 -93.5l-39 37q94 130 181 200.5t155 70.5q38 0 62 -29t24 -76q0 -21 -15 -100 l-123 -602q-28 -134 -58 -218.5t-79 -162.5q-80 -126 -169 -182t-210 -56q-97 0 -149.5 35t-52.5 100zM342 1208q0 81 46.5 139t109.5 58q52 0 83 -33.5t31 -89.5q0 -80 -46.5 -138.5t-110.5 -58.5q-51 0 -82 33.5t-31 89.5z" />
<glyph unicode="k" horiz-adv-x="1081" d="M68 23q0 4 10 59l231 1139q6 31 6 39q0 40 -30 40q-10 0 -54 -14l-24 -8l-19 47l334 133q27 10 37 10q9 0 17 -11.5t8 -24.5q0 -9 -15 -84l-157 -775q170 177 184 189q167 158 262 158q66 0 114 -58.5t48 -136.5q0 -109 -98 -183t-277 -100l19 -24q13 -17 25 -33 t20 -26.5t10 -12.5l35 -51q62 -89 135 -125l112 111l33 -35l-254 -271q-76 13 -141 73t-125 171l-61 109q-11 19 -70 100l-78 -373q-9 -44 -21.5 -55.5t-52.5 -11.5h-106q-57 0 -57 35zM391 475q35 -6 53 -6q66 0 131 13t101 34q44 25 72 67t28 83q0 34 -20 56.5t-49 22.5 q-49 0 -134 -79q-122 -119 -182 -191z" />
<glyph unicode="l" horiz-adv-x="534" d="M90 100q0 50 14 121l203 991q6 38 6 45q0 37 -37 37q-25 0 -49 -12l-20 -10l-23 49l344 139q20 8 31 8t18 -9.5t7 -22.5q0 -16 -9 -60l-239 -1175q-8 -41 -8 -47q0 -15 9 -28t21 -13q19 0 61 31.5t83 76.5l33 -37q-76 -90 -171.5 -148.5t-164.5 -58.5q-53 0 -81 31.5 t-28 91.5z" />
<glyph unicode="m" horiz-adv-x="1654" d="M63 631q108 150 192 219.5t155 69.5q41 0 63.5 -27t22.5 -76q0 -17 -7 -57l-45 -215q62 90 172 213q153 162 281 162q48 0 79.5 -36t31.5 -91q0 -15 -19 -115l-26 -133q261 377 454 377q51 0 80 -36t29 -98q0 -30 -13 -96l-83 -413q-21 -108 -21 -119q0 -27 18 -27 q15 0 56 41.5t86 104.5l43 -31q-74 -119 -173.5 -196t-178.5 -77q-44 0 -69.5 32t-25.5 89q0 31 17 117l82 408q8 40 8 67q0 53 -45 53q-54 0 -144 -123l-145 -194l-76 -377q-9 -44 -17.5 -51.5t-45.5 -7.5h-115q-25 0 -40 12.5t-15 32.5q0 25 6 49l104 518q15 70 15 94 q0 22 -10.5 35.5t-28.5 13.5q-40 0 -107.5 -73t-187.5 -246l-76 -373q-7 -41 -20 -52t-50 -11h-112q-23 0 -38 11t-15 28q0 5 8 55l116 577q7 17 7 43q0 19 -17 19q-12 0 -33.5 -22t-85.5 -101z" />
<glyph unicode="n" horiz-adv-x="1120" d="M55 623q75 121 178.5 209t169.5 88q40 0 62 -31.5t22 -87.5q0 -53 -12 -111l-31 -153q141 198 250 290.5t201 92.5q50 0 79.5 -34t29.5 -91q0 -37 -17 -109l-113 -469q-16 -70 -16 -74q0 -18 16 -18q14 0 61.5 46t86.5 99l43 -32q-67 -104 -172 -183.5t-174 -79.5 q-41 0 -71 36t-30 87q0 32 19 113l102 438q9 39 9 45q0 18 -10 29.5t-25 11.5q-25 0 -51.5 -21.5t-73.5 -80.5q-114 -140 -166 -209l-72 -352q-10 -54 -24 -69t-52 -15h-116q-28 0 -40 7t-12 25q0 3 0.5 6.5t2 8t4.5 17.5t6 30l119 588q8 41 8 47q0 18 -15 18 q-36 0 -133 -141z" />
<glyph unicode="o" horiz-adv-x="978" d="M74 299q0 151 86 296t224.5 235t283.5 90q107 0 171 -88t64 -236q0 -114 -49 -227t-135 -201q-85 -85 -197 -138t-207 -53q-109 0 -175 88t-66 234zM328 350q0 -121 33.5 -200.5t84.5 -79.5q49 0 97 71t78 184t30 228q0 111 -35 193t-84 83q-47 2 -95 -69t-78.5 -184 t-30.5 -226z" />
<glyph unicode="p" horiz-adv-x="1052" d="M-195 -500l11 51h16q51 0 95 16t67 44q37 43 63 178l172 842q1 6 3 20t3 25t1 18q0 20 -8.5 32.5t-22.5 12.5q-28 0 -65 -36t-97 -121l-45 32q228 306 381 306q96 0 96 -150q0 -69 -29 -217q262 367 363 367q40 0 78.5 -47.5t62 -124.5t23.5 -158q0 -161 -73.5 -302 t-205.5 -235q-113 -78 -245 -78q-41 0 -115 25l-51 -254q-11 -50 -11 -84t21.5 -61t58.5 -39q32 -8 107 -11l-13 -51h-641zM369 166q20 -64 46 -90.5t68 -26.5q50 0 97 51.5t77.5 127.5t49 158.5t18.5 148.5q0 165 -70 165q-56 0 -235 -280z" />
<glyph unicode="q" horiz-adv-x="966" d="M55 205q0 105 54 233.5t141 227.5q144 169 325 215q147 39 287 39h51l-235 -1151q-16 -85 -16 -103q0 -63 42 -87.5t156 -27.5l-10 -51h-651l10 51l18 3q103 0 147 46t72 181l91 440q-256 -244 -351 -244q-52 0 -91.5 68.5t-39.5 159.5zM256 340q0 -73 26.5 -119.5 t67.5 -46.5q30 0 84.5 37.5t120.5 105.5l98 478q-117 -7 -175 -34t-113 -97q-109 -139 -109 -324z" />
<glyph unicode="r" horiz-adv-x="731" d="M57 631l52 65q81 103 153.5 164.5t116.5 61.5q47 0 47 -84q0 -122 -55 -365q-3 -18 -8 -39t-8 -33.5t-3 -13.5l-10 -47q-4 -24 -4 -31t4 -13.5t8 -6.5q12 0 20.5 23t43.5 151q66 239 134.5 349t151.5 110q37 0 58.5 -26.5t21.5 -72.5q0 -76 -34 -133t-80 -57 q-6 0 -22.5 3t-18.5 3q-89 0 -154 -182q-71 -196 -119 -426q-8 -33 -20.5 -43.5t-46.5 -10.5h-99q-39 0 -52 8t-13 33q0 15 8 62l98 567q3 17 5 29.5t3.5 17.5t2 9t0.5 8q0 9 -4 14.5t-9 5.5q-14 0 -32.5 -19t-96.5 -114z" />
<glyph unicode="s" horiz-adv-x="755" d="M10 123q0 47 36 83t83 36q59 0 125 -66q93 -96 168 -96q26 0 45.5 19.5t19.5 45.5q0 52 -110 162q-89 91 -110.5 114.5t-39.5 51.5q-51 77 -51 154q0 117 106.5 205t247.5 88q77 0 126 -41t49 -105q0 -53 -32 -87t-81 -34q-46 0 -71.5 22.5t-47.5 80.5q-10 30 -30 47.5 t-44 17.5q-25 0 -41 -18t-16 -45q0 -40 30 -86.5t105 -124.5q91 -94 118.5 -142t27.5 -112q0 -141 -110 -228.5t-290 -87.5q-97 0 -155 40t-58 106z" />
<glyph unicode="t" horiz-adv-x="632" d="M88 111q0 11 21 125l112 559h-106l10 55q98 29 201 118t194 222h60q-59 -126 -103 -287h176l-22 -108h-174l-117 -572q-12 -64 -12 -71q0 -17 14 -31.5t29 -14.5q21 0 69.5 37t102.5 93l37 -39q-89 -99 -190.5 -159.5t-182.5 -60.5q-54 0 -86.5 37t-32.5 97z" />
<glyph unicode="u" horiz-adv-x="1101" d="M72 653q103 142 180.5 204.5t150.5 62.5q40 0 66.5 -30.5t26.5 -76.5q0 -15 -17 -104l-76 -375q-12 -66 -12 -84q0 -35 23 -35q19 0 75.5 62t116.5 149q65 93 96.5 178.5t57.5 241.5q8 43 17.5 52t49.5 9h111q31 0 42 -9t11 -34q0 -13 -4 -41l-119 -579q-10 -53 -10 -58 q0 -18 14 -18q9 0 54.5 39.5t87.5 87.5l37 -35q-88 -109 -202.5 -196t-170.5 -87q-31 0 -52.5 27t-21.5 64q0 10 14 92l56 280q-73 -114 -228 -288q-73 -82 -138 -128.5t-105 -46.5q-37 0 -57.5 28t-20.5 77q0 40 18 127l93 457q10 54 10 59q0 27 -17 27q-21 0 -116 -129z " />
<glyph unicode="v" horiz-adv-x="946" d="M68 657q189 263 317 263q45 0 72.5 -27t27.5 -72q0 -25 -8 -80l-80 -471q-16 -91 -16 -110q0 -15 7.5 -24t19.5 -9q15 0 52.5 33t78.5 80q77 89 132.5 205t55.5 186q0 29 -9.5 41.5t-37.5 21.5q-49 16 -49 64q0 63 52 112.5t118 49.5q65 0 102 -44t37 -120 q0 -224 -336 -539q-258 -240 -366 -240q-46 0 -71.5 32.5t-25.5 90.5q0 44 17 140l75 452q5 25 5 41q0 19 -13 19q-27 0 -116 -125z" />
<glyph unicode="w" horiz-adv-x="1472" d="M66 639q27 44 100 137q117 144 219 144q47 0 72.5 -30t25.5 -85q0 -22 -10 -86l-78 -463l-6 -55q0 -13 7 -21t18 -8q33 0 127 108.5t159 223.5l54 313q10 64 20.5 77t48.5 13h107q35 0 50.5 -9.5t13.5 -29.5q0 -9 -5 -47l-90 -530q-18 -113 -18 -121q0 -19 9.5 -31 t24.5 -12q55 0 140 89.5t148 209t63 197.5q0 29 -9 45t-32 26q-35 18 -47.5 30.5t-12.5 33.5q0 60 55 112t119 52q60 0 100 -46t40 -114q0 -227 -367 -565q-240 -220 -356 -220q-52 0 -81.5 39.5t-29.5 110.5q0 49 27 207l8 47q-53 -90 -180 -231q-158 -175 -267 -175 q-96 0 -96 107q0 13 1 23t2 18t5.5 33.5t8.5 52.5l86 518q0 7 -5.5 14t-11.5 7q-18 0 -114 -140z" />
<glyph unicode="x" horiz-adv-x="1097" d="M37 86q0 43 18.5 106t44.5 107h45q20 -80 88 -80q112 0 222 166q-27 49 -69.5 153t-51.5 124q-20 47 -36 65t-36 18q-23 0 -43 -21t-45 -71l-45 19q65 131 122.5 189.5t123.5 58.5q46 0 82.5 -29.5t70.5 -95.5q2 -5 82 -201q208 326 326 326q42 0 74 -42.5t32 -99.5 q0 -66 -30 -131h-51q-27 58 -91 58q-127 0 -233 -166q57 -154 123 -289q29 -66 65 -66q46 0 95 115l49 -27q-66 -158 -123.5 -225t-126.5 -67q-57 0 -95 40t-79 144q-45 118 -68 164l-69 -99q-93 -131 -161.5 -191.5t-125.5 -60.5q-39 0 -61.5 29t-22.5 80z" />
<glyph unicode="y" horiz-adv-x="1007" d="M-86 -500l10 51h31q76 0 116 32.5t91 135.5q75 155 105 267t30 245q0 225 -32 372t-79 147q-44 0 -108 -99l-45 29q63 109 144.5 174.5t154.5 65.5q76 0 125 -134q26 -77 43.5 -218.5t17.5 -280.5q0 -102 -10 -248q97 195 159 365.5t62 246.5q0 23 -5 35t-28 37 q-18 22 -18 61q0 55 44.5 95.5t104.5 40.5q56 0 92.5 -36t36.5 -91q0 -53 -31 -118.5t-145 -252.5q-133 -220 -185.5 -320.5t-166.5 -359.5q-35 -77 -43 -98.5t-8 -38.5q0 -54 76 -54h34l-10 -51h-563z" />
<glyph unicode="z" horiz-adv-x="1034" d="M16 41q0 77 49.5 150.5t139.5 130.5q61 39 104 62.5t187 94.5l161 80q115 57 180 107t91 104q-220 -117 -375 -117q-92 0 -174 52q-63 40 -107 40q-30 0 -52.5 -12t-57.5 -47l-41 35q155 199 311 199q77 0 174 -58q72 -41 117 -57.5t86 -16.5q81 0 94 62q9 42 20 56 t35 14q25 0 39.5 -17t14.5 -45q0 -119 -142 -238.5t-458 -265.5q-162 -76 -214.5 -110t-82.5 -82q227 88 358 88q46 0 85.5 -9.5t109.5 -39.5q90 -37 123 -37q28 0 61.5 23t52.5 55l43 -31q-27 -58 -80 -111q-117 -123 -250 -123q-93 0 -225 80q-125 74 -196 74 q-70 0 -70 -59l1 -2v-9t1 -20v-4q0 -27 -15.5 -43.5t-41.5 -16.5t-41 16.5t-15 47.5z" />
<glyph unicode="{" horiz-adv-x="786" d="M121 496l12 63q96 -3 152 53q9 9 15 15.5t12 16.5t9.5 16t8.5 21t7.5 25t8 34.5t8.5 42.5t11 56t14 68l39 193q31 152 75.5 226t129.5 112q44 20 98.5 25t196.5 5h40l-16 -75q-150 -10 -207.5 -69t-91.5 -228l-61 -299q-25 -121 -78 -179.5t-164 -87.5l-2 -8 q72 -17 106.5 -60t34.5 -116q0 -57 -16 -135l-68 -326q-14 -63 -14 -127q0 -106 68 -149q40 -25 126 -25l-16 -76q-119 0 -205 11q-96 10 -149 67t-53 150q0 58 18 147l47 228q31 147 37 184.5t6 71.5q0 64 -29.5 91t-109.5 38z" />
<glyph unicode="|" d="M471 -342v1708h178v-1708h-178z" />
<glyph unicode="}" horiz-adv-x="786" d="M-154 -492l15 76q125 -5 198 67.5t105 233.5l65 326q29 145 87 216.5t165 94.5l2 8q-75 20 -111 59.5t-36 102.5q0 49 12 105l62 299q24 125 24 147q0 85 -67 121q-16 8 -33 13t-40 8.5t-65 7.5l17 75l123 -2q79 -2 124 -7.5t76 -20.5q43 -20 68 -67.5t22 -102.5 q-3 -66 -24 -168l-39 -193q0 -3 -22.5 -103t-22.5 -130q0 -56 38 -85.5t111 -29.5l-14 -63q-37 -5 -62 -11.5t-47.5 -17t-38 -30.5t-29.5 -45t-26 -68t-23 -91t-26 -122l-45 -228q-28 -139 -76.5 -214.5t-140.5 -119.5q-49 -24 -108.5 -31t-217.5 -10z" />
<glyph unicode="~" horiz-adv-x="1366" d="M322 1266q122 221 274 221q50 0 170 -43q103 -39 162 -39q96 0 172 98l41 -26q-53 -103 -126 -161.5t-149 -58.5q-45 0 -164 41q-74 27 -107.5 35t-68.5 8q-41 0 -69.5 -17t-75.5 -64l-19 -19z" />
<glyph unicode="&#xa1;" horiz-adv-x="710" d="M37 -362q0 19 16 69l303 881h74l-82 -899q-8 -77 -25 -97t-79 -20h-111q-52 0 -74 15.5t-22 50.5zM299 819q0 74 45 124t111 50q60 0 98.5 -40t38.5 -103q0 -69 -47.5 -119.5t-112.5 -50.5q-60 0 -96.5 38.5t-36.5 100.5z" />
<glyph unicode="&#xa2;" d="M182 231q0 127 62 276t159 255q135 146 310 158l114 387h64l-117 -392q94 -22 94 -112q0 -51 -30.5 -83t-81.5 -32q-23 0 -47 8l-174 -583q14 -4 34 -4q46 0 100.5 33t92.5 85l41 -32q-45 -77 -133.5 -139t-173.5 -74l-125 -424h-64l125 417q-116 0 -183 69t-67 187z M424 338q0 -140 57 -197l176 590l-14 12q-1 1 -2 3t-3 4t-5 4q-24 32 -60 32q-40 0 -71 -49.5t-47 -124t-23.5 -145t-7.5 -129.5z" />
<glyph unicode="&#xa3;" d="M-80 49q0 82 77 150t200 94q31 85 82 258h-236l12 78h244q84 335 137 440q72 140 215 236t281 96q90 0 149.5 -44t59.5 -110q0 -49 -28.5 -79.5t-74.5 -30.5q-47 0 -80.5 28.5t-68.5 98.5q-24 53 -62 53q-40 0 -73.5 -62t-83.5 -225q-32 -110 -64 -188.5t-98 -212.5h295 l-10 -78h-324l-14 -29q-39 -73 -47 -98q-25 -47 -76 -125q75 -3 143 -32.5t187 -112.5q73 -50 99 -64t50 -14q19 0 32 14.5t13 36.5q0 17 -9 36t-46 79q-25 39 -25 73q0 46 34 77.5t85 31.5q58 0 91.5 -40.5t33.5 -109.5q0 -127 -91 -217t-220 -90q-79 0 -149.5 25 t-168.5 88l-115 74q-4 4 -32 18q-85 -116 -138 -159.5t-108 -43.5q-37 0 -57.5 21.5t-20.5 58.5z" />
<glyph unicode="&#xa4;" d="M98 279l138 135q-97 118 -97 266q0 149 97 266l-138 137l60 60l137 -135q118 94 266 94q70 0 142.5 -25.5t123.5 -68.5l138 135l59 -60l-137 -137q96 -113 96 -264q0 -152 -96 -268l137 -135l-59 -62l-138 137q-115 -94 -266 -94q-71 0 -142.5 25t-123.5 69l-137 -137z M307 680q0 -103 74.5 -177.5t175.5 -74.5q107 0 182.5 73t75.5 177q0 107 -74 181.5t-180 74.5q-105 0 -179.5 -74.5t-74.5 -179.5z" />
<glyph unicode="&#xa5;" d="M78 721l16 78h260l-32 162h-195l16 77h162l-8 43q-19 99 -65.5 152.5t-116.5 58.5l16 74h510l-16 -74q-42 -8 -60 -22.5t-18 -42.5q0 -17 10 -70l23 -119h270l37 64q21 35 28.5 51.5t9 22.5t1.5 20q0 69 -105 96l17 74h391l-15 -74q-91 -55 -144.5 -105t-96.5 -130 l-10 -19h174l-17 -77h-207l-98 -162h272l-16 -78h-303l-96 -158l-62 -303q-10 -46 -10 -72q0 -57 35.5 -86.5t103.5 -29.5h58l-15 -72h-669l14 72h18q94 0 142 57q38 45 61 166l53 268l-30 158h-293zM596 961l53 -271l156 271h-209z" />
<glyph unicode="&#xa6;" d="M471 313h178v-655h-178v655zM471 651v715h178v-715h-178z" />
<glyph unicode="&#xa7;" d="M-119 -381q0 44 30.5 75t76.5 34q48 3 121 -47q50 -33 82.5 -45.5t68.5 -12.5q88 0 139.5 67t51.5 181q0 87 -22.5 159.5t-109.5 266.5q-110 245 -110 418q0 115 53 242t148 241q232 281 516 281q104 0 169.5 -38t65.5 -98q0 -43 -33 -75.5t-77 -32.5q-40 0 -77 19 t-95 71q-37 33 -82 33q-77 0 -125.5 -73.5t-48.5 -188.5q0 -97 45 -222q13 -37 129 -296q77 -169 77 -297q0 -282 -245 -533q-249 -258 -510 -258q-116 0 -177 33t-61 96zM352 739q0 -104 35 -194q13 -38 78 -199q79 -201 96 -264t17 -164q0 -32 -7 -68q91 107 125.5 187.5 t34.5 183.5q0 85 -25.5 164.5t-119.5 286.5q-55 121 -76 201.5t-21 170.5q0 21 7 82q-144 -191 -144 -387z" />
<glyph unicode="&#xa8;" d="M328 1231q0 52 38 89.5t91 37.5t90 -37t37 -90q0 -54 -37 -91.5t-90 -37.5q-54 0 -91.5 37.5t-37.5 91.5zM758 1231q0 52 38 89.5t91 37.5t90 -37t37 -90q0 -54 -37 -91.5t-90 -37.5q-54 0 -91.5 37.5t-37.5 91.5z" />
<glyph unicode="&#xa9;" horiz-adv-x="1634" d="M143 682q0 146 57.5 279.5t154 229.5t230.5 153t281 57q197 0 363 -96.5t262 -263t96 -363.5q0 -146 -57.5 -278t-155.5 -227t-234 -151.5t-286 -56.5q-190 0 -354 97.5t-260.5 263t-96.5 356.5zM248 682q0 -124 48.5 -239.5t130.5 -199.5t194.5 -134t234.5 -50 q171 0 315.5 82.5t228 225t83.5 311.5q0 171 -82.5 316t-224.5 229t-310 84t-310.5 -83.5t-225 -227.5t-82.5 -314zM463 680q0 99 58.5 182t159.5 130.5t222 47.5q87 0 182 -34q27 -11 35 -11q9 0 19 13h39l10 -203h-58q-13 41 -34 72.5t-49 52.5t-62 32t-74 11 q-118 0 -192 -78t-74 -203q0 -128 80.5 -214.5t198.5 -86.5q77 0 137 41t94 115h57q-2 -16 -6.5 -37t-11.5 -44.5t-15 -46.5t-17 -45t-17 -38q-38 10 -70 10q-8 0 -89 -10t-107 -10q-175 0 -295.5 102.5t-120.5 251.5z" />
<glyph unicode="&#xaa;" horiz-adv-x="655" d="M84 635l18 90h564l-19 -90h-563zM180 956q0 68 31 140t86 133q149 166 350 166h12l16 -2l12 -1.5t5 -0.5q15 0 27 2l-88 -424q-4 -16 -4 -35q0 -8 6 -8q8 0 39 28t57 58l2 -60q-49 -55 -106.5 -92t-94.5 -37q-61 0 -61 86q0 15 6 62q-88 -86 -129 -118t-65 -32 q-40 0 -70.5 40.5t-30.5 94.5zM319 1038q0 -37 14 -60.5t36 -23.5q17 0 38 16t82 74l52 256h-9q-88 0 -150.5 -77.5t-62.5 -184.5z" />
<glyph unicode="&#xab;" horiz-adv-x="942" d="M59 489l406 400h72l-232 -400l31 -397h-64zM516 492l340 376h72l-172 -376l-13 -373h-63z" />
<glyph unicode="&#xac;" d="M113 420v125h895v-545h-293v420h-602z" />
<glyph unicode="&#xad;" horiz-adv-x="966" d="M76 354l47 232h801l-47 -232h-801z" />
<glyph unicode="&#xae;" horiz-adv-x="1634" d="M143 682q0 146 57.5 279.5t154 229.5t230.5 153t281 57q197 0 363 -96.5t262 -263t96 -363.5q0 -146 -57.5 -278t-155.5 -227t-234 -151.5t-286 -56.5q-190 0 -354 97.5t-260.5 263t-96.5 356.5zM248 682q0 -124 48.5 -239.5t130.5 -199.5t194.5 -134t234.5 -50 q171 0 315.5 82.5t228 225t83.5 311.5q0 171 -82.5 316t-224.5 229t-310 84t-310.5 -83.5t-225 -227.5t-82.5 -314zM446 342v55h25q58 0 75 16t17 70v400q0 54 -17 70t-75 16h-22v55q215 18 339 18q215 0 297 -59q76 -57 76 -143q0 -61 -43 -110t-117 -71q8 -7 14 -13 t14 -14.5t12 -13t15 -18t16 -19.5t21.5 -27t24.5 -32q59 -76 102.5 -104t104.5 -33v-53q-49 -2 -72 -2q-121 0 -180 26q-40 17 -68 44.5t-102 123.5q-52 70 -90 103h-80v-144q0 -54 17 -70t75 -16h31v-55h-410zM733 682q116 2 156 18q90 34 90 134q0 151 -205 151 q-25 0 -41 -4v-299z" />
<glyph unicode="&#xaf;" d="M309 1149l35 168h692l-35 -168h-692z" />
<glyph unicode="&#xb0;" horiz-adv-x="622" d="M229 1169q0 94 67.5 160t162.5 66q94 0 160.5 -67t66.5 -161q0 -93 -67 -160t-160 -67q-95 0 -162.5 67t-67.5 162zM322 1169q0 -56 40 -95.5t97 -39.5q55 0 95 39.5t40 93.5q0 57 -40 97.5t-97 40.5q-55 0 -95 -40t-40 -96z" />
<glyph unicode="&#xb1;" d="M61 23v122h875v-122h-875zM61 596v123h377v348h123v-348h375v-123h-375v-348h-123v348h-377z" />
<glyph unicode="&#xb2;" horiz-adv-x="684" d="M104 803v53q133 119 254 264q168 201 168 332q0 43 -22.5 66.5t-63.5 23.5q-49 0 -89 -35t-62 -96h-58q16 68 39 105q34 57 96.5 90.5t131.5 33.5q91 0 153 -55t62 -135q0 -109 -142 -242q-28 -28 -132.5 -122.5t-139.5 -124.5h195q41 0 57.5 12.5t23.5 52.5h62l-47 -223 h-486z" />
<glyph unicode="&#xb3;" horiz-adv-x="684" d="M123 852q0 38 19.5 65t47.5 27q19 0 35 -8t47 -31q47 -35 70 -35q46 0 83.5 80t37.5 178q0 49 -19 78t-51 29q-24 0 -86 -35l15 74q18 12 50.5 37t39.5 30q49 37 77.5 76t28.5 70q0 26 -17.5 43.5t-45.5 17.5q-25 0 -52 -15.5t-75 -55.5l-41 36q64 72 116 99.5t123 27.5 q72 0 118 -35.5t46 -91.5q0 -69 -72 -122q-40 -24 -110 -58q141 -24 141 -164q0 -91 -61.5 -181t-159.5 -147t-197 -57q-52 0 -80 18t-28 50z" />
<glyph unicode="&#xb4;" d="M547 1053l145 358h256l-239 -358h-162z" />
<glyph unicode="&#xb5;" horiz-adv-x="1101" d="M-102 -315q0 38 47 159q127 326 198 672l84 406h238l-119 -574q-18 -82 -18 -149q0 -51 28 -82t72 -31q52 0 100 28.5t115 96.5l145 711h236l-135 -660q-15 -69 -15 -104q0 -62 66 -62q15 0 59 13l-8 -37l-256 -95q-40 -8 -62.5 20t-27.5 87q-1 3 -1.5 9.5t-1 16.5 t-1.5 17q-114 -97 -173 -127.5t-134 -30.5q-83 0 -125.5 39.5t-61.5 134.5q-22 -104 -22 -161q0 -10 1.5 -25.5t4 -51.5t4.5 -87l2 -60q3 -68 -36.5 -112.5t-100.5 -44.5q-45 0 -73.5 23.5t-28.5 60.5z" />
<glyph unicode="&#xb6;" horiz-adv-x="1097" d="M150 -492l18 86q57 3 89 12t56 37t37 69t29 118l147 727q-23 -2 -51 -2q-152 0 -236.5 90.5t-84.5 251.5q0 152 73 288t193 208q113 67 278 67h596l-18 -86q-108 -6 -145 -47.5t-66 -187.5l-266 -1309q-23 -109 -23 -141q0 -48 32 -70t107 -25l-18 -86h-747zM481 -383 h129l355 1735h-131z" />
<glyph unicode="&#xb7;" horiz-adv-x="710" d="M244 731q0 67 50.5 116.5t119.5 49.5t118.5 -49.5t49.5 -118.5q0 -70 -49.5 -120t-118.5 -50q-71 0 -120.5 50t-49.5 122z" />
<glyph unicode="&#xb8;" d="M166 -506l12 57q95 3 160 52t65 118q0 80 -81 95l75 170h62l-23 -45q142 -39 142 -158q0 -70 -45.5 -135t-122.5 -103q-99 -48 -244 -51z" />
<glyph unicode="&#xb9;" horiz-adv-x="684" d="M193 803l12 57h10q57 0 81.5 28t41.5 111l90 441q-63 -38 -98.5 -56.5t-108.5 -50.5l15 72q114 51 198 113t125 124h84l-133 -659q-8 -44 -8 -57q0 -66 78 -66h18l-12 -57h-393z" />
<glyph unicode="&#xba;" horiz-adv-x="655" d="M84 635l18 90h564l-19 -90h-563zM201 1020q0 91 53 178t139.5 141t177.5 54q68 0 110 -55t42 -144q0 -69 -30 -138t-83 -120q-54 -52 -124 -83.5t-130 -31.5q-70 0 -112.5 54.5t-42.5 144.5zM371 1053q0 -69 20 -116.5t49 -47.5q41 0 77 88.5t36 189.5q0 60 -21 108 t-47 50q-26 1 -52.5 -40t-44 -105t-17.5 -127z" />
<glyph unicode="&#xbb;" horiz-adv-x="942" d="M10 117l170 375l19 374h59l162 -374l-330 -375h-80zM395 94l234 398l-25 395h64l213 -395l-404 -398h-82z" />
<glyph unicode="&#xbc;" horiz-adv-x="1638" d="M193 545l12 57h10q57 0 81.5 28t41.5 111l90 441q-63 -38 -98.5 -56.5t-108.5 -50.5l15 72q114 51 198 113t125 124h84l-133 -659q-8 -44 -8 -57q0 -66 78 -66h18l-12 -57h-393zM436 0l787 1366h133l-787 -1366h-133zM983 207l25 131l448 500h72l-103 -504h140l-27 -127 h-139l-45 -225h-166l45 225h-250zM1081 334h179l51 260z" />
<glyph unicode="&#xbd;" horiz-adv-x="1638" d="M193 545l12 57h10q57 0 81.5 28t41.5 111l90 441q-63 -38 -98.5 -56.5t-108.5 -50.5l15 72q114 51 198 113t125 124h84l-133 -659q-8 -44 -8 -57q0 -66 78 -66h18l-12 -57h-393zM410 0l786 1366h131l-784 -1366h-133zM948 0v53q133 119 254 264q168 201 168 332 q0 43 -22.5 66.5t-63.5 23.5q-49 0 -89 -35t-62 -96h-58q16 68 39 105q34 57 96 91t131 34q90 0 152.5 -55.5t62.5 -135.5q0 -109 -141 -241q-70 -66 -272 -248h194q42 0 58.5 13t23.5 52h62l-47 -223h-486z" />
<glyph unicode="&#xbe;" horiz-adv-x="1638" d="M123 596q0 38 19.5 65t47.5 27q19 0 35 -8t47 -31q47 -35 70 -35q46 0 83.5 80t37.5 178q0 49 -19 78t-51 29q-24 0 -86 -35l15 74l90 67q49 37 77.5 76t28.5 70q0 26 -17.5 43.5t-45.5 17.5q-25 0 -52 -15.5t-75 -55.5l-41 36q64 72 116 99.5t123 27.5q72 0 118 -35.5 t46 -91.5q0 -69 -72 -122q-40 -24 -110 -58q141 -24 141 -164q0 -91 -61.5 -181t-159.5 -147t-197 -57q-52 0 -80 18t-28 50zM430 0l787 1366h131l-785 -1366h-133zM983 207l25 131l448 500h72l-103 -504h140l-27 -127h-139l-45 -225h-166l45 225h-250zM1081 334h179l53 260 z" />
<glyph unicode="&#xbf;" horiz-adv-x="942" d="M63 -66q0 126 51 230t146 168q43 32 133 67q75 28 111.5 68t42.5 102h71q-4 -134 -18 -214t-53 -142t-98 -100t-164 -80q-66 -27 -93.5 -56t-27.5 -67q0 -47 41.5 -78t105.5 -31q37 0 101 21q104 37 157 37q46 0 77.5 -32t31.5 -79q0 -78 -71.5 -127t-188.5 -49 q-169 0 -262 94.5t-93 267.5zM492 819q0 74 45 124t112 50q60 0 97.5 -40t37.5 -103q0 -69 -47 -119.5t-112 -50.5q-60 0 -96.5 38.5t-36.5 100.5z" />
<glyph unicode="&#xc0;" horiz-adv-x="1585" d="M-145 0l18 86h8q52 0 92 17.5t88 60.5q28 24 53 53.5t81 104.5l815 1077h211l14 -1147q2 -101 35 -133.5t137 -32.5h23l-17 -86h-690l18 86h56q86 0 127 38t41 118l-4 295h-488l-205 -273q-32 -44 -32 -82q0 -44 35 -70t96 -26h28l-18 -86h-522zM571 664h387l-6 499z M584 1843h383l215 -330h-181z" />
<glyph unicode="&#xc1;" horiz-adv-x="1585" d="M-145 0l18 86h8q52 0 92 17.5t88 60.5q28 24 53 53.5t81 104.5l815 1077h211l14 -1147q2 -101 35 -133.5t137 -32.5h23l-17 -86h-690l18 86h56q86 0 127 38t41 118l-4 295h-488l-205 -273q-32 -44 -32 -82q0 -44 35 -70t96 -26h28l-18 -86h-522zM571 664h387l-6 499z M987 1511l217 332h387l-422 -332h-182z" />
<glyph unicode="&#xc2;" horiz-adv-x="1585" d="M-145 0l18 86h8q52 0 92 17.5t88 60.5q28 24 53 53.5t81 104.5l815 1077h211l14 -1147q2 -101 35 -133.5t137 -32.5h23l-17 -86h-690l18 86h56q86 0 127 38t41 118l-4 295h-488l-205 -273q-32 -44 -32 -82q0 -44 35 -70t96 -26h28l-18 -86h-522zM571 664h387l-6 499z M686 1530l367 325h329l123 -325h-147l-164 166l-324 -166h-184z" />
<glyph unicode="&#xc3;" horiz-adv-x="1585" d="M-145 0l18 86h8q52 0 92 17.5t88 60.5q28 24 53 53.5t81 104.5l815 1077h211l14 -1147q2 -101 35 -133.5t137 -32.5h23l-17 -86h-690l18 86h56q86 0 127 38t41 118l-4 295h-488l-205 -273q-32 -44 -32 -82q0 -44 35 -70t96 -26h28l-18 -86h-522zM571 664h387l-6 499z M639 1511q3 88 20 136q31 82 102.5 135t151.5 53q76 0 230 -55q103 -35 138.5 -45.5t61.5 -10.5q37 0 64.5 28t36.5 77h166q2 -134 -81.5 -228t-203.5 -94q-54 0 -217 58q-160 57 -199 57q-41 0 -69.5 -30.5t-34.5 -80.5h-166z" />
<glyph unicode="&#xc4;" horiz-adv-x="1585" d="M-145 0l18 86h8q52 0 92 17.5t88 60.5q28 24 53 53.5t81 104.5l815 1077h211l14 -1147q2 -101 35 -133.5t137 -32.5h23l-17 -86h-690l18 86h56q86 0 127 38t41 118l-4 295h-488l-205 -273q-32 -44 -32 -82q0 -44 35 -70t96 -26h28l-18 -86h-522zM571 664h387l-6 499z M678 1649q0 57 41 97t98 40t97 -40t40 -97t-40 -98.5t-97 -41.5q-58 0 -98.5 40.5t-40.5 99.5zM1282 1649q0 57 40.5 97t96.5 40q57 0 98.5 -40t41.5 -97t-41 -98.5t-97 -41.5q-58 0 -98.5 40.5t-40.5 99.5z" />
<glyph unicode="&#xc5;" horiz-adv-x="1585" d="M-145 0l18 86h8q52 0 92 17.5t88 60.5q41 36 134 158l776 1028q-117 72 -117 206q0 109 77 187t185 78q107 0 183.5 -76.5t76.5 -185.5q0 -77 -41.5 -140.5t-113.5 -97.5l14 -1069q2 -101 35 -133.5t137 -32.5h23l-17 -86h-690l18 86h56q86 0 127 38t41 118l-4 295h-488 l-205 -273q-32 -44 -32 -82q0 -44 35 -70t96 -26h28l-18 -86h-522zM571 664h387l-6 499zM973 1563q0 -61 41.5 -103.5t101.5 -42.5t102 42.5t42 101.5q0 60 -42 101.5t-102 41.5q-59 0 -101 -41.5t-42 -99.5z" />
<glyph unicode="&#xc6;" horiz-adv-x="2099" d="M-143 0l16 86q85 7 165 67t179 183l672 842q22 28 22 55q0 14 -8 26t-20 15q-8 4 -66 4h-61l18 88h1325l-67 -330h-105q6 41 6 54q0 99 -90 151q-34 19 -74.5 26t-121.5 7h-287l-109 -539h289q112 0 165 33t79 119h90l-90 -438h-90q16 55 16 79q0 56 -45 85.5t-131 29.5 h-301l-76 -369q-8 -37 -8 -65q0 -56 37.5 -85.5t109.5 -29.5h90q151 0 274 58t238 184h101l-119 -336h-1221l19 86h8q40 0 79 16.5t62 42.5q36 39 62 164l43 217h-445l-188 -233q-59 -76 -59 -123q0 -37 30 -60.5t76 -23.5h33l-17 -86h-505zM561 618h389l135 660z" />
<glyph unicode="&#xc7;" horiz-adv-x="1581" d="M143 582q0 146 62 294t166 254q125 126 316.5 196.5t410.5 70.5q263 0 471 -86l-84 -348h-88q2 14 2 28q0 46 -18.5 98t-49.5 93q-44 57 -117.5 89t-162.5 32q-134 0 -257 -66.5t-202 -181.5q-143 -205 -143 -518q0 -98 17 -167t56 -132q54 -88 128 -128t181 -40 q110 0 214 43t180 120q42 42 100 117h88l-110 -350h-50q-32 29 -75 29q-26 0 -50.5 -4.5t-119.5 -26.5q-123 -29 -213 -29l-15 -57q76 -7 120 -50.5t44 -109.5q0 -117 -121.5 -187.5t-322.5 -70.5q-29 0 -49 2l18 76q117 -1 189.5 30.5t72.5 84.5q0 54 -90 69l64 217 q-243 25 -402.5 198t-159.5 411z" />
<glyph unicode="&#xc8;" horiz-adv-x="1449" d="M8 0l19 86h8q94 0 145 57q34 40 60 166l157 781q11 64 11 73q0 60 -37 87.5t-117 27.5h-39l16 88h1215l-66 -330h-104q4 46 4 47q0 111 -84 158q-37 20 -77.5 26.5t-131.5 6.5h-274l-111 -541h291q118 0 163 28.5t79 125.5h88l-90 -443h-89q15 53 15 80q0 60 -40 88.5 t-126 28.5h-309l-76 -371q-8 -39 -8 -63q0 -60 49 -92q22 -14 43.5 -18.5t71.5 -4.5h90q77 0 167.5 26t157.5 66q85 54 172 154h99l-121 -338h-1221zM449 1843h382l216 -330h-181z" />
<glyph unicode="&#xc9;" horiz-adv-x="1449" d="M8 0l19 86h8q94 0 145 57q34 40 60 166l157 781q11 64 11 73q0 60 -37 87.5t-117 27.5h-39l16 88h1215l-66 -330h-104q4 46 4 47q0 111 -84 158q-37 20 -77.5 26.5t-131.5 6.5h-274l-111 -541h291q118 0 163 28.5t79 125.5h88l-90 -443h-89q15 53 15 80q0 60 -40 88.5 t-126 28.5h-309l-76 -371q-8 -39 -8 -63q0 -60 49 -92q22 -14 43.5 -18.5t71.5 -4.5h90q77 0 167.5 26t157.5 66q85 54 172 154h99l-121 -338h-1221zM813 1511l217 332h387l-422 -332h-182z" />
<glyph unicode="&#xca;" horiz-adv-x="1449" d="M8 0l19 86h8q94 0 145 57q34 40 60 166l157 781q11 64 11 73q0 60 -37 87.5t-117 27.5h-39l16 88h1215l-66 -330h-104q4 46 4 47q0 111 -84 158q-37 20 -77.5 26.5t-131.5 6.5h-274l-111 -541h291q118 0 163 28.5t79 125.5h88l-90 -443h-89q15 53 15 80q0 60 -40 88.5 t-126 28.5h-309l-76 -371q-8 -39 -8 -63q0 -60 49 -92q22 -14 43.5 -18.5t71.5 -4.5h90q77 0 167.5 26t157.5 66q85 54 172 154h99l-121 -338h-1221zM498 1530l366 325h330l123 -325h-148l-163 166l-324 -166h-184z" />
<glyph unicode="&#xcb;" horiz-adv-x="1449" d="M8 0l19 86h8q94 0 145 57q34 40 60 166l157 781q11 64 11 73q0 60 -37 87.5t-117 27.5h-39l16 88h1215l-66 -330h-104q4 46 4 47q0 111 -84 158q-37 20 -77.5 26.5t-131.5 6.5h-274l-111 -541h291q118 0 163 28.5t79 125.5h88l-90 -443h-89q15 53 15 80q0 60 -40 88.5 t-126 28.5h-309l-76 -371q-8 -39 -8 -63q0 -60 49 -92q22 -14 43.5 -18.5t71.5 -4.5h90q77 0 167.5 26t157.5 66q85 54 172 154h99l-121 -338h-1221zM489 1649q0 57 41.5 97t98.5 40t97 -40t40 -97t-40 -98.5t-97 -41.5q-59 0 -99.5 40.5t-40.5 99.5zM1094 1649 q0 57 40.5 97t96.5 40q57 0 98 -40t41 -97t-40.5 -98.5t-96.5 -41.5q-58 0 -98.5 40.5t-40.5 99.5z" />
<glyph unicode="&#xcc;" horiz-adv-x="808" d="M-20 0l18 86h25q107 0 155 57q38 47 62 166l157 778q9 52 9 76q0 115 -152 115h-41l18 88h693l-17 -88h-10q-100 0 -149.5 -39.5t-69.5 -134.5l-170 -830q-10 -54 -10 -71q0 -56 36.5 -86.5t102.5 -30.5h72l-17 -86h-712zM127 1843h383l215 -330h-180z" />
<glyph unicode="&#xcd;" horiz-adv-x="808" d="M-20 0l18 86h25q107 0 155 57q38 47 62 166l157 778q9 52 9 76q0 115 -152 115h-41l18 88h693l-17 -88h-10q-100 0 -149.5 -39.5t-69.5 -134.5l-170 -830q-10 -54 -10 -71q0 -56 36.5 -86.5t102.5 -30.5h72l-17 -86h-712zM492 1511l217 332h387l-422 -332h-182z" />
<glyph unicode="&#xce;" horiz-adv-x="808" d="M-20 0l18 86h25q107 0 155 57q38 47 62 166l157 778q9 52 9 76q0 115 -152 115h-41l18 88h693l-17 -88h-10q-100 0 -149.5 -39.5t-69.5 -134.5l-170 -830q-10 -54 -10 -71q0 -56 36.5 -86.5t102.5 -30.5h72l-17 -86h-712zM217 1530l367 325h329l123 -325h-147l-164 166 l-324 -166h-184z" />
<glyph unicode="&#xcf;" horiz-adv-x="808" d="M-20 0l18 86h25q107 0 155 57q38 47 62 166l157 778q9 52 9 76q0 115 -152 115h-41l18 88h693l-17 -88h-10q-100 0 -149.5 -39.5t-69.5 -134.5l-170 -830q-10 -54 -10 -71q0 -56 36.5 -86.5t102.5 -30.5h72l-17 -86h-712zM264 1649q0 57 41 97t98 40t97.5 -40t40.5 -97 t-40.5 -98.5t-97.5 -41.5q-58 0 -98.5 40.5t-40.5 99.5zM719 1649q0 57 40.5 97t96.5 40q57 0 98 -40t41 -97t-40.5 -98.5t-96.5 -41.5q-58 0 -98.5 40.5t-40.5 99.5z" />
<glyph unicode="&#xd0;" horiz-adv-x="1761" d="M-8 0l18 86h23q111 0 160 76q26 40 47 149l65 328h-178l18 96h181l71 355q9 52 9 75q0 58 -37 85.5t-115 27.5h-45l18 88h738q266 0 450 -88q136 -64 211.5 -198.5t75.5 -311.5q0 -219 -111 -395.5t-311 -276.5q-113 -57 -229.5 -76.5t-333.5 -19.5h-725zM502 211 q0 -68 41 -94.5t145 -26.5t161 8t118 31q267 96 364 348q62 159 62 311q0 127 -50 232.5t-139 167.5q-69 47 -150.5 66.5t-213.5 19.5h-129l-109 -539h369l-21 -96h-366l-72 -342q-10 -47 -10 -86z" />
<glyph unicode="&#xd1;" horiz-adv-x="1697" d="M23 0l16 86q72 -1 125.5 59t75.5 166l174 863l-27 38q-56 65 -160 68l19 86h362l735 -1016l142 692q8 39 8 80q0 75 -43.5 113.5t-138.5 44.5l18 86h479l-18 -86q-170 -27 -217 -256l-209 -1036h-94l-783 1087l-149 -739q-10 -55 -10 -80q0 -72 52 -119t138 -51l-18 -86 h-477zM612 1511q3 85 21 136q31 82 102.5 135t151.5 53q75 0 229 -55q102 -35 138.5 -45.5t62.5 -10.5q37 0 64 28t36 77h166q2 -134 -81.5 -228t-203.5 -94q-54 0 -217 58q-160 57 -198 57q-41 0 -70 -30.5t-35 -80.5h-166z" />
<glyph unicode="&#xd2;" horiz-adv-x="1810" d="M162 637q0 138 53 269.5t150 232.5q246 258 651 258q218 0 381 -82.5t258 -241.5q90 -149 90 -342q0 -159 -65 -300t-176.5 -242.5t-266.5 -160.5t-330 -59q-393 0 -602 258q-75 91 -109 189t-34 221zM465 530q0 -215 111.5 -339.5t304.5 -124.5q300 0 454 307 q51 102 82 230.5t31 242.5q0 203 -115 330t-299 127q-136 0 -250 -71t-188 -200q-60 -106 -95.5 -241t-35.5 -261zM627 1843h383l215 -330h-181z" />
<glyph unicode="&#xd3;" horiz-adv-x="1810" d="M162 637q0 138 53 269.5t150 232.5q246 258 651 258q218 0 381 -82.5t258 -241.5q90 -149 90 -342q0 -159 -65 -300t-176.5 -242.5t-266.5 -160.5t-330 -59q-393 0 -602 258q-75 91 -109 189t-34 221zM465 530q0 -215 111.5 -339.5t304.5 -124.5q300 0 454 307 q51 102 82 230.5t31 242.5q0 203 -115 330t-299 127q-136 0 -250 -71t-188 -200q-60 -106 -95.5 -241t-35.5 -261zM979 1511l217 332h387l-422 -332h-182z" />
<glyph unicode="&#xd4;" horiz-adv-x="1810" d="M162 637q0 138 53 269.5t150 232.5q246 258 651 258q218 0 381 -82.5t258 -241.5q90 -149 90 -342q0 -159 -65 -300t-176.5 -242.5t-266.5 -160.5t-330 -59q-393 0 -602 258q-75 91 -109 189t-34 221zM465 530q0 -215 111.5 -339.5t304.5 -124.5q300 0 454 307 q51 102 82 230.5t31 242.5q0 203 -115 330t-299 127q-136 0 -250 -71t-188 -200q-60 -106 -95.5 -241t-35.5 -261zM717 1530l366 325h330l123 -325h-147l-164 166l-324 -166h-184z" />
<glyph unicode="&#xd5;" horiz-adv-x="1810" d="M162 637q0 138 53 269.5t150 232.5q246 258 651 258q218 0 381 -82.5t258 -241.5q90 -149 90 -342q0 -159 -65 -300t-176.5 -242.5t-266.5 -160.5t-330 -59q-393 0 -602 258q-75 91 -109 189t-34 221zM465 530q0 -215 111.5 -339.5t304.5 -124.5q300 0 454 307 q51 102 82 230.5t31 242.5q0 203 -115 330t-299 127q-136 0 -250 -71t-188 -200q-60 -106 -95.5 -241t-35.5 -261zM690 1526q5 135 77 216t189 81q42 0 81 -13t165 -67q69 -31 107 -31q42 0 73 28.5t43 76.5h140q-3 -126 -79 -210.5t-188 -84.5q-47 0 -90.5 14.5 t-185.5 79.5q-47 20 -78 20q-43 0 -75 -30.5t-38 -79.5h-141z" />
<glyph unicode="&#xd6;" horiz-adv-x="1810" d="M162 637q0 138 53 269.5t150 232.5q246 258 651 258q218 0 381 -82.5t258 -241.5q90 -149 90 -342q0 -159 -65 -300t-176.5 -242.5t-266.5 -160.5t-330 -59q-393 0 -602 258q-75 91 -109 189t-34 221zM465 530q0 -215 111.5 -339.5t304.5 -124.5q300 0 454 307 q51 102 82 230.5t31 242.5q0 203 -115 330t-299 127q-136 0 -250 -71t-188 -200q-60 -106 -95.5 -241t-35.5 -261zM682 1649q0 57 41 97t98 40t97 -40t40 -97t-40 -98.5t-97 -41.5q-58 0 -98.5 40.5t-40.5 99.5zM1286 1649q0 57 40.5 97t96.5 40q57 0 98.5 -40t41.5 -97 t-41 -98.5t-97 -41.5q-58 0 -98.5 40.5t-40.5 99.5z" />
<glyph unicode="&#xd7;" d="M174 362l295 295l-295 295l86 86l295 -295l295 295l86 -86l-295 -295l295 -295l-86 -86l-295 295l-295 -295z" />
<glyph unicode="&#xd8;" horiz-adv-x="1810" d="M162 629q0 295 203 510q243 258 649 258q237 0 405 -94l137 163l72 -59l-133 -156q250 -197 250 -520q0 -159 -65 -300t-176.5 -242.5t-267 -160.5t-329.5 -59q-117 0 -228.5 27t-191.5 74l-137 -162l-69 59l131 154q-250 201 -250 508zM465 520q0 -165 63 -262l793 930 q-118 115 -287 115q-135 0 -251.5 -72t-188.5 -199q-61 -109 -95 -243t-34 -269zM584 182q113 -116 293 -116q305 0 458 307q51 101 82 230.5t31 240.5q0 158 -70 270z" />
<glyph unicode="&#xd9;" horiz-adv-x="1644" d="M193 1278l18 88h672l-17 -88h-8q-100 0 -149.5 -39.5t-69.5 -134.5l-127 -619q-18 -105 -18 -151q0 -110 100 -182t254 -72q216 0 348 135q119 119 164 385l65 395q15 103 15 111q0 70 -50.5 112.5t-154.5 59.5l16 88h508l-18 -88q-96 -12 -146 -75t-73 -199l-66 -381 q-34 -198 -88.5 -316t-150.5 -201q-88 -73 -184.5 -105t-231.5 -32q-152 0 -259.5 33t-189.5 104q-127 112 -127 277q0 35 4 60.5t21 109.5l108 534q9 52 9 74q0 117 -152 117h-22zM588 1843h383l215 -330h-180z" />
<glyph unicode="&#xda;" horiz-adv-x="1644" d="M193 1278l18 88h672l-17 -88h-8q-100 0 -149.5 -39.5t-69.5 -134.5l-127 -619q-18 -105 -18 -151q0 -110 100 -182t254 -72q216 0 348 135q119 119 164 385l65 395q15 103 15 111q0 70 -50.5 112.5t-154.5 59.5l16 88h508l-18 -88q-96 -12 -146 -75t-73 -199l-66 -381 q-34 -198 -88.5 -316t-150.5 -201q-88 -73 -184.5 -105t-231.5 -32q-152 0 -259.5 33t-189.5 104q-127 112 -127 277q0 35 4 60.5t21 109.5l108 534q9 52 9 74q0 117 -152 117h-22zM952 1511l217 332h387l-421 -332h-183z" />
<glyph unicode="&#xdb;" horiz-adv-x="1644" d="M193 1278l18 88h672l-17 -88h-8q-100 0 -149.5 -39.5t-69.5 -134.5l-127 -619q-18 -105 -18 -151q0 -110 100 -182t254 -72q216 0 348 135q119 119 164 385l65 395q15 103 15 111q0 70 -50.5 112.5t-154.5 59.5l16 88h508l-18 -88q-96 -12 -146 -75t-73 -199l-66 -381 q-34 -198 -88.5 -316t-150.5 -201q-88 -73 -184.5 -105t-231.5 -32q-152 0 -259.5 33t-189.5 104q-127 112 -127 277q0 35 4 60.5t21 109.5l108 534q9 52 9 74q0 117 -152 117h-22zM676 1530l366 325h330l123 -325h-147l-164 166l-324 -166h-184z" />
<glyph unicode="&#xdc;" horiz-adv-x="1644" d="M193 1278l18 88h672l-17 -88h-8q-100 0 -149.5 -39.5t-69.5 -134.5l-127 -619q-18 -105 -18 -151q0 -110 100 -182t254 -72q216 0 348 135q119 119 164 385l65 395q15 103 15 111q0 70 -50.5 112.5t-154.5 59.5l16 88h508l-18 -88q-96 -12 -146 -75t-73 -199l-66 -381 q-34 -198 -88.5 -316t-150.5 -201q-88 -73 -184.5 -105t-231.5 -32q-152 0 -259.5 33t-189.5 104q-127 112 -127 277q0 35 4 60.5t21 109.5l108 534q9 52 9 74q0 117 -152 117h-22zM670 1649q0 57 41 97t98 40t97 -40t40 -97t-40 -98.5t-97 -41.5q-58 0 -98.5 40.5 t-40.5 99.5zM1274 1649q0 57 40.5 97t96.5 40q57 0 98 -40t41 -97t-40.5 -98.5t-96.5 -41.5q-58 0 -98.5 40.5t-40.5 99.5z" />
<glyph unicode="&#xdd;" horiz-adv-x="1464" d="M174 1280l19 86h563l-17 -86q-108 -3 -108 -57q0 -18 22 -66l224 -483l378 428q48 53 48 82q0 38 -35.5 63t-100.5 33l19 86h440l-18 -86l-72 -35q-16 -7 -31.5 -19t-56 -53t-107.5 -116l-438 -494l-57 -289q-10 -55 -10 -71q0 -57 35.5 -87t103.5 -30h86l-19 -86h-731 l17 86h32q100 0 144.5 46t70.5 177l52 254l-271 584q-32 78 -69.5 104.5t-112.5 28.5zM860 1511l217 332h387l-422 -332h-182z" />
<glyph unicode="&#xde;" horiz-adv-x="1400" d="M-10 0l18 86h17q104 0 155 57q35 43 60 166l159 781q9 40 9 73q0 115 -154 115h-45l18 88h688l-18 -88h-16q-88 0 -132.5 -34.5t-66.5 -119.5h178q237 0 369.5 -102t132.5 -285q0 -138 -71.5 -252t-196 -178.5t-275.5 -64.5q-102 0 -170 20l19 84q27 -6 49 -6 q160 0 246 123q90 126 90 309q0 157 -92 219q-33 23 -72 31t-115 8h-110l-154 -756q-10 -55 -10 -71q0 -56 36 -86.5t103 -30.5h66l-19 -86h-696z" />
<glyph unicode="&#xdf;" horiz-adv-x="1048" d="M-422 -375q0 46 37.5 78.5t89.5 32.5q75 0 125 -76q35 -52 54.5 -69t43.5 -17q13 0 23 3.5t20.5 15.5t18 27t17 46t17.5 65t19 90t21.5 115.5t25.5 147.5l139 825q17 100 38.5 164t58.5 131q73 130 185 201.5t241 71.5q136 0 221.5 -75.5t85.5 -195.5q0 -197 -211 -305 q-102 -51 -148 -59q124 -29 189 -113.5t65 -216.5q0 -224 -141.5 -378t-345.5 -154q-23 0 -41 2l8 53q127 25 196.5 152.5t69.5 334.5q0 208 -120 297l8 49q106 19 171.5 123.5t65.5 255.5q0 77 -34 123.5t-89 46.5q-51 0 -88.5 -36t-70.5 -113q-22 -53 -34.5 -108 t-37.5 -204l-127 -757q-32 -191 -61.5 -289t-77.5 -172q-157 -244 -404 -244q-95 0 -159 37.5t-64 93.5z" />
<glyph unicode="&#xe0;" horiz-adv-x="1003" d="M53 193q0 112 50 230.5t141 221.5q174 198 374 250q118 27 187 27q2 0 7 -1t21 -2t44 -1h32l-143 -705q-10 -46 -10 -63q0 -9 5 -15t13 -6q14 0 62.5 41t89.5 88v-72q-75 -86 -166.5 -146t-147.5 -60q-43 0 -66.5 34.5t-23.5 94.5q0 45 17 139q-153 -156 -224.5 -214.5 t-109.5 -58.5q-29 0 -64 26.5t-57 64.5q-31 51 -31 127zM258 328q0 -66 25 -108t63 -42q41 0 115 68q25 20 74 69l22 23l92 446q-12 2 -28 2q-73 0 -143.5 -37.5t-115.5 -101.5q-49 -66 -76.5 -150.5t-27.5 -168.5zM350 1411h258l148 -362h-162z" />
<glyph unicode="&#xe1;" horiz-adv-x="1003" d="M53 193q0 112 50 230.5t141 221.5q174 198 374 250q118 27 187 27q2 0 7 -1t21 -2t44 -1h32l-143 -705q-10 -46 -10 -63q0 -9 5 -15t13 -6q14 0 62.5 41t89.5 88v-72q-75 -86 -166.5 -146t-147.5 -60q-43 0 -66.5 34.5t-23.5 94.5q0 45 17 139q-153 -156 -224.5 -214.5 t-109.5 -58.5q-29 0 -64 26.5t-57 64.5q-31 51 -31 127zM258 328q0 -66 25 -108t63 -42q41 0 115 68q25 20 74 69l22 23l92 446q-12 2 -28 2q-73 0 -143.5 -37.5t-115.5 -101.5q-49 -66 -76.5 -150.5t-27.5 -168.5zM551 1053l145 358h256l-239 -358h-162z" />
<glyph unicode="&#xe2;" horiz-adv-x="1003" d="M53 193q0 112 50 230.5t141 221.5q174 198 374 250q118 27 187 27q2 0 7 -1t21 -2t44 -1h32l-143 -705q-10 -46 -10 -63q0 -9 5 -15t13 -6q14 0 62.5 41t89.5 88v-72q-75 -86 -166.5 -146t-147.5 -60q-43 0 -66.5 34.5t-23.5 94.5q0 45 17 139q-153 -156 -224.5 -214.5 t-109.5 -58.5q-29 0 -64 26.5t-57 64.5q-31 51 -31 127zM258 328q0 -66 25 -108t63 -42q41 0 115 68q25 20 74 69l22 23l92 446q-12 2 -28 2q-73 0 -143.5 -37.5t-115.5 -101.5q-49 -66 -76.5 -150.5t-27.5 -168.5zM315 1051l303 360h291l82 -360h-164l-82 170l-272 -170 h-158z" />
<glyph unicode="&#xe3;" horiz-adv-x="1003" d="M53 193q0 112 50 230.5t141 221.5q174 198 374 250q118 27 187 27q2 0 7 -1t21 -2t44 -1h32l-143 -705q-10 -46 -10 -63q0 -9 5 -15t13 -6q14 0 62.5 41t89.5 88v-72q-75 -86 -166.5 -146t-147.5 -60q-43 0 -66.5 34.5t-23.5 94.5q0 45 17 139q-153 -156 -224.5 -214.5 t-109.5 -58.5q-29 0 -64 26.5t-57 64.5q-31 51 -31 127zM258 328q0 -66 25 -108t63 -42q41 0 115 68q25 20 74 69l22 23l92 446q-12 2 -28 2q-73 0 -143.5 -37.5t-115.5 -101.5q-49 -66 -76.5 -150.5t-27.5 -168.5zM276 1075q1 139 65 225t165 86q31 0 62 -9.5t104 -41.5 q116 -49 153 -49q64 0 86 98h142q-8 -124 -47 -194q-29 -54 -77.5 -85.5t-99.5 -31.5q-28 0 -61 10t-115 45q-107 43 -145 43q-36 0 -56.5 -23t-29.5 -73h-146z" />
<glyph unicode="&#xe4;" horiz-adv-x="1003" d="M53 193q0 112 50 230.5t141 221.5q174 198 374 250q118 27 187 27q2 0 7 -1t21 -2t44 -1h32l-143 -705q-10 -46 -10 -63q0 -9 5 -15t13 -6q14 0 62.5 41t89.5 88v-72q-75 -86 -166.5 -146t-147.5 -60q-43 0 -66.5 34.5t-23.5 94.5q0 45 17 139q-153 -156 -224.5 -214.5 t-109.5 -58.5q-29 0 -64 26.5t-57 64.5q-31 51 -31 127zM258 328q0 -66 25 -108t63 -42q41 0 115 68q25 20 74 69l22 23l92 446q-12 2 -28 2q-73 0 -143.5 -37.5t-115.5 -101.5q-49 -66 -76.5 -150.5t-27.5 -168.5zM319 1231q0 52 38.5 89.5t91.5 37.5q52 0 89 -37t37 -90 q0 -54 -36.5 -91.5t-89.5 -37.5q-54 0 -92 37.5t-38 91.5zM750 1231q0 52 38 89.5t91 37.5t90 -37t37 -90q0 -54 -37 -91.5t-90 -37.5q-54 0 -91.5 37.5t-37.5 91.5z" />
<glyph unicode="&#xe5;" horiz-adv-x="1003" d="M53 193q0 112 50 230.5t141 221.5q174 198 374 250q118 27 187 27q2 0 7 -1t21 -2t44 -1h32l-143 -705q-10 -46 -10 -63q0 -9 5 -15t13 -6q14 0 62.5 41t89.5 88v-72q-75 -86 -166.5 -146t-147.5 -60q-43 0 -66.5 34.5t-23.5 94.5q0 45 17 139q-153 -156 -224.5 -214.5 t-109.5 -58.5q-29 0 -64 26.5t-57 64.5q-31 51 -31 127zM258 328q0 -66 25 -108t63 -42q41 0 115 68q25 20 74 69l22 23l92 446q-12 2 -28 2q-73 0 -143.5 -37.5t-115.5 -101.5q-49 -66 -76.5 -150.5t-27.5 -168.5zM444 1245q0 88 64.5 150.5t153.5 62.5t152 -63t63 -152 t-63 -153t-152 -64q-91 0 -154.5 63.5t-63.5 155.5zM522 1243q0 -58 40.5 -98.5t99.5 -40.5q57 0 97 40.5t40 96.5q0 57 -40 98t-97 41t-98.5 -40t-41.5 -97z" />
<glyph unicode="&#xe6;" horiz-adv-x="1357" d="M55 203q0 99 45.5 211t126.5 213q234 293 621 293h59l-12 -68q76 38 127.5 53t107.5 15q97 0 148 -42t51 -122q0 -85 -63 -153t-181 -111q-137 -52 -251 -76q-11 -54 -11 -99q0 -206 189 -206q95 0 243 110l29 -45q-103 -87 -230 -141.5t-223 -54.5q-109 0 -180 71 t-71 180v27l-88 -82q-121 -115 -179.5 -157t-99.5 -42q-69 0 -113.5 64t-44.5 162zM252 322q0 -60 29 -105t69 -45q41 0 109 50t127 124l90 438h-37q-207 0 -317 -200q-70 -127 -70 -262zM844 473q132 25 207 101t75 186q0 43 -22 70.5t-57 27.5q-65 0 -108 -81.5 t-95 -303.5z" />
<glyph unicode="&#xe7;" horiz-adv-x="753" d="M57 -506l13 57q95 3 160 53t65 120q0 37 -21 61t-61 31l72 161q-108 11 -166 76.5t-58 179.5q0 103 43 225.5t115 225.5q82 115 182 175.5t209 60.5q65 0 102.5 -31.5t37.5 -85.5q0 -51 -31 -83t-82 -32q-62 0 -119 60q-22 23 -34 30.5t-29 7.5q-40 0 -71.5 -49.5 t-48 -124t-24.5 -146t-8 -130.5q0 -110 37 -168.5t106 -58.5q49 0 103 32.5t94 85.5l41 -32q-53 -86 -148.5 -148.5t-189.5 -69.5l-18 -36q141 -38 141 -158q0 -69 -46 -134.5t-122 -103.5q-99 -48 -244 -51z" />
<glyph unicode="&#xe8;" horiz-adv-x="835" d="M70 266q0 103 44.5 220t123.5 219q76 101 179 158t206 57q82 0 130 -44t48 -118q0 -146 -195 -244q-128 -65 -278 -96q-15 -73 -15 -123q0 -86 47 -136t127 -50q51 0 106 24t138 82l29 -41q-97 -82 -228 -140.5t-217 -58.5q-110 0 -177.5 80t-67.5 211zM276 1411h259 l147 -362h-162zM338 471l16 6q120 30 183 103t63 176q0 42 -18.5 68t-49.5 26q-109 0 -194 -379z" />
<glyph unicode="&#xe9;" horiz-adv-x="835" d="M70 266q0 103 44.5 220t123.5 219q76 101 179 158t206 57q82 0 130 -44t48 -118q0 -146 -195 -244q-128 -65 -278 -96q-15 -73 -15 -123q0 -86 47 -136t127 -50q51 0 106 24t138 82l29 -41q-97 -82 -228 -140.5t-217 -58.5q-110 0 -177.5 80t-67.5 211zM338 471l16 6 q120 30 183 103t63 176q0 42 -18.5 68t-49.5 26q-109 0 -194 -379zM506 1053l145 358h256l-239 -358h-162z" />
<glyph unicode="&#xea;" horiz-adv-x="835" d="M70 266q0 103 44.5 220t123.5 219q76 101 179 158t206 57q82 0 130 -44t48 -118q0 -146 -195 -244q-128 -65 -278 -96q-15 -73 -15 -123q0 -86 47 -136t127 -50q51 0 106 24t138 82l29 -41q-97 -82 -228 -140.5t-217 -58.5q-110 0 -177.5 80t-67.5 211zM258 1051l303 360 h291l82 -360h-164l-82 170l-272 -170h-158zM338 471l16 6q120 30 183 103t63 176q0 42 -18.5 68t-49.5 26q-109 0 -194 -379z" />
<glyph unicode="&#xeb;" horiz-adv-x="835" d="M70 266q0 103 44.5 220t123.5 219q76 101 179 158t206 57q82 0 130 -44t48 -118q0 -146 -195 -244q-128 -65 -278 -96q-15 -73 -15 -123q0 -86 47 -136t127 -50q51 0 106 24t138 82l29 -41q-97 -82 -228 -140.5t-217 -58.5q-110 0 -177.5 80t-67.5 211zM233 1231 q0 52 38 89.5t91 37.5q52 0 89.5 -37t37.5 -90q0 -54 -37 -91.5t-90 -37.5q-54 0 -91.5 37.5t-37.5 91.5zM338 471l16 6q120 30 183 103t63 176q0 42 -18.5 68t-49.5 26q-109 0 -194 -379zM664 1231q0 52 38 89.5t91 37.5t90 -37t37 -90q0 -54 -37 -91.5t-90 -37.5 q-54 0 -91.5 37.5t-37.5 91.5z" />
<glyph unicode="&#xec;" horiz-adv-x="616" d="M70 655q199 265 331 265q41 0 68 -35t27 -90q0 -51 -23 -148l-106 -448q-11 -45 -11 -56q0 -13 8 -22.5t19 -9.5q24 0 68 33t86 83l38 -37q-71 -88 -168.5 -150.5t-164.5 -62.5q-52 0 -85.5 37.5t-33.5 94.5t51 268l68 287q8 32 8 53q0 22 -23 22q-31 0 -116 -118z M86 1411h258l148 -362h-162z" />
<glyph unicode="&#xed;" horiz-adv-x="616" d="M70 655q199 265 331 265q41 0 68 -35t27 -90q0 -51 -23 -148l-106 -448q-11 -45 -11 -56q0 -13 8 -22.5t19 -9.5q24 0 68 33t86 83l38 -37q-71 -88 -168.5 -150.5t-164.5 -62.5q-52 0 -85.5 37.5t-33.5 94.5t51 268l68 287q8 32 8 53q0 22 -23 22q-31 0 -116 -118z M342 1053l145 358h256l-239 -358h-162z" />
<glyph unicode="&#xee;" horiz-adv-x="616" d="M53 1051l303 360h291l82 -360h-164l-82 170l-272 -170h-158zM70 655q199 265 331 265q41 0 68 -35t27 -90q0 -54 -23 -148l-106 -448q-11 -45 -11 -56q0 -13 8 -22.5t19 -9.5q24 0 68 33t86 83l38 -37q-71 -88 -168.5 -150.5t-164.5 -62.5q-52 0 -85.5 37.5t-33.5 94.5 q0 49 51 268l68 287q8 28 8 53q0 22 -23 22q-15 0 -46 -31t-70 -87z" />
<glyph unicode="&#xef;" horiz-adv-x="616" d="M70 655q199 265 331 265q41 0 68 -35t27 -90q0 -51 -23 -148l-106 -448q-11 -45 -11 -56q0 -13 8 -22.5t19 -9.5q24 0 68 33t86 83l38 -37q-71 -88 -168.5 -150.5t-164.5 -62.5q-52 0 -85.5 37.5t-33.5 94.5t51 268l68 287q8 32 8 53q0 22 -23 22q-31 0 -116 -118z M125 1231q0 52 38 89.5t91 37.5q52 0 89.5 -37t37.5 -90q0 -54 -37 -91.5t-90 -37.5q-54 0 -91.5 37.5t-37.5 91.5zM487 1231q0 52 38 89.5t91 37.5q52 0 89.5 -37t37.5 -90q0 -54 -37 -91.5t-90 -37.5q-54 0 -91.5 37.5t-37.5 91.5z" />
<glyph unicode="&#xf0;" horiz-adv-x="978" d="M74 295q0 136 68.5 269t187.5 227q73 57 148 89.5t132 32.5q25 0 45 -10q0 174 -45 305l-217 -67l-18 63l209 66q-39 73 -99 141l50 57q112 -79 178 -159l217 67l18 -61l-190 -60q168 -234 168 -518q0 -173 -54.5 -322t-152.5 -247q-85 -85 -197 -138t-207 -53 q-107 0 -174 88.5t-67 229.5zM328 350q0 -121 33.5 -200.5t84.5 -79.5q49 0 97 71t78 184t30 228q0 111 -35 193t-84 83q-47 2 -95 -69t-78.5 -184t-30.5 -226z" />
<glyph unicode="&#xf1;" horiz-adv-x="1120" d="M55 623q75 121 178.5 209t169.5 88q40 0 62 -31.5t22 -87.5q0 -53 -12 -111l-31 -153q141 198 250 290.5t201 92.5q50 0 79.5 -34t29.5 -91q0 -37 -17 -109l-113 -469q-16 -70 -16 -74q0 -18 16 -18q14 0 61.5 46t86.5 99l43 -32q-67 -104 -172 -183.5t-174 -79.5 q-41 0 -71 36t-30 87q0 32 19 113l102 438q9 39 9 45q0 18 -10 29.5t-25 11.5q-25 0 -51.5 -21.5t-73.5 -80.5q-114 -140 -166 -209l-72 -352q-10 -54 -24 -69t-52 -15h-116q-28 0 -40 7t-12 25q0 3 0.5 6.5t2 8t4.5 17.5t6 30l119 588q8 41 8 47q0 18 -15 18 q-36 0 -133 -141zM319 1075q1 139 65 225t165 86q31 0 62 -9.5t104 -41.5q116 -49 153 -49q64 0 86 98h142q-8 -124 -47 -194q-29 -54 -77.5 -85.5t-99.5 -31.5q-28 0 -61 10t-115 45q-107 43 -145 43q-36 0 -56.5 -23t-29.5 -73h-146z" />
<glyph unicode="&#xf2;" horiz-adv-x="978" d="M74 299q0 151 86 296t224.5 235t283.5 90q107 0 171 -88t64 -236q0 -114 -49 -227t-135 -201q-85 -85 -197 -138t-207 -53q-109 0 -175 88t-66 234zM309 1411h258l148 -362h-162zM328 350q0 -121 33.5 -200.5t84.5 -79.5q49 0 97 71t78 184t30 228q0 111 -35 193t-84 83 q-47 2 -95 -69t-78.5 -184t-30.5 -226z" />
<glyph unicode="&#xf3;" horiz-adv-x="978" d="M74 299q0 151 86 296t224.5 235t283.5 90q107 0 171 -88t64 -236q0 -114 -49 -227t-135 -201q-85 -85 -197 -138t-207 -53q-109 0 -175 88t-66 234zM328 350q0 -121 33.5 -200.5t84.5 -79.5q49 0 97 71t78 184t30 228q0 111 -35 193t-84 83q-47 2 -95 -69t-78.5 -184 t-30.5 -226zM524 1053l146 358h256l-240 -358h-162z" />
<glyph unicode="&#xf4;" horiz-adv-x="978" d="M74 299q0 151 86 296t224.5 235t283.5 90q107 0 171 -88t64 -236q0 -114 -49 -227t-135 -201q-85 -85 -197 -138t-207 -53q-109 0 -175 88t-66 234zM274 1051l304 360h290l82 -360h-164l-81 170l-273 -170h-158zM328 350q0 -121 33.5 -200.5t84.5 -79.5q49 0 97 71 t78 184t30 228q0 111 -35 193t-84 83q-47 2 -95 -69t-78.5 -184t-30.5 -226z" />
<glyph unicode="&#xf5;" horiz-adv-x="978" d="M74 299q0 151 86 296t224.5 235t283.5 90q107 0 171 -88t64 -236q0 -114 -49 -227t-135 -201q-85 -85 -197 -138t-207 -53q-109 0 -175 88t-66 234zM262 1075q1 139 65 225t165 86q31 0 61.5 -9.5t103.5 -41.5q116 -49 154 -49q64 0 86 98h141q-8 -124 -47 -194 q-29 -54 -77 -85.5t-99 -31.5q-28 0 -61 10t-115 45q-107 43 -145 43q-36 0 -56.5 -23t-29.5 -73h-146zM328 350q0 -121 33.5 -200.5t84.5 -79.5q49 0 97 71t78 184t30 228q0 111 -35 193t-84 83q-47 2 -95 -69t-78.5 -184t-30.5 -226z" />
<glyph unicode="&#xf6;" horiz-adv-x="978" d="M74 299q0 151 86 296t224.5 235t283.5 90q107 0 171 -88t64 -236q0 -114 -49 -227t-135 -201q-85 -85 -197 -138t-207 -53q-109 0 -175 88t-66 234zM305 1231q0 52 38 89.5t91 37.5q52 0 89.5 -37t37.5 -90q0 -54 -37 -91.5t-90 -37.5q-54 0 -91.5 37.5t-37.5 91.5z M328 350q0 -121 33.5 -200.5t84.5 -79.5q49 0 97 71t78 184t30 228q0 111 -35 193t-84 83q-47 2 -95 -69t-78.5 -184t-30.5 -226zM735 1231q0 52 38 89.5t91 37.5q52 0 89.5 -37t37.5 -90q0 -54 -37 -91.5t-90 -37.5q-54 0 -91.5 37.5t-37.5 91.5z" />
<glyph unicode="&#xf7;" d="M119 596v123h874v-123h-874zM444 315q0 47 33.5 80t79.5 33t78.5 -33.5t32.5 -79.5q0 -44 -33.5 -77t-77.5 -33q-46 0 -79.5 33t-33.5 77zM444 997q0 47 33.5 80t79.5 33t78.5 -33.5t32.5 -79.5q0 -44 -33.5 -77t-77.5 -33q-46 0 -79.5 33t-33.5 77z" />
<glyph unicode="&#xf8;" horiz-adv-x="978" d="M47 -55l94 116q-67 86 -67 232q0 154 85.5 300t224.5 236.5t286 90.5q72 0 127 -41l98 120l47 -36l-102 -127q65 -106 65 -236q0 -117 -48 -230.5t-136 -201.5q-87 -85 -199 -138t-207 -53q-73 0 -129 41l-92 -112zM328 348q0 -26 2 -51l307 383q-38 149 -105 149 q-48 0 -95.5 -71t-78 -183.5t-30.5 -226.5zM342 213q36 -143 104 -143q34 0 78.5 50t73.5 120q25 61 40 151t15 174q0 21 -4 33z" />
<glyph unicode="&#xf9;" horiz-adv-x="1101" d="M72 653q103 142 180.5 204.5t150.5 62.5q40 0 66.5 -30.5t26.5 -76.5q0 -15 -17 -104l-76 -375q-12 -66 -12 -84q0 -35 23 -35q19 0 75.5 62t116.5 149q65 93 96.5 178.5t57.5 241.5q8 43 17.5 52t49.5 9h111q31 0 42 -9t11 -34q0 -13 -4 -41l-119 -579q-10 -53 -10 -58 q0 -18 14 -18q9 0 54.5 39.5t87.5 87.5l37 -35q-88 -109 -202.5 -196t-170.5 -87q-31 0 -52.5 27t-21.5 64q0 10 14 92l56 280q-73 -114 -228 -288q-73 -82 -138 -128.5t-105 -46.5q-37 0 -57.5 28t-20.5 77q0 40 18 127l93 457q10 54 10 59q0 27 -17 27q-21 0 -116 -129z M371 1411h258l147 -362h-162z" />
<glyph unicode="&#xfa;" horiz-adv-x="1101" d="M72 653q103 142 180.5 204.5t150.5 62.5q40 0 66.5 -30.5t26.5 -76.5q0 -15 -17 -104l-76 -375q-12 -66 -12 -84q0 -35 23 -35q19 0 75.5 62t116.5 149q65 93 96.5 178.5t57.5 241.5q8 43 17.5 52t49.5 9h111q31 0 42 -9t11 -34q0 -13 -4 -41l-119 -579q-10 -53 -10 -58 q0 -18 14 -18q9 0 54.5 39.5t87.5 87.5l37 -35q-88 -109 -202.5 -196t-170.5 -87q-31 0 -52.5 27t-21.5 64q0 10 14 92l56 280q-73 -114 -228 -288q-73 -82 -138 -128.5t-105 -46.5q-37 0 -57.5 28t-20.5 77q0 40 18 127l93 457q10 54 10 59q0 27 -17 27q-21 0 -116 -129z M586 1053l145 358h256l-239 -358h-162z" />
<glyph unicode="&#xfb;" horiz-adv-x="1101" d="M72 653q103 142 180.5 204.5t150.5 62.5q40 0 66.5 -30.5t26.5 -76.5q0 -15 -17 -104l-76 -375q-12 -66 -12 -84q0 -35 23 -35q19 0 75.5 62t116.5 149q65 93 96.5 178.5t57.5 241.5q8 43 17.5 52t49.5 9h111q31 0 42 -9t11 -34q0 -13 -4 -41l-119 -579q-10 -53 -10 -58 q0 -18 14 -18q9 0 54.5 39.5t87.5 87.5l37 -35q-88 -109 -202.5 -196t-170.5 -87q-31 0 -52.5 27t-21.5 64q0 10 14 92l56 280q-73 -114 -228 -288q-73 -82 -138 -128.5t-105 -46.5q-37 0 -57.5 28t-20.5 77q0 40 18 127l93 457q10 54 10 59q0 27 -17 27q-21 0 -116 -129z M336 1051l303 360h291l82 -360h-164l-82 170l-272 -170h-158z" />
<glyph unicode="&#xfc;" horiz-adv-x="1101" d="M72 653q103 142 180.5 204.5t150.5 62.5q40 0 66.5 -30.5t26.5 -76.5q0 -15 -17 -104l-76 -375q-12 -66 -12 -84q0 -35 23 -35q19 0 75.5 62t116.5 149q65 93 96.5 178.5t57.5 241.5q8 43 17.5 52t49.5 9h111q31 0 42 -9t11 -34q0 -13 -4 -41l-119 -579q-10 -53 -10 -58 q0 -18 14 -18q9 0 54.5 39.5t87.5 87.5l37 -35q-88 -109 -202.5 -196t-170.5 -87q-31 0 -52.5 27t-21.5 64q0 10 14 92l56 280q-73 -114 -228 -288q-73 -82 -138 -128.5t-105 -46.5q-37 0 -57.5 28t-20.5 77q0 40 18 127l93 457q10 54 10 59q0 27 -17 27q-21 0 -116 -129z M367 1231q0 52 38 89.5t91 37.5q52 0 89.5 -37t37.5 -90q0 -54 -37 -91.5t-90 -37.5q-54 0 -91.5 37.5t-37.5 91.5zM797 1231q0 52 38 89.5t91 37.5q52 0 89.5 -37t37.5 -90q0 -54 -37 -91.5t-90 -37.5q-54 0 -91.5 37.5t-37.5 91.5z" />
<glyph unicode="&#xfd;" horiz-adv-x="1007" d="M-86 -500l10 51h31q76 0 116 32.5t91 135.5q75 155 105 267t30 245q0 225 -32 372t-79 147q-44 0 -108 -99l-45 29q63 109 144.5 174.5t154.5 65.5q76 0 125 -134q26 -77 43.5 -218.5t17.5 -280.5q0 -102 -10 -248q97 195 159 365.5t62 246.5q0 23 -5 35t-28 37 q-18 22 -18 61q0 55 44.5 95.5t104.5 40.5q56 0 92.5 -36t36.5 -91q0 -53 -31 -118.5t-145 -252.5q-133 -220 -185.5 -320.5t-166.5 -359.5q-35 -77 -43 -98.5t-8 -38.5q0 -54 76 -54h34l-10 -51h-563zM539 1053l145 358h256l-240 -358h-161z" />
<glyph unicode="&#xfe;" horiz-adv-x="1052" d="M-195 -500l11 51h16q51 0 95 16t67 44q37 43 63 178l289 1423q6 27 6 45q0 37 -37 37q-25 0 -49 -12l-20 -10l-23 49l346 139q23 8 29 8q11 0 18 -9.5t7 -22.5q0 -14 -9 -60l-168 -823q257 367 361 367q63 0 114.5 -102t51.5 -228q0 -161 -73.5 -302t-205.5 -235 q-113 -78 -245 -78q-41 0 -115 25l-51 -254q-11 -69 -11 -84q0 -35 21.5 -61.5t58.5 -38.5q32 -8 107 -11l-13 -51h-641zM369 166q19 -63 45 -90t69 -27q50 0 97 51.5t77.5 127.5t49 158.5t18.5 148.5q0 165 -70 165q-57 0 -235 -280z" />
<glyph unicode="&#xff;" horiz-adv-x="1007" d="M-86 -500l10 51h31q76 0 116 32.5t91 135.5q75 155 105 267t30 245q0 225 -32 372t-79 147q-44 0 -108 -99l-45 29q63 109 144.5 174.5t154.5 65.5q76 0 125 -134q26 -77 43.5 -218.5t17.5 -280.5q0 -102 -10 -248q97 195 159 365.5t62 246.5q0 23 -5 35t-28 37 q-18 22 -18 61q0 55 44.5 95.5t104.5 40.5q56 0 92.5 -36t36.5 -91q0 -53 -31 -118.5t-145 -252.5q-133 -220 -185.5 -320.5t-166.5 -359.5q-35 -77 -43 -98.5t-8 -38.5q0 -54 76 -54h34l-10 -51h-563zM319 1231q0 52 38.5 89.5t91.5 37.5q52 0 89 -37t37 -90 q0 -54 -36.5 -91.5t-89.5 -37.5q-54 0 -92 37.5t-38 91.5zM750 1231q0 52 38 89.5t91 37.5t90 -37t37 -90q0 -54 -37 -91.5t-90 -37.5q-54 0 -91.5 37.5t-37.5 91.5z" />
<glyph unicode="&#x152;" horiz-adv-x="2279" d="M156 608q0 176 80 334.5t223 267.5q118 90 259 132t326 42q42 0 138 -9t149 -9h944l-69 -336h-109q6 35 6 51q0 92 -63 146q-33 29 -73.5 38t-133.5 9h-293l-108 -539h274q119 0 172.5 31t85.5 119h90l-90 -439h-88q12 58 12 84q0 60 -45.5 86.5t-146.5 26.5h-285 l-70 -344q-12 -70 -12 -100q0 -46 40 -75.5t104 -29.5h126q163 0 287 63t191 181h102l-123 -338h-993q-32 0 -117 -10q-68 -8 -145 -8q-181 0 -309 57t-218 180q-118 161 -118 389zM453 532q0 -129 47 -233t131 -162.5t188 -58.5q58 0 101.5 16t72.5 48t47 73.5t29 99.5 l158 775q4 28 4 36q0 72 -55 117t-144 45q-123 0 -243 -73.5t-195 -194.5q-33 -52 -59.5 -112.5t-44.5 -123t-27.5 -127.5t-9.5 -125z" />
<glyph unicode="&#x153;" horiz-adv-x="1409" d="M80 289q0 240 156 416q87 97 204.5 155t229.5 58q97 0 153 -62q17 -17 43 -68q138 132 310 132q91 0 142.5 -42.5t51.5 -117.5q0 -40 -16.5 -77t-41.5 -65t-66 -55t-79.5 -45.5t-93.5 -38.5t-95 -32.5t-97 -28.5q-13 -63 -13 -105q0 -89 48 -143.5t126 -54.5 q57 0 109.5 22t140.5 82l29 -43q-107 -84 -234.5 -140t-212.5 -56q-71 0 -131 36.5t-86 94.5q-113 -73 -188 -103.5t-141 -30.5q-114 0 -181 84t-67 228zM330 360q0 -129 32.5 -208.5t86.5 -79.5q47 0 95.5 66.5t79.5 169.5t31 202q0 140 -33 227t-87 90q-49 3 -97 -65 t-78 -178t-30 -224zM891 475q270 73 270 279q0 44 -20.5 70t-55.5 26q-56 0 -102 -89.5t-92 -285.5z" />
<glyph unicode="&#x178;" horiz-adv-x="1464" d="M174 1280l19 86h563l-17 -86q-108 -3 -108 -57q0 -18 22 -66l224 -483l378 428q48 53 48 82q0 38 -35.5 63t-100.5 33l19 86h440l-18 -86l-72 -35q-16 -7 -31.5 -19t-56 -53t-107.5 -116l-438 -494l-57 -289q-10 -55 -10 -71q0 -57 35.5 -87t103.5 -30h86l-19 -86h-731 l17 86h32q100 0 144.5 46t70.5 177l52 254l-271 584q-32 78 -69.5 104.5t-112.5 28.5zM563 1649q0 57 41 97t98 40t97.5 -40t40.5 -97t-40.5 -98.5t-97.5 -41.5q-58 0 -98.5 40.5t-40.5 99.5zM1167 1649q0 57 41 97t97 40q57 0 98 -40t41 -97t-40.5 -98.5t-96.5 -41.5 q-59 0 -99.5 40.5t-40.5 99.5z" />
<glyph unicode="&#x2c6;" d="M299 1051l303 360h291l82 -360h-164l-82 170l-272 -170h-158z" />
<glyph unicode="&#x2dc;" d="M285 1075q2 140 65 225.5t164 85.5q31 0 62 -9.5t104 -41.5q116 -49 154 -49q64 0 86 98h141q-8 -124 -47 -194q-29 -54 -77 -85.5t-99 -31.5q-28 0 -61 10t-115 45q-107 43 -146 43q-36 0 -56.5 -23t-29.5 -73h-145z" />
<glyph unicode="&#x2000;" horiz-adv-x="927" />
<glyph unicode="&#x2001;" horiz-adv-x="1855" />
<glyph unicode="&#x2002;" horiz-adv-x="927" />
<glyph unicode="&#x2003;" horiz-adv-x="1855" />
<glyph unicode="&#x2004;" horiz-adv-x="618" />
<glyph unicode="&#x2005;" horiz-adv-x="463" />
<glyph unicode="&#x2006;" horiz-adv-x="309" />
<glyph unicode="&#x2007;" horiz-adv-x="309" />
<glyph unicode="&#x2008;" horiz-adv-x="231" />
<glyph unicode="&#x2009;" horiz-adv-x="371" />
<glyph unicode="&#x200a;" horiz-adv-x="103" />
<glyph unicode="&#x2010;" horiz-adv-x="966" d="M76 354l47 232h801l-47 -232h-801z" />
<glyph unicode="&#x2011;" horiz-adv-x="966" d="M76 354l47 232h801l-47 -232h-801z" />
<glyph unicode="&#x2012;" horiz-adv-x="966" d="M76 354l47 232h801l-47 -232h-801z" />
<glyph unicode="&#x2013;" horiz-adv-x="1087" d="M-31 430l41 199h1139l-41 -199h-1139z" />
<glyph unicode="&#x2014;" horiz-adv-x="2174" d="M-31 430l41 199h2226l-41 -199h-2226z" />
<glyph unicode="&#x2018;" horiz-adv-x="710" d="M303 1030q0 148 119 280t285 169l32 -64q-99 -23 -160 -82.5t-61 -132.5q0 -67 45 -129q28 -40 37.5 -63.5t9.5 -53.5q0 -57 -40.5 -95t-100.5 -38q-72 0 -119 59t-47 150z" />
<glyph unicode="&#x2019;" horiz-adv-x="710" d="M219 881q99 23 160 82.5t61 132.5q0 67 -45 129q-29 39 -38 62t-9 54q0 56 40.5 95t100.5 39q72 0 119 -59t47 -150q0 -148 -118.5 -280t-284.5 -169z" />
<glyph unicode="&#x201a;" horiz-adv-x="710" d="M8 -301q99 23 160 82.5t61 132.5q0 67 -45 129q-28 40 -37.5 63.5t-9.5 53.5q0 57 41 95t101 38q72 0 118.5 -59t46.5 -150q0 -148 -119.5 -281t-283.5 -168z" />
<glyph unicode="&#x201c;" horiz-adv-x="1325" d="M307 1030q0 148 119 280t285 169l32 -64q-99 -23 -160 -82.5t-61 -132.5q0 -67 45 -129q28 -40 37.5 -63.5t9.5 -53.5q0 -57 -40.5 -95t-100.5 -38q-72 0 -119 59t-47 150zM911 1030q0 148 119 280t285 169l33 -64q-100 -23 -162 -82.5t-62 -132.5q0 -67 45 -129 q30 -39 40 -62.5t10 -54.5q0 -57 -41 -95t-101 -38q-72 0 -119 59t-47 150z" />
<glyph unicode="&#x201d;" horiz-adv-x="1325" d="M250 881q99 23 160 82.5t61 132.5q0 67 -45 129q-29 39 -38 62t-9 54q0 56 40.5 95t100.5 39q72 0 119 -59t47 -150q0 -148 -118.5 -280t-284.5 -169zM854 881q100 23 161.5 82.5t61.5 132.5q0 67 -45 129q-30 40 -39.5 63t-9.5 53q0 56 40.5 95t100.5 39q72 0 119 -59 t47 -150q0 -148 -118.5 -280t-284.5 -169z" />
<glyph unicode="&#x201e;" horiz-adv-x="1325" d="M6 -301q99 23 160 82.5t61 132.5q0 67 -45 129q-28 40 -37.5 63.5t-9.5 53.5q0 57 40.5 95t100.5 38q72 0 119 -59t47 -150q0 -148 -119.5 -281t-283.5 -168zM610 -301q100 23 162 82.5t62 132.5q0 65 -46 129q-30 39 -39.5 62.5t-9.5 56.5q0 54 41.5 92.5t100.5 38.5 q72 0 119 -59t47 -150q0 -148 -119.5 -281t-284.5 -168z" />
<glyph unicode="&#x2022;" horiz-adv-x="1366" d="M451 692q0 120 83.5 202.5t204.5 82.5q114 0 196.5 -83.5t82.5 -199.5q0 -118 -83 -201t-200 -83t-200.5 82.5t-83.5 199.5z" />
<glyph unicode="&#x2026;" horiz-adv-x="2129" d="M145 121q0 69 47.5 119.5t112.5 50.5q60 0 96.5 -38t36.5 -101q0 -74 -44.5 -124.5t-110.5 -50.5q-60 0 -99 40.5t-39 103.5zM856 121q0 69 47.5 119.5t112.5 50.5q60 0 96.5 -38t36.5 -101q0 -74 -45 -124.5t-111 -50.5q-60 0 -98.5 40.5t-38.5 103.5zM1565 121 q0 69 47 119.5t112 50.5q60 0 97 -38t37 -101q0 -74 -45 -124.5t-111 -50.5q-60 0 -98.5 40.5t-38.5 103.5z" />
<glyph unicode="&#x202f;" horiz-adv-x="371" />
<glyph unicode="&#x2039;" horiz-adv-x="491" d="M41 492l410 399h77l-241 -399l28 -396h-69z" />
<glyph unicode="&#x203a;" horiz-adv-x="491" d="M-41 96l234 398l-31 399h67l211 -399l-399 -398h-82z" />
<glyph unicode="&#x205f;" horiz-adv-x="463" />
<glyph unicode="&#x20ac;" horiz-adv-x="1673" d="M94 569l51 84h103l8 54h-135l51 84h104q35 119 107 231q118 177 333.5 276t481.5 99t471 -86l-82 -348h-90q2 10 2 26q0 135 -99 224.5t-249 89.5q-204 0 -361 -141t-208 -371h678l-52 -84h-643q-2 -10 -3 -19t-1.5 -19t-1.5 -16h619l-54 -84h-571q-2 -18 -2 -43 q0 -213 101.5 -334.5t279.5 -121.5q143 0 271 72.5t222 207.5h88l-110 -350h-47q-32 29 -76 29q-39 0 -170 -31q-134 -29 -231 -29q-173 0 -318 79t-229.5 216.5t-87.5 304.5h-150z" />
<glyph unicode="&#x2122;" horiz-adv-x="2084" d="M186 1178l47 233h50q6 -32 17 -38.5t67 -6.5h561q43 0 59 8.5t27 36.5h57l-47 -233h-66q-5 66 -35.5 94t-97.5 28h-102l-113 -552q-6 -30 -6 -37q0 -62 78 -62h39l-12 -61h-433l13 61h33q55 0 78.5 24t37.5 95l109 532h-90q-78 0 -126.5 -28t-80.5 -94h-64zM969 588 l14 61q57 7 82.5 36.5t48.5 113.5l115 415q4 20 4 31q0 30 -27 44.5t-86 15.5l13 61h317l98 -553l373 553h291l-12 -61q-70 -3 -97.5 -23.5t-38.5 -77.5l-90 -442q-8 -38 -8 -55q0 -58 105 -58h16l-12 -61h-416l12 61q63 0 89 23.5t40 91.5l88 436l-409 -612h-64l-112 635 l-123 -437q-9 -38 -9 -49q0 -38 26 -63t67 -25h16l-14 -61h-297z" />
<glyph unicode="&#xe000;" horiz-adv-x="921" d="M0 0v922h922v-922h-922z" />
</font>
</defs>
</svg>
